<svg width="102" height="86" viewBox="0 0 102 86" fill="none" xmlns="http://www.w3.org/2000/svg">
<path d="M25 40.6L27.4 43L31.4 39" stroke="#4D4D4D" stroke-width="2"/>
<rect x="35.5" y="41.3379" width="20" height="1" fill="#4D4D4D" stroke="#4D4D4D"/>
<path d="M38.5496 74.5H16V8H53.7433M53.7433 8L65.7252 21M53.7433 8V21H65.7252M65.7252 21V56.7523" stroke="#4D4D4D" stroke-width="2"/>
<path d="M29 7.5V1H66.7433M66.7433 1L78.7252 14M66.7433 1V14H78.7252M78.7252 14V59.7523" stroke="#4D4D4D" stroke-width="2"/>
<path d="M1 14H39V26.5L51 27V81H1V14Z" fill="#FADB1E"/>
<mask id="path-6-inside-1" fill="white">
<path fill-rule="evenodd" clip-rule="evenodd" d="M46.193 76.114H29V82.1316C29 82.1316 29 82.1316 29 82.1316C29 84.268 32.8488 86 37.5965 86C42.3442 86 46.193 84.268 46.193 82.1316V76.114Z"/>
</mask>
<path fill-rule="evenodd" clip-rule="evenodd" d="M46.193 76.114H29V82.1316C29 82.1316 29 82.1316 29 82.1316C29 84.268 32.8488 86 37.5965 86C42.3442 86 46.193 84.268 46.193 82.1316V76.114Z" fill="white"/>
<path d="M29 76.114V74.114H27V76.114H29ZM46.193 76.114H48.193V74.114H46.193V76.114ZM29 78.114H46.193V74.114H29V78.114ZM31 82.1316V76.114H27V82.1316H31ZM31 82.1316C31 82.1316 31 82.1316 31 82.1316C31 82.1316 31 82.1316 31 82.1316C31 82.1316 31 82.1316 31 82.1316C31 82.1316 31 82.1316 31 82.1316C31 82.1316 31 82.1316 31 82.1316C31 82.1316 31 82.1316 31 82.1316V82.1316V82.1316V82.1316V82.1316C31 82.1316 31 82.1316 31 82.1316C31 82.1316 31 82.1316 31 82.1316C31 82.1316 31 82.1316 31 82.1316C31 82.1316 31 82.1316 31 82.1316C31 82.1316 31 82.1316 31 82.1316C31 82.1316 31 82.1316 31 82.1316H27C27 82.1316 27 82.1316 27 82.1316C27 82.1316 27 82.1316 27 82.1316C27 82.1316 27 82.1316 27 82.1316C27 82.1316 27 82.1316 27 82.1316C27 82.1316 27 82.1316 27 82.1316C27 82.1316 27 82.1316 27 82.1316V82.1316V82.1316V82.1316V82.1316C27 82.1316 27 82.1316 27 82.1316C27 82.1316 27 82.1316 27 82.1316C27 82.1316 27 82.1316 27 82.1316C27 82.1316 27 82.1316 27 82.1316C27 82.1316 27 82.1316 27 82.1316C27 82.1316 27 82.1316 27 82.1316H31ZM37.5965 84C35.4385 84 33.5813 83.6023 32.3386 83.0431C30.9081 82.3994 31 81.9226 31 82.1316H27C27 84.477 29.0163 85.9344 30.6971 86.6908C32.5657 87.5317 35.0068 88 37.5965 88V84ZM44.193 82.1316C44.193 81.9226 44.2849 82.3994 42.8544 83.0431C41.6117 83.6023 39.7545 84 37.5965 84V88C40.1862 88 42.6273 87.5317 44.4959 86.6908C46.1767 85.9344 48.193 84.477 48.193 82.1316H44.193ZM44.193 76.114V82.1316H48.193V76.114H44.193Z" fill="#4D4D4D" mask="url(#path-6-inside-1)"/>
<path d="M45.193 76.114C45.193 76.5436 44.7578 77.2656 43.2648 77.9375C41.8656 78.5671 39.8624 78.9824 37.5965 78.9824C35.3306 78.9824 33.3274 78.5671 31.9282 77.9375C30.4352 77.2656 30 76.5436 30 76.114C30 75.6844 30.4352 74.9624 31.9282 74.2906C33.3274 73.6609 35.3306 73.2456 37.5965 73.2456C39.8624 73.2456 41.8656 73.6609 43.2648 74.2906C44.7578 74.9624 45.193 75.6844 45.193 76.114Z" fill="white" stroke="#4D4D4D" stroke-width="2"/>
<mask id="path-9-inside-2" fill="white">
<path fill-rule="evenodd" clip-rule="evenodd" d="M62.5272 76.114H45.3343V82.0798C45.3337 82.097 45.3335 82.1143 45.3335 82.1316C45.3335 84.268 49.1823 86 53.93 86C58.6777 86 62.5265 84.268 62.5265 82.1316L62.5272 82.1316V76.114Z"/>
</mask>
<path fill-rule="evenodd" clip-rule="evenodd" d="M62.5272 76.114H45.3343V82.0798C45.3337 82.097 45.3335 82.1143 45.3335 82.1316C45.3335 84.268 49.1823 86 53.93 86C58.6777 86 62.5265 84.268 62.5265 82.1316L62.5272 82.1316V76.114Z" fill="white"/>
<path d="M45.3343 76.114V74.114H43.3343V76.114H45.3343ZM62.5272 76.114H64.5272V74.114H62.5272V76.114ZM45.3343 82.0798L47.3334 82.1381L47.3343 82.1089V82.0798H45.3343ZM62.5265 82.1316L62.5063 80.1317L60.5265 80.1517V82.1316H62.5265ZM62.5272 82.1316L62.5474 84.1315L64.5272 84.1115V82.1316H62.5272ZM45.3343 78.114H62.5272V74.114H45.3343V78.114ZM47.3343 82.0798V76.114H43.3343V82.0798H47.3343ZM47.3335 82.1316C47.3335 82.1337 47.3335 82.1359 47.3334 82.1381L43.3351 82.0215C43.334 82.0581 43.3335 82.0948 43.3335 82.1316H47.3335ZM53.93 84C51.772 84 49.9148 83.6023 48.6721 83.0431C47.2416 82.3994 47.3335 81.9226 47.3335 82.1316H43.3335C43.3335 84.477 45.3498 85.9344 47.0306 86.6908C48.8992 87.5317 51.3403 88 53.93 88V84ZM60.5265 82.1316C60.5265 81.9226 60.6184 82.3994 59.1879 83.0431C57.9452 83.6023 56.088 84 53.93 84V88C56.5197 88 58.9608 87.5317 60.8294 86.6908C62.5102 85.9344 64.5265 84.477 64.5265 82.1316H60.5265ZM62.507 80.1317L62.5063 80.1317L62.5467 84.1315L62.5474 84.1315L62.507 80.1317ZM60.5272 76.114V82.1316H64.5272V76.114H60.5272Z" fill="#4D4D4D" mask="url(#path-9-inside-2)"/>
<mask id="path-11-inside-3" fill="white">
<path fill-rule="evenodd" clip-rule="evenodd" d="M62.5272 70.0965H45.3343V76.0622C45.3337 76.0795 45.3335 76.0967 45.3335 76.114C45.3335 78.2505 49.1823 79.9824 53.93 79.9824C58.6777 79.9824 62.5265 78.2505 62.5265 76.114H62.5272V70.0965Z"/>
</mask>
<path fill-rule="evenodd" clip-rule="evenodd" d="M62.5272 70.0965H45.3343V76.0622C45.3337 76.0795 45.3335 76.0967 45.3335 76.114C45.3335 78.2505 49.1823 79.9824 53.93 79.9824C58.6777 79.9824 62.5265 78.2505 62.5265 76.114H62.5272V70.0965Z" fill="white"/>
<path d="M45.3343 70.0965V68.0965H43.3343V70.0965H45.3343ZM62.5272 70.0965H64.5272V68.0965H62.5272V70.0965ZM45.3343 76.0622L47.3334 76.1205L47.3343 76.0914V76.0622H45.3343ZM62.5265 76.114V74.114H60.5265V76.114H62.5265ZM62.5272 76.114V78.114H64.5272V76.114H62.5272ZM45.3343 72.0965H62.5272V68.0965H45.3343V72.0965ZM47.3343 76.0622V70.0965H43.3343V76.0622H47.3343ZM47.3335 76.114C47.3335 76.1162 47.3335 76.1183 47.3334 76.1205L43.3351 76.0039C43.334 76.0406 43.3335 76.0773 43.3335 76.114H47.3335ZM53.93 77.9824C51.772 77.9824 49.9148 77.5848 48.6721 77.0256C47.2416 76.3818 47.3335 75.905 47.3335 76.114H43.3335C43.3335 78.4595 45.3498 79.9169 47.0306 80.6732C48.8992 81.5141 51.3403 81.9824 53.93 81.9824V77.9824ZM60.5265 76.114C60.5265 75.905 60.6184 76.3818 59.1879 77.0256C57.9452 77.5848 56.088 77.9824 53.93 77.9824V81.9824C56.5197 81.9824 58.9608 81.5141 60.8294 80.6732C62.5102 79.9169 64.5265 78.4595 64.5265 76.114H60.5265ZM62.5272 74.114H62.5265V78.114H62.5272V74.114ZM60.5272 70.0965V76.114H64.5272V70.0965H60.5272Z" fill="#4D4D4D" mask="url(#path-11-inside-3)"/>
<path d="M61.5265 70.0965C61.5265 70.5261 61.0913 71.2481 59.5983 71.9199C58.1991 72.5496 56.1959 72.9649 53.93 72.9649C51.6641 72.9649 49.6609 72.5496 48.2617 71.9199C46.7687 71.2481 46.3335 70.5261 46.3335 70.0965C46.3335 69.6668 46.7687 68.9449 48.2617 68.273C49.6609 67.6434 51.6641 67.228 53.93 67.228C56.1959 67.228 58.1991 67.6434 59.5983 68.273C61.0913 68.9449 61.5265 69.6668 61.5265 70.0965Z" fill="white" stroke="#4D4D4D" stroke-width="2"/>
<mask id="path-14-inside-4" fill="white">
<path fill-rule="evenodd" clip-rule="evenodd" d="M78.0008 76.114H60.8078V82.1069C60.8077 82.1151 60.8076 82.1234 60.8076 82.1316C60.8076 84.268 64.6564 86 69.4041 86C74.1518 86 78.0006 84.268 78.0006 82.1316L78.0008 82.1316V76.114Z"/>
</mask>
<path fill-rule="evenodd" clip-rule="evenodd" d="M78.0008 76.114H60.8078V82.1069C60.8077 82.1151 60.8076 82.1234 60.8076 82.1316C60.8076 84.268 64.6564 86 69.4041 86C74.1518 86 78.0006 84.268 78.0006 82.1316L78.0008 82.1316V76.114Z" fill="white"/>
<path d="M60.8078 76.114V74.114H58.8078V76.114H60.8078ZM78.0008 76.114H80.0008V74.114H78.0008V76.114ZM60.8078 82.1069L62.8076 82.1346L62.8078 82.1208V82.1069H60.8078ZM78.0006 82.1316L77.9108 80.1336L76.0006 80.2194V82.1316H78.0006ZM78.0008 82.1316L78.0906 84.1295L80.0008 84.0437V82.1316H78.0008ZM60.8078 78.114H78.0008V74.114H60.8078V78.114ZM62.8078 82.1069V76.114H58.8078V82.1069H62.8078ZM62.8076 82.1316C62.8076 82.1326 62.8076 82.1336 62.8076 82.1346L58.808 82.0792C58.8077 82.0967 58.8076 82.1141 58.8076 82.1316H62.8076ZM69.4041 84C67.2461 84 65.3889 83.6023 64.1462 83.0431C62.7157 82.3994 62.8076 81.9226 62.8076 82.1316H58.8076C58.8076 84.477 60.8239 85.9344 62.5047 86.6908C64.3733 87.5317 66.8144 88 69.4041 88V84ZM76.0006 82.1316C76.0006 81.9226 76.0925 82.3994 74.662 83.0431C73.4193 83.6023 71.5621 84 69.4041 84V88C71.9938 88 74.4349 87.5317 76.3035 86.6908C77.9843 85.9344 80.0006 84.477 80.0006 82.1316H76.0006ZM77.911 80.1336L77.9108 80.1336L78.0904 84.1295L78.0906 84.1295L77.911 80.1336ZM76.0008 76.114V82.1316H80.0008V76.114H76.0008Z" fill="#4D4D4D" mask="url(#path-14-inside-4)"/>
<mask id="path-16-inside-5" fill="white">
<path fill-rule="evenodd" clip-rule="evenodd" d="M78.0008 70.0965H60.8078V76.0894C60.8077 76.0976 60.8076 76.1058 60.8076 76.114C60.8076 78.2505 64.6564 79.9824 69.4041 79.9824C74.1518 79.9824 78.0006 78.2505 78.0006 76.114H78.0008V70.0965Z"/>
</mask>
<path fill-rule="evenodd" clip-rule="evenodd" d="M78.0008 70.0965H60.8078V76.0894C60.8077 76.0976 60.8076 76.1058 60.8076 76.114C60.8076 78.2505 64.6564 79.9824 69.4041 79.9824C74.1518 79.9824 78.0006 78.2505 78.0006 76.114H78.0008V70.0965Z" fill="white"/>
<path d="M60.8078 70.0965V68.0965H58.8078V70.0965H60.8078ZM78.0008 70.0965H80.0008V68.0965H78.0008V70.0965ZM60.8078 76.0894L62.8076 76.1171L62.8078 76.1033V76.0894H60.8078ZM78.0006 76.114V74.114H76.0006V76.114H78.0006ZM78.0008 76.114V78.114H80.0008V76.114H78.0008ZM60.8078 72.0965H78.0008V68.0965H60.8078V72.0965ZM62.8078 76.0894V70.0965H58.8078V76.0894H62.8078ZM62.8076 76.114C62.8076 76.115 62.8076 76.1161 62.8076 76.1171L58.808 76.0617C58.8077 76.0791 58.8076 76.0966 58.8076 76.114H62.8076ZM69.4041 77.9824C67.2461 77.9824 65.3889 77.5848 64.1462 77.0256C62.7157 76.3819 62.8076 75.905 62.8076 76.114H58.8076C58.8076 78.4595 60.8239 79.9169 62.5047 80.6733C64.3733 81.5141 66.8144 81.9824 69.4041 81.9824V77.9824ZM76.0006 76.114C76.0006 75.905 76.0925 76.3819 74.662 77.0256C73.4193 77.5848 71.5621 77.9824 69.4041 77.9824V81.9824C71.9938 81.9824 74.4349 81.5141 76.3035 80.6733C77.9843 79.9169 80.0006 78.4595 80.0006 76.114H76.0006ZM78.0008 74.114H78.0006V78.114H78.0008V74.114ZM76.0008 70.0965V76.114H80.0008V70.0965H76.0008Z" fill="#4D4D4D" mask="url(#path-16-inside-5)"/>
<mask id="path-18-inside-6" fill="white">
<path fill-rule="evenodd" clip-rule="evenodd" d="M78.0008 64.0789H60.8078V70.0718C60.8077 70.08 60.8076 70.0883 60.8076 70.0965C60.8076 72.2329 64.6564 73.9649 69.4041 73.9649C74.1518 73.9649 78.0006 72.2329 78.0006 70.0965L78.0008 70.0965V64.0789Z"/>
</mask>
<path fill-rule="evenodd" clip-rule="evenodd" d="M78.0008 64.0789H60.8078V70.0718C60.8077 70.08 60.8076 70.0883 60.8076 70.0965C60.8076 72.2329 64.6564 73.9649 69.4041 73.9649C74.1518 73.9649 78.0006 72.2329 78.0006 70.0965L78.0008 70.0965V64.0789Z" fill="white"/>
<path d="M60.8078 64.0789V62.0789H58.8078V64.0789H60.8078ZM78.0008 64.0789H80.0008V62.0789H78.0008V64.0789ZM60.8078 70.0718L62.8076 70.0995L62.8078 70.0857V70.0718H60.8078ZM78.0006 70.0965L78.1463 68.1018L76.0006 67.9451V70.0965H78.0006ZM78.0008 70.0965L77.8551 72.0912L80.0008 72.2479V70.0965H78.0008ZM60.8078 66.0789H78.0008V62.0789H60.8078V66.0789ZM62.8078 70.0718V64.0789H58.8078V70.0718H62.8078ZM62.8076 70.0965C62.8076 70.0975 62.8076 70.0985 62.8076 70.0995L58.808 70.0441C58.8077 70.0616 58.8076 70.079 58.8076 70.0965H62.8076ZM69.4041 71.9649C67.2461 71.9649 65.3889 71.5672 64.1462 71.008C62.7157 70.3643 62.8076 69.8875 62.8076 70.0965H58.8076C58.8076 72.4419 60.8239 73.8993 62.5047 74.6557C64.3733 75.4966 66.8144 75.9649 69.4041 75.9649V71.9649ZM76.0006 70.0965C76.0006 69.8875 76.0925 70.3643 74.662 71.008C73.4193 71.5672 71.5621 71.9649 69.4041 71.9649V75.9649C71.9938 75.9649 74.4349 75.4966 76.3035 74.6557C77.9843 73.8993 80.0006 72.4419 80.0006 70.0965H76.0006ZM78.1465 68.1018L78.1463 68.1018L77.8549 72.0912L77.8551 72.0912L78.1465 68.1018ZM76.0008 64.0789V70.0965H80.0008V64.0789H76.0008Z" fill="#4D4D4D" mask="url(#path-18-inside-6)"/>
<path d="M77.0001 64.0789C77.0001 64.5085 76.565 65.2305 75.0719 65.9024C73.6727 66.532 71.6696 66.9474 69.4036 66.9474C67.1377 66.9474 65.1345 66.532 63.7353 65.9024C62.2423 65.2305 61.8071 64.5085 61.8071 64.0789C61.8071 63.6493 62.2423 62.9273 63.7353 62.2555C65.1345 61.6258 67.1377 61.2105 69.4036 61.2105C71.6696 61.2105 73.6727 61.6258 75.0719 62.2555C76.565 62.9273 77.0001 63.6493 77.0001 64.0789Z" fill="white" stroke="#4D4D4D" stroke-width="2"/>
<path d="M10 38.3794L12.4 40.7794L16.4 36.7794" stroke="#4D4D4D" stroke-width="2"/>
<rect x="20.5" y="39.5" width="20" height="1" fill="#4D4D4D" stroke="#4D4D4D"/>
<rect x="10.5" y="22.5" width="22" height="1" fill="#4D4D4D" stroke="#4D4D4D"/>
<rect x="10.5" y="26.5" width="22" height="1" fill="#4D4D4D" stroke="#4D4D4D"/>
<rect x="10.5" y="69.5" width="22" height="1" fill="#4D4D4D" stroke="#4D4D4D"/>
<path d="M10 46.6L12.4 49L16.4 45" stroke="#4D4D4D" stroke-width="2"/>
<rect x="20.5" y="47.3379" width="20" height="1" fill="#4D4D4D" stroke="#4D4D4D"/>
<path d="M10 54.6L12.4 57L16.4 53" stroke="#4D4D4D" stroke-width="2"/>
<rect x="20.5" y="54.955" width="20" height="1" fill="#4D4D4D" stroke="#4D4D4D"/>
<path d="M23.5496 80.5H1V14H38.7433M38.7433 14L50.7252 27M38.7433 14V27H50.7252M50.7252 27V45.7523" stroke="#4D4D4D" stroke-width="2"/>
<path d="M85.2438 59.7497V84.8565H94.9563V59.7497H101.2L90.1 49.3435L79 59.7497H85.2438Z" fill="white"/>
</svg>
