<svg width="119" height="92" viewBox="0 0 119 92" fill="none" xmlns="http://www.w3.org/2000/svg">
<path fill-rule="evenodd" clip-rule="evenodd" d="M109.444 59.501C115.241 56.8741 122.657 68.3569 104.448 72.2424C93.7329 57.0157 106.978 53.6337 109.444 59.501Z" fill="white"/>
<path fill-rule="evenodd" clip-rule="evenodd" d="M4.82808 44.3336C6.68884 40.0532 16.3706 42.6507 8.37817 53.7211C-4.93937 50.7103 0.600598 42.3556 4.82808 44.3336Z" fill="white"/>
<path fill-rule="evenodd" clip-rule="evenodd" d="M112.401 38.2834C114.69 34.7112 123.003 38.444 114.228 47.2226C102.711 42.5923 108.893 35.8962 112.401 38.2834Z" fill="white"/>
<path d="M19 30.3571C19 28.7003 20.3431 27.3571 22 27.3571H95C96.6569 27.3571 98 28.7003 98 30.3571V82.3571H19V30.3571Z" fill="#FADB1E"/>
<path d="M32.5 42.6429H41.5M45 64.6429H46C47.1046 64.6429 48 63.7475 48 62.6429V44.6429C48 43.5384 47.1046 42.6429 46 42.6429H41.5M41.5 42.6429V66.1429C41.5 67.2475 40.6046 68.1429 39.5 68.1429H32.5" stroke="#4D4D4D" stroke-width="2"/>
<path d="M51.5 45.6429H52.5C54 39.6429 59.5 32.1429 59.5 32.1429V22.6429C64.1588 22.7966 65.5662 24.0302 66.5 27.1429C68 32.1429 66.602 36.0589 64.5 39.6429L82.5 39.6429C86.5 40.1429 87 46.2444 83.5 46.6429C83.1538 46.6824 82.6878 46.6945 82.2263 46.6935C82.9849 46.755 83.8492 46.8826 84.5 47.1429C87 48.1429 86.5 52.3929 83.5 53.1429C81.9727 53.5248 80 53.6429 80 53.6429C80 53.6429 82.6541 53.7432 83.5 54.6429C84.8442 56.0726 84.4134 58.2816 83 59.6429C81.9761 60.6291 79.5 60.6429 79.5 60.6429H81.5C85 62.6429 82 67.1429 79.5 67.1429H60C56.5 67.1429 54 64.6429 52 63.6429L51.5 63.6429V45.6429Z" fill="white"/>
<path d="M51.5 45.6429H52.5C54 39.6429 59.5 32.1429 59.5 32.1429V22.6429C64.1588 22.7965 65.5662 24.0301 66.5 27.1429C68 32.1429 66.602 36.0588 64.5 39.6429L82.5 39.6429C86.5 40.1429 87 46.2443 83.5 46.6429C82.5 46.7568 80.5 46.6429 80.5 46.6429C80.5 46.6429 83.0383 46.5582 84.5 47.1429C87 48.1429 86.5 52.3929 83.5 53.1429C81.9727 53.5247 80 53.6429 80 53.6429C80 53.6429 82.6541 53.7432 83.5 54.6429C84.8442 56.0726 84.4134 58.2816 83 59.6429C81.9761 60.629 79.5 60.6429 79.5 60.6429H81.5C85 62.6429 82 67.1429 79.5 67.1429H60C56.5 67.1429 54 64.6429 52 63.6429L51.5 63.6429" stroke="#4D4D4D" stroke-width="2" stroke-linecap="round" stroke-linejoin="round"/>
<path d="M47.7597 80.2858H16C16 84.7858 20 88.7858 24 89.2858H92C96.5 89.2858 102 84.2858 102 80.2858H69.2831C69.1075 80.2858 68.9447 80.378 68.8543 80.5286L67.6457 82.5431C67.5553 82.6937 67.3925 82.7858 67.2169 82.7858H50.2403C50.0884 82.7858 49.9448 82.7168 49.8499 82.5982L48.1501 80.4735C48.0552 80.3549 47.9116 80.2858 47.7597 80.2858Z" fill="#F0F5F7"/>
<path d="M19.5 77.7858V31.2858C19.5 29.0767 21.2909 27.2858 23.5 27.2858H52.5M71.5 27.2858H93.5C95.7091 27.2858 97.5 29.0767 97.5 31.2858V77.7858M16 80.2858H47.7597C47.9116 80.2858 48.0552 80.3549 48.1501 80.4735L49.8499 82.5982C49.9448 82.7168 50.0884 82.7858 50.2403 82.7858H67.2169C67.3925 82.7858 67.5553 82.6937 67.6457 82.5431L68.8543 80.5286C68.9447 80.378 69.1075 80.2858 69.2831 80.2858H102C102 84.2858 96.5 89.2858 92 89.2858H24C20 88.7858 16 84.7858 16 80.2858Z" stroke="#4D4D4D" stroke-width="2"/>
<path d="M6 9.35712H35C36.1046 9.35712 37 10.2525 37 11.3571V28.0093C37 29.1139 36.1046 30.0093 35 30.0093H29.2766V38.3571L22.2553 30.0093H6C4.89543 30.0093 4 29.1139 4 28.0093V11.3571C4 10.2525 4.89543 9.35712 6 9.35712Z" fill="#F0F5F7"/>
<path d="M22.2553 30.0093L23.0206 29.3656L22.7209 29.0093H22.2553V30.0093ZM29.2766 38.3571L28.5113 39.0008C28.7818 39.3224 29.2244 39.4406 29.6192 39.2966C30.0139 39.1527 30.2766 38.7773 30.2766 38.3571H29.2766ZM29.2766 30.0093V29.0093H28.2766V30.0093H29.2766ZM35 8.35712H6V10.3571H35V8.35712ZM3 11.3571V28.0093H5V11.3571H3ZM6 31.0093H22.2553V29.0093H6V31.0093ZM21.49 30.653L28.5113 39.0008L30.0419 37.7134L23.0206 29.3656L21.49 30.653ZM30.2766 38.3571V30.0093H28.2766V38.3571H30.2766ZM29.2766 31.0093H35V29.0093H29.2766V31.0093ZM38 28.0093V11.3571H36V28.0093H38ZM3 28.0093C3 29.6661 4.34314 31.0093 6 31.0093V29.0093C5.44772 29.0093 5 28.5616 5 28.0093H3ZM35 31.0093C36.6569 31.0093 38 29.6661 38 28.0093H36C36 28.5616 35.5523 29.0093 35 29.0093V31.0093ZM6 8.35712C4.34315 8.35712 3 9.70026 3 11.3571H5C5 10.8048 5.44772 10.3571 6 10.3571V8.35712ZM35 10.3571C35.5523 10.3571 36 10.8048 36 11.3571H38C38 9.70026 36.6569 8.35712 35 8.35712V10.3571Z" fill="#4D4D4D"/>
<circle cx="13" cy="19.7858" r="2" fill="#4D4D4D"/>
<circle cx="20" cy="19.7858" r="2" fill="#4D4D4D"/>
<circle cx="27" cy="19.7858" r="2" fill="#4D4D4D"/>
<path d="M116 1.35712L76 1.35712C74.8954 1.35712 74 2.25255 74 3.35712V20.0093C74 21.1139 74.8954 22.0093 76 22.0093H81.7234V30.3571L88.7447 22.0093L116 22.0093C117.105 22.0093 118 21.1139 118 20.0093V3.35712C118 2.25255 117.105 1.35712 116 1.35712Z" fill="#F0F5F7"/>
<path d="M88.7447 22.0093L87.9794 21.3656L88.2791 21.0093H88.7447V22.0093ZM81.7234 30.3571L82.4887 31.0008C82.2182 31.3224 81.7756 31.4406 81.3808 31.2966C80.9861 31.1527 80.7234 30.7773 80.7234 30.3571H81.7234ZM81.7234 22.0093V21.0093H82.7234V22.0093H81.7234ZM76 0.357117L116 0.357117V2.35712L76 2.35712V0.357117ZM119 3.35712V20.0093H117V3.35712H119ZM116 23.0093L88.7447 23.0093V21.0093L116 21.0093V23.0093ZM89.51 22.653L82.4887 31.0008L80.9581 29.7134L87.9794 21.3656L89.51 22.653ZM80.7234 30.3571V22.0093H82.7234V30.3571H80.7234ZM81.7234 23.0093H76V21.0093H81.7234V23.0093ZM73 20.0093V3.35712H75V20.0093L73 20.0093ZM119 20.0093C119 21.6661 117.657 23.0093 116 23.0093V21.0093C116.552 21.0093 117 20.5616 117 20.0093H119ZM76 23.0093C74.3431 23.0093 73 21.6661 73 20.0093L75 20.0093C75 20.5616 75.4477 21.0093 76 21.0093V23.0093ZM116 0.357117C117.657 0.357117 119 1.70026 119 3.35712H117C117 2.80483 116.552 2.35712 116 2.35712V0.357117ZM76 2.35712C75.4477 2.35712 75 2.80483 75 3.35712H73C73 1.70026 74.3431 0.357117 76 0.357117V2.35712Z" fill="#4D4D4D"/>
<path d="M82 9.35712H110" stroke="#4D4D4D" stroke-width="2"/>
<path d="M82 14.3571H101" stroke="#4D4D4D" stroke-width="2"/>
</svg>
