<svg width="76" height="117" viewBox="0 0 76 117" fill="none" xmlns="http://www.w3.org/2000/svg">
<path d="M15.4834 76.2323C14.8713 73.3885 15.3193 70.7991 16.8272 68.4641C18.412 66.1125 20.5878 64.639 23.3547 64.0435C26.1216 63.448 28.6726 63.9042 31.0076 65.4121C33.3426 66.92 34.8161 69.0958 35.4282 71.9396C36.0237 74.7065 35.5758 77.2959 34.0844 79.7077C32.5765 82.0428 30.4391 83.508 27.6722 84.1035C24.9053 84.6991 22.3159 84.2511 19.904 82.7598C17.5525 81.175 16.0789 78.9992 15.4834 76.2323ZM27.8433 54.6334L15.2769 57.3381L0.115287 4.26791L19.9448 5.01347e-05L27.8433 54.6334Z" fill="#FADB1E"/>
<path d="M51.7653 106.377C52.1019 104.221 53.1122 102.529 54.7961 101.3C56.5382 100.08 58.4579 99.6341 60.5552 99.9617C62.6525 100.289 64.3156 101.295 65.5446 102.979C66.7736 104.663 67.2198 106.582 66.8831 108.738C66.5556 110.835 65.5453 112.528 63.8523 113.815C62.1684 115.044 60.2778 115.494 58.1806 115.167C56.0833 114.839 54.391 113.829 53.1038 112.136C51.8839 110.394 51.4377 108.474 51.7653 106.377ZM66.2294 94.5816L56.7043 93.094L60.3686 51.8614L75.3991 54.2088L66.2294 94.5816Z" fill="#19B9DE"/>
</svg>
