<svg width="34" height="58" viewBox="0 0 34 58" fill="none" xmlns="http://www.w3.org/2000/svg">
<path d="M9.85306 33.517C9.64545 32.5524 9.79739 31.6741 10.3089 30.8821C10.8464 30.0845 11.5844 29.5847 12.5229 29.3827C13.4614 29.1807 14.3267 29.3354 15.1187 29.8469C15.9107 30.3584 16.4105 31.0964 16.6181 32.061C16.8201 32.9995 16.6682 33.8778 16.1623 34.6959C15.6509 35.4879 14.9259 35.9849 13.9874 36.1869C13.0489 36.3889 12.1706 36.2369 11.3525 35.7311C10.5549 35.1935 10.0551 34.4555 9.85306 33.517ZM14.0454 26.1909L9.78303 27.1083L4.64033 9.10736L11.3663 7.65974L14.0454 26.1909Z" fill="#FADB1E"/>
<path d="M22.1594 43.7418C22.2736 43.0107 22.6163 42.4367 23.1875 42.0198C23.7784 41.606 24.4295 41.4547 25.1409 41.5658C25.8523 41.6769 26.4164 42.018 26.8333 42.5892C27.2501 43.1603 27.4015 43.8115 27.2873 44.5426C27.1762 45.254 26.8335 45.828 26.2593 46.2646C25.6881 46.6815 25.0468 46.8344 24.3355 46.7233C23.6241 46.6122 23.0501 46.2695 22.6135 45.6952C22.1997 45.1043 22.0483 44.4532 22.1594 43.7418ZM27.0655 39.7409L23.8347 39.2363L25.0776 25.2506L30.1758 26.0468L27.0655 39.7409Z" fill="#19B9DE"/>
</svg>
