<svg width="35" height="35" viewBox="0 0 35 35" fill="none" xmlns="http://www.w3.org/2000/svg">
<rect x="8.58264" y="11.2109" width="17.8348" height="3.56696" rx="0.904762" stroke="#F0F5F7" stroke-linecap="round" stroke-linejoin="round"/>
<path d="M25.5256 14.7812V24.4418C25.5256 25.5088 24.6273 26.3739 23.5191 26.3739H11.4807C10.3725 26.3739 9.47424 25.5088 9.47424 24.4418V14.7812" stroke="#F0F5F7" stroke-linecap="round" stroke-linejoin="round"/>
<path fill-rule="evenodd" clip-rule="evenodd" d="M15.7165 7.64453V7.64453C16.7015 7.64453 17.4999 8.44302 17.4999 9.42801V11.2115H15.7165C14.7315 11.2115 13.933 10.413 13.933 9.42801V9.42801C13.933 8.44302 14.7315 7.64453 15.7165 7.64453Z" stroke="#F0F5F7" stroke-linecap="round" stroke-linejoin="round"/>
<path fill-rule="evenodd" clip-rule="evenodd" d="M19.2835 7.64453V7.64453C20.2685 7.64453 21.067 8.44302 21.067 9.42801V9.42801C21.067 10.413 20.2685 11.2115 19.2835 11.2115H17.5V9.42801C17.5 8.44302 18.2985 7.64453 19.2835 7.64453Z" stroke="#F0F5F7" stroke-linecap="round" stroke-linejoin="round"/>
<path fill-rule="evenodd" clip-rule="evenodd" d="M17.2982 18.0108L17.4999 18.2064L17.7017 18.0108C18.0696 17.654 18.5722 17.4531 19.0966 17.4531C19.6211 17.4531 20.1236 17.654 20.4915 18.0108V18.0108C21.2587 18.7634 21.2587 19.9622 20.4915 20.7147L18.9237 22.2344C18.5482 22.5985 18.0353 22.8036 17.5 22.8036C16.9647 22.8036 16.4518 22.5985 16.0763 22.2344L14.5084 20.7148C13.7412 19.9622 13.7412 18.7634 14.5084 18.0109V18.0109C14.8763 17.6541 15.3788 17.4532 15.9033 17.4532C16.4277 17.4532 16.9302 17.6541 17.2982 18.0108V18.0108Z" stroke="#F0F5F7" stroke-linecap="round" stroke-linejoin="round"/>
</svg>
