<svg width="30" height="30" viewBox="0 0 30 30" fill="none" xmlns="http://www.w3.org/2000/svg">
<g clip-path="url(#clip0_430_10428)">
<path d="M14.9993 16.414L7.92632 23.487C7.83407 23.5825 7.72373 23.6587 7.60172 23.7111C7.47972 23.7635 7.3485 23.7911 7.21572 23.7923C7.08294 23.7934 6.95126 23.7681 6.82837 23.7178C6.70547 23.6676 6.59382 23.5933 6.49992 23.4994C6.40603 23.4055 6.33178 23.2939 6.2815 23.171C6.23122 23.0481 6.20592 22.9164 6.20707 22.7836C6.20822 22.6508 6.23581 22.5196 6.28822 22.3976C6.34063 22.2756 6.41681 22.1653 6.51232 22.073L13.5853 15L6.51432 7.92901C6.33216 7.74041 6.23137 7.48781 6.23365 7.22561C6.23592 6.96341 6.34109 6.7126 6.5265 6.52719C6.71191 6.34179 6.96272 6.23662 7.22492 6.23434C7.48712 6.23206 7.73972 6.33285 7.92832 6.51501L23.4843 22.07C23.6665 22.2586 23.7673 22.5112 23.765 22.7734C23.7627 23.0356 23.6575 23.2864 23.4721 23.4718C23.2867 23.6572 23.0359 23.7624 22.7737 23.7647C22.5115 23.767 22.2589 23.6662 22.0703 23.484L14.9993 16.415V16.414ZM22.0723 6.51301C22.2609 6.33085 22.5135 6.23006 22.7757 6.23234C23.0379 6.23462 23.2887 6.33978 23.4741 6.52519C23.6595 6.7106 23.7647 6.96141 23.767 7.22361C23.7693 7.48581 23.6685 7.73841 23.4863 7.92701L18.7063 12.707C18.5177 12.8892 18.2651 12.99 18.0029 12.9877C17.7407 12.9854 17.4899 12.8802 17.3045 12.6948C17.1191 12.5094 17.0139 12.2586 17.0116 11.9964C17.0094 11.7342 17.1102 11.4816 17.2923 11.293L22.0723 6.51301Z" fill="white"/>
</g>
<defs>
<clipPath id="clip0_430_10428">
<rect width="30" height="30" fill="white"/>
</clipPath>
</defs>
</svg>
