<svg class="form__input-icon" width="20" height="20" xmlns="http://www.w3.org/2000/svg">
                        <path d="M18.1 3H2.12c-.1 0-.2.02-.3.05l8.13 8.1L18.1 3Z" />
                        <path
                            d="m18.93 3.79-8.19 8.15a1.12 1.12 0 0 1-1.58 0l-8.12-8.1c-.03.1-.04.2-.04.3v11.24a1.13 1.13 0 0 0 1.13 1.13h15.75A1.12 1.12 0 0 0 19 15.38V4.13c0-.12-.03-.23-.07-.34ZM2.9 15.39H2.1v-.81l4.1-4.06.79.8-4.1 4.06Zm14.96 0h-.78l-4.1-4.08.79-.79 4.09 4.06v.8Z" />
                    </svg>