<svg width="25" height="24" viewBox="0 0 25 24" fill="none" xmlns="http://www.w3.org/2000/svg">
    <rect x="0.5" width="24" height="24" rx="12" fill="#F0F5F7"/>
    <path d="M14.6944 17.9891C14.1354 18.2097 13.6903 18.3771 13.3566 18.4929C13.0237 18.6088 12.6366 18.6667 12.1962 18.6667C11.5194 18.6667 10.9926 18.5012 10.6174 18.1711C10.2423 17.841 10.0556 17.4227 10.0556 16.9142C10.0556 16.7165 10.0694 16.5142 10.097 16.3082C10.1255 16.1023 10.1706 15.8706 10.2322 15.6104L10.9319 13.1388C10.9935 12.9016 11.0468 12.6763 11.0891 12.4667C11.1314 12.2552 11.1517 12.0612 11.1517 11.8846C11.1517 11.5702 11.0864 11.3495 10.9567 11.2254C10.8252 11.1013 10.5779 11.0406 10.2092 11.0406C10.029 11.0406 9.84324 11.0672 9.65291 11.1233C9.46441 11.1812 9.30075 11.2337 9.1665 11.2851L9.35132 10.5238C9.80922 10.3372 10.2478 10.1772 10.6662 10.0448C11.0845 9.91053 11.4799 9.84433 11.8523 9.84433C12.5244 9.84433 13.043 10.008 13.408 10.3316C13.7712 10.6562 13.9542 11.0783 13.9542 11.5968C13.9542 11.7044 13.9413 11.8938 13.9165 12.1642C13.8917 12.4354 13.8448 12.6828 13.7768 12.9099L13.0807 15.3741C13.0237 15.5717 12.9731 15.7979 12.9272 16.0508C12.8821 16.3037 12.86 16.4967 12.86 16.6264C12.86 16.9537 12.9327 17.1772 13.0798 17.2958C13.2251 17.4144 13.4798 17.4741 13.8402 17.4741C14.0103 17.4741 14.2006 17.4438 14.4158 17.385C14.6291 17.3261 14.7836 17.2737 14.8811 17.2286L14.6944 17.9891ZM14.5712 7.98698C14.2466 8.28857 13.8558 8.43937 13.3989 8.43937C12.9428 8.43937 12.5493 8.28857 12.2219 7.98698C11.8964 7.6854 11.7318 7.31852 11.7318 6.89005C11.7318 6.46249 11.8973 6.0947 12.2219 5.79035C12.5493 5.48509 12.9428 5.33337 13.3989 5.33337C13.8558 5.33337 14.2475 5.48509 14.5712 5.79035C14.8958 6.0947 15.0585 6.46249 15.0585 6.89005C15.0585 7.31944 14.8958 7.6854 14.5712 7.98698Z" fill="#939598"/>
</svg>