<svg width="76" height="19" viewBox="0 0 76 19" fill="none" xmlns="http://www.w3.org/2000/svg">
<path fill-rule="evenodd" clip-rule="evenodd" d="M40.8606 4.60131C41.0434 4.79254 42.6885 9.34849 42.8606 9.91096C43.0319 10.5136 43.2739 11.0917 43.581 11.6321C44.1509 11.7671 44.2047 11.1709 44.3767 10.6984C45.3122 8.14482 46.7315 4.42132 47.4412 1.91273C47.9358 0.697811 47.9789 0.371582 47.0864 0.371582C46.1939 0.371582 46.2907 0.979043 45.9358 1.76649C45.624 3.26264 44.4197 6.42369 43.9789 7.87484C43.9789 8.06608 43.9789 8.06608 43.753 8.06608C43.0111 5.90622 42.1509 3.26264 41.3122 1.12528C41.0864 0.70906 40.6885 0.619066 40.4197 1.55275C39.9681 3.03766 39.3444 4.80379 38.8606 6.2437C38.8606 6.2437 38.2799 8.06608 38.2369 8.15607C37.9294 7.63881 37.7043 7.07273 37.5703 6.47993C36.9036 4.75879 36.3229 2.90267 35.7531 1.18153C35.6133 0.855301 35.6133 0.664063 35.3014 0.472826C34.9889 0.351651 34.6509 0.32057 34.3229 0.382832C33.4412 0.529072 34.0111 1.27152 34.1939 1.82274C35.2692 4.84879 36.4627 8.4823 37.6563 11.3621C37.6842 11.4335 37.7296 11.4959 37.788 11.543C37.8463 11.5901 37.9155 11.6204 37.9885 11.6306C38.0616 11.6409 38.1359 11.6308 38.2041 11.6015C38.2722 11.5721 38.3318 11.5245 38.3767 11.4634C38.5487 11.1146 40.7315 4.60131 40.8606 4.60131Z" fill="currentColor"/>
<path fill-rule="evenodd" clip-rule="evenodd" d="M0.17209 0.560151C0.127641 0.747548 0.14274 0.944992 0.2151 1.12261C0.397896 1.91006 -0.139738 10.887 4.64898e-05 11.2469C0.435288 11.4517 0.923268 11.4992 1.38714 11.3819C1.6022 11.1457 1.51618 10.9207 1.51618 10.5495C1.51618 8.96335 1.64521 7.43345 1.64521 5.80231C1.69897 5.19485 1.74198 4.77862 1.74198 4.4074C1.74198 4.03617 1.74198 4.08117 1.828 3.99117C1.91403 3.90118 3.32263 6.46601 3.46241 6.74724C3.73123 7.29846 4.25811 8.14215 4.61295 8.79461C5.15058 9.81829 5.4194 9.12084 5.54843 8.8846C5.86026 8.46838 8.26886 4.04742 8.44091 3.95743C8.6022 4.13742 8.6022 8.55837 8.6022 8.8846C8.6022 11.3032 8.33338 11.5394 9.79575 11.4382C10.2474 11.4382 10.2904 11.067 10.2474 10.6507C10.2474 9.86329 10.2474 8.9746 10.2474 8.18715C10.1291 6.18478 10.0431 3.90118 10.0431 1.91006C10.0431 1.67383 10.1291 0.785136 10.1291 0.650145C9.99744 0.494955 9.81912 0.391413 9.6236 0.35664C9.42808 0.321866 9.22707 0.357944 9.05381 0.458907C8.74198 0.650145 8.65596 1.06637 8.43016 1.3476C7.52693 3.02374 6.31188 4.92486 5.46241 6.51101C5.15058 7.07347 5.15058 6.88223 4.88177 6.51101C4.30112 5.62232 3.54843 4.09242 3.02155 3.20373L1.94628 1.3476C1.79682 1.02504 1.605 0.725916 1.37639 0.458907C1.07532 0.233922 0.483918 0.41391 0.17209 0.560151Z" fill="currentColor"/>
<path fill-rule="evenodd" clip-rule="evenodd" d="M56.9161 5.77389C57.2967 5.44902 57.7481 5.22766 58.2303 5.12953C58.7124 5.03139 59.2103 5.05953 59.6795 5.21143C61.0989 5.86388 61.2817 8.05749 60.658 9.12617C60.3924 9.54266 60.0098 9.86264 59.563 10.042C59.1161 10.2213 58.6271 10.2511 58.1634 10.1274C57.7142 10.0346 57.289 9.84287 56.9161 9.56489V5.77389ZM56.9161 4.18774C56.849 2.96258 56.849 1.7344 56.9161 0.509237C56.9161 0.00301991 56.744 -0.0869742 56.2924 0.093014C55.2172 0.565483 55.2172 0.374246 55.3677 1.39793C55.4537 1.91539 55.3677 7.91125 55.3677 8.75494C55.3677 10.4198 55.1419 10.8023 57.4537 11.4998C58.112 11.6442 58.7914 11.6479 59.4511 11.5107C60.1107 11.3734 60.7371 11.098 61.2924 10.7011C63.5613 8.75494 62.9376 3.26531 58.7978 3.68153C58.437 3.70196 58.0778 3.74705 57.7225 3.81652C57.5828 3.86152 57.0559 4.18774 56.9914 4.18774H56.9161Z" fill="currentColor"/>
<path fill-rule="evenodd" clip-rule="evenodd" d="M25.5531 11.3522C25.7213 10.7655 25.7689 10.1483 25.6929 9.54104C25.6489 8.90442 25.6489 8.2653 25.6929 7.62867C25.822 7.62867 25.9618 7.8649 26.2306 8.14614C26.4994 8.42737 28.7144 10.846 29.0693 11.1159C29.1931 11.2365 29.3423 11.3248 29.5049 11.3736C29.6674 11.4225 29.8387 11.4306 30.0048 11.3972C30.3166 11.3972 30.8112 11.3972 30.9833 11.1722C30.9833 10.846 30.3596 10.3285 30.0908 10.0473C29.822 9.76603 29.4779 9.40605 29.1661 9.02358C28.4821 8.39387 27.8425 7.7134 27.2521 6.98746C27.2521 6.88622 29.6929 4.73761 30.1445 4.33264C30.3166 4.1414 30.4994 4.0964 30.4564 3.81517C29.9029 3.63656 29.3109 3.63656 28.7575 3.81517C28.5424 3.91641 27.0693 5.31132 26.6714 5.68255C26.5424 5.81754 25.779 6.66123 25.6929 6.61624C25.5639 6.18876 25.6929 0.372897 25.6069 0.0466685C25.5209 -0.27956 24.0048 0.237906 24.0478 0.800369C24.1321 1.19556 24.1753 1.59913 24.1768 2.00404V10.0473C24.1768 10.3285 24.0908 11.1722 24.2736 11.3072C24.6919 11.419 25.1286 11.4344 25.5531 11.3522Z" fill="currentColor"/>
<path fill-rule="evenodd" clip-rule="evenodd" d="M13.9699 7.53573C14.4645 7.40074 16.1204 7.81696 16.1957 8.27818C16.2387 8.77588 16.2387 9.27663 16.1957 9.77433C15.8839 10.1906 13.7441 11.023 13.0344 9.5381C12.9388 9.32716 12.8892 9.09661 12.8892 8.86314C12.8892 8.62967 12.9388 8.39913 13.0344 8.18819C13.1377 8.01667 13.2744 7.8699 13.4356 7.75747C13.5968 7.64503 13.7789 7.56947 13.9699 7.53573ZM16.2387 6.97327C15.8209 6.68368 15.3536 6.48124 14.8624 6.37706C14.2503 6.30615 13.6309 6.35188 13.0344 6.51205C12.5322 6.66254 12.0893 6.97768 11.771 7.4111C11.4527 7.84452 11.2757 8.37337 11.266 8.91986C11.2564 9.46636 11.4146 10.0017 11.7175 10.4471C12.0203 10.8925 12.4518 11.2245 12.9484 11.3942C13.7989 11.6976 14.7215 11.6976 15.5721 11.3942C15.7549 11.3042 16.1097 11.068 16.2387 11.023C16.3678 10.978 16.4215 11.3492 16.5936 11.4392C16.7656 11.5292 17.5721 11.4392 17.7979 11.2142C18.0237 10.9893 18.0667 11.023 17.9269 10.6968C17.7188 10.2663 17.6437 9.77891 17.7118 9.30186V5.94958C17.7681 5.47492 17.6573 4.99507 17.4 4.59967C16.5506 2.83354 11.4323 3.53099 11.8409 5.02714C12.2495 6.5233 12.9161 4.50968 15.1742 4.79091C16.3893 4.9259 16.2602 6.14082 16.2602 6.97327H16.2387Z" fill="currentColor"/>
<path fill-rule="evenodd" clip-rule="evenodd" d="M68.8811 6.7477H65.1929C65.2424 6.28581 65.4438 5.85629 65.7628 5.53278C66.111 5.21333 66.5485 5.02001 67.0101 4.98157C67.2506 4.96079 67.4926 4.99092 67.7217 5.07016C67.9508 5.14941 68.1622 5.27614 68.3435 5.44279C68.5259 5.59981 68.6699 5.80014 68.7634 6.02711C68.8569 6.25408 68.8972 6.50112 68.8811 6.7477ZM65.0962 7.95137C65.365 7.81638 69.3972 7.95137 70.1284 7.95137C70.8596 7.95137 70.5263 5.44279 69.1929 4.4191C68.6482 3.99425 67.9997 3.73923 67.3224 3.68348C66.645 3.62774 65.9664 3.77355 65.3649 4.10408C64.7634 4.4346 64.2635 4.93637 63.9229 5.55144C63.5824 6.16652 63.415 6.86982 63.4402 7.58015C63.4147 8.27005 63.5682 8.95433 63.8843 9.56037C64.2005 10.1664 64.6675 10.6716 65.2359 11.0224C66.4295 11.8661 69.6338 11.8211 70.0316 10.5162C70.5262 8.84006 69.365 9.77375 68.9564 9.95374C68.6127 10.1011 68.2506 10.1958 67.8811 10.235C65.5048 10.5162 64.9241 8.3226 65.0962 7.95137Z" fill="currentColor"/>
<path fill-rule="evenodd" clip-rule="evenodd" d="M48.9542 6.75378C48.9919 6.27331 49.2007 5.82517 49.5392 5.4981C49.8777 5.17102 50.3213 4.98885 50.7821 4.98765C51.7069 4.8864 52.7821 5.7301 52.5993 6.75378H48.9542ZM48.7714 7.87871C48.9972 7.87871 53.18 7.87871 53.7606 7.87871C54.3413 7.87871 54.2445 7.50748 54.2015 7.04626C54.1701 6.42165 53.9841 5.81628 53.6618 5.28947C53.3395 4.76265 52.892 4.33244 52.363 4.04099C51.834 3.74953 51.2417 3.60683 50.6442 3.62685C50.0466 3.64687 49.4643 3.82893 48.9542 4.1552C48.3806 4.5097 47.9116 5.02274 47.5986 5.63795C47.2856 6.25317 47.1407 6.94675 47.18 7.64247C47.1343 8.32925 47.2822 9.01496 47.6051 9.61477C47.9281 10.2146 48.4121 10.7022 48.9972 11.0172C50.5133 11.9959 53.4918 11.5797 53.7606 10.466C53.7606 10.1398 53.9757 9.34111 53.4918 9.53235C52.9073 9.87803 52.2711 10.1177 51.6101 10.2411C51.2577 10.2903 50.8995 10.2659 50.5562 10.1694C50.2129 10.0729 49.8913 9.90603 49.6101 9.67859C49.223 9.35236 48.5993 8.37367 48.7714 7.87871Z" fill="currentColor"/>
<path fill-rule="evenodd" clip-rule="evenodd" d="M72.9218 11.3967C73.1906 11.1154 73.1476 10.9805 73.1476 10.5642V9.43931C73.1476 7.95441 72.8788 5.49082 74.524 5.11959C74.8788 5.0296 74.9648 5.34458 75.4165 5.25458C75.6828 5.00461 75.8828 4.68685 75.9971 4.33214C75.9971 3.62344 74.9218 3.48845 73.9433 3.94967C73.6315 4.09591 73.3734 4.60213 73.1476 4.64712C73.1476 4.2309 73.2337 4.05091 72.9648 3.67969C72.6202 3.71426 72.2866 3.82549 71.9863 4.00592C71.5455 4.2309 71.4595 4.2309 71.5455 4.79336C71.6315 5.35583 71.5455 9.21432 71.5455 10.1368C71.5885 11.5429 71.5885 11.4979 72.9218 11.3967Z" fill="currentColor"/>
<path fill-rule="evenodd" clip-rule="evenodd" d="M20.494 11.3536V11.2636C20.6188 10.1211 20.6511 8.96957 20.5907 7.82135C20.5907 6.93265 20.8058 5.49275 21.7413 5.21152C22.494 4.93029 22.537 5.67274 23.0316 5.21152C24.1821 3.9516 22.6337 3.44538 21.6983 3.86161C20.7628 4.27783 20.8918 4.60406 20.623 4.69405C20.6014 4.51101 20.6014 4.32588 20.623 4.14284C20.623 3.9066 20.5262 3.9066 20.4402 3.77161C20.0954 3.76868 19.7566 3.86604 19.4617 4.05284C19.0208 4.23283 18.8811 4.27783 19.0208 4.84029C19.1154 5.70272 19.1442 6.57166 19.1069 7.43887V10.0037C19.2036 11.3986 19.0208 11.4999 20.494 11.3536Z" fill="currentColor"/>
<path fill-rule="evenodd" clip-rule="evenodd" d="M40.552 12.8453C38.7769 13.0744 37.0315 13.5083 35.3477 14.139C34.8208 14.3752 34.2724 14.5102 33.7455 14.7465C32.6703 15.1627 31.6595 15.5339 30.595 15.9614C30.2402 16.0964 27.7025 16.8838 27.2617 16.9851C25.1111 17.5363 21.8853 18.1887 19.8316 17.2101C18.8531 16.7038 18.7563 18.2787 20.9821 18.8412C22.2837 19.0797 23.6194 19.0183 24.8961 18.6612C25.9713 18.425 27.2617 18.0088 28.2832 17.6825C29.3047 17.3563 30.509 16.9851 31.6165 16.6588C31.8853 16.5576 32.1004 16.4676 32.4122 16.3776L34.0574 15.8601C34.3692 15.7701 34.595 15.6352 34.8638 15.5339L36.5627 15.1177C36.8746 15.0277 37.1004 14.9377 37.3692 14.8365C39.6205 14.334 41.9167 14.0851 44.2186 14.094C44.7885 14.094 45.638 14.2402 46.2186 14.3302C47.2939 14.4652 47.0574 13.869 46.3477 13.4865C44.5025 12.7469 42.5043 12.5258 40.552 12.8453Z" fill="currentColor"/>
</svg>
