<svg width="10" height="10" viewBox="0 0 10 10" fill="none" xmlns="http://www.w3.org/2000/svg">
<path d="M6.80859 4.21005L8.38022 3.24129C8.51974 3.15527 8.69488 3.15148 8.83799 3.23138C8.98111 3.31128 9.06979 3.46236 9.06978 3.62626V6.79049C9.06978 6.95438 8.9811 7.10545 8.838 7.18535C8.6949 7.26524 8.51977 7.26146 8.38025 7.17546L6.80859 6.20667" stroke="white" stroke-linecap="round" stroke-linejoin="round"/>
<path d="M0.929688 3.35417C0.929688 2.75474 1.41562 2.2688 2.01506 2.2688H5.72341C6.32284 2.2688 6.80878 2.75474 6.80878 3.35417V7.06252C6.80878 7.66196 6.32285 8.14789 5.72341 8.14789H2.01506C1.41563 8.14789 0.929688 7.66196 0.929688 7.06252V3.35417Z" stroke="white" stroke-linecap="round" stroke-linejoin="round"/>
</svg>
