<svg width="30" height="30" viewBox="0 0 30 30" xmlns="http://www.w3.org/2000/svg">
    <path d="M3.75 3.25V5.125H5.625V3.25H3.75ZM7.5 3.25V5.125H9.375V3.25H7.5ZM11.25 3.25V5.125H13.125V3.25H11.25ZM15 3.25V5.125H16.875V3.25H15ZM18.75 3.25V5.125H20.625V3.25H18.75ZM22.5 3.25V5.125H24.375V3.25H22.5ZM3.75 7V8.875H5.625V7H3.75ZM22.5 7V8.875H24.375V7H22.5ZM3.75 10.75V12.625H5.625V10.75H3.75ZM22.5 10.75V12.625H24.375V10.75H22.5ZM13.5938 11.6875L13.3008 12.0684L12.1875 13.5625H8.4375H7.5V14.5V24.8125V25.75H8.4375H25.3125H26.25V24.8125V14.5V13.5625H25.3125H21.5625L20.4492 12.0684L20.1562 11.6875H19.6875H14.0625H13.5938ZM14.5312 13.5625H19.2188L20.332 15.0566L20.625 15.4375H21.0938H24.375V23.875H9.375V15.4375H12.6562H13.125L13.418 15.0566L14.5312 13.5625ZM3.75 14.5V16.375H5.625V14.5H3.75ZM16.875 15.4375C14.815 15.4375 13.125 17.1275 13.125 19.1875C13.125 21.2475 14.815 22.9375 16.875 22.9375C18.935 22.9375 20.625 21.2475 20.625 19.1875C20.625 17.1275 18.935 15.4375 16.875 15.4375ZM16.875 17.3125C17.9216 17.3125 18.75 18.1409 18.75 19.1875C18.75 20.2341 17.9216 21.0625 16.875 21.0625C15.8284 21.0625 15 20.2341 15 19.1875C15 18.1409 15.8284 17.3125 16.875 17.3125ZM3.75 18.25V20.125H5.625V18.25H3.75Z"/>
</svg>