<svg width="22" height="23" xmlns="http://www.w3.org/2000/svg">
    <path d="m21.88 16.28-.07-.14c-.38-.68-1.1-1.51-2.16-2.5l-.02-.02-.01-.02h-.03c-.48-.47-.78-.78-.91-.93-.23-.3-.29-.61-.16-.92.1-.23.43-.73 1.02-1.48l.73-.96c1.3-1.74 1.87-2.84 1.7-3.33l-.07-.1c-.04-.08-.16-.14-.35-.2a1.78 1.78 0 0 0-.72-.02l-3.26.02a.42.42 0 0 0-.22 0l-.15.04-.06.03-.04.03a.5.5 0 0 0-.13.12.77.77 0 0 0-.11.2 18.46 18.46 0 0 1-1.98 3.76A5.85 5.85 0 0 1 13.86 11c-.12.1-.22.14-.29.13a8.14 8.14 0 0 1-.2-.05.75.75 0 0 1-.25-.27c-.06-.12-.1-.27-.13-.44a4.88 4.88 0 0 1-.03-1l.01-.48a28.06 28.06 0 0 1 .05-1.73v-.62c0-.22 0-.4-.03-.52a1.75 1.75 0 0 0-.12-.36.6.6 0 0 0-.23-.27 1.3 1.3 0 0 0-.38-.15c-.4-.1-.91-.14-1.53-.15-1.4-.01-2.3.08-2.7.27-.16.09-.3.2-.43.34-.14.17-.15.26-.06.27.46.07.78.23.96.49l.07.14c.06.1.1.27.16.52a8.8 8.8 0 0 1-.16 3.69l-.13.24a.2.2 0 0 1-.06.06c-.1.03-.2.05-.3.05-.11 0-.24-.05-.39-.16a2.7 2.7 0 0 1-.47-.43 5.82 5.82 0 0 1-.55-.78c-.2-.33-.41-.72-.63-1.17l-.18-.33a28.2 28.2 0 0 1-.98-2.1.75.75 0 0 0-.28-.35l-.05-.04a1.2 1.2 0 0 0-.44-.17L1 5.66c-.32 0-.53.07-.65.21l-.04.07a.37.37 0 0 0-.03.18c0 .08.02.18.06.3a37.31 37.31 0 0 0 4.06 7.17 25.1 25.1 0 0 0 1.12 1.37l.28.27a13.58 13.58 0 0 0 1.96 1.4 6.32 6.32 0 0 0 3.14.78h1.3a.9.9 0 0 0 .6-.24l.05-.06a1.15 1.15 0 0 0 .12-.52c0-.32.02-.62.07-.88.06-.26.13-.45.2-.58a1.44 1.44 0 0 1 .43-.5.74.74 0 0 1 .1-.04c.17-.06.39 0 .63.17.25.18.48.4.7.66.2.26.46.55.77.88.3.32.56.56.79.72l.22.13c.15.1.35.18.6.25.23.08.44.1.62.06l2.9-.05c.28 0 .5-.04.67-.14.15-.1.25-.2.28-.3a.87.87 0 0 0 0-.4 1.42 1.42 0 0 0-.08-.3Z"/>
</svg>
