<svg width="30" height="30" viewBox="0 0 30 30" fill="none" xmlns="http://www.w3.org/2000/svg">
<path d="M15 29.0625C22.7665 29.0625 29.0625 22.7665 29.0625 15C29.0625 7.2335 22.7665 0.9375 15 0.9375C7.2335 0.9375 0.9375 7.2335 0.9375 15C0.9375 22.7665 7.2335 29.0625 15 29.0625Z" fill="#00AFCA"/>
<path d="M26.5783 15.5155C26.2502 15.328 25.8752 15.5624 25.8752 15.8905C25.7345 18.1874 21.7033 18.7968 19.7814 18.7968C17.8595 18.8436 13.7345 18.1405 13.5939 15.8905C13.5939 15.5624 13.2189 15.3749 12.8908 15.5155C11.9064 16.0311 11.5783 17.0155 11.8127 17.9999C12.2345 19.7811 14.4376 21.0468 16.3126 21.6093C16.172 21.9374 16.1251 22.2655 16.0783 22.5936C16.0314 22.9686 16.5939 23.1093 16.8752 22.8749C17.9533 22.078 19.6408 21.7499 21.047 21.7499C21.6564 21.7499 21.6564 20.9061 21.047 20.9061C19.7814 20.9061 18.422 21.1405 17.297 21.6561C17.7189 20.6718 18.7033 19.6874 19.7814 19.6405H19.8283C22.0783 19.6874 25.6876 18.8905 26.6251 16.7811C26.7658 17.1561 26.7658 17.578 26.6251 17.953C26.1564 19.453 24.5158 20.0624 22.9689 20.4843C22.4064 20.6249 22.6408 21.4686 23.2033 21.2811C25.172 20.7655 26.7189 19.9686 27.5158 18.1874C27.8908 17.2499 27.5158 16.1249 26.5783 15.5155ZM16.6876 20.8124C15.1408 20.3905 13.9689 19.6405 13.0314 18.4218C12.6564 17.9061 12.5158 17.203 12.8439 16.6874C13.547 18.328 15.8439 19.1718 17.9064 19.453C17.4377 19.828 17.0158 20.2968 16.6876 20.8124Z" fill="#FFE62E"/>
<path d="M19.6875 16.2655C21.6809 16.2655 23.2969 14.6495 23.2969 12.6561C23.2969 10.6627 21.6809 9.04675 19.6875 9.04675C17.6941 9.04675 16.0781 10.6627 16.0781 12.6561C16.0781 14.6495 17.6941 16.2655 19.6875 16.2655Z" fill="#FFE62E"/>
<path d="M19.6875 8.57812C19.9219 8.57812 19.9687 8.4375 19.9687 8.29687C19.9687 8.0625 19.6875 7.07812 19.6875 7.07812C19.6875 7.07812 19.4062 8.10937 19.4062 8.29687C19.4062 8.4375 19.4531 8.57812 19.6875 8.57812Z" fill="#FFE62E"/>
<path d="M21.2344 8.8595C21.4219 8.95325 21.5625 8.8595 21.6094 8.71887C21.7031 8.53137 21.7969 7.45325 21.7969 7.45325C21.7969 7.45325 21.1406 8.297 21.0469 8.4845C21.0469 8.62512 21.0469 8.81262 21.2344 8.8595Z" fill="#FFE62E"/>
<path d="M23.485 14.2032C23.3913 14.3907 23.485 14.5314 23.6256 14.5782C23.8131 14.672 24.8913 14.7657 24.8913 14.7657C24.8913 14.7657 24.0475 14.1095 23.86 14.0157C23.7194 14.0157 23.5319 14.0157 23.485 14.2032Z" fill="#FFE62E"/>
<path d="M18.1406 16.4531C17.9531 16.3594 17.8125 16.4531 17.7656 16.5938C17.6719 16.7813 17.5781 17.8594 17.5781 17.8594C17.5781 17.8594 18.2344 17.0156 18.3281 16.8281C18.3281 16.6875 18.3281 16.5 18.1406 16.4531Z" fill="#FFE62E"/>
<path d="M15.8906 11.1094C15.9844 10.9219 15.8906 10.7812 15.75 10.7344C15.5625 10.6406 14.4844 10.5469 14.4844 10.5469C14.4844 10.5469 15.3281 11.2031 15.5156 11.2969C15.6562 11.2969 15.8438 11.2969 15.8906 11.1094Z" fill="#FFE62E"/>
<path d="M22.5937 9.75C22.7344 9.89062 22.9219 9.84375 23.0156 9.75C23.1562 9.60937 23.6719 8.67188 23.6719 8.67188C23.6719 8.67188 22.7344 9.1875 22.5937 9.32812C22.4531 9.46875 22.4531 9.60937 22.5937 9.75Z" fill="#FFE62E"/>
<path d="M22.5946 15.5627C22.454 15.7034 22.5009 15.844 22.5946 15.9846C22.7352 16.1252 23.6727 16.6409 23.6727 16.6409C23.6727 16.6409 23.1571 15.7034 23.0165 15.5627C22.8759 15.4221 22.7352 15.4221 22.5946 15.5627Z" fill="#FFE62E"/>
<path d="M16.7812 15.5628C16.6406 15.4221 16.4531 15.469 16.3594 15.5628C16.2188 15.7034 15.7031 16.6409 15.7031 16.6409C15.7031 16.6409 16.6406 16.1253 16.7812 15.9846C16.9219 15.844 16.9219 15.7034 16.7812 15.5628Z" fill="#FFE62E"/>
<path d="M16.7813 9.75C16.9219 9.60937 16.875 9.42188 16.7813 9.32812C16.6406 9.1875 15.7031 8.67188 15.7031 8.67188C15.7031 8.67188 16.2188 9.60937 16.3594 9.75C16.5 9.89062 16.6406 9.89062 16.7813 9.75Z" fill="#FFE62E"/>
<path d="M23.485 11.1095C23.5788 11.297 23.7194 11.3439 23.86 11.2501C24.0475 11.1564 24.8913 10.5001 24.8913 10.5001C24.8913 10.5001 23.8131 10.6407 23.6256 10.6876C23.485 10.7814 23.3913 10.8751 23.485 11.1095Z" fill="#FFE62E"/>
<path d="M21.2344 16.4531C21.0469 16.5469 21 16.6875 21.0938 16.8281C21.1875 17.0156 21.8437 17.8594 21.8437 17.8594C21.8437 17.8594 21.7031 16.7813 21.6562 16.5938C21.5625 16.4531 21.4687 16.3594 21.2344 16.4531Z" fill="#FFE62E"/>
<path d="M15.8906 14.2032C15.7969 14.0157 15.6562 13.9689 15.5156 14.0626C15.3281 14.1564 14.4844 14.8126 14.4844 14.8126C14.4844 14.8126 15.5625 14.672 15.75 14.6251C15.8906 14.5314 15.9844 14.4376 15.8906 14.2032Z" fill="#FFE62E"/>
<path d="M18.1406 8.8595C18.3281 8.76575 18.375 8.62512 18.2812 8.4845C18.1875 8.297 17.5312 7.45325 17.5312 7.45325C17.5312 7.45325 17.6719 8.4845 17.7187 8.71887C17.8125 8.8595 17.9062 8.95325 18.1406 8.8595Z" fill="#FFE62E"/>
<path d="M20.4846 8.62512C20.6721 8.672 20.8127 8.53137 20.8127 8.39075C20.8596 8.20325 20.7659 7.12512 20.7659 7.12512C20.7659 7.12512 20.2971 8.06262 20.2502 8.297C20.2034 8.43762 20.2971 8.57825 20.4846 8.62512Z" fill="#FFE62E"/>
<path d="M23.7182 13.4532C23.6713 13.6407 23.8119 13.7814 23.9526 13.7814C24.1401 13.8282 25.2182 13.7345 25.2182 13.7345C25.2182 13.7345 24.2807 13.2657 24.0463 13.2189C23.9057 13.172 23.7651 13.2657 23.7182 13.4532Z" fill="#FFE62E"/>
<path d="M18.8901 16.6877C18.7026 16.6408 18.562 16.7814 18.562 16.922C18.5151 17.1095 18.6088 18.1877 18.6088 18.1877C18.6088 18.1877 19.0776 17.2502 19.1245 17.0158C19.1713 16.8752 19.0776 16.7345 18.8901 16.6877Z" fill="#FFE62E"/>
<path d="M15.6563 11.8596C15.7031 11.6252 15.5625 11.5314 15.4219 11.5314C15.2344 11.4846 14.1562 11.5783 14.1562 11.5783C14.1562 11.5783 15.0938 12.0471 15.3281 12.0939C15.4688 12.1408 15.6094 12.0471 15.6563 11.8596Z" fill="#FFE62E"/>
<path d="M21.9835 9.23438C22.171 9.32813 22.3116 9.28125 22.4053 9.14063C22.546 8.95313 22.8272 7.96875 22.8272 7.96875C22.8272 7.96875 22.0303 8.67187 21.8897 8.8125C21.796 8.95312 21.796 9.14063 21.9835 9.23438Z" fill="#FFE62E"/>
<path d="M23.1093 14.9533C23.0156 15.1408 23.0624 15.2814 23.2031 15.3752C23.3906 15.5158 24.3749 15.7971 24.3749 15.7971C24.3749 15.7971 23.6718 15.0002 23.5312 14.8596C23.3906 14.7658 23.2031 14.7658 23.1093 14.9533Z" fill="#FFE62E"/>
<path d="M17.3906 16.0782C17.2031 15.9844 17.0625 16.0313 16.9688 16.1719C16.875 16.3126 16.5469 17.3438 16.5469 17.3438C16.5469 17.3438 17.3438 16.6407 17.4844 16.5001C17.5781 16.3594 17.5781 16.1719 17.3906 16.0782Z" fill="#FFE62E"/>
<path d="M16.2656 10.3595C16.3594 10.172 16.3125 10.0314 16.1719 9.93762C16.0312 9.84387 15 9.51575 15 9.51575C15 9.51575 15.7031 10.3126 15.8437 10.4532C15.9844 10.547 16.1719 10.547 16.2656 10.3595Z" fill="#FFE62E"/>
<path d="M23.1086 10.3595C23.2493 10.547 23.3899 10.547 23.5305 10.4532C23.718 10.3126 24.3743 9.51575 24.3743 9.51575C24.3743 9.51575 23.343 9.84387 23.2024 9.93762C23.0618 10.0782 22.968 10.2189 23.1086 10.3595Z" fill="#FFE62E"/>
<path d="M21.9835 16.0782C21.796 16.2189 21.796 16.3595 21.8897 16.5001C22.0303 16.6876 22.8272 17.3439 22.8272 17.3439C22.8272 17.3439 22.4991 16.3126 22.4053 16.172C22.2647 16.0314 22.1241 15.9376 21.9835 16.0782Z" fill="#FFE62E"/>
<path d="M16.2656 14.9533C16.125 14.7658 15.9844 14.7658 15.8437 14.8596C15.6562 15.0002 15 15.7971 15 15.7971C15 15.7971 16.0313 15.4689 16.1719 15.3752C16.3125 15.2346 16.4063 15.0939 16.2656 14.9533Z" fill="#FFE62E"/>
<path d="M17.3906 9.23438C17.5781 9.09375 17.5781 8.95313 17.4844 8.8125C17.3438 8.625 16.5469 7.96875 16.5469 7.96875C16.5469 7.96875 16.875 9 16.9688 9.14063C17.1094 9.28125 17.25 9.375 17.3906 9.23438Z" fill="#FFE62E"/>
<path d="M23.719 11.8596C23.7659 12.0471 23.9065 12.1408 24.0471 12.0939C24.2346 12.0471 25.219 11.5783 25.219 11.5783C25.219 11.5783 24.1409 11.4846 23.9534 11.5314C23.7659 11.5314 23.6721 11.6252 23.719 11.8596Z" fill="#FFE62E"/>
<path d="M20.4846 16.6877C20.2971 16.7346 20.2034 16.8752 20.2502 17.0159C20.2971 17.2034 20.7659 18.1877 20.7659 18.1877C20.7659 18.1877 20.8596 17.1096 20.8127 16.9221C20.8127 16.7346 20.719 16.6409 20.4846 16.6877Z" fill="#FFE62E"/>
<path d="M15.6563 13.4532C15.6094 13.2657 15.4688 13.172 15.3281 13.2189C15.1406 13.2657 14.1562 13.7345 14.1562 13.7345C14.1562 13.7345 15.2344 13.8282 15.4219 13.7814C15.6094 13.7814 15.7031 13.6876 15.6563 13.4532Z" fill="#FFE62E"/>
<path d="M18.8901 8.62512C19.0776 8.57825 19.1713 8.43762 19.1245 8.297C19.0776 8.1095 18.6088 7.12512 18.6088 7.12512C18.6088 7.12512 18.5151 8.20325 18.562 8.39075C18.562 8.57825 18.6557 8.672 18.8901 8.62512Z" fill="#FFE62E"/>
<path d="M7.73437 24.1877H7.21875V25.9221H6.1875C6.70312 26.344 7.21875 26.6721 7.78125 27.0471V24.1877H7.73437Z" fill="#FFE62E"/>
<path d="M7.21875 4.07825V5.81262H7.73438V2.95325C7.17187 3.28137 6.65625 3.65637 6.14062 4.07825H7.21875Z" fill="#FFE62E"/>
<path d="M6.04688 4.12512C5.90625 4.21887 5.76563 4.3595 5.625 4.50012L7.03125 7.547H5.85938V5.81262H5.34375V7.547H4.17188L5.53125 4.59387C5.15625 4.922 4.78125 5.297 4.45313 5.71887L3.375 8.01575L5.20313 11.9532H4.03125V10.2189H3.51563V14.8126H4.03125V12.8907H5.25L4.54688 15.0001L5.25 17.0626H4.03125V15.1407H3.51563V19.7345H4.03125V18.0001H5.20313L3.375 21.9376L4.45313 24.2345C4.78125 24.6095 5.15625 24.9845 5.53125 25.3595L4.17188 22.4064H5.34375V24.1407H5.85938V22.4064H7.03125L5.625 25.4532C5.76563 25.5939 5.90625 25.6876 6.04688 25.8282L7.82813 21.9376L6 18.0001H7.17188V19.7345H7.6875V15.1407H7.17188V17.0626H5.95313L6.65625 15.0001L5.95313 12.9376H7.17188V14.8595H7.6875V10.2657H7.17188V12.0001H6L7.82813 8.06262L6.04688 4.12512ZM7.07813 21.5157H5.90625V19.7814H5.39063V21.5157H4.17188L5.625 18.422L7.07813 21.5157ZM5.625 16.5001L5.25 15.422H6L5.625 16.5001ZM6 14.5782H5.25L5.625 13.5001L6 14.5782ZM5.625 11.6251L4.17188 8.53137H5.34375V10.2657H5.85938V8.53137H7.03125L5.625 11.6251Z" fill="#FFE62E"/>
</svg>
