<svg width="223" height="17" viewBox="0 0 223 17" fill="none" xmlns="http://www.w3.org/2000/svg">
<path d="M222.87 7.70433C223.142 7.2238 222.973 6.61357 222.493 6.34135L214.662 1.90531C214.182 1.63309 213.571 1.80197 213.299 2.28251C213.027 2.76305 213.196 3.37327 213.676 3.64549L220.637 7.58864L216.694 14.5494C216.422 15.0299 216.591 15.6401 217.071 15.9123C217.552 16.1846 218.162 16.0157 218.434 15.5351L222.87 7.70433ZM111.5 7.21144L111.348 8.19982L111.5 7.21144ZM1.24122 8.18191C1.88871 8.02097 2.53344 7.86363 3.17547 7.70983L2.70955 5.76486C2.06198 5.91998 1.41175 6.07867 0.758781 6.24097L1.24122 8.18191ZM7.03465 6.8206C8.33645 6.53263 9.62746 6.25929 10.9083 6.00012L10.5117 4.03985C9.21894 4.30142 7.91615 4.57726 6.60267 4.86781L7.03465 6.8206ZM14.7957 5.25105C16.1056 5.01133 17.4054 4.78643 18.6956 4.57584L18.3735 2.60196C17.0705 2.81462 15.7582 3.04171 14.4357 3.28371L14.7957 5.25105ZM22.6071 3.97668C23.9235 3.78831 25.2304 3.61473 26.5289 3.45538L26.2852 1.47027C24.9736 1.63125 23.6534 1.80659 22.3238 1.99685L22.6071 3.97668ZM30.4595 3.0133C31.7816 2.87817 33.0956 2.75758 34.4022 2.65093L34.2395 0.657563C32.9194 0.765314 31.5919 0.887146 30.2561 1.02367L30.4595 3.0133ZM38.3514 2.3691C39.6756 2.28815 40.993 2.22117 42.3046 2.16753L42.2229 0.169199C40.898 0.223384 39.5671 0.291041 38.2294 0.372827L38.3514 2.3691ZM46.2605 2.04517C47.5843 2.01731 48.9031 2.00258 50.218 2.0003L50.2145 0.000301838C48.887 0.00260568 47.5553 0.0174782 46.2184 0.0456129L46.2605 2.04517ZM54.1763 2.03053C55.4988 2.05286 56.8184 2.08722 58.136 2.13291L58.2053 0.13411C56.8762 0.0880223 55.5448 0.0533519 54.2101 0.030817L54.1763 2.03053ZM62.0936 2.30375C63.4126 2.37166 64.7306 2.45027 66.0488 2.53886L66.1829 0.543363C64.8547 0.454094 63.5262 0.374862 62.1965 0.306394L62.0936 2.30375ZM70.0016 2.83363C71.3167 2.94111 72.633 3.05782 73.9516 3.18305L74.1407 1.19201C72.8139 1.06599 71.4888 0.948509 70.1645 0.840274L70.0016 2.83363ZM77.8969 3.58165C79.2074 3.72171 80.5211 3.86943 81.8391 4.02413L82.0723 2.03777C80.7479 1.88231 79.4272 1.73381 78.1094 1.59297L77.8969 3.58165ZM85.7788 4.50502C87.0861 4.6704 88.3984 4.84189 89.7167 5.01886L89.9828 3.03664C88.6599 2.85906 87.3426 2.6869 86.0299 2.52083L85.7788 4.50502ZM93.6533 5.56027C94.9572 5.74361 96.2678 5.93158 97.586 6.12356L97.8742 4.14444C96.5532 3.95205 95.2394 3.76361 93.9317 3.57975L93.6533 5.56027ZM101.516 6.70377C102.818 6.89827 104.128 7.09601 105.446 7.29641L105.747 5.31912C104.427 5.11852 103.115 4.92053 101.812 4.72573L101.516 6.70377ZM109.377 7.89698C110.031 7.99745 110.688 8.09842 111.348 8.19982L111.652 6.22305C110.992 6.12163 110.335 6.02062 109.68 5.92011L109.377 7.89698ZM111.348 8.19982C112.009 8.30138 112.666 8.40292 113.322 8.50435L113.628 6.52787C112.972 6.42636 112.313 6.32472 111.652 6.22305L111.348 8.19982ZM117.257 9.11571C118.578 9.32142 119.89 9.526 121.193 9.72858L121.5 7.75231C120.197 7.5498 118.886 7.34533 117.565 7.13953L117.257 9.11571ZM125.13 10.3376C126.452 10.5407 127.765 10.741 129.072 10.9375L129.37 8.95976C128.065 8.7636 126.754 8.5637 125.434 8.36085L125.13 10.3376ZM133.02 11.522C134.343 11.7144 135.66 11.9021 136.972 12.0841L137.246 10.1031C135.939 9.92171 134.627 9.73466 133.308 9.54282L133.02 11.522ZM140.928 12.6171C142.252 12.7897 143.573 12.9557 144.89 13.114L145.129 11.1282C143.818 10.9708 142.505 10.8057 141.186 10.6339L140.928 12.6171ZM148.859 13.5676C150.187 13.7112 151.512 13.846 152.837 13.9711L153.025 11.9799C151.71 11.8557 150.393 11.7219 149.074 11.5792L148.859 13.5676ZM156.822 14.317C158.151 14.422 159.481 14.5163 160.813 14.5988L160.936 12.6026C159.617 12.5208 158.298 12.4274 156.979 12.3232L156.822 14.317ZM164.81 14.8101C166.14 14.8681 167.474 14.9134 168.812 14.9453L168.859 12.9458C167.535 12.9143 166.215 12.8694 164.897 12.812L164.81 14.8101ZM172.815 14.9992C174.144 15.0031 175.479 14.993 176.82 14.9678L176.782 12.9681C175.456 12.9931 174.136 13.0031 172.821 12.9992L172.815 14.9992ZM180.825 14.8478C182.151 14.793 183.485 14.723 184.827 14.6368L184.699 12.6409C183.373 12.7261 182.054 12.7954 180.742 12.8495L180.825 14.8478ZM188.826 14.3334C190.145 14.2179 191.473 14.0863 192.811 13.9379L192.59 11.9501C191.268 12.0968 189.956 12.2269 188.651 12.3411L188.826 14.3334ZM196.786 13.4504C198.097 13.2743 199.418 13.0818 200.749 12.8721L200.438 10.8965C199.122 11.1038 197.816 11.2942 196.52 11.4682L196.786 13.4504ZM204.699 12.205C205.999 11.9704 207.31 11.7195 208.632 11.4514L208.235 9.49126C206.927 9.75649 205.63 10.0048 204.344 10.2367L204.699 12.205ZM212.548 10.6143C213.836 10.325 215.135 10.0195 216.446 9.69712L215.968 7.755C214.671 8.07415 213.385 8.37662 212.11 8.66298L212.548 10.6143ZM220.323 8.70317C220.968 8.53125 221.616 8.35529 222.267 8.17521L221.733 6.24766C221.089 6.42607 220.447 6.60038 219.808 6.77067L220.323 8.70317Z" fill="#DADCDF"/>
</svg>
