<svg width="128" height="32" viewBox="0 0 128 32" fill="none" xmlns="http://www.w3.org/2000/svg">
<path fill-rule="evenodd" clip-rule="evenodd" d="M31.9417 4.06958V23.7165H44.2357V21.246H34.3534V15.0695H42.6475V12.5989H34.3534V6.54015H43.5886V4.06958H31.9417ZM52.4709 18.5397L56.4709 23.7749H59.2944L54.1179 16.775L59.5885 9.53975H56.4709L52.4709 14.9515L48.5297 9.53975H45.3533L51.1179 16.775L45.6474 23.7749H48.4709L52.4709 18.5397ZM63.1768 21.6575V31.3633H60.7651V16.834C60.7651 13.1281 63.5886 9.18694 68.0003 9.18694C72.4709 9.18694 75.8238 12.0104 75.8238 16.6575C75.8238 21.1869 72.4121 24.3045 68.5297 24.3045C66.6474 24.3045 64.118 23.481 63.1768 21.6575ZM73.2944 16.6575C73.2944 13.481 71.2356 11.5987 67.5885 11.7752C65.8239 11.834 63.118 13.1281 63.3533 17.6575C63.4121 19.1281 64.9415 21.8928 68.2944 21.8928C71.1768 21.8928 73.2944 20.2457 73.2944 16.6575ZM77.8828 9.53967V23.7749V23.8337H80.2946V15.1867C82.0593 11.422 84.9416 11.775 85.2357 11.8338V9.24556C83.2945 9.24556 81.471 9.71614 80.2946 11.0691V9.53967H77.8828ZM85.8823 16.6575C85.8823 12.5399 88.8235 9.18694 92.8823 9.18694C97.9411 9.18694 99.8234 12.5399 99.8234 16.834V18.0104H88.5294C88.7059 20.7163 91.1176 22.128 93.3529 22.0692C94.9999 22.0104 96.1176 21.5398 97.294 20.3633L98.8822 22.0104C97.4117 23.4221 95.5293 24.3633 93.2352 24.3633C88.9411 24.3045 85.8823 21.128 85.8823 16.6575ZM92.7058 11.5987C90.4117 11.5987 88.647 13.5987 88.5294 15.7751H97.294C97.294 13.6575 95.7646 11.5987 92.7058 11.5987ZM102.821 20.1897L101.059 21.7756C101.059 21.7756 101.353 22.0697 101.471 22.0697C103.059 23.6579 105 24.3638 107.236 24.2461C109.118 24.1873 111.236 23.4226 111.941 21.4814C112.588 19.7167 112.177 17.4226 110.471 16.3638C109.476 15.7483 108.292 15.4758 107.131 15.2088C106.85 15.1441 106.57 15.0797 106.294 15.0109C105.236 14.7168 103.647 14.1874 104 12.7756C104.236 11.7756 105.53 11.3638 106.471 11.3638C108.353 11.3638 109.177 11.8933 110.059 12.9521L111.824 11.5403C111.866 11.5403 111.179 10.9024 110.746 10.4997L110.744 10.4978C110.575 10.3411 110.445 10.2204 110.412 10.1874C107.647 8.1874 101.53 8.89328 101.53 13.1874C101.53 14.8344 102.471 15.9521 103.941 16.5991C104.688 16.9384 105.473 17.1407 106.253 17.3414C106.825 17.4887 107.394 17.6352 107.941 17.8344C108.941 18.2462 109.824 18.8932 109.706 20.0697C109.471 22.1873 106.706 22.305 105.177 21.8932C104.647 21.7756 104.236 21.5403 103.824 21.1873C103.71 21.1302 102.819 20.2417 102.821 20.1897ZM113.47 21.7756L115.232 20.1897C115.231 20.2417 116.121 21.1302 116.235 21.1873C116.647 21.5403 117.059 21.7756 117.588 21.8932C119.117 22.305 121.882 22.1873 122.117 20.0697C122.235 18.8932 121.353 18.2462 120.353 17.8344C119.805 17.6352 119.236 17.4887 118.664 17.3414C117.885 17.1407 117.099 16.9384 116.353 16.5991C114.882 15.9521 113.941 14.8344 113.941 13.1874C113.941 8.89328 120.059 8.1874 122.823 10.1874C122.856 10.2204 122.987 10.3416 123.156 10.4988C123.59 10.9015 124.277 11.5403 124.235 11.5403L122.47 12.9521C121.588 11.8933 120.764 11.3638 118.882 11.3638C117.941 11.3638 116.647 11.7756 116.412 12.7756C116.059 14.1874 117.647 14.7168 118.706 15.0109C118.981 15.0797 119.261 15.1441 119.542 15.2088C120.703 15.4758 121.888 15.7483 122.882 16.3638C124.588 17.4226 125 19.7167 124.353 21.4814C123.647 23.4226 121.529 24.1873 119.647 24.2461C117.412 24.3638 115.47 23.6579 113.882 22.0697C113.764 22.0697 113.47 21.7756 113.47 21.7756Z" fill="#E43225"/>
<path fill-rule="evenodd" clip-rule="evenodd" d="M30.5881 5.18819V5.30583C28.7058 5.36465 27.1764 6.89406 27.1176 8.7764H26.9411H26.7646C26.7058 6.89406 25.1764 5.36465 23.2941 5.30583V5.18819V5.07054C25.1764 5.01172 26.7058 3.48232 26.7646 1.59998H26.9411H27.1176C27.1764 3.48232 28.7058 5.01172 30.5881 5.07054V5.18819ZM13.8235 19.0706L15.5881 23.7765H17.9999L10.4117 4.07072H7.64702L0 23.7765H2.5294L4.2941 19.0706H13.8235ZM5.35291 16.6589L8.94112 6.89424L12.8235 16.6589H5.35291ZM19.588 4.07072V23.7765H22.0585V4.07072H19.588ZM25.7648 23.7762V9.83508H28.2354V23.7762H25.7648Z" fill="#E43225"/>
</svg>