<svg width="114" height="20" viewBox="0 0 114 20" fill="none" xmlns="http://www.w3.org/2000/svg">
<path d="M48.4648 9.32624C48.4648 5.28007 51.7449 2 55.7911 2V2C59.8373 2 63.1173 5.28007 63.1173 9.32624V9.32624C63.1173 13.3724 59.8373 16.6525 55.7911 16.6525V16.6525C51.7449 16.6525 48.4648 13.3724 48.4648 9.32624V9.32624Z" fill="url(#paint0_linear)"/>
<path fill-rule="evenodd" clip-rule="evenodd" d="M49.6332 13.296C49.1435 12.5379 48.79 11.6837 48.6072 10.7678L52.508 6.11622L54.6287 7.33922L54.2409 9.85944L58.1335 4.30615L60.8399 5.29422L60.1903 8.98567L62.5875 6.58406C62.9295 7.43101 63.1178 8.35652 63.1178 9.32601C63.1178 9.36849 63.1175 9.41088 63.1168 9.45319L58.9897 13.5836L56.8397 12.3396L57.7037 9.12487L53.7603 14.746L51.1062 13.7848L51.9629 10.5154L49.6332 13.296Z" fill="black"/>
<path d="M70.9119 14.6984H72.4993L74.7538 6.36451V14.6984H76.5634V3.6665H74.071L71.8331 11.7937L69.6264 3.6665H67.0867V14.6984H68.6584V6.36451L70.9119 14.6984ZM84.1231 9.2535C84.1231 7.31693 83.139 6.58674 81.1389 6.58674C79.8851 6.58674 78.901 6.98383 78.3295 7.31693V8.88865C78.8375 8.50768 79.9486 8.09497 80.9167 8.09497C81.8217 8.09497 82.2344 8.41244 82.2344 9.26961V9.71407H81.9326C79.0436 9.71407 77.7581 10.6665 77.7581 12.2856C77.7581 13.9047 78.7422 14.8097 80.2026 14.8097C81.3137 14.8097 81.7899 14.4444 82.1548 14.0634H82.2344C82.25 14.2695 82.3135 14.5396 82.377 14.6984H84.2184C84.155 14.0496 84.1232 13.3981 84.1231 12.7462V9.25398V9.2535ZM82.2344 12.7935C81.9961 13.1428 81.5516 13.4285 80.8849 13.4285C80.0912 13.4285 79.6946 12.9523 79.6946 12.2377C79.6946 11.3014 80.3452 10.9678 81.9643 10.9678H82.2344V12.7935ZM87.3882 6.71373H85.6421V16.9998H87.5308V13.7616C88.007 14.4761 88.7054 14.8571 89.5152 14.8571C91.3566 14.8571 92.6264 13.3806 92.6264 10.6982C92.6264 8.03148 91.3883 6.55548 89.6105 6.55548C88.7215 6.55548 87.9914 6.9682 87.4834 7.74576L87.3882 6.71373V6.71373ZM89.039 13.365C88.0387 13.365 87.5308 12.5557 87.5308 10.7143C87.5308 8.8569 88.0705 8.0476 89.1343 8.0476C90.1658 8.0476 90.6737 8.8569 90.6737 10.6982C90.6737 12.5557 90.134 13.365 89.039 13.365V13.365ZM98.5714 14.6984H100.714L97.6825 10.3964L100.349 6.71373H98.4444L95.7777 10.3964V6.71373H93.8885V14.6984H95.7777V10.7778L98.5714 14.6984ZM107.069 14.1587V12.6192C106.481 13.0158 105.497 13.365 104.577 13.365C103.196 13.365 102.672 12.7144 102.593 11.3805H107.148V10.3808C107.148 7.60265 105.926 6.55548 104.037 6.55548C101.735 6.55548 100.64 8.3172 100.64 10.73C100.64 13.5081 102.005 14.8571 104.418 14.8571C105.624 14.8571 106.513 14.5396 107.069 14.1587V14.1587ZM104.005 8.0476C104.942 8.0476 105.228 8.82515 105.228 9.82543V9.98417H102.593C102.64 8.71428 103.101 8.0476 104.005 8.0476ZM113.868 8.20633V6.71373H107.534V8.20633H109.757V14.6984H111.646V8.20584H113.868V8.20633Z" fill="black"/>
<g clip-path="url(#clip0)">
<path d="M42.4613 14.8539C43.335 14.8539 43.9539 14.6964 44.415 14.357V12.8178C43.9418 13.145 43.3714 13.3511 42.5705 13.3511C41.2235 13.3511 40.6652 12.3088 40.6652 10.6605C40.6652 8.92733 41.3448 8.04259 42.5826 8.04259C43.3107 8.04259 44.0267 8.2971 44.4029 8.5395V6.93968C44.0024 6.72152 43.3107 6.56396 42.3642 6.56396C39.9493 6.56396 38.6993 8.2971 38.6993 10.7211C38.7115 13.3753 39.9371 14.8539 42.4613 14.8539ZM30.6537 14.151V12.6118C30.0712 13.0117 29.0761 13.3632 28.1659 13.3632C26.7825 13.3632 26.2607 12.7087 26.1758 11.3755H30.7386V10.3817C30.7386 7.60627 29.513 6.56396 27.632 6.56396C25.3263 6.56396 24.2341 8.32134 24.2341 10.7332C24.2341 13.5086 25.6054 14.8539 28.0082 14.8539C29.2096 14.8539 30.0954 14.5267 30.6537 14.151ZM13.3367 6.7094V9.86056H10.8125V6.7094H8.91943V14.6964H10.8125V11.3634H13.3367V14.6964H15.2298V6.7094H13.3367ZM23.7608 13.1935H22.9235V6.7094H17.4141V7.38811C17.4141 9.33941 17.2928 11.8603 16.6253 13.1935H16.0186V16.5144H17.766V14.6964H22.0012V16.5144H23.7487V13.1935H23.7608ZM36.6849 14.6964H38.8328L35.799 10.3938L38.4688 6.7094H36.5635L33.8938 10.3938V6.7094H32.0007V14.6964H33.8938V10.7695L36.6849 14.6964ZM27.5834 8.04259C28.5179 8.04259 28.8091 8.81825 28.8091 9.8242V9.98176H26.1758C26.2243 8.70918 26.6854 8.04259 27.5834 8.04259ZM21.0304 13.1935H18.3607C18.8825 11.9937 19.0281 9.81208 19.0281 8.43042V8.18802H21.0304V13.1935Z" fill="black"/>
<path d="M7.34183 14.6965H5.41232V5.15822H4.55072C2.97314 5.15822 2.14794 5.94601 2.14794 7.12164C2.14794 8.45482 2.7183 9.07293 3.89542 9.86072L4.86624 10.5152L2.07513 14.6965H0L2.512 10.9636C1.0679 9.93344 0.25484 8.92749 0.25484 7.23071C0.25484 5.10974 1.73534 3.66748 4.53858 3.66748H7.32969V14.6965H7.34183Z" fill="#FC3F1D"/>
</g>
<defs>
<linearGradient id="paint0_linear" x1="55.7911" y1="-1.4868" x2="55.7911" y2="18.0435" gradientUnits="userSpaceOnUse">
<stop stop-color="#FFE55B"/>
<stop offset="1" stop-color="#FFCC00"/>
</linearGradient>
<clipPath id="clip0">
<rect width="44.5364" height="12.847" fill="white" transform="translate(0 3.66748)"/>
</clipPath>
</defs>
</svg>
