<svg width="80" height="20" viewBox="0 0 80 20" fill="none" xmlns="http://www.w3.org/2000/svg">
<g clip-path="url(#clip0)">
<path fill-rule="evenodd" clip-rule="evenodd" d="M19.9636 2.54346V14.8228H27.6474V13.2787H21.471V9.41842H26.6548V7.87431H21.471V4.08756H27.243V2.54346H19.9636ZM32.7944 11.5873L35.2944 14.8593H37.0591L33.8238 10.4843L37.2429 5.96231H35.2944L32.7944 9.34464L30.3312 5.96231H28.3459L31.9488 10.4843L28.5297 14.8593H30.2944L32.7944 11.5873ZM39.4856 13.5359V19.602H37.9783V10.5212C37.9783 8.20503 39.7429 5.74181 42.5003 5.74181C45.2944 5.74181 47.39 7.5065 47.39 10.4109C47.39 13.2418 45.2576 15.1903 42.8312 15.1903C41.6547 15.1903 40.0738 14.6756 39.4856 13.5359ZM45.8091 10.4109C45.8091 8.42561 44.5223 7.24915 42.2429 7.35944C41.14 7.39621 39.4488 8.20502 39.5959 11.0359C39.6327 11.955 40.5885 13.6829 42.6841 13.6829C44.4856 13.6829 45.8091 12.6535 45.8091 10.4109ZM48.6768 5.96227V14.8593V14.896H50.1842V9.49165C51.2871 7.13873 53.0886 7.35932 53.2724 7.39608V5.77844C52.0592 5.77844 50.9195 6.07256 50.1842 6.91814V5.96227H48.6768ZM53.6766 10.4109C53.6766 7.83738 55.5148 5.74181 58.0515 5.74181C61.2133 5.74181 62.3897 7.83738 62.3897 10.5212V11.2565H55.331C55.4412 12.9476 56.9486 13.83 58.3456 13.7932C59.375 13.7565 60.0736 13.4624 60.8089 12.7271L61.8015 13.7565C60.8824 14.6388 59.7059 15.227 58.2721 15.227C55.5883 15.1903 53.6766 13.205 53.6766 10.4109ZM57.9412 7.24915C56.5074 7.24915 55.4045 8.49914 55.331 9.85943H60.8089C60.8089 8.53591 59.853 7.24915 57.9412 7.24915ZM64.2633 12.6185L63.162 13.6097C63.162 13.6097 63.3459 13.7935 63.4194 13.7935C64.412 14.7862 65.6252 15.2273 67.0223 15.1538C68.1988 15.117 69.5223 14.6391 69.9635 13.4259C70.3679 12.3229 70.1105 10.8891 69.0443 10.2274C68.4229 9.84266 67.6824 9.67233 66.9569 9.50548C66.7811 9.46504 66.6062 9.42481 66.4341 9.38177C65.7723 9.19795 64.7797 8.86707 65.0003 7.98473C65.1473 7.35973 65.9561 7.10237 66.5444 7.10237C67.7208 7.10237 68.2355 7.43325 68.787 8.09502L69.8899 7.21267C69.9163 7.21267 69.4871 6.81395 69.2162 6.56229L69.2156 6.56174L69.2149 6.56109C69.1094 6.46314 69.0282 6.38769 69.0076 6.36708C67.2796 5.11709 63.4561 5.55827 63.4561 8.24208C63.4561 9.27148 64.0444 9.97001 64.9635 10.3744C65.43 10.5865 65.9209 10.7129 66.4081 10.8384C66.7656 10.9304 67.1211 11.022 67.4635 11.1465C68.0885 11.4038 68.6399 11.8082 68.5664 12.5435C68.4194 13.867 66.6914 13.9406 65.7355 13.6832C65.4047 13.6097 65.1473 13.4626 64.89 13.242C64.8186 13.2064 64.2622 12.651 64.2633 12.6185ZM64.2633 12.6185L64.265 12.6171C64.2639 12.6171 64.2633 12.6176 64.2633 12.6185ZM70.9191 13.6097L72.0204 12.6185C72.0193 12.651 72.5756 13.2064 72.647 13.242C72.9043 13.4626 73.1617 13.6097 73.4926 13.6832C74.4485 13.9406 76.1764 13.867 76.3234 12.5435C76.397 11.8082 75.8455 11.4038 75.2205 11.1465C74.8782 11.022 74.5227 10.9304 74.1651 10.8384C73.6779 10.7129 73.187 10.5865 72.7205 10.3744C71.8014 9.97001 71.2132 9.27148 71.2132 8.24208C71.2132 5.55827 75.0367 5.11709 76.7646 6.36708C76.7853 6.38773 76.8668 6.46348 76.9726 6.56174L76.9732 6.56229C77.2441 6.81395 77.6734 7.21267 77.647 7.21267L76.544 8.09502C75.9926 7.43325 75.4779 7.10237 74.3014 7.10237C73.7132 7.10237 72.9044 7.35973 72.7573 7.98473C72.5367 8.86707 73.5293 9.19795 74.1911 9.38177C74.3632 9.42481 74.5382 9.46504 74.714 9.50548C75.4394 9.67233 76.1799 9.84266 76.8014 10.2274C77.8676 10.8891 78.1249 12.3229 77.7205 13.4259C77.2793 14.6391 75.9558 15.117 74.7793 15.1538C73.3823 15.2273 72.1691 14.7862 71.1764 13.7935C71.1029 13.7935 70.9191 13.6097 70.9191 13.6097ZM72.022 12.6171C72.0209 12.6171 72.0204 12.6176 72.0204 12.6185L72.022 12.6171ZM78.0883 5.96285V5.00697H77.7575V4.82315H78.6398V5.00697H78.3089V5.96285H78.0883ZM79.7428 5.96285V5.0805L79.4119 5.96285H79.3384L79.0075 5.0805V5.96285H78.8237V4.82315H79.1178L79.4119 5.5952L79.706 4.82315H80.0001V5.96285H79.7428Z" fill="#E43225"/>
<path fill-rule="evenodd" clip-rule="evenodd" d="M19.1176 3.24263V3.31616C17.9411 3.35292 16.9853 4.3088 16.9485 5.48527H16.8382H16.7279C16.6911 4.3088 15.7353 3.35292 14.5588 3.31616V3.24263V3.1691C15.7353 3.13234 16.6911 2.17646 16.7279 1H16.8382H16.9485C16.9853 2.17646 17.9411 3.13234 19.1176 3.1691V3.24263ZM8.63966 11.9192L9.74259 14.8603H11.2499L6.50732 2.54422H4.77938L0 14.8603H1.58087L2.68381 11.9192H8.63966ZM3.34557 10.4118L5.5882 4.30891L8.01466 10.4118H3.34557ZM12.2425 2.54422V14.8603H13.7866V2.54422H12.2425ZM16.103 14.8601V6.14694H17.6471V14.8601H16.103Z" fill="#E43225"/>
</g>
<defs>
<clipPath id="clip0">
<rect width="80" height="20" fill="white"/>
</clipPath>
</defs>
</svg>
