<svg width="92" height="32" viewBox="0 0 92 32" fill="none" xmlns="http://www.w3.org/2000/svg">
<g clip-path="url(#clip0)">
<path fill-rule="evenodd" clip-rule="evenodd" d="M11.0172 6.45285C8.96822 6.24509 6.90272 6.65332 5.10458 7.62145C3.30643 8.58958 1.86391 10.0701 0.97529 11.8594C0.0866674 13.6488 -0.204433 15.6592 0.142002 17.6143C0.488436 19.5693 1.4554 21.3732 2.90998 22.7777C4.36456 24.1823 6.23535 25.1187 8.26521 25.4583C10.2951 25.7978 12.3843 25.5238 14.2459 24.6739C16.1074 23.824 17.6498 22.44 18.661 20.712C19.6723 18.984 20.1027 16.9969 19.8932 15.0239C19.6627 12.8307 18.6542 10.781 17.0375 9.21987C15.4208 7.65874 13.2947 6.68156 11.0172 6.45285V6.45285ZM10.694 21.0804C9.59203 21.2227 8.47142 21.029 7.48969 20.5266C6.50795 20.0241 5.71444 19.2382 5.22068 18.2792C4.72691 17.3202 4.55772 16.2364 4.73687 15.18C4.91603 14.1237 5.43452 13.1479 6.21949 12.3899C7.00446 11.6319 8.01643 11.1297 9.11319 10.954C10.2099 10.7782 11.3363 10.9377 12.3341 11.41C13.3318 11.8823 14.1507 12.6437 14.6757 13.5872C15.2007 14.5307 15.4054 15.6089 15.261 16.6701C15.1095 17.7864 14.58 18.8234 13.7543 19.6207C12.9287 20.418 11.8531 20.931 10.694 21.0804V21.0804ZM25.2271 6.83264C24.8812 6.83344 24.5399 6.90845 24.2279 7.05223C23.9159 7.19601 23.6412 7.40493 23.4237 7.66379C23.2061 7.92266 23.0513 8.22495 22.9704 8.54868C22.8895 8.8724 22.8846 9.20942 22.956 9.5352C23.1748 10.5906 24.1989 11.3118 25.3145 11.3118H31.7884L21.7135 24.1466C21.639 24.2413 21.5934 24.3542 21.5817 24.4725C21.5701 24.5908 21.593 24.7099 21.6477 24.8164C21.7025 24.9229 21.7869 25.0127 21.8917 25.0755C21.9965 25.1384 22.1173 25.172 22.2408 25.1724H38.0443C39.1591 25.1724 40.1839 24.4515 40.4027 23.3959C40.4742 23.0701 40.4693 22.7332 40.3885 22.4095C40.3077 22.0858 40.1529 21.7835 39.9355 21.5246C39.718 21.2658 39.4434 21.0568 39.1315 20.9129C38.8197 20.769 38.4784 20.6939 38.1326 20.693H30.2446L40.3118 7.86813C40.387 7.77245 40.4331 7.65849 40.4448 7.53902C40.4565 7.41955 40.4334 7.29931 40.3781 7.19178C40.3227 7.08425 40.2374 6.99368 40.1316 6.93024C40.0258 6.86681 39.9037 6.83301 39.779 6.83264H25.2271V6.83264ZM88.3768 6.88431C87.8536 7.00407 87.3885 7.29214 87.0584 7.70088C86.7284 8.10963 86.5531 8.61456 86.5616 9.13221V16.5898L74.0086 6.9735C73.9102 6.89827 73.7917 6.85133 73.6668 6.83807C73.5418 6.8248 73.4156 6.84576 73.3025 6.89852C73.1894 6.95129 73.094 7.03372 73.0274 7.13633C72.9608 7.23894 72.9257 7.35756 72.926 7.47855V22.8769C72.9175 23.3945 73.0927 23.8995 73.4228 24.3082C73.7529 24.717 74.218 25.005 74.7412 25.1248C75.0809 25.1967 75.4331 25.1943 75.7718 25.1178C76.1105 25.0413 76.427 24.8925 76.698 24.6825C76.9689 24.4725 77.1875 24.2066 77.3375 23.9044C77.4875 23.6023 77.5651 23.2716 77.5646 22.9367V15.4146L90.1177 25.031C90.2162 25.1062 90.3346 25.1531 90.4595 25.1664C90.5844 25.1796 90.7106 25.1587 90.8237 25.1059C90.9367 25.0532 91.032 24.9708 91.0986 24.8682C91.1652 24.7657 91.2003 24.6471 91.2 24.5262V9.07166C91.2004 8.73685 91.1227 8.40624 90.9726 8.10419C90.8226 7.80214 90.6041 7.53635 90.3331 7.32643C90.0622 7.11652 89.7457 6.96781 89.4071 6.89129C89.0686 6.81477 88.7164 6.81239 88.3768 6.88431V6.88431ZM55.6923 10.883C61.0018 10.883 64.9691 13.5841 64.9691 16.0003C64.9691 18.4164 61.0018 21.1175 55.6923 21.1175C50.3827 21.1175 46.4155 18.4164 46.4155 16.0003C46.4155 13.5841 50.3827 10.883 55.6923 10.883V10.883ZM55.6923 6.40409C48.0069 6.40409 41.7769 10.7005 41.7769 16.0003C41.7769 21.3001 48.0069 25.5965 55.6923 25.5965C63.3776 25.5965 69.6075 21.3001 69.6075 16.0003C69.6075 10.7005 63.3775 6.40409 55.6923 6.40409V6.40409Z" fill="#0069FF"/>
</g>
<defs>
<clipPath id="clip0">
<rect width="91.2" height="32" fill="white"/>
</clipPath>
</defs>
</svg>
