<svg width="144" height="32" viewBox="0 0 144 32" fill="none" xmlns="http://www.w3.org/2000/svg">
<g clip-path="url(#clip0)">
<path d="M17.6351 4.02588C18.0953 4.61879 18.4849 5.26316 18.7963 5.94603L9.96961 12.4364L6.2821 10.1302V7.35549L9.96961 9.66169L17.6351 4.02588V4.02588Z" fill="#21A038"/>
<path d="M2.5193 9.93507C2.5193 9.81041 2.52231 9.68675 2.52835 9.5631L0.293527 9.45251C0.22428 10.8019 0.440047 12.1508 0.926776 13.4113C1.4135 14.6717 2.16028 15.8155 3.11847 16.7682L4.70285 15.1878C4.01056 14.4995 3.46123 13.681 3.08649 12.7795C2.71175 11.878 2.51899 10.9113 2.5193 9.93507V9.93507Z" fill="url(#paint0_linear)"/>
<path d="M9.96864 2.50369C10.0933 2.50369 10.2169 2.50771 10.3406 2.51374L10.4522 0.28395C9.10064 0.214252 7.7495 0.429054 6.4862 0.914462C5.22289 1.39987 4.07555 2.14507 3.11841 3.10185L4.70279 4.68322C5.39406 3.99148 6.215 3.4429 7.1186 3.0689C8.0222 2.6949 8.9907 2.50283 9.96864 2.50369V2.50369Z" fill="url(#paint1_linear)"/>
<path d="M9.96964 17.3664C9.84498 17.3664 9.72133 17.3634 9.59767 17.3563L9.48608 19.5861C10.8376 19.6558 12.1888 19.441 13.4521 18.9556C14.7154 18.4702 15.8627 17.725 16.8199 16.7682L15.2355 15.1879C14.544 15.8792 13.723 16.4274 12.8194 16.8013C11.9158 17.1751 10.9475 17.3671 9.96964 17.3664V17.3664Z" fill="url(#paint2_linear)"/>
<path d="M14.1688 3.80077L16.0528 2.41545C14.3303 1.02482 12.1824 0.268151 9.96863 0.27211V2.50391C11.4676 2.50198 12.9319 2.95412 14.1688 3.80077V3.80077Z" fill="url(#paint3_linear)"/>
<path d="M19.656 9.93391C19.656 9.34279 19.6027 8.76473 19.5002 8.20276L17.4161 9.73486L17.4192 9.93291C17.4192 12.1144 16.4711 14.0798 14.9662 15.441L16.4691 17.0998C17.4735 16.1959 18.2763 15.0907 18.8253 13.8561C19.3744 12.6215 19.6574 11.2851 19.656 9.93391V9.93391Z" fill="#21A038"/>
<path d="M9.96985 17.3654C8.92956 17.366 7.90071 17.1485 6.9497 16.7269C5.99869 16.3052 5.14668 15.6888 4.44865 14.9175L2.78687 16.4174C3.69507 17.4205 4.80364 18.2219 6.04092 18.7698C7.27821 19.3177 8.61668 19.5999 9.96985 19.5982V17.3664V17.3654Z" fill="url(#paint4_linear)"/>
<path d="M4.97319 4.42794L3.46924 2.76917C2.46476 3.67302 1.6618 4.77819 1.11256 6.0128C0.563328 7.2474 0.280126 8.5838 0.281376 9.93506H2.51921C2.51921 7.75352 3.46722 5.78813 4.97319 4.42794Z" fill="url(#paint5_linear)"/>
<path d="M55.9417 5.94373L58.5304 4.04066H49.8716V15.4631H58.5304V13.563H52.3417V10.6375H57.6206V8.73449H52.3417V5.94373H55.9417V5.94373ZM43.333 8.49522H40.3261V5.94272H45.1275L47.7162 4.03966H37.853V15.4621H43.0133C45.9076 15.4621 47.5664 14.1552 47.5664 11.8731C47.5664 9.69456 46.0625 8.49321 43.333 8.49321V8.49522ZM42.9028 13.563H40.3271V10.3973H42.9038C44.4721 10.3973 45.2019 10.9271 45.2019 11.9817C45.2019 13.0563 44.4278 13.563 42.9038 13.563H42.9028ZM65.5455 4.04066H60.8316V15.4631H63.3016V12.227H65.5455C68.5554 12.227 70.4233 10.6486 70.4233 8.12828C70.4233 5.60795 68.5534 4.04066 65.5455 4.04066V4.04066ZM65.4922 10.3269H63.3016V5.94373H65.4922C67.0746 5.94373 67.9482 6.72184 67.9482 8.13632C67.9482 9.54879 67.0746 10.3279 65.4922 10.3279V10.3269ZM33.6116 12.99C32.9783 13.3398 32.2414 13.5228 31.4783 13.5228C29.2516 13.5228 27.632 11.9354 27.632 9.75086C27.632 7.56631 29.2485 5.97891 31.4783 5.97891C32.3208 5.97891 33.0778 6.21617 33.7252 6.68163L35.4976 5.37874L35.381 5.27821C34.3465 4.3694 32.9652 3.89087 31.3828 3.89087C29.6668 3.89087 28.1095 4.46792 26.9996 5.51446C25.8837 6.56803 25.2665 8.05087 25.2665 9.68954C25.2665 11.3352 25.8797 12.8382 26.9936 13.9259C28.1095 15.0147 29.6637 15.6149 31.3657 15.6149C33.1451 15.6149 34.7034 14.9946 35.757 13.8666C34.9427 13.2695 34.1585 12.6914 34.1585 12.6914L33.6126 12.99H33.6116Z" fill="#21A038"/>
<path d="M36.3742 23.6926L32.6948 29.7587H31.6653L27.9075 23.777V32.271H25.8636V20.8586H28.4473L32.2394 27.0695L35.9982 20.8586H38.417V32.271H36.3742V23.6926ZM48.5315 27.3278H43.2697V30.392H49.3177V32.2669H41.2259V20.8556H49.1367V22.7295H43.2697V25.4529H48.5315V27.3278ZM59.3487 22.7305H53.6285V32.2669H51.5867V20.8556H59.3497V22.7295L59.3487 22.7305ZM69.8573 32.2669H67.6838L66.59 29.5606H61.3443L60.2656 32.2669H58.1906L62.8312 20.8556H65.1514L69.8563 32.2659L69.8573 32.2669ZM65.836 27.6857L63.9561 23.006L62.0762 27.6857H65.836ZM85.3553 23.6916L81.6758 29.7577H80.6474L76.8885 23.776V32.269H74.8457V20.8586H77.4294L81.2214 27.0684L84.9793 20.8586H87.3991V32.269H85.3553V23.6916V23.6916ZM100.505 32.2669H98.3339L97.2361 29.5606H91.9914L90.9117 32.2669H88.8377L93.4782 20.8556H95.7985L100.506 32.2659L100.505 32.2669ZM96.4871 27.6857L94.6082 23.006L92.7283 27.6857H96.4882H96.4871ZM104.005 28.7142V32.271H101.961V20.8586H105.768C107.577 20.8586 108.888 21.1823 109.699 21.8277C110.51 22.4731 110.917 23.4403 110.917 24.72C110.917 26.0571 110.482 27.0574 109.609 27.7199C108.738 28.3824 107.458 28.7152 105.768 28.7152H104.005V28.7142ZM104.005 22.7295V26.8372H105.918C106.876 26.8372 107.597 26.6713 108.074 26.3416C108.555 26.0088 108.792 25.4529 108.792 24.6698C108.792 23.965 108.569 23.4634 108.123 23.1698C107.675 22.8763 106.952 22.7295 105.949 22.7295H104.005ZM115.049 32.2669H113.007V20.8556H115.049V25.6479H116.764L120.442 20.8556H122.926L118.562 26.2843L123.63 32.2659H121.015L116.864 27.3278H115.049V32.2669ZM132.391 27.3278H127.129V30.392H133.177V32.2669H125.085V20.8556H132.996V22.7295H127.129V25.4529H132.391V27.3278V27.3278ZM143.943 22.7305H140.086V32.2669H138.042V22.7295H134.25V20.8556H143.94V22.7295H143.943V22.7305Z" fill="#632895"/>
</g>
<defs>
<linearGradient id="paint0_linear" x1="2.8792" y1="16.4887" x2="0.614224" y2="9.923" gradientUnits="userSpaceOnUse">
<stop offset="0.144" stop-color="#F2E913"/>
<stop offset="0.304" stop-color="#E7E518"/>
<stop offset="0.582" stop-color="#CADB26"/>
<stop offset="0.891" stop-color="#A3CD39"/>
</linearGradient>
<linearGradient id="paint1_linear" x1="3.75779" y1="2.85253" x2="9.55344" y2="0.638827" gradientUnits="userSpaceOnUse">
<stop offset="0.059" stop-color="#0FA8E0"/>
<stop offset="0.538" stop-color="#0099F9"/>
<stop offset="0.923" stop-color="#0291EB"/>
</linearGradient>
<linearGradient id="paint2_linear" x1="9.3383" y1="17.7092" x2="16.2428" y2="16.1449" gradientUnits="userSpaceOnUse">
<stop offset="0.123" stop-color="#A3CD39"/>
<stop offset="0.285" stop-color="#86C339"/>
<stop offset="0.869" stop-color="#21A038"/>
</linearGradient>
<linearGradient id="paint3_linear" x1="9.50116" y1="1.6876" x2="15.2435" y2="3.46399" gradientUnits="userSpaceOnUse">
<stop offset="0.057" stop-color="#0291EB"/>
<stop offset="0.79" stop-color="#0C8ACB"/>
</linearGradient>
<linearGradient id="paint4_linear" x1="3.34783" y1="16.7773" x2="9.51645" y2="19.0875" gradientUnits="userSpaceOnUse">
<stop offset="0.132" stop-color="#F2E913"/>
<stop offset="0.298" stop-color="#EBE716"/>
<stop offset="0.531" stop-color="#D9E01F"/>
<stop offset="0.802" stop-color="#BBD62D"/>
<stop offset="0.983" stop-color="#A3CD39"/>
</linearGradient>
<linearGradient id="paint5_linear" x1="1.99041" y1="10.2055" x2="4.44037" y2="3.81872" gradientUnits="userSpaceOnUse">
<stop offset="0.07" stop-color="#A3CD39"/>
<stop offset="0.26" stop-color="#81C55F"/>
<stop offset="0.922" stop-color="#0FA8E0"/>
</linearGradient>
<clipPath id="clip0">
<rect width="144" height="32" fill="white"/>
</clipPath>
</defs>
</svg>
