<svg width="183" height="32" viewBox="0 0 183 32" fill="none" xmlns="http://www.w3.org/2000/svg">
<g clip-path="url(#clip0)">
<path d="M77.5439 14.922C77.5439 8.44812 82.792 3.20001 89.2659 3.20001V3.20001C95.7397 3.20001 100.988 8.44812 100.988 14.922V14.922C100.988 21.3959 95.7397 26.644 89.2659 26.644V26.644C82.792 26.644 77.5439 21.3959 77.5439 14.922V14.922Z" fill="url(#paint0_linear)"/>
<path fill-rule="evenodd" clip-rule="evenodd" d="M79.4133 21.2734C78.6298 20.0605 78.0641 18.6936 77.7717 17.2282L84.0129 9.78576L87.4061 11.7425L86.7856 15.7749L93.0139 6.88965L97.344 8.47055L96.3046 14.3769L100.14 10.5343C100.687 11.8894 100.989 13.3702 100.989 14.9214C100.989 14.9894 100.988 15.0572 100.987 15.1249L94.3838 21.7336L90.9438 19.7432L92.3262 14.5996L86.0166 23.5935L81.7701 22.0556L83.1408 16.8244L79.4133 21.2734Z" fill="black"/>
<path d="M113.459 23.5177H115.999L119.606 10.1836V23.5177H122.501V5.86676H118.514L114.933 18.8703L111.402 5.86676H107.339V23.5177H109.853V10.1836L113.459 23.5177ZM134.597 14.8059C134.597 11.7074 133.022 10.5391 129.822 10.5391C127.816 10.5391 126.242 11.1745 125.327 11.7074V14.2222C126.14 13.6126 127.918 12.9523 129.467 12.9523C130.915 12.9523 131.575 13.4603 131.575 14.8317V15.5429H131.092C126.47 15.5429 124.413 17.0667 124.413 19.6573C124.413 22.2478 125.988 23.6959 128.324 23.6959C130.102 23.6959 130.864 23.1114 131.448 22.5018H131.575C131.6 22.8316 131.702 23.2637 131.803 23.5177H134.749C134.648 22.4796 134.597 21.4372 134.597 20.3942V14.8067V14.8059ZM131.575 20.47C131.194 21.0288 130.483 21.4859 129.416 21.4859C128.146 21.4859 127.511 20.724 127.511 19.5807C127.511 18.0826 128.552 17.5489 131.143 17.5489H131.575V20.47ZM139.821 10.7423H137.027V27.2H140.049V22.0189C140.811 23.1622 141.929 23.7717 143.224 23.7717C146.17 23.7717 148.202 21.4093 148.202 17.1175C148.202 12.8507 146.221 10.4891 143.377 10.4891C141.954 10.4891 140.786 11.1495 139.973 12.3936L139.821 10.7423V10.7423ZM142.462 21.3843C140.862 21.3843 140.049 20.0894 140.049 17.1433C140.049 14.1714 140.913 12.8765 142.615 12.8765C144.265 12.8765 145.078 14.1714 145.078 17.1175C145.078 20.0894 144.214 21.3843 142.462 21.3843V21.3843ZM157.714 23.5177H161.143L156.292 16.6346L160.559 10.7423H157.511L153.244 16.6346V10.7423H150.222V23.5177H153.244V17.2449L157.714 23.5177ZM171.31 22.6542V20.191C170.37 20.8256 168.795 21.3843 167.322 21.3843C165.113 21.3843 164.275 20.3434 164.148 18.2092H171.437V16.6096C171.437 12.1646 169.482 10.4891 166.459 10.4891C162.777 10.4891 161.024 13.3079 161.024 17.1683C161.024 21.6133 163.208 23.7717 167.068 23.7717C168.999 23.7717 170.421 23.2638 171.31 22.6542V22.6542ZM166.408 12.8765C167.907 12.8765 168.364 14.1206 168.364 15.721V15.975H164.148C164.224 13.9432 164.961 12.8765 166.408 12.8765ZM182.189 13.1305V10.7423H172.055V13.1305H175.611V23.5177H178.633V13.1297H182.189V13.1305Z" fill="black"/>
<g clip-path="url(#clip1)">
<path d="M67.938 23.7663C69.336 23.7663 70.3262 23.5142 71.064 22.9713V20.5085C70.3068 21.0321 69.3942 21.3618 68.1127 21.3618C65.9575 21.3618 65.0644 19.6941 65.0644 17.0568C65.0644 14.2838 66.1517 12.8682 68.1321 12.8682C69.2971 12.8682 70.4427 13.2754 71.0446 13.6632V11.1035C70.4039 10.7545 69.2971 10.5024 67.7827 10.5024C63.9188 10.5024 61.9189 13.2754 61.9189 17.1537C61.9383 21.4005 63.8994 23.7663 67.938 23.7663ZM49.0458 22.6416V20.1789C48.1138 20.8188 46.5217 21.3811 45.0655 21.3811C42.852 21.3811 42.0171 20.334 41.8812 18.2009H49.1817V16.6108C49.1817 12.1701 47.2207 10.5024 44.2111 10.5024C40.522 10.5024 38.7746 13.3142 38.7746 17.1731C38.7746 21.6138 40.9686 23.7663 44.8131 23.7663C46.7353 23.7663 48.1527 23.2428 49.0458 22.6416ZM21.3386 10.7351V15.7769H17.3V10.7351H14.2711V23.5142H17.3V18.1815H21.3386V23.5142H24.3676V10.7351H21.3386ZM38.0173 21.1097H36.6776V10.7351H27.8625V11.821C27.8625 14.9431 27.6684 18.9766 26.6005 21.1097H25.6297V26.423H28.4256V23.5142H35.2019V26.423H37.9979V21.1097H38.0173ZM58.6958 23.5142H62.1325L57.2784 16.6302L61.55 10.7351H58.5016L54.23 16.6302V10.7351H51.2011V23.5142H54.23V17.2313L58.6958 23.5142ZM44.1335 12.8682C45.6285 12.8682 46.0945 14.1092 46.0945 15.7188V15.9709H41.8812C41.9588 13.9347 42.6967 12.8682 44.1335 12.8682ZM33.6486 21.1097H29.377C30.2119 19.1899 30.4449 15.6994 30.4449 13.4887V13.1009H33.6486V21.1097Z" fill="black"/>
<path d="M11.7469 23.5141H8.65972V8.2528H7.28115C4.75702 8.2528 3.4367 9.51326 3.4367 11.3943C3.4367 13.5274 4.34927 14.5163 6.23267 15.7768L7.78598 16.824L3.32021 23.5141H0L4.0192 17.5414C1.70864 15.8931 0.407744 14.2836 0.407744 11.5688C0.407744 8.17523 2.77655 5.86761 7.26174 5.86761H11.7275V23.5141H11.7469Z" fill="#FC3F1D"/>
</g>
</g>
<defs>
<linearGradient id="paint0_linear" x1="89.2659" y1="-2.37887" x2="89.2659" y2="28.8696" gradientUnits="userSpaceOnUse">
<stop stop-color="#FFE55B"/>
<stop offset="1" stop-color="#FFCC00"/>
</linearGradient>
<clipPath id="clip0">
<rect width="182.4" height="32" fill="white"/>
</clipPath>
<clipPath id="clip1">
<rect width="71.2582" height="20.5552" fill="white" transform="translate(0 5.86761)"/>
</clipPath>
</defs>
</svg>
