<svg width="48" height="48" viewBox="0 0 48 48" fill="none" xmlns="http://www.w3.org/2000/svg">
<path d="M43.4201 40.5808L36.0001 33.2208C38.8803 29.6296 40.2751 25.0714 39.8977 20.4834C39.5203 15.8954 37.3994 11.6264 33.9711 8.55407C30.5428 5.4818 26.0677 3.83981 21.4659 3.96573C16.8641 4.09165 12.4855 5.97591 9.23034 9.23107C5.97518 12.4862 4.09091 16.8649 3.96499 21.4666C3.83907 26.0684 5.48107 30.5435 8.55334 33.9718C11.6256 37.4001 15.8947 39.521 20.4827 39.8984C25.0706 40.2758 29.6289 38.881 33.2201 36.0008L40.5801 43.3608C40.766 43.5482 40.9872 43.697 41.2309 43.7986C41.4746 43.9001 41.736 43.9524 42.0001 43.9524C42.2641 43.9524 42.5255 43.9001 42.7692 43.7986C43.0129 43.697 43.2341 43.5482 43.4201 43.3608C43.7805 42.9879 43.982 42.4895 43.982 41.9708C43.982 41.4521 43.7805 40.9537 43.4201 40.5808ZM22.0001 36.0008C19.2311 36.0008 16.5244 35.1797 14.2221 33.6414C11.9198 32.103 10.1254 29.9165 9.06574 27.3584C8.00611 24.8002 7.72887 21.9853 8.26906 19.2695C8.80925 16.5538 10.1426 14.0592 12.1006 12.1013C14.0585 10.1434 16.5531 8.80998 19.2688 8.26979C21.9845 7.7296 24.7995 8.00684 27.3576 9.06647C29.9158 10.1261 32.1023 11.9205 33.6406 14.2228C35.179 16.5251 36.0001 19.2318 36.0001 22.0008C36.0001 25.7138 34.5251 29.2748 31.8995 31.9003C29.274 34.5258 25.7131 36.0008 22.0001 36.0008Z" fill="#174F77"/>
</svg>
