<svg width="48" height="48" viewBox="0 0 48 48" fill="none" xmlns="http://www.w3.org/2000/svg">
<path d="M14 32C14.7956 32 15.5587 31.6839 16.1213 31.1213C16.6839 30.5587 17 29.7956 17 29C17.0098 28.9002 17.0098 28.7998 17 28.7L22.58 23.12H23.04H23.5L26.72 26.34C26.72 26.34 26.72 26.44 26.72 26.5C26.72 27.2956 27.0361 28.0587 27.5987 28.6213C28.1613 29.1839 28.9244 29.5 29.72 29.5C30.5156 29.5 31.2787 29.1839 31.8413 28.6213C32.4039 28.0587 32.72 27.2956 32.72 26.5V26.34L40 19C40.5933 19 41.1734 18.8241 41.6667 18.4944C42.1601 18.1648 42.5446 17.6962 42.7716 17.1481C42.9987 16.5999 43.0581 15.9967 42.9424 15.4147C42.8266 14.8328 42.5409 14.2982 42.1213 13.8787C41.7018 13.4591 41.1672 13.1734 40.5853 13.0576C40.0033 12.9419 39.4001 13.0013 38.852 13.2284C38.3038 13.4554 37.8352 13.8399 37.5056 14.3333C37.1759 14.8266 37 15.4067 37 16C36.9902 16.0998 36.9902 16.2002 37 16.3L29.78 23.52H29.46L26 20C26 19.2044 25.6839 18.4413 25.1213 17.8787C24.5587 17.3161 23.7956 17 23 17C22.2044 17 21.4413 17.3161 20.8787 17.8787C20.3161 18.4413 20 19.2044 20 20L14 26C13.2044 26 12.4413 26.3161 11.8787 26.8787C11.3161 27.4413 11 28.2044 11 29C11 29.7956 11.3161 30.5587 11.8787 31.1213C12.4413 31.6839 13.2044 32 14 32ZM41 40H7V6C7 5.46957 6.78929 4.96086 6.41421 4.58579C6.03914 4.21071 5.53043 4 5 4C4.46957 4 3.96086 4.21071 3.58579 4.58579C3.21071 4.96086 3 5.46957 3 6V42C3 42.5304 3.21071 43.0391 3.58579 43.4142C3.96086 43.7893 4.46957 44 5 44H41C41.5304 44 42.0391 43.7893 42.4142 43.4142C42.7893 43.0391 43 42.5304 43 42C43 41.4696 42.7893 40.9609 42.4142 40.5858C42.0391 40.2107 41.5304 40 41 40Z" fill="#174F77"/>
</svg>
