<svg width="48" height="48" viewBox="0 0 48 48" fill="none" xmlns="http://www.w3.org/2000/svg">
<path d="M27.66 21.1C27.4986 21.3489 27.2839 21.5588 27.0314 21.7144C26.7789 21.8701 26.4949 21.9676 26.2 22C25.9038 22.03 25.6047 21.9935 25.3244 21.8931C25.0442 21.7928 24.7898 21.6311 24.58 21.42L22.32 19.14L19.66 23.14C19.4743 23.4077 19.226 23.626 18.9367 23.7759C18.6474 23.9258 18.3258 24.0027 18 24C17.6068 24.0045 17.2221 23.8856 16.9 23.66C16.4616 23.3668 16.1567 22.9122 16.0519 22.3953C15.947 21.8784 16.0505 21.3409 16.34 20.9L20.34 14.9C20.5014 14.6511 20.7161 14.4412 20.9686 14.2856C21.2211 14.1299 21.5051 14.0324 21.8 14C22.0962 13.97 22.3953 14.0065 22.6756 14.1069C22.9558 14.2072 23.2102 14.3689 23.42 14.58L25.68 16.86L28.34 12.86C28.4715 12.6148 28.6528 12.3997 28.8722 12.2285C29.0916 12.0573 29.3443 11.9338 29.6142 11.8659C29.8841 11.798 30.1651 11.7871 30.4394 11.834C30.7137 11.8809 30.9752 11.9845 31.2072 12.1382C31.4392 12.2919 31.6365 12.4924 31.7866 12.7267C31.9367 12.961 32.0362 13.2241 32.0789 13.4991C32.1215 13.7741 32.1062 14.055 32.0341 14.3237C31.962 14.5925 31.8346 14.8433 31.66 15.06L27.66 21.1ZM6 28H8V8H6C5.46957 8 4.96086 7.78929 4.58578 7.41421C4.21071 7.03914 4 6.53043 4 6C4 5.46957 4.21071 4.96086 4.58578 4.58579C4.96086 4.21071 5.46957 4 6 4H42C42.5304 4 43.0391 4.21071 43.4142 4.58579C43.7893 4.96086 44 5.46957 44 6C44 6.53043 43.7893 7.03914 43.4142 7.41421C43.0391 7.78929 42.5304 8 42 8H40V28H42C42.5304 28 43.0391 28.2107 43.4142 28.5858C43.7893 28.9609 44 29.4696 44 30C44 30.5304 43.7893 31.0391 43.4142 31.4142C43.0391 31.7893 42.5304 32 42 32H26V34.3L35.1 40.3C35.4733 40.5311 35.7602 40.8786 35.9165 41.289C36.0727 41.6993 36.0895 42.1496 35.9644 42.5705C35.8393 42.9914 35.5792 43.3594 35.2241 43.6177C34.8691 43.8761 34.4389 44.0104 34 44C33.6068 44.0045 33.2221 43.8856 32.9 43.66L26 39.1V42C26 42.5304 25.7893 43.0391 25.4142 43.4142C25.0391 43.7893 24.5304 44 24 44C23.4696 44 22.9609 43.7893 22.5858 43.4142C22.2107 43.0391 22 42.5304 22 42V39.1L15.1 43.66C14.7779 43.8856 14.3932 44.0045 14 44C13.5727 43.9967 13.1577 43.8566 12.8158 43.6003C12.4739 43.344 12.2231 42.9849 12.1001 42.5757C11.9771 42.1665 11.9884 41.7286 12.1323 41.3263C12.2763 40.924 12.5453 40.5783 12.9 40.34L22 34.34V32H6C5.46957 32 4.96086 31.7893 4.58578 31.4142C4.21071 31.0391 4 30.5304 4 30C4 29.4696 4.21071 28.9609 4.58578 28.5858C4.96086 28.2107 5.46957 28 6 28ZM12 28H36V8H12V28Z" fill="#174F77"/>
</svg>
