<svg width="557" height="326" viewBox="0 0 557 326" fill="none" xmlns="http://www.w3.org/2000/svg">
<path fill-rule="evenodd" clip-rule="evenodd" d="M0.738415 267.524C7.24191 253.342 76.6059 249.72 119.466 241.621C149.704 235.907 179.141 230.891 214.043 227.219C255.395 222.869 295.452 215.649 340.917 218.322C389.555 221.181 426.354 231.797 460.839 241.726C501.377 253.398 563.268 265.468 556.444 280.377C549.498 295.551 475.832 299.584 430.334 308.373C397.835 314.651 369.625 322.661 328.799 324.35C289.684 325.969 251.294 320.832 212.307 317.395C169.682 313.637 125.214 311.429 91.1375 303.397C49.3844 293.555 -5.64037 281.434 0.738415 267.524Z" fill="#F0F5F7"/>
<path d="M502.892 0.225281H119.759C116.445 0.225281 113.759 2.91158 113.759 6.22529V248.741C113.759 252.054 116.445 254.741 119.759 254.741H502.892C506.206 254.741 508.892 252.054 508.892 248.741V6.22528C508.892 2.91157 506.206 0.225281 502.892 0.225281Z" fill="#DBEBF1"/>
<path d="M291.347 34.4025H148.699V181.825H291.347V34.4025Z" fill="white"/>
<path d="M487.348 37.2615H344.7V216.314H487.348V37.2615Z" fill="white"/>
<path d="M485.447 273.246C499.56 273.246 511 271.602 511 269.574C511 267.546 499.56 265.903 485.447 265.903C471.334 265.903 459.894 267.546 459.894 269.574C459.894 271.602 471.334 273.246 485.447 273.246Z" fill="#DBEBF1"/>
<path d="M229.97 273.328C244.083 273.328 255.524 271.684 255.524 269.656C255.524 267.629 244.083 265.985 229.97 265.985C215.858 265.985 204.417 267.629 204.417 269.656C204.417 271.684 215.858 273.328 229.97 273.328Z" fill="#DBEBF1"/>
<path d="M69.6458 268.809C102.035 268.809 128.292 267.545 128.292 265.985C128.292 264.425 102.035 263.161 69.6458 263.161C37.2566 263.161 11 264.425 11 265.985C11 267.545 37.2566 268.809 69.6458 268.809Z" fill="#DBEBF1"/>
<path d="M502.723 0H119.59C116.276 0 113.59 2.6863 113.59 6V16.8832H508.723V6C508.723 2.68629 506.037 0 502.723 0Z" fill="#94CBDF"/>
<path d="M126.064 11.7607C127.783 11.7607 129.176 10.3597 129.176 8.63155C129.176 6.90336 127.783 5.50238 126.064 5.50238C124.346 5.50238 122.953 6.90336 122.953 8.63155C122.953 10.3597 124.346 11.7607 126.064 11.7607Z" fill="#E6E6E6"/>
<path d="M137.874 11.7607C139.593 11.7607 140.986 10.3597 140.986 8.63155C140.986 6.90336 139.593 5.50238 137.874 5.50238C136.156 5.50238 134.763 6.90336 134.763 8.63155C134.763 10.3597 136.156 11.7607 137.874 11.7607Z" fill="#E6E6E6"/>
<path d="M149.684 11.7607C151.402 11.7607 152.795 10.3597 152.795 8.63155C152.795 6.90336 151.402 5.50238 149.684 5.50238C147.965 5.50238 146.573 6.90336 146.573 8.63155C146.573 10.3597 147.965 11.7607 149.684 11.7607Z" fill="#E6E6E6"/>
<path d="M455.898 85.2893H455.034V61.4812C455.034 59.6717 454.68 57.8798 453.991 56.208C453.303 54.5362 452.293 53.0172 451.021 51.7376C449.749 50.4581 448.239 49.4431 446.576 48.7506C444.914 48.0581 443.132 47.7017 441.333 47.7017H391.181C389.382 47.7017 387.6 48.0581 385.938 48.7506C384.275 49.4431 382.765 50.4581 381.493 51.7376C380.221 53.0172 379.211 54.5362 378.523 56.208C377.834 57.8798 377.48 59.6717 377.48 61.4812V192.094C377.48 193.904 377.834 195.696 378.523 197.368C379.211 199.039 380.221 200.559 381.493 201.838C382.765 203.118 384.275 204.133 385.938 204.825C387.6 205.518 389.382 205.874 391.181 205.874H441.333C443.132 205.874 444.914 205.518 446.576 204.825C448.239 204.133 449.749 203.118 451.021 201.838C452.293 200.559 453.303 199.039 453.991 197.368C454.68 195.696 455.034 193.904 455.034 192.094V102.236H455.898V85.2893Z" fill="#4D4D4D"/>
<path d="M441.324 51.2867H434.778C435.079 52.029 435.194 52.8344 435.112 53.632C435.031 54.4295 434.756 55.1947 434.311 55.8601C433.867 56.5255 433.266 57.0707 432.563 57.4477C431.859 57.8248 431.074 58.022 430.277 58.022H401.545C400.748 58.022 399.963 57.8247 399.26 57.4477C398.556 57.0707 397.956 56.5255 397.511 55.8601C397.067 55.1947 396.792 54.4295 396.71 53.632C396.629 52.8344 396.744 52.029 397.045 51.2867H390.93C389.587 51.2867 388.256 51.5528 387.015 52.07C385.774 52.5871 384.646 53.3451 383.696 54.3007C382.745 55.2562 381.992 56.3906 381.478 57.6391C380.963 58.8876 380.699 60.2257 380.699 61.577V191.999C380.699 193.35 380.963 194.688 381.478 195.937C381.992 197.185 382.745 198.319 383.696 199.275C384.646 200.231 385.774 200.989 387.015 201.506C388.256 202.023 389.587 202.289 390.93 202.289H441.324C442.668 202.289 443.998 202.023 445.24 201.506C446.481 200.989 447.609 200.231 448.559 199.275C449.509 198.319 450.263 197.185 450.777 195.937C451.291 194.688 451.556 193.35 451.556 191.999V61.577C451.556 58.8479 450.478 56.2305 448.559 54.3006C446.64 52.3708 444.038 51.2867 441.324 51.2867Z" fill="white"/>
<path d="M269.696 127.526H170.547V132.074H269.696V127.526Z" fill="#DBEBF1"/>
<path d="M269.696 142.212H170.547V146.76H269.696V142.212Z" fill="#94CBDF"/>
<path d="M269.696 156.897H170.547V161.446H269.696V156.897Z" fill="#DBEBF1"/>
<path d="M445.63 137.45H387.748V141.999H445.63V137.45Z" fill="#DBEBF1"/>
<path d="M445.63 151.571H387.748V156.119H445.63V151.571Z" fill="#DBEBF1"/>
<path d="M445.63 165.692H387.748V170.24H445.63V165.692Z" fill="#DBEBF1"/>
<path d="M451.681 236.322V226.619H442.035V236.322H451.681Z" fill="#4D4D4D"/>
<path d="M436.139 236.322V226.619H426.492V236.322H436.139Z" fill="#94CBDF"/>
<path d="M420.597 236.322V226.619H410.95V236.322H420.597Z" fill="#4D4D4D"/>
<path d="M405.055 236.322V226.619H395.408V236.322H405.055Z" fill="#4D4D4D"/>
<path d="M389.512 236.322V226.619H379.866V236.322H389.512Z" fill="#4D4D4D"/>
<path d="M432.205 78.5066H400.049V110.848H432.205V78.5066Z" fill="#DBEBF1"/>
<path d="M207.341 155.665L206.925 156.502L205.676 150.223C205.676 150.223 204.011 143.525 207.341 143.525C210.671 143.525 209.838 150.223 209.838 150.223V154.827L207.341 155.665Z" fill="#A0616A"/>
<path d="M261.952 154.807L262.368 155.645L263.617 149.365C263.617 149.365 265.282 142.667 261.952 142.667C258.622 142.667 259.455 149.365 259.455 149.365V153.97L261.952 154.807Z" fill="#A0616A"/>
<path d="M225.655 202.742L220.66 233.72L223.157 263.86L228.985 261.349L228.152 238.743L233.979 220.742L235.228 242.092L232.731 264.278L240.223 265.116L245.634 219.486L245.218 203.998L225.655 202.742Z" fill="#4D4D4D"/>
<path d="M225.655 260.093L222.741 264.697V274.987C222.741 275.283 222.846 275.57 223.037 275.795C223.228 276.021 223.493 276.171 223.784 276.218C225.212 276.454 227.698 276.621 228.568 275.163C229.817 273.07 228.985 268.465 228.985 268.465C228.985 268.465 230.65 265.116 229.817 262.604C228.985 260.093 228.152 259.674 228.152 259.674L225.655 260.093Z" fill="#4D4D4D"/>
<path d="M238.142 264.279L238.974 265.535C238.974 265.535 240.223 266.79 239.39 267.628C238.779 268.278 238.223 268.978 237.725 269.721C237.725 269.721 233.147 270.977 233.147 269.302V263.86L238.142 264.279Z" fill="#4D4D4D"/>
<path d="M236.642 168.671C239.689 168.671 242.159 166.186 242.159 163.122C242.159 160.057 239.689 157.573 236.642 157.573C233.594 157.573 231.124 160.057 231.124 163.122C231.124 166.186 233.594 168.671 236.642 168.671Z" fill="#A0616A"/>
<path d="M232.939 164.857L232.523 172.811L240.015 173.229L239.598 165.275L232.939 164.857Z" fill="#A0616A"/>
<path d="M241.055 173.438L239.874 170.535C239.874 170.535 234.396 168.415 232.731 170.508L231.898 173.02L225.239 171.345L221.493 179.718L224.822 203.579C224.822 203.579 233.563 214.882 245.218 203.998L248.547 181.392L246.05 172.601L241.055 173.438Z" fill="#1D7CAA"/>
<path d="M245.218 174.276L246.05 172.601L254.375 167.578L259.455 152.453L263.386 154.148L258.953 172.183L246.882 183.485L245.218 174.276Z" fill="#1D7CAA"/>
<path d="M226.071 172.183L225.239 171.346L216.498 165.903L210.254 153.345L205.26 155.019L210.671 170.508L223.99 181.392L226.071 172.183Z" fill="#1D7CAA"/>
<path d="M240.737 154.624L241.639 154.17L240.286 153.717V153.263C240.286 153.263 233.52 150.541 232.618 155.077C231.453 156.651 230.825 158.56 230.825 160.521C230.825 162.482 231.453 164.392 232.618 165.965V167.326L239.835 168.233L240.737 165.511C240.737 165.511 245.247 157.346 240.737 154.624Z" fill="#4D4D4D"/>
<path d="M75.6352 203.233L74.0316 204.04C74.0316 204.04 67.6171 206.996 69.488 208.609C71.3589 210.222 76.4371 206.996 76.4371 206.996L77.5061 205.652L75.6352 203.233Z" fill="#FFCBCB"/>
<path d="M122.554 202.832L117.597 236.297L110.113 259.682L106.104 257.801L109.846 225.813L99.155 216.674L99.957 203.233L122.554 202.832Z" fill="#4D4D4D"/>
<path d="M105.57 258.607C105.57 258.607 110.113 256.188 110.38 259.683L109.846 263.177C109.846 263.177 111.45 269.36 106.104 268.016C100.759 266.672 104.501 262.639 104.501 262.639L105.57 258.607Z" fill="#4D4D4D"/>
<path d="M102.63 213.717L99.155 216.674C99.155 216.674 99.155 234.952 101.56 237.64C103.966 240.329 119.2 254.038 119.735 254.575C120.269 255.113 122.675 249.199 122.675 249.199L108.242 232.264L109.311 221.781L102.63 213.717Z" fill="#4D4D4D"/>
<path d="M121.071 248.393C121.071 248.393 125.348 247.586 125.348 250.543C125.401 252.881 125.579 255.214 125.882 257.532C125.882 257.532 126.951 266.94 123.477 265.596C120.002 264.252 118.666 254.844 118.666 254.844C118.989 254.062 119.55 253.403 120.269 252.962C121.338 252.425 121.071 248.393 121.071 248.393Z" fill="#4D4D4D"/>
<path d="M107.708 162.912L108.51 172.858L106.372 176.621L100.492 170.976L99.957 163.45L107.708 162.912Z" fill="#FFCBCB"/>
<path d="M102.897 166.138C106.44 166.138 109.311 163.249 109.311 159.686C109.311 156.123 106.44 153.235 102.897 153.235C99.3543 153.235 96.4824 156.123 96.4824 159.686C96.4824 163.249 99.3543 166.138 102.897 166.138Z" fill="#FFCBCB"/>
<path d="M105.57 172.589L108.242 164.794L113.053 170.17L121.873 204.308L115.191 208.341L112.252 204.039L111.717 209.684L98.6203 206.996L97.5515 170.976L100.223 167.192L105.57 172.589Z" fill="#FADB1E"/>
<path d="M101.828 210.76L100.224 167.213L96.7496 169.901L90.335 174.202L94.6116 189.524L95.9477 205.653L101.828 210.76Z" fill="#4D4D4D"/>
<path d="M92.2062 174.471L90.335 174.202L84.9896 190.061L74.2988 203.502L78.3081 207.803L90.6023 195.706L95.1463 185.761L92.2062 174.471Z" fill="#4D4D4D"/>
<path d="M121.394 203.479L121.029 205.245C121.029 205.245 119.361 212.14 121.779 211.663C124.197 211.186 124.828 205.179 124.828 205.179L124.441 203.502L121.394 203.479Z" fill="#FFCBCB"/>
<path d="M107.825 164.357L121.071 169.632L119.468 185.761L122.675 203.502L119.468 206.996L107.609 166.642L107.825 164.357Z" fill="#4D4D4D"/>
<path d="M103.233 148.851L105.116 147.904V148.851L106.371 148.22V149.798C106.371 149.798 111.078 153.27 110.137 157.373C109.195 161.476 109.195 161.791 109.195 161.791C109.195 161.791 108.005 153.989 103.298 155.251C98.5907 156.514 98.2119 156.742 96.9566 160.213L96.6161 161.703C96.6161 161.703 91.3081 149.483 103.233 148.851Z" fill="#4D4D4D"/>
<path d="M119.2 169.632H121.338L124.813 188.449V204.846L120.537 204.039L117.062 179.309L119.2 169.632Z" fill="#4D4D4D"/>
<path d="M85.7906 209.425H18.9854C15.6716 209.425 12.9854 212.111 12.9854 215.425V258.503C12.9854 261.816 15.6717 264.503 18.9854 264.503H85.7906C89.1043 264.503 91.7906 261.816 91.7906 258.503V215.425C91.7906 212.111 89.1043 209.425 85.7906 209.425Z" fill="#94CBDF"/>
<path d="M269.444 51.3476H170.602V108.396H269.444V51.3476Z" fill="#DBEBF1"/>
<path d="M464.892 164.499L465.35 161.528C465.35 161.528 468.02 155.425 465.91 155.096C463.8 154.767 462.04 160.577 462.04 160.577L462.812 166.782L464.892 164.499Z" fill="#FFCBCB"/>
<path d="M486.496 181.341L467.637 177.531L465.445 163.716L459.894 163.285L460.165 181.147L476.551 189.787L486.496 181.341Z" fill="#1D7CAA"/>
<path opacity="0.2" d="M486.496 181.341L467.637 177.531L465.445 163.716L459.894 163.285L460.165 181.147L476.551 189.787L486.496 181.341Z" fill="#4D4D4D"/>
<path d="M435.189 160.845H493.071V156.296H435.189V160.845Z" fill="#94CBDF"/>
<path d="M461.208 163.48L461.211 160.474C461.211 160.474 462.928 154.034 460.792 154.031C458.657 154.028 457.796 160.04 457.796 160.04L459.496 166.055L461.208 163.48Z" fill="#FFCBCB"/>
<path d="M485.757 172.091L488.344 171.457C489.332 171.458 490.307 171.238 491.2 170.814C492.092 170.39 492.88 169.771 493.506 169.003C494.131 168.234 494.58 167.336 494.818 166.372C495.056 165.408 495.078 164.403 494.882 163.43C494.884 162.28 494.66 161.141 494.224 160.078C493.787 159.015 493.147 158.049 492.34 157.234C491.532 156.42 490.573 155.774 489.517 155.332C488.461 154.891 487.329 154.663 486.186 154.662C485.042 154.66 483.91 154.885 482.853 155.324C481.796 155.763 480.835 156.407 480.026 157.219C479.216 158.031 478.574 158.995 478.135 160.057C477.696 161.119 477.469 162.258 477.468 163.408C477.133 164.579 477.11 165.819 477.401 167.002C477.692 168.185 478.287 169.27 479.127 170.15C479.966 171.029 481.02 171.671 482.184 172.012C483.347 172.352 484.579 172.38 485.757 172.091Z" fill="#4D4D4D"/>
<path d="M470.538 215.461L472.644 238.656L476.459 261.424L482.864 261.432L482.038 239.098L478.656 212.035L470.538 215.461Z" fill="#4D4D4D"/>
<path d="M477.314 260.137L473.041 262.708C473.041 262.708 466.207 263.559 467.486 265.708C468.764 267.857 483.712 266.587 483.713 265.728C483.714 264.869 483.293 260.144 482.439 260.143L477.314 260.137Z" fill="#4D4D4D"/>
<path d="M489.446 213.457C489.446 213.457 489.326 216.773 486.33 221.923L486.737 237.815L502.086 257.591L496.528 262.309L477.766 240.81L473.1 215.035L479.086 209.029L489.446 213.457Z" fill="#4D4D4D"/>
<path d="M500.805 257.59C500.805 257.59 505.928 258.455 505.071 260.601C504.215 262.748 502.067 272.624 496.517 271.328C496.517 271.328 493.955 271.325 494.811 269.608C495.326 268.575 495.897 267.572 496.523 266.604L496.53 261.02L500.805 257.59Z" fill="#4D4D4D"/>
<path d="M482.983 172.527C486.521 172.527 489.389 169.643 489.389 166.085C489.389 162.527 486.521 159.642 482.983 159.642C479.446 159.642 476.578 162.527 476.578 166.085C476.578 169.643 479.446 172.527 482.983 172.527Z" fill="#FFCBCB"/>
<path d="M485.967 170.384L485.958 177.685L479.125 177.676L479.989 170.376L485.967 170.384Z" fill="#FFCBCB"/>
<path d="M477.421 175.097L479.491 174.586L485.961 175.108C485.961 175.108 489.373 178.548 488.945 179.407C488.517 180.265 486.356 201.308 486.356 201.308L490.18 216.345L476.514 217.186L469.682 216.319L470.997 189.262C470.997 189.262 468.017 181.957 471.863 179.815C474.035 178.669 475.932 177.058 477.421 175.097Z" fill="#1D7CAA"/>
<path d="M485.105 176.825L465.89 175.942L461.636 162.622L456.084 163.044L459.051 180.657L476.552 186.693L485.105 176.825Z" fill="#1D7CAA"/>
<path d="M495.348 161.339C497.631 161.339 499.481 159.478 499.481 157.182C499.481 154.886 497.631 153.025 495.348 153.025C493.066 153.025 491.216 154.886 491.216 157.182C491.216 159.478 493.066 161.339 495.348 161.339Z" fill="#4D4D4D"/>
<path d="M491.535 154.948C491.536 154.333 491.672 153.726 491.934 153.17C492.196 152.615 492.577 152.125 493.05 151.735C493.524 151.346 494.077 151.067 494.67 150.919C495.263 150.771 495.882 150.757 496.481 150.878C495.953 150.627 495.377 150.491 494.792 150.48C494.207 150.47 493.627 150.584 493.089 150.816C492.552 151.047 492.069 151.391 491.674 151.824C491.278 152.258 490.979 152.771 490.795 153.329C490.611 153.887 490.547 154.479 490.608 155.064C490.668 155.649 490.852 156.214 491.146 156.723C491.44 157.231 491.838 157.671 492.313 158.013C492.789 158.356 493.331 158.592 493.905 158.708C493.196 158.372 492.596 157.84 492.177 157.174C491.757 156.508 491.535 155.736 491.535 154.948Z" fill="#4D4D4D"/>
<path d="M487.99 157.305L482.418 156.273L478.133 158.974C477.08 159.638 476.238 160.592 475.707 161.723C475.176 162.853 474.979 164.114 475.139 165.354L479.431 164.26L480.391 161.836L481.536 163.723L486.179 171.887L490.879 169.316L493.875 164.595L487.99 157.305Z" fill="#4D4D4D"/>
<path d="M170.881 50.8578L170.322 51.8374L269.165 108.886L269.724 107.906L170.881 50.8578Z" fill="white"/>
<path d="M269.167 50.8616L170.32 107.902L170.879 108.882L269.726 51.8413L269.167 50.8616Z" fill="white"/>
<path d="M400.696 78.0603L399.902 78.859L431.914 111.055L432.708 110.256L400.696 78.0603Z" fill="white"/>
<path d="M431.914 78.0603L399.902 110.256L400.696 111.055L432.708 78.8591L431.914 78.0603Z" fill="white"/>
<path fill-rule="evenodd" clip-rule="evenodd" d="M42.4585 252.948C42.5666 254.023 42.9561 254.313 43.1631 254.501H56.698L50.8748 248.392L48.9135 249.468C48.248 249.817 47.5564 250.213 46.7981 250.623C46.0598 251.014 44.7518 251.715 42.4585 252.948Z" fill="#DBEBF1"/>
<path fill-rule="evenodd" clip-rule="evenodd" d="M42.4585 252.948C42.4585 252.948 46.0337 251.021 46.7429 250.653C47.9827 249.986 50.8977 248.393 50.8977 248.393L48.0662 245.58C47.538 245.997 47.1247 246.559 46.5466 247.183L43.4667 250.575C42.7858 251.261 42.4316 252.08 42.4585 252.948Z" fill="#19B9DE"/>
<path fill-rule="evenodd" clip-rule="evenodd" d="M43.5863 250.461C43.0082 251.101 42.4285 251.778 42.4569 252.948C42.5113 253.435 42.6593 254.088 43.1837 254.504C42.0188 254.178 42.0258 252.483 42.0326 250.832C42.0331 250.707 42.0337 250.582 42.0337 250.457V235.296C42.0337 232.642 41.943 231.668 42.2667 230.863C42.5219 230.228 43.0344 229.699 44.0517 228.534L49.536 222.559L47.4659 220.383L62.1163 220.364L62.1547 234.579L59.9174 232.661L43.5863 250.461Z" fill="white"/>
</svg>
