<svg width="461" height="324" viewBox="0 0 461 324" fill="none" xmlns="http://www.w3.org/2000/svg">
<path fill-rule="evenodd" clip-rule="evenodd" d="M5.77051 281.856C2.79937 288.758 57.7822 295.396 100.214 301.628C142.634 307.858 185.236 315.504 245.389 317.048C304.663 318.569 340.728 312.78 380.207 308.813C416.109 305.206 455.573 301.723 459.114 295.572C462.842 289.095 441.614 281.695 399.066 276.052C358.523 270.674 300.897 268.627 246.89 267.424C197.314 266.319 153.291 267.345 113.959 269.699C67.0614 272.506 8.69379 275.066 5.77051 281.856Z" fill="#F0F5F7"/>
<path d="M396 302.16C429.137 302.16 456 298.127 456 293.151C456 288.176 429.137 284.143 396 284.143C362.863 284.143 336 288.176 336 293.151C336 298.127 362.863 302.16 396 302.16Z" fill="#DBEBF1"/>
<path d="M60 302.16C93.1371 302.16 120 298.127 120 293.151C120 288.176 93.1371 284.143 60 284.143C26.8629 284.143 0 288.176 0 293.151C0 298.127 26.8629 302.16 60 302.16Z" fill="#DBEBF1"/>
<path d="M383.227 234.201H32.1536V235.52H383.227V234.201Z" fill="#DADCDF"/>
<path d="M408.241 0.101501H18.0269C14.7131 0.101501 12.0269 2.78778 12.0269 6.10149V201.547C12.0269 204.86 14.7131 207.547 18.0269 207.547H408.241C411.554 207.547 414.241 204.86 414.241 201.547V6.1015C414.241 2.78779 411.554 0.101501 408.241 0.101501Z" fill="#DBEBF1"/>
<path d="M414.241 16.0588V10.3598H401.873V0.101501H396.496V10.3598H29.7716V0.101501H24.3944V10.3598H12.0269V16.0588H24.3944V191.589H12.0269V197.288H24.3944V207.547H29.7716V197.288H396.496V207.547H401.873V197.288H414.241V191.589H401.873V16.0588H414.241ZM396.496 191.589H29.7716V16.0588H396.496L396.496 191.589Z" fill="#F0F5F7"/>
<path d="M253.223 27.4568H189.804V91.394H253.223V27.4568Z" fill="white"/>
<path d="M246.016 35.095H197.011V74.813H246.016V35.095Z" fill="#DBEBF1"/>
<path d="M224.974 41.6222H207.794V59.8307H224.974V41.6222Z" fill="#F2F2F2"/>
<path d="M214.371 46.1755V68.2858H235.233V46.1755H214.371ZM234.328 67.3267H215.276V47.1345H234.328V67.3267Z" fill="white"/>
<path d="M223.618 78.7552H196.962V80.2417H223.618V78.7552Z" fill="#F2F2F2"/>
<path d="M221.513 34.148C223.063 34.148 224.319 32.8166 224.319 31.1742C224.319 29.5318 223.063 28.2004 221.513 28.2004C219.964 28.2004 218.708 29.5318 218.708 31.1742C218.708 32.8166 219.964 34.148 221.513 34.148Z" fill="#F0F5F7"/>
<path d="M277.142 119.673H213.723V183.611H277.142V119.673Z" fill="white"/>
<path d="M269.935 127.312H220.929V167.03H269.935V127.312Z" fill="#DBEBF1"/>
<path d="M247.537 171.715H220.881V173.202H247.537V171.715Z" fill="#F2F2F2"/>
<path d="M247.537 176.176H220.881V177.662H247.537V176.176Z" fill="#F2F2F2"/>
<path d="M229.649 153.129C232.749 153.129 235.261 150.466 235.261 147.181C235.261 143.897 232.749 141.234 229.649 141.234C226.55 141.234 224.038 143.897 224.038 147.181C224.038 150.466 226.55 153.129 229.649 153.129Z" fill="#DADCDF"/>
<path d="M245.432 153.129C248.531 153.129 251.044 150.466 251.044 147.181C251.044 143.897 248.531 141.234 245.432 141.234C242.333 141.234 239.82 143.897 239.82 147.181C239.82 150.466 242.333 153.129 245.432 153.129Z" fill="#F2F2F2"/>
<path d="M261.215 153.129C264.315 153.129 266.827 150.466 266.827 147.181C266.827 143.897 264.315 141.234 261.215 141.234C258.116 141.234 255.604 143.897 255.604 147.181C255.604 150.466 258.116 153.129 261.215 153.129Z" fill="white"/>
<path d="M245.432 126.365C246.982 126.365 248.238 125.033 248.238 123.391C248.238 121.748 246.982 120.417 245.432 120.417C243.883 120.417 242.626 121.748 242.626 123.391C242.626 125.033 243.883 126.365 245.432 126.365Z" fill="#F0F5F7"/>
<path d="M180.083 99.6963H116.663V163.633H180.083V99.6963Z" fill="white"/>
<path d="M172.876 107.334H123.87V147.052H172.876V107.334Z" fill="#DBEBF1"/>
<path d="M145.11 144.445C151.681 144.445 157.008 138.8 157.008 131.835C157.008 124.871 151.681 119.225 145.11 119.225C138.539 119.225 133.212 124.871 133.212 131.835C133.212 138.8 138.539 144.445 145.11 144.445Z" fill="#F2F2F2"/>
<path d="M148.617 141.562C145.666 141.562 142.782 140.634 140.329 138.897C137.876 137.16 135.964 134.691 134.835 131.802C133.706 128.913 133.411 125.734 133.986 122.667C134.562 119.6 135.982 116.783 138.069 114.572C140.155 112.361 142.813 110.855 145.706 110.245C148.6 109.635 151.599 109.948 154.325 111.145C157.051 112.342 159.381 114.368 161.02 116.968C162.659 119.568 163.534 122.625 163.534 125.752C163.529 129.943 161.956 133.962 159.16 136.926C156.363 139.89 152.571 141.557 148.617 141.562ZM148.617 110.517C145.774 110.517 142.994 111.41 140.63 113.084C138.267 114.758 136.424 117.138 135.336 119.921C134.248 122.705 133.963 125.768 134.518 128.724C135.073 131.679 136.442 134.394 138.452 136.524C140.462 138.655 143.024 140.106 145.812 140.694C148.601 141.282 151.491 140.98 154.118 139.827C156.744 138.674 158.989 136.721 160.569 134.216C162.148 131.71 162.991 128.765 162.991 125.752C162.987 121.712 161.471 117.84 158.776 114.984C156.081 112.128 152.428 110.521 148.617 110.517Z" fill="white"/>
<path d="M150.477 155.456H123.821V156.942H150.477V155.456Z" fill="#F2F2F2"/>
<path d="M160.999 150.995H123.821V152.481H160.999V150.995Z" fill="#F2F2F2"/>
<path d="M148.373 106.387C149.922 106.387 151.179 105.056 151.179 103.414C151.179 101.771 149.922 100.44 148.373 100.44C146.823 100.44 145.567 101.771 145.567 103.414C145.567 105.056 146.823 106.387 148.373 106.387Z" fill="#F0F5F7"/>
<path d="M110.378 26.3171H46.9587V90.2542H110.378V26.3171Z" fill="white"/>
<path d="M103.172 33.9551H54.1658V73.6732H103.172V33.9551Z" fill="#DBEBF1"/>
<path d="M83.9399 65.0485H73.3975V68.3597H83.9399V65.0485Z" fill="white"/>
<path d="M96.6851 39.2687H60.6519V40.6873H96.6851V39.2687Z" fill="white"/>
<path d="M96.6851 43.7625H60.6519V45.181H96.6851V43.7625Z" fill="white"/>
<path d="M96.6851 48.2562H60.6519V49.6747H96.6851V48.2562Z" fill="white"/>
<path d="M96.6851 52.7499H60.6519V54.1684H96.6851V52.7499Z" fill="white"/>
<path d="M96.6851 57.2437H60.6519V58.6621H96.6851V57.2437Z" fill="white"/>
<path d="M80.7729 77.6155H54.1172V79.1019H80.7729V77.6155Z" fill="#F2F2F2"/>
<path d="M91.295 81.3328H54.1172V82.8191H91.295V81.3328Z" fill="#F2F2F2"/>
<path d="M78.6684 33.0081C80.2181 33.0081 81.4743 31.6767 81.4743 30.0343C81.4743 28.392 80.2181 27.0605 78.6684 27.0605C77.1188 27.0605 75.8625 28.392 75.8625 30.0343C75.8625 31.6767 77.1188 33.0081 78.6684 33.0081Z" fill="#F0F5F7"/>
<path fill-rule="evenodd" clip-rule="evenodd" d="M304.698 68.0855L304.82 68.095C303.184 80.3225 302.561 92.679 302.959 105.023C303.167 111.362 303.646 117.682 304.395 123.984C304.585 125.576 304.791 127.165 305.013 128.752C305.045 128.983 305.073 129.222 305.101 129.465C305.228 130.547 305.363 131.703 305.942 132.589C306.627 133.636 307.776 133.972 308.905 134.132C310.247 134.321 311.598 134.461 312.947 134.6L312.948 134.6L313.231 134.629C325.21 135.867 337.264 136.056 349.272 135.194C352.294 134.977 355.311 134.694 358.323 134.344C359.807 134.172 361.289 133.983 362.769 133.779C363.493 133.679 364.217 133.575 364.941 133.468C365.617 133.417 366.285 133.294 366.937 133.1C368.297 132.58 368.296 131.191 368.212 129.896L367.898 125.08L367.269 115.447L364.737 76.6348L364.423 71.8187C364.417 71.594 364.33 71.3802 364.18 71.2212C364.03 71.0623 363.829 70.9701 363.617 70.9638L317.687 67.3872L304.698 66.3758C303.663 66.2951 303.667 68.0052 304.698 68.0855V68.0855ZM305.94 72.0318C306.088 70.7593 306.248 69.4886 306.42 68.2195L350.628 71.6621L362.862 72.6148L365.249 109.215L366.469 127.913L366.519 128.668C366.552 129.172 366.585 129.676 366.617 130.179C366.622 130.262 366.63 130.345 366.637 130.426C366.685 130.959 366.727 131.433 366.118 131.568C365.085 131.796 364.02 131.925 362.963 132.054L362.963 132.054C362.592 132.099 362.222 132.144 361.854 132.193C358.98 132.578 356.099 132.901 353.211 133.164C341.658 134.215 330.044 134.292 318.48 133.395C315.59 133.171 312.705 132.885 309.826 132.539C309.745 132.529 309.663 132.52 309.58 132.51L309.577 132.51C308.558 132.395 307.396 132.265 307.035 131.089C306.738 130.124 306.622 129.062 306.509 128.026C306.468 127.653 306.428 127.283 306.38 126.923C305.568 120.857 305.014 114.759 304.72 108.631C304.119 96.4167 304.528 84.1704 305.94 72.0318ZM320.413 90.658C322.24 91.0991 323.73 90.0748 324.373 88.2938L324.4 88.2341C324.451 88.124 324.501 88.0139 324.556 87.9057C324.708 87.6062 324.875 87.3158 325.056 87.0355C325.429 86.6974 325.395 86.6563 325.274 86.7643C325.301 86.7286 325.328 86.6924 325.354 86.6558C325.62 86.3469 325.903 86.055 326.202 85.7819C326.711 85.4748 326.553 85.5225 326.362 85.6537L326.377 85.6414C326.433 85.5963 326.488 85.5515 326.544 85.5116C326.835 85.3049 327.134 85.1136 327.442 84.9376C327.581 84.8583 327.722 84.7822 327.864 84.7093C328.278 84.5944 328.321 84.56 328.233 84.5756C328.273 84.5598 328.313 84.5437 328.353 84.5277C328.52 84.4608 328.687 84.3939 328.857 84.3429C329.155 84.2531 329.457 84.177 329.762 84.1147C330.403 84.0949 330.18 84.067 329.933 84.0893C330.003 84.0805 330.073 84.0719 330.142 84.0669C330.488 84.0419 330.836 84.0364 331.183 84.0504C331.288 84.0547 331.392 84.0631 331.496 84.0714L331.497 84.0714C331.549 84.0756 331.602 84.0799 331.654 84.0835L331.701 84.0931C332.043 84.1619 332.38 84.252 332.711 84.3631C332.846 84.4246 332.985 84.4778 333.126 84.5225C333.431 84.6812 333.728 84.8581 334.014 85.0524C334.112 85.1189 334.207 85.1891 334.303 85.2594L334.386 85.3203C334.414 85.3471 334.447 85.3789 334.488 85.4165C334.709 85.6218 334.921 85.8374 335.124 86.0633C335.239 86.1916 335.351 86.3228 335.461 86.4571C335.533 86.5952 335.584 86.6868 335.618 86.7432C335.724 86.9294 335.833 87.1128 335.943 87.2963C336.167 87.6704 336.391 88.0451 336.582 88.4454L336.619 88.553L336.619 88.5532C336.659 88.6659 336.699 88.7784 336.735 88.8925C336.85 89.2527 336.949 89.6181 337.032 89.9885C337.077 90.189 337.11 90.3917 337.142 90.5943L337.152 90.6568C337.143 90.6095 337.134 90.5708 337.129 90.5498C337.115 90.4947 337.122 90.5614 337.193 90.9149C337.195 90.9292 337.196 90.9431 337.197 90.9563C337.216 91.2088 337.227 91.4618 337.231 91.7153C337.236 92.0316 337.229 92.3477 337.21 92.6638C337.206 92.7284 337.198 92.7943 337.19 92.8607C337.198 92.6228 337.156 92.4874 337.16 93.1288C337.097 93.4822 337.017 93.8321 336.92 94.177C336.869 94.3591 336.813 94.5397 336.753 94.7186C336.722 94.8104 336.69 94.9018 336.657 94.9928L336.625 95.0693C336.193 95.9847 335.71 96.87 335.226 97.7553L335.226 97.7553C334.713 98.6964 334.199 99.6373 333.748 100.614C331.574 105.339 330.843 110.664 331.656 115.85C331.88 116.71 332.412 117.443 333.138 117.893C333.892 118.351 334.785 118.475 335.625 118.238C337.443 117.614 338.158 115.931 337.878 114.032C337.872 113.993 337.867 113.961 337.863 113.934C337.836 113.652 337.809 113.37 337.79 113.087C337.752 112.508 337.736 111.928 337.743 111.347C337.749 110.849 337.772 110.352 337.811 109.855C337.812 109.564 337.841 109.274 337.896 108.989C337.895 108.991 337.792 109.677 337.862 109.282C337.878 109.192 337.892 109.102 337.905 109.012C337.916 108.938 337.927 108.864 337.939 108.791C338.125 107.688 338.393 106.602 338.741 105.544C338.795 105.379 338.852 105.217 338.91 105.054L338.91 105.053C338.921 105.024 338.931 104.995 338.941 104.966C338.956 104.925 338.97 104.884 338.984 104.843C338.996 104.809 339.006 104.78 339.015 104.755L339.021 104.742C339.253 104.21 339.493 103.685 339.758 103.17C340.052 102.598 340.356 102.035 340.659 101.473C341.502 99.9139 342.339 98.3657 342.934 96.6554C343.551 94.8309 343.795 92.8883 343.65 90.9563C343.35 86.9682 341.755 82.9218 338.781 80.3397C337.245 78.984 335.428 78.0321 333.479 77.5613C331.529 77.0906 329.503 77.1144 327.564 77.6307C325.436 78.1759 323.466 79.2649 321.827 80.8025C320.188 82.3401 318.929 84.2796 318.159 86.4517C317.563 88.1289 318.82 90.2736 320.413 90.658ZM337.166 93.0993C337.171 93.0295 337.179 92.9587 337.187 92.8883L337.19 92.8607C337.188 92.9277 337.183 93.0029 337.171 93.0711L337.166 93.0993ZM337.166 93.0993L337.16 93.1288C337.161 93.144 337.161 93.1596 337.161 93.1757C337.161 93.1934 337.161 93.2116 337.161 93.2304C337.161 93.1873 337.163 93.1435 337.166 93.0993ZM337.188 90.8705C337.176 90.7994 337.164 90.7281 337.152 90.6568C337.165 90.72 337.178 90.7986 337.188 90.8705ZM337.188 90.8705C337.19 90.8857 337.192 90.9005 337.193 90.9149C337.205 90.972 337.218 91.0366 337.233 91.1094C337.217 91.0301 337.202 90.9504 337.188 90.8705ZM335.461 86.458L335.461 86.4571C335.451 86.4394 335.442 86.421 335.432 86.4018C335.427 86.3923 335.422 86.3826 335.417 86.3727C335.432 86.4012 335.446 86.4296 335.461 86.458ZM335.461 86.458C335.512 86.554 335.565 86.649 335.618 86.7432C335.748 86.9583 335.626 86.6616 335.479 86.4795L335.461 86.458ZM329.826 84.1025C329.824 84.103 329.821 84.1034 329.818 84.1039C329.809 84.1055 329.8 84.1071 329.791 84.1089L329.762 84.1147C329.72 84.116 329.673 84.1173 329.622 84.1186C329.69 84.1169 329.758 84.1105 329.826 84.1025ZM329.826 84.1025C329.845 84.1003 329.864 84.098 329.883 84.0956C329.896 84.094 329.909 84.0924 329.922 84.0907L329.933 84.0893C329.897 84.0926 329.861 84.0969 329.826 84.1025ZM327.87 84.7063L327.864 84.7093L327.795 84.7281C327.82 84.7212 327.845 84.7139 327.87 84.7063ZM327.87 84.7063C327.992 84.6688 328.112 84.6232 328.233 84.5756C328.166 84.5876 328.023 84.6288 327.91 84.6857L327.87 84.7063ZM326.226 85.7599L326.202 85.7819C326.176 85.7978 326.147 85.8146 326.117 85.8325C326.154 85.8106 326.19 85.786 326.226 85.7599ZM326.226 85.7599C326.272 85.7262 326.317 85.69 326.362 85.6537C326.316 85.6853 326.268 85.7218 326.227 85.7593L326.226 85.7599ZM325.077 87.0041L325.056 87.0355L325.015 87.0731C325.035 87.0503 325.056 87.0273 325.077 87.0041ZM325.077 87.0041C325.145 86.9267 325.211 86.8467 325.274 86.7643C325.223 86.8094 325.158 86.8805 325.101 86.9668L325.077 87.0041ZM337.143 128.53C336.702 128.843 336.183 129.009 335.653 129.009C334.944 129.001 334.267 128.699 333.765 128.168C333.264 127.636 332.979 126.918 332.971 126.167C332.971 125.605 333.128 125.055 333.423 124.588C333.718 124.12 334.137 123.756 334.627 123.541C335.117 123.326 335.656 123.27 336.176 123.379C336.696 123.489 337.174 123.76 337.549 124.157C337.924 124.555 338.18 125.061 338.283 125.612C338.387 126.164 338.334 126.735 338.131 127.255C337.928 127.774 337.584 128.218 337.143 128.53Z" fill="white"/>
<path d="M38.8676 228.431H35.8115C32.4978 228.431 29.8115 231.117 29.8115 234.431V238.389C29.8115 241.702 32.4978 244.389 35.8115 244.389H38.8676C42.1813 244.389 44.8676 241.702 44.8676 238.389V234.431C44.8676 231.117 42.1813 228.431 38.8676 228.431Z" fill="#DBEBF1"/>
<path d="M54.0087 235.27H35.7263V215.893H54.0087V235.27ZM36.5212 234.428H53.2138V216.736H36.5212V234.428Z" fill="#DADCDF"/>
<path d="M384.157 193.032L382.74 197.537C382.74 197.537 373.883 208.426 380.26 209.928C386.637 211.43 387.345 198.288 387.345 198.288L389.117 194.534L384.157 193.032Z" fill="#FFCBCB"/>
<path d="M394.076 138.589C394.076 138.589 391.951 138.213 391.242 147.225C390.534 156.236 390.179 172.006 390.179 172.006L382.031 194.158L392.305 197.538L397.265 172.381L394.076 138.589Z" fill="#4D4D4D"/>
<path d="M389.471 272.631L388.408 279.765H397.973L397.619 272.631H389.471Z" fill="#FFCBCB"/>
<path d="M420.292 280.516L419.583 290.278L425.96 291.029V279.765L420.292 280.516Z" fill="#FFCBCB"/>
<path d="M393.368 179.515L385.22 229.077L387.346 274.133H398.328V233.207L408.956 212.181L417.458 238.464L419.584 282.393L431.629 280.141L428.795 237.337C428.795 237.337 426.669 180.266 424.543 179.515C422.418 178.764 393.368 179.515 393.368 179.515Z" fill="#4D4D4D"/>
<path d="M390.534 277.512C390.534 277.512 390.534 273.758 387.7 276.01C384.866 278.263 381.323 282.393 381.323 282.393C381.323 282.393 367.861 290.278 377.426 291.405C386.991 292.531 393.014 286.148 393.014 286.148L394.076 287.274C394.076 287.274 399.745 286.148 399.745 284.646C399.704 283.388 399.585 282.134 399.39 280.891C399.39 280.891 398.645 274.523 397.778 275.83C396.911 277.137 391.951 279.765 390.534 277.512Z" fill="#4D4D4D"/>
<path d="M426.314 288.026C426.314 288.026 419.938 284.646 418.52 287.65C417.103 290.654 416.041 296.661 416.041 296.661C416.041 296.661 411.435 306.048 419.583 305.297C427.732 304.546 427.377 299.665 427.377 298.539C427.377 297.412 427.023 294.784 427.377 293.658C427.731 292.531 426.314 288.026 426.314 288.026Z" fill="#4D4D4D"/>
<path d="M412.321 123.758C417.799 123.758 422.24 119.051 422.24 113.245C422.24 107.438 417.799 102.732 412.321 102.732C406.843 102.732 402.402 107.438 402.402 113.245C402.402 119.051 406.843 123.758 412.321 123.758Z" fill="#FFCBCB"/>
<path d="M405.767 118.314L405.413 131.83L418.166 130.704V118.314H405.767Z" fill="#FFCBCB"/>
<path d="M418.875 123.946C418.875 123.946 412.853 128.076 411.081 128.827C409.31 129.578 405.413 125.823 405.413 125.823C405.413 125.823 404.35 126.574 404.35 127.325C404.35 128.076 403.642 131.079 403.642 131.079L395.139 160.741L395.848 181.768C395.848 181.768 421.709 184.396 424.543 181.017C427.377 177.638 423.126 129.202 423.126 129.202L418.875 123.946Z" fill="#FADB1E"/>
<path opacity="0.1" d="M417.104 131.83C417.104 131.83 407.538 135.584 404.35 132.206C404.35 132.206 408.955 133.332 417.104 131.83Z" fill="black"/>
<path d="M442.32 213.209C438.411 215.83 425.619 219.2 425.619 219.2C425.619 219.2 424.222 187.506 419.222 182.508C414.251 177.532 406.135 141.66 413.434 135.423C413.466 135.391 413.501 135.361 413.537 135.333L418.156 124.101C418.156 124.101 418.867 122.978 420.288 124.475C421.438 125.773 422.506 127.149 423.487 128.594L423.689 128.68L433.436 132.712L429.527 151.058C429.527 151.058 446.228 210.588 442.32 213.209Z" fill="#4D4D4D"/>
<path opacity="0.1" d="M423.682 128.538L421.001 138.964L413.458 135.3C413.491 135.268 413.525 135.237 413.561 135.21L418.166 123.946C418.166 123.946 418.875 122.819 420.292 124.321C421.438 125.623 422.503 127.003 423.48 128.451L423.682 128.538Z" fill="black"/>
<path d="M405.219 125.569L404.162 138.319L404.106 138.901L396.059 220.448C396.059 220.448 389.012 217.823 386.545 214.823C384.079 211.823 392.183 178.446 392.183 178.446L392.887 136.444C392.887 136.444 399.138 131.76 401.692 129.188C402.291 128.588 402.686 128.104 402.753 127.819C403.105 126.319 405.219 125.569 405.219 125.569Z" fill="#4D4D4D"/>
<path opacity="0.1" d="M405.236 125.635L404.173 138.401L404.116 138.983L399.036 138.213L401.69 129.258C402.292 128.658 402.689 128.173 402.756 127.888C403.11 126.386 405.236 125.635 405.236 125.635Z" fill="black"/>
<path d="M424.189 188.902L420.292 192.656C420.292 192.656 422.063 200.541 424.189 200.917C424.189 200.917 425.606 198.664 425.96 196.787C426.314 194.909 429.503 193.032 429.503 193.032L424.189 188.902Z" fill="#FFCBCB"/>
<path d="M428.759 131.811L433.381 132.562C433.381 132.562 448.669 159.982 446.891 169.748C445.113 179.514 430.892 196.416 430.892 196.416L422.004 188.904L435.159 170.123L428.404 147.587L428.759 131.811Z" fill="#4D4D4D"/>
<path d="M402.379 114.426C402.379 114.426 402.379 105.154 404.505 103.047H407.056C407.056 103.047 410.032 98.4112 413.859 100.097C417.685 101.783 424.062 104.733 423.637 109.368C423.212 114.004 421.886 116.999 421.886 116.999C421.886 116.999 421.178 116.999 419.598 114.479C417.488 111.112 422.362 112.161 415.984 110.897C409.607 109.633 405.781 107.947 404.93 109.633C404.08 111.319 402.379 114.426 402.379 114.426Z" fill="#4D4D4D"/>
<path d="M407.014 103.676C407.014 103.676 407.354 100.966 408.752 100.383L407.014 103.676Z" fill="#4D4D4D"/>
<path d="M407.008 104.233C407.008 104.233 406.298 101.606 407.36 100.479L407.008 104.233Z" fill="#4D4D4D"/>
<path d="M19.6343 208L18.88 212.866C18.7776 213.527 18.8396 214.202 19.0611 214.836C19.2826 215.471 19.6575 216.048 20.1562 216.522C20.6549 216.996 21.2636 217.354 21.9341 217.567C22.6047 217.78 23.3187 217.843 24.0195 217.751C24.6998 217.661 25.3498 217.428 25.921 217.068C26.4922 216.707 26.9697 216.23 27.318 215.671C27.6662 215.112 27.8762 214.486 27.9321 213.84C27.9881 213.193 27.8885 212.543 27.641 211.939L25.0821 205.686L26.444 163.51L18.5447 160.681L19.6343 208Z" fill="#FFCBCB"/>
<path d="M41.97 138.05C35.9525 138.05 31.0745 133.444 31.0745 127.763C31.0745 122.082 35.9525 117.476 41.97 117.476C47.9874 117.476 52.8655 122.082 52.8655 127.763C52.8655 133.444 47.9874 138.05 41.97 138.05Z" fill="#FFCBCB"/>
<path d="M28.8956 147.051L49.0522 146.279C46.8144 141.652 45.9267 137.177 46.8732 132.907H33.5262C34.228 136.934 32.2908 141.769 28.8956 147.051Z" fill="#FFCBCB"/>
<path d="M32.1647 187.169L61.855 189.227L60.7757 173.387C64.1975 165.703 63.6509 160.154 59.6237 156.478L59.259 151.127C59.1423 149.414 58.4599 147.778 57.3076 146.451C56.1553 145.123 54.5912 144.17 52.8353 143.725L47.6908 142.422C41.0296 146.106 35.7195 146.056 31.8923 141.907L25.7695 144.868C24.2862 145.586 23.0691 146.712 22.2798 148.098C21.4905 149.484 21.1663 151.063 21.3504 152.627L32.1647 187.169Z" fill="#4D4D4D"/>
<path d="M77.6526 188.712L86.0333 192.866C86.7503 193.222 87.5731 193.339 88.3695 193.2C89.1658 193.061 89.8896 192.674 90.4246 192.1C90.8428 191.651 91.1288 191.107 91.2539 190.521C91.379 189.935 91.3389 189.328 91.1376 188.762C90.9362 188.195 90.5807 187.688 90.1067 187.292C89.6326 186.896 89.0567 186.625 88.4365 186.505L82.5556 185.369L64.3056 178.683L61.3094 158.624L52.8654 160.681L54.4997 184.34L77.6526 188.712Z" fill="#FFCBCB"/>
<path d="M18.0002 161.802L27.2614 166.945L27.8062 146.372L26.2094 145.857C24.0322 145.857 21.9441 146.674 20.4046 148.127C18.8651 149.581 18.0002 151.552 18.0002 153.608V161.802Z" fill="#4D4D4D"/>
<path d="M24.4009 288.108L32.2761 286.945C33.8661 261.542 37.0689 237.827 42.7871 216.744C56.0106 233.287 67.0956 257.669 76.5633 287.98L85.8245 285.665L61.5819 185.883L32.7088 185.369C20.9004 200.634 24.3574 247.777 24.4009 288.108Z" fill="#19B9DE"/>
<path d="M80.6531 296.888L94.3363 295.077C94.7157 295.027 95.0795 294.901 95.4033 294.708C95.7272 294.514 96.0037 294.258 96.2146 293.956C96.4254 293.654 96.5656 293.313 96.626 292.956C96.6863 292.599 96.6654 292.233 96.5646 291.884C96.4263 291.405 96.1427 290.975 95.7488 290.646C95.3549 290.317 94.8678 290.104 94.3474 290.034L91.9159 289.702L84.2278 285.269L77.8683 286.87L75.9826 292.124C75.8375 292.747 75.8541 293.394 76.0311 294.009C76.2081 294.625 76.5402 295.191 76.999 295.659C77.4579 296.127 78.0298 296.483 78.6661 296.697C79.3024 296.911 79.9841 296.977 80.6531 296.888Z" fill="#262730"/>
<path d="M26.9929 296.888L40.6761 295.077C41.0556 295.027 41.4193 294.901 41.7432 294.708C42.067 294.514 42.3436 294.258 42.5544 293.956C42.7652 293.654 42.9055 293.313 42.9658 292.956C43.0262 292.599 43.0053 292.233 42.9045 291.884C42.7661 291.405 42.4825 290.975 42.0886 290.646C41.6947 290.317 41.2076 290.104 40.6872 290.034L38.2558 289.702L30.5676 285.269L24.2081 286.87L22.3224 292.124C22.1773 292.747 22.1939 293.394 22.3709 294.009C22.5479 294.625 22.88 295.191 23.3388 295.659C23.7976 296.127 24.3696 296.483 25.0059 296.697C25.6422 296.911 26.3239 296.977 26.9929 296.888Z" fill="#262730"/>
<path d="M51.231 165.824C53.7078 160.685 57.9843 158.693 65.1228 161.71L64.1603 155.008C63.7989 152.491 62.6661 150.13 60.9012 148.213C59.1364 146.297 56.8165 144.91 54.2273 144.222L51.231 165.824Z" fill="#4D4D4D"/>
<path d="M54.8293 122.485C54.8293 122.485 56.5434 109.891 42.5579 114.021C42.5579 114.021 32.5694 112.29 29.2937 124.086L25.9769 136.452L27.5934 135.621L28.347 137.176L30.9663 137.803L32.0872 135.702L32.6295 138.253L54.0837 140.272C54.0837 140.272 44.4748 134.907 44.3224 125.291L46.1527 127.117L54.8293 122.485Z" fill="#262730"/>
<path d="M31.0558 119.237C28.0764 119.237 25.6611 116.957 25.6611 114.144C25.6611 111.331 28.0764 109.051 31.0558 109.051C34.0352 109.051 36.4504 111.331 36.4504 114.144C36.4504 116.957 34.0352 119.237 31.0558 119.237Z" fill="#262730"/>
<path d="M36.615 112.897C36.5264 111.605 35.9193 110.393 34.9175 109.509C33.9157 108.624 32.5945 108.134 31.2229 108.137C31.3343 108.124 31.4447 108.107 31.5583 108.1C32.2653 108.057 32.9743 108.146 33.6448 108.362C34.3154 108.578 34.9344 108.916 35.4664 109.358C35.9984 109.8 36.4332 110.336 36.7457 110.936C37.0583 111.536 37.2425 112.189 37.288 112.856C37.3334 113.524 37.2392 114.193 37.0106 114.826C36.7821 115.459 36.4237 116.044 35.9559 116.546C35.4881 117.048 34.9201 117.459 34.2844 117.754C33.6486 118.049 32.9575 118.223 32.2505 118.266C32.1369 118.273 32.0253 118.27 31.913 118.27C33.2737 118.108 34.5175 117.461 35.3911 116.463C36.2647 115.465 36.7024 114.19 36.615 112.897Z" fill="#262730"/>
</svg>
