<svg width="466" height="316" viewBox="0 0 466 316" fill="none" xmlns="http://www.w3.org/2000/svg">
<path opacity="0.5" d="M72.8505 27.5023C70.4305 24.1687 65.4304 27.786 67.6904 31.2411C68.2804 32.1429 68.9305 33.0143 69.5405 33.8553C76.9905 43.9876 80.8505 56.42 84.1805 68.6599C84.9905 71.6996 85.7805 74.8609 84.8505 77.779C86.1805 69.8352 85.3205 61.628 83.3105 53.8261C81.3005 46.0242 78.1705 38.6175 74.9405 31.2512C74.3754 29.9308 73.6749 28.6742 72.8505 27.5023Z" fill="#19B9DE"/>
<path d="M24.5006 48.9424C19.5006 48.7904 18.8406 56.5113 23.8406 56.9166C25.1506 57.028 26.4806 57.0584 27.7406 57.0888C43.1306 57.5144 57.6906 63.1682 71.6806 69.2476C75.1106 70.7371 78.6806 72.4089 80.6806 75.6006C74.3706 68.1939 66.0706 62.7731 57.2406 58.7809C48.4106 54.7888 39.0006 52.1746 29.6006 49.7327C27.9333 49.2857 26.2235 49.0207 24.5006 48.9424Z" fill="#19B9DE"/>
<path opacity="0.2" d="M25.8905 67.8898C22.7105 68.0114 23.4305 72.5811 26.6305 72.6115C27.4605 72.6115 28.3005 72.6115 29.0905 72.5406C38.8005 72.1454 48.7505 74.8609 58.3905 77.8499C60.7605 78.5795 63.2605 79.4103 64.9805 81.2037C59.8602 77.1978 54.0573 74.1789 47.8605 72.2974C41.7537 70.4609 35.5242 69.0725 29.2205 68.1431C28.1215 67.9473 27.006 67.8625 25.8905 67.8898Z" fill="#19B9DE"/>
<path opacity="0.5" d="M90.8506 152.91C91.7506 156.001 95.9506 154.157 95.1806 151.016C94.9806 150.195 94.7306 149.384 94.5006 148.614C91.7106 139.181 91.8406 128.745 92.3006 118.542C92.4206 116.029 92.5906 113.374 93.8806 111.236C91.3206 117.257 89.8766 123.704 89.6206 130.255C89.371 136.703 89.5883 143.161 90.2706 149.577C90.3542 150.705 90.5485 151.822 90.8506 152.91Z" fill="#19B9DE"/>
<path opacity="0.2" d="M31.6709 23.2163C29.7609 22.882 29.6209 25.6988 31.5209 26.1345C32.0209 26.2459 32.5209 26.327 33.0009 26.408C38.8508 27.4213 44.4509 30.3191 49.8409 33.3487C51.2286 33.9882 52.4355 34.9707 53.3508 36.206C50.7955 33.1517 47.7075 30.5998 44.2409 28.6777C40.8276 26.7903 37.2813 25.1613 33.6309 23.804C32.9989 23.5412 32.3422 23.3443 31.6709 23.2163Z" fill="#19B9DE"/>
<path d="M2.17131 97.9627C-2.67869 100.496 1.42131 107.436 6.40131 105.136C7.70131 104.528 8.97132 103.85 10.1913 103.211C25.0013 95.4296 42.1913 92.5621 59.1913 90.3533C63.3413 89.8163 67.7713 89.34 71.6113 91.0017C61.1413 88.0127 49.9813 87.7594 39.2013 89.0361C28.4213 90.3127 17.9313 93.0383 7.55132 95.9261C5.69527 96.4209 3.8929 97.1032 2.17131 97.9627Z" fill="#19B9DE"/>
<path opacity="0.5" d="M16.0207 124.986C12.5407 128.279 18.0207 132.169 21.6307 129.039C22.6307 128.218 23.5007 127.346 24.3707 126.516C34.9907 116.383 49.0207 109.23 62.9907 102.603C66.4207 100.972 80.5407 99.3204 84.3007 99.4116C74.4607 100.303 54.3607 103.465 45.4207 107.517C36.6561 111.742 28.1834 116.563 20.0607 121.946C18.6224 122.828 17.2697 123.845 16.0207 124.986Z" fill="#19B9DE"/>
<path d="M40.8806 168.109C39.8806 172.82 46.5106 172.891 47.7506 168.18C48.0706 166.954 48.3306 165.708 48.5806 164.522C51.6506 150.104 59.1606 136.101 66.9406 122.605C68.8506 119.291 79.5306 109.797 82.6806 107.7C75.0806 114.103 60.2906 128.248 55.2506 136.78C50.4083 145.304 46.1386 154.149 42.4706 163.256C41.7947 164.82 41.2624 166.445 40.8806 168.109Z" fill="#19B9DE"/>
<path d="M90.911 2.54632C88.531 -2.35774 81.751 1.67494 83.911 6.70059C84.471 8.01779 85.101 9.3046 85.701 10.5306C93.011 25.5164 95.521 42.8326 97.401 59.865C97.861 64.0396 98.261 68.4978 96.581 72.338C99.641 61.851 100.051 50.6547 98.991 39.8131C97.931 28.9715 95.441 18.4035 92.801 7.93673C92.3498 6.08063 91.7166 4.27485 90.911 2.54632Z" fill="#19B9DE"/>
<path d="M53.1011 10.8852C53.2252 10.9621 53.3659 11.0073 53.5111 11.017C53.7811 11.017 53.9611 10.7434 54.0711 10.5002C54.6611 9.19313 54.3211 7.4605 55.2411 6.44727C56.158 7.55602 56.9032 8.79963 57.4511 10.1354L60.9311 9.12221C61.098 9.80782 61.1256 10.5207 61.0121 11.2174C60.8987 11.9141 60.6465 12.5802 60.2711 13.1752C60.8846 13.4432 61.4414 13.8285 61.9111 14.31C62.1472 14.5492 62.3126 14.8505 62.3886 15.18C62.4646 15.5094 62.4482 15.8539 62.3411 16.1743C61.5364 16.3718 60.7083 16.4537 59.8811 16.4175C60.0099 17.9691 59.9224 19.5313 59.6211 21.0581C59.6129 21.1715 59.5821 21.2821 59.5305 21.3831C59.479 21.4841 59.4077 21.5735 59.3211 21.6458C59.0711 21.8079 58.7311 21.6458 58.4711 21.504C57.2707 20.7629 56.2843 19.7145 55.6111 18.4642L54.3111 21.5951C54.2197 21.9188 54.0176 22.1989 53.7411 22.3855C53.5432 22.4551 53.3278 22.4549 53.13 22.385C52.9321 22.3152 52.7634 22.1796 52.6511 22.0004C52.433 21.6416 52.3027 21.2351 52.2711 20.8149L51.7811 17.836C51.7754 17.6802 51.7191 17.5307 51.6211 17.4105C51.4751 17.2984 51.2937 17.2444 51.1111 17.2585C49.8778 17.2585 48.6478 17.2585 47.4211 17.2585C47.2111 16.5898 47.8611 15.9818 48.4911 15.6981C49.1211 15.4144 49.8611 15.2118 50.1811 14.5937C50.8211 13.3271 49.1811 11.554 49.8711 10.4901C50.6911 9.12221 52.0311 10.3482 53.1011 10.8852Z" fill="#19B9DE"/>
<path opacity="0.5" d="M120.321 27.5023C122.741 24.1687 127.741 27.786 125.481 31.2411C124.891 32.1429 124.241 33.0143 123.631 33.8553C116.181 43.9876 112.311 56.42 108.991 68.6599C108.171 71.6996 107.381 74.8609 108.311 77.779C106.981 69.8352 107.851 61.628 109.861 53.8261C111.871 46.0242 115.001 38.5668 118.231 31.2006C118.799 29.8977 119.499 28.6582 120.321 27.5023Z" fill="#19B9DE"/>
<path d="M168.661 48.9424C173.661 48.7904 174.331 56.5113 169.321 56.9166C168.011 57.028 166.691 57.0584 165.431 57.0888C150.031 57.5144 135.481 63.1682 121.491 69.2476C118.061 70.7371 114.491 72.4089 112.491 75.6006C118.791 68.1939 127.091 62.7731 135.931 58.7809C144.771 54.7888 154.171 52.1847 163.531 49.7428C165.208 49.2902 166.928 49.0219 168.661 48.9424Z" fill="#19B9DE"/>
<path opacity="0.5" d="M167.28 67.8898C170.45 68.0114 169.74 72.5811 166.54 72.6115C165.71 72.6115 164.87 72.6115 164.07 72.5406C154.36 72.1454 144.42 74.8609 134.78 77.8499C132.41 78.5795 129.91 79.4103 128.19 81.2037C133.311 77.1978 139.114 74.1789 145.31 72.2974C151.417 70.4598 157.647 69.0715 163.95 68.1431C165.049 67.9473 166.165 67.8625 167.28 67.8898Z" fill="#19B9DE"/>
<path opacity="0.2" d="M161.491 23.2163C163.411 22.882 163.551 25.6988 161.651 26.1345C161.151 26.2459 160.651 26.327 160.161 26.408C154.311 27.4213 148.721 30.3191 143.331 33.3487C141.944 33.9882 140.737 34.9707 139.821 36.206C142.375 33.1496 145.463 30.5973 148.931 28.6777C152.341 26.7904 155.884 25.1614 159.531 23.804C160.164 23.5439 160.821 23.3471 161.491 23.2163Z" fill="#19B9DE"/>
<path opacity="0.2" d="M111.751 158.757C111.321 160.682 108.691 159.77 109.041 157.744C109.131 157.227 109.241 156.73 109.351 156.244C110.691 150.387 110.201 144.034 109.531 137.833C109.48 136.289 109.05 134.781 108.281 133.446C110.08 137.022 111.212 140.904 111.621 144.896C112.022 148.817 112.139 152.762 111.971 156.7C111.964 157.391 111.89 158.08 111.751 158.757Z" fill="#19B9DE"/>
<path opacity="0.5" d="M160.271 146.02C161.761 148.584 158.101 148.402 156.491 145.838C156.061 145.169 155.681 144.501 155.301 143.812C150.761 135.979 143.841 128.228 136.881 120.74C135.229 118.797 133.302 117.114 131.161 115.745C136.614 119.499 141.644 123.848 146.161 128.714C150.631 133.456 154.581 138.391 158.451 143.325C159.118 144.18 159.726 145.081 160.271 146.02Z" fill="#19B9DE"/>
<path opacity="0.2" d="M27.4912 146.02C26.0012 148.584 29.6712 148.402 31.2812 145.838C31.7012 145.169 32.0912 144.501 32.4612 143.812C37.0011 135.979 43.9212 128.228 50.8911 120.74C52.5394 118.797 54.4638 117.114 56.6011 115.745C51.152 119.504 46.1224 123.853 41.6011 128.714C37.1311 133.456 33.1812 138.391 29.3212 143.325C28.6511 144.18 28.0397 145.081 27.4912 146.02Z" fill="#19B9DE"/>
<path opacity="0.2" d="M76.0506 158.757C76.4806 160.682 79.1006 159.77 78.7606 157.744C78.6706 157.227 78.5506 156.73 78.4406 156.244C77.1106 150.387 77.5906 144.034 78.2706 137.833C78.3229 136.29 78.7487 134.784 79.5106 133.446C77.7112 137.022 76.5789 140.903 76.1706 144.896C75.7663 148.816 75.646 152.762 75.8106 156.7C75.8244 157.392 75.9048 158.081 76.0506 158.757Z" fill="#19B9DE"/>
<path opacity="0.2" d="M146.171 42.4678C148.081 42.1233 148.221 44.9502 146.321 45.3758C145.821 45.4872 145.321 45.5784 144.841 45.6595C138.991 46.6727 133.391 49.5706 128.001 52.59C126.617 53.2361 125.412 54.2174 124.491 55.4474C127.047 52.3962 130.135 49.8477 133.601 47.9292C137.016 46.0426 140.562 44.4104 144.211 43.0454C144.843 42.7856 145.5 42.5921 146.171 42.4678Z" fill="#19B9DE"/>
<path opacity="0.2" d="M128.351 4.67413C130.001 3.66089 131.171 6.20412 129.571 7.31868C129.141 7.61251 128.711 7.88608 128.291 8.13939C123.241 11.2906 119.121 16.1034 115.241 20.9467C114.193 22.0703 113.434 23.4378 113.031 24.9287C114.28 21.1308 116.205 17.5969 118.711 14.5025C121.168 11.4606 123.842 8.60573 126.711 5.96094C127.216 5.48011 127.765 5.04922 128.351 4.67413Z" fill="#19B9DE"/>
<path d="M191 97.9627C195.85 100.496 191.751 107.436 186.771 105.136C185.471 104.528 184.191 103.85 182.981 103.211C168.161 95.4296 150.981 92.5621 133.981 90.3533C129.831 89.8163 125.401 89.34 121.561 91.0017C132.031 88.0127 143.181 87.7594 153.971 89.0361C164.761 90.3127 175.231 93.0383 185.621 95.9261C187.476 96.4229 189.278 97.1051 191 97.9627Z" fill="#19B9DE"/>
<path opacity="0.5" d="M177.171 124.986C180.651 128.279 175.171 132.169 171.561 129.039C170.561 128.218 169.691 127.346 168.821 126.516C158.171 116.373 144.171 109.189 130.171 102.563C126.741 100.931 112.621 99.2799 108.851 99.371C118.701 100.263 138.801 103.424 147.741 107.477C156.505 111.702 164.978 116.522 173.101 121.905C174.551 122.798 175.914 123.83 177.171 124.986Z" fill="#19B9DE"/>
<path d="M136.091 173.489C136.521 178.292 129.911 177.542 129.271 172.689C129.101 171.432 129.001 170.166 128.891 168.96C127.631 154.258 121.891 139.414 115.891 125.036C114.401 121.51 104.981 110.729 102.111 108.257C108.861 115.573 121.781 131.481 125.731 140.59C129.483 149.659 132.627 158.975 135.141 168.474C135.611 170.112 135.929 171.791 136.091 173.489Z" fill="#19B9DE"/>
<path d="M140.061 10.8852C139.937 10.9636 139.796 11.0089 139.651 11.017C139.391 11.017 139.21 10.7434 139.1 10.5002C138.5 9.19313 138.841 7.4605 137.931 6.44727C137.014 7.55602 136.268 8.79963 135.72 10.1354L132.231 9.12221C132.066 9.80802 132.04 10.5204 132.153 11.2168C132.266 11.9132 132.517 12.5793 132.891 13.1752C132.278 13.4456 131.722 13.8306 131.25 14.31C131.018 14.5515 130.856 14.8534 130.782 15.1823C130.708 15.5112 130.724 15.8545 130.831 16.1743C131.635 16.3718 132.463 16.4537 133.291 16.4175C133.157 17.969 133.244 19.5319 133.551 21.0581C133.559 21.1715 133.589 21.2821 133.641 21.3831C133.693 21.4841 133.764 21.5735 133.851 21.6458C134.1 21.8079 134.441 21.6458 134.701 21.504C135.895 20.7559 136.88 19.7092 137.561 18.4642L138.861 21.5951C138.944 21.9225 139.148 22.2052 139.431 22.3855C139.628 22.4551 139.844 22.4549 140.042 22.385C140.239 22.3152 140.408 22.1796 140.521 22.0004C140.734 21.6396 140.864 21.2342 140.901 20.8149L141.39 17.836C141.396 17.6802 141.452 17.5307 141.551 17.4105C141.696 17.2984 141.878 17.2444 142.061 17.2585C143.294 17.2585 144.524 17.2585 145.75 17.2585C145.96 16.5898 145.311 15.9818 144.681 15.6981C144.051 15.4144 143.301 15.2118 142.991 14.5937C142.351 13.3271 143.99 11.554 143.3 10.4901C142.481 9.12221 141.171 10.3482 140.061 10.8852Z" fill="#19B9DE"/>
<path opacity="0.2" d="M150.57 156.193C150.446 156.267 150.305 156.309 150.16 156.315C149.89 156.315 149.71 156.041 149.6 155.798C149.01 154.501 149.35 152.809 148.44 151.745C147.511 152.873 146.762 154.141 146.22 155.504L142.74 154.42C142.574 155.106 142.547 155.819 142.66 156.515C142.774 157.212 143.026 157.878 143.4 158.473C142.787 158.737 142.231 159.119 141.76 159.598C141.527 159.839 141.364 160.14 141.288 160.469C141.212 160.798 141.227 161.141 141.33 161.462C142.135 161.663 142.963 161.748 143.79 161.715C143.661 163.264 143.749 164.823 144.05 166.346C144.073 166.576 144.18 166.79 144.35 166.944C144.61 167.106 144.94 166.944 145.2 166.792C146.403 166.053 147.39 165.004 148.061 163.752L149.36 166.883C149.455 167.205 149.661 167.482 149.94 167.663C150.136 167.735 150.349 167.737 150.546 167.669C150.742 167.6 150.91 167.466 151.02 167.288C151.236 166.927 151.369 166.522 151.41 166.103L151.89 163.114C151.896 162.958 151.952 162.808 152.05 162.688C152.201 162.578 152.386 162.528 152.57 162.546C153.79 162.546 155.02 162.496 156.25 162.546C156.46 161.888 155.811 161.27 155.181 160.986C154.55 160.702 153.81 160.5 153.49 159.882C152.85 158.625 154.49 156.842 153.8 155.829C152.98 154.39 151.64 155.656 150.57 156.193Z" fill="#19B9DE"/>
<path d="M180.081 58.7707C179.958 58.8491 179.816 58.8912 179.671 58.8923C179.401 58.8923 179.221 58.6289 179.111 58.3857C178.521 57.0786 178.861 55.346 177.941 54.3328C177.018 55.4668 176.273 56.7381 175.731 58.102L172.251 57.0077C172.085 57.6934 172.058 58.4061 172.171 59.1027C172.285 59.7994 172.536 60.4655 172.911 61.0606C172.3 61.3287 171.744 61.7101 171.271 62.1853C171.035 62.4267 170.87 62.7298 170.794 63.0608C170.718 63.3918 170.734 63.7377 170.841 64.0598C171.646 64.2573 172.474 64.3392 173.301 64.303C173.173 65.8546 173.26 67.4168 173.561 68.9436C173.569 69.057 173.6 69.1676 173.652 69.2686C173.703 69.3696 173.775 69.459 173.861 69.5313C174.111 69.6934 174.451 69.5313 174.711 69.3894C175.912 68.6484 176.898 67.5999 177.571 66.3497L178.871 69.4806C178.963 69.8042 179.165 70.0844 179.441 70.2709C179.639 70.3387 179.854 70.3377 180.051 70.2679C180.249 70.1982 180.418 70.0638 180.531 69.8859C180.749 69.5271 180.88 69.1206 180.911 68.7004L181.401 65.6607C181.409 65.5084 181.465 65.3627 181.561 65.2453C181.707 65.1332 181.889 65.0792 182.071 65.0933C183.301 65.0933 184.531 65.0933 185.761 65.0933C185.971 64.4347 185.321 63.8166 184.691 63.5431C184.061 63.2695 183.321 63.0567 183.001 62.4386C182.361 61.1721 184.001 59.3989 183.311 58.3857C182.491 56.9976 181.171 58.254 180.081 58.7707Z" fill="#19B9DE"/>
<path d="M62.1009 170.764C61.9286 170.869 61.7323 170.929 61.5309 170.936C61.1609 170.936 60.9109 170.561 60.7509 170.227C59.9309 168.403 60.4009 166.042 59.1309 164.512C57.8387 166.087 56.7993 167.858 56.051 169.761L51.1709 168.2C50.9448 169.154 50.9097 170.144 51.0678 171.111C51.2258 172.079 51.5737 173.005 52.091 173.834C51.2361 174.21 50.4591 174.746 49.801 175.414C49.4777 175.751 49.2517 176.17 49.1476 176.628C49.0436 177.085 49.0655 177.563 49.211 178.008C50.3324 178.288 51.4869 178.407 52.6409 178.363C52.4605 180.521 52.5816 182.694 53.0009 184.817C53.012 184.976 53.055 185.13 53.1272 185.272C53.1994 185.413 53.2994 185.537 53.4209 185.638C53.7709 185.871 54.2409 185.638 54.6009 185.445C56.2827 184.393 57.6621 182.912 58.6009 181.149L60.4109 185.516C60.545 185.964 60.8277 186.35 61.2109 186.611C61.4843 186.709 61.7826 186.711 62.057 186.615C62.3313 186.519 62.5654 186.332 62.7209 186.084C63.026 185.58 63.2109 185.011 63.2609 184.422L63.9309 180.268C63.9483 180.053 64.0283 179.848 64.1609 179.68C64.3646 179.517 64.6228 179.441 64.8809 179.467C66.5909 179.467 68.3009 179.407 70.0109 179.417C70.3109 178.495 69.4009 177.643 68.5209 177.248C67.6409 176.853 66.6109 176.569 66.1709 175.708C65.2709 173.955 67.5809 171.513 66.6009 169.994C65.4709 168.261 63.6009 170.014 62.1009 170.764Z" fill="#19B9DE"/>
<path d="M13.0211 61.699C12.8456 61.806 12.6458 61.8653 12.4411 61.8712C12.0811 61.8712 11.8211 61.4963 11.6711 61.162C10.8411 59.3381 11.3211 56.9773 10.0511 55.4473C8.75568 57.0218 7.71291 58.7929 6.96105 60.6959L2.11106 59.1659C1.88061 60.1186 1.84242 61.1087 1.99879 62.0768C2.15516 63.0448 2.50287 63.9709 3.02107 64.7995C2.16918 65.1754 1.39548 65.7118 0.741067 66.3801C0.416056 66.7153 0.18819 67.1344 0.0823753 67.5919C-0.0234392 68.0493 -0.00313696 68.5275 0.141061 68.974C1.26249 69.2536 2.417 69.373 3.57105 69.3286C3.38896 71.4869 3.51357 73.6605 3.94106 75.7829C3.92906 75.9763 3.97812 76.1685 4.08115 76.3316C4.18419 76.4948 4.33582 76.6205 4.51409 76.6905C4.69236 76.7605 4.88801 76.7712 5.07266 76.7209C5.2573 76.6707 5.42135 76.5622 5.54105 76.4112C7.22284 75.3589 8.60223 73.8774 9.54105 72.115L11.3411 76.4821C11.4697 76.935 11.758 77.3244 12.1511 77.5764C12.4246 77.6731 12.7223 77.6737 12.9962 77.5782C13.2701 77.4826 13.5043 77.2964 13.6611 77.0495C13.9647 76.5457 14.1463 75.9763 14.1911 75.3878L14.8711 71.2335C14.8811 71.019 14.9581 70.8132 15.0911 70.6458C15.2962 70.4866 15.5542 70.4139 15.8111 70.4432C17.5211 70.4432 19.2311 70.3723 20.9511 70.3824C21.2411 69.4604 20.3311 68.6092 19.4611 68.2141C18.5911 67.8189 17.5411 67.5352 17.1011 66.674C16.2111 64.9211 18.5211 62.4792 17.5411 60.9593C16.3811 59.1963 14.5111 60.9492 13.0211 61.699Z" fill="#19B9DE"/>
<path opacity="0.2" d="M161.961 129.241C161.871 129.299 161.767 129.33 161.661 129.332C161.461 129.332 161.331 129.13 161.241 128.958C160.801 127.944 161.061 126.739 160.381 125.918C159.696 126.756 159.143 127.696 158.741 128.704L156.161 127.894C156.037 128.408 156.017 128.942 156.101 129.464C156.185 129.986 156.372 130.486 156.651 130.933C156.197 131.127 155.786 131.41 155.441 131.764C155.267 131.942 155.146 132.164 155.089 132.408C155.033 132.651 155.044 132.905 155.121 133.142C155.715 133.292 156.328 133.357 156.941 133.335C156.847 134.48 156.915 135.633 157.141 136.759C157.145 136.844 157.168 136.926 157.205 137.001C157.243 137.076 157.296 137.142 157.361 137.195C157.465 137.238 157.578 137.251 157.689 137.233C157.8 137.215 157.905 137.167 157.991 137.094C158.878 136.531 159.608 135.746 160.111 134.814L161.111 137.134C161.176 137.372 161.326 137.578 161.531 137.712C161.676 137.765 161.835 137.767 161.982 137.717C162.129 137.668 162.255 137.569 162.341 137.438C162.5 137.17 162.596 136.869 162.621 136.557L162.981 134.348C162.988 134.233 163.03 134.124 163.101 134.034C163.153 133.99 163.214 133.957 163.279 133.938C163.344 133.918 163.413 133.913 163.481 133.922H166.211C166.361 133.436 165.881 132.98 165.411 132.777C164.941 132.575 164.411 132.413 164.161 131.957C163.691 131.025 164.921 129.728 164.401 128.917C163.881 128.106 162.751 128.836 161.961 129.241Z" fill="#19B9DE"/>
<path opacity="0.2" d="M95.2809 168.251C95.1878 168.301 95.0859 168.332 94.9809 168.342C94.8853 168.32 94.7971 168.273 94.7251 168.205C94.6532 168.137 94.6 168.052 94.5709 167.957C94.1309 166.994 94.3809 165.738 93.7009 164.917C93.0146 165.754 92.4613 166.694 92.0609 167.704L89.4909 166.893C89.3691 167.398 89.3488 167.923 89.4313 168.437C89.5137 168.95 89.6972 169.442 89.9709 169.882C89.522 170.088 89.1124 170.373 88.7609 170.723C88.5876 170.901 88.4661 171.123 88.4097 171.366C88.3532 171.61 88.364 171.864 88.4409 172.101C89.0354 172.252 89.6487 172.314 90.2609 172.283C90.1665 173.432 90.2339 174.589 90.4609 175.718C90.467 175.802 90.4895 175.884 90.5273 175.959C90.5651 176.034 90.6173 176.1 90.6809 176.154C90.8709 176.276 91.1209 176.154 91.3109 176.053C92.1991 175.49 92.9292 174.705 93.4309 173.773L94.4309 176.093C94.4967 176.331 94.6461 176.537 94.8509 176.671C94.9979 176.721 95.1572 176.721 95.3038 176.669C95.4504 176.618 95.576 176.519 95.6609 176.387C95.8201 176.119 95.916 175.817 95.9409 175.506L96.3009 173.297C96.3087 173.185 96.3507 173.079 96.4209 172.993C96.5281 172.906 96.6647 172.866 96.8009 172.881C97.7143 172.881 98.6242 172.881 99.5309 172.881C99.6809 172.395 99.2009 171.939 98.7409 171.726C98.2809 171.513 97.7409 171.372 97.4909 170.905C97.0109 169.973 98.2409 168.676 97.7209 167.866C97.2009 167.055 96.0809 167.845 95.2809 168.251Z" fill="#19B9DE"/>
<path opacity="0.5" d="M30.7505 31.7275C30.6579 31.7789 30.5557 31.81 30.4505 31.8187C30.3548 31.7965 30.2666 31.7493 30.1947 31.6817C30.1227 31.6141 30.0695 31.5286 30.0405 31.4336C29.6005 30.4204 29.8505 29.2146 29.1805 28.3939C28.4872 29.2257 27.9332 30.1669 27.5405 31.1803L24.9605 30.3697C24.8307 30.8832 24.8072 31.4184 24.8915 31.9415C24.9759 32.4647 25.1662 32.9645 25.4505 33.4094C24.9972 33.6131 24.5839 33.898 24.2305 34.2504C24.0579 34.4285 23.9376 34.6516 23.8829 34.8949C23.8281 35.1382 23.8412 35.3922 23.9205 35.6284C24.5148 35.7806 25.1282 35.8421 25.7405 35.8108C25.6428 36.9591 25.7068 38.1156 25.9305 39.2457C25.9365 39.3295 25.9591 39.4113 25.9969 39.4861C26.0347 39.561 26.0869 39.6274 26.1505 39.6814C26.3405 39.803 26.5905 39.6814 26.7805 39.58C27.6715 39.0208 28.4025 38.2348 28.9005 37.3003L29.9005 39.6206C29.9688 39.8601 30.1219 40.0658 30.3305 40.1981C30.476 40.2477 30.6336 40.2468 30.7785 40.1954C30.9234 40.144 31.0473 40.0451 31.1305 39.9144C31.2897 39.6464 31.3856 39.3447 31.4105 39.0329L31.7705 36.824C31.7769 36.7122 31.819 36.6055 31.8905 36.5201C31.9977 36.4337 32.1343 36.3936 32.2705 36.4086C33.1838 36.4086 34.0938 36.4086 35.0005 36.4086C35.1605 35.9223 34.6705 35.4663 34.2105 35.2535C33.7505 35.0408 33.2105 34.8989 32.9605 34.4328C32.4805 33.5006 33.7105 32.2037 33.1905 31.3931C32.6705 30.5825 31.5505 31.3222 30.7505 31.7275Z" fill="#19B9DE"/>
<path opacity="0.5" d="M65.1007 108.652C65.0077 108.711 64.9004 108.743 64.7907 108.743C64.6007 108.743 64.4607 108.551 64.3807 108.369C63.9407 107.406 64.1907 106.15 63.5207 105.329C62.831 106.163 62.2774 107.104 61.8807 108.115L59.3007 107.305C59.1757 107.819 59.1546 108.353 59.2388 108.875C59.323 109.398 59.5108 109.897 59.7907 110.344C59.3396 110.547 58.9294 110.832 58.5807 111.185C58.4065 111.362 58.2843 111.585 58.2277 111.828C58.1712 112.072 58.1826 112.326 58.2607 112.563C58.8551 112.715 59.4685 112.777 60.0807 112.746C59.983 113.894 60.047 115.051 60.2707 116.181C60.288 116.349 60.3665 116.504 60.4907 116.616C60.6807 116.738 60.9307 116.616 61.1207 116.505C62.0129 115.951 62.7444 115.168 63.2407 114.235L64.2407 116.556C64.3153 116.792 64.4669 116.996 64.6707 117.133C64.8161 117.185 64.9744 117.184 65.1197 117.133C65.265 117.081 65.3887 116.981 65.4707 116.849C65.6334 116.582 65.7327 116.28 65.7607 115.968L66.1207 113.759C66.1222 113.646 66.165 113.538 66.2407 113.455C66.2929 113.411 66.3537 113.378 66.4191 113.359C66.4845 113.34 66.5532 113.334 66.6207 113.344C67.5307 113.344 68.4407 113.344 69.3407 113.344C69.5007 112.857 69.0207 112.401 68.5507 112.188C68.0807 111.976 67.5507 111.824 67.3007 111.368C66.8307 110.436 68.0607 109.139 67.5307 108.328C67.0007 107.517 65.8907 108.257 65.1007 108.652Z" fill="#19B9DE"/>
<path opacity="0.5" d="M40.171 78.6606C40.0818 78.7198 39.9776 78.7515 39.871 78.7518C39.671 78.7518 39.541 78.5592 39.461 78.3769C39.021 77.4143 39.271 76.1579 38.591 75.3372C37.9047 76.1739 37.3514 77.114 36.951 78.1236L34.381 77.313C34.2522 77.826 34.2283 78.3604 34.3108 78.8831C34.3934 79.4059 34.5806 79.906 34.861 80.3527C34.4121 80.5589 34.0025 80.8436 33.651 81.1937C33.4768 81.3707 33.3546 81.5933 33.2981 81.8367C33.2415 82.08 33.2529 82.3345 33.331 82.5717C33.9255 82.723 34.5388 82.7844 35.151 82.754C35.0566 83.9028 35.124 85.0593 35.351 86.1889C35.357 86.2727 35.3796 86.3545 35.4174 86.4294C35.4552 86.5042 35.5074 86.5706 35.571 86.6246C35.761 86.7462 36.011 86.6246 36.201 86.5131C37.0932 85.9597 37.8246 85.1765 38.321 84.2435L39.321 86.5638C39.3868 86.8018 39.5362 87.0072 39.741 87.1413C39.888 87.1917 40.0472 87.1911 40.1938 87.1398C40.3405 87.0884 40.4661 86.9892 40.551 86.8576C40.7102 86.5896 40.8061 86.2879 40.831 85.9761L41.191 83.7673C41.1974 83.6554 41.2395 83.5488 41.311 83.4633C41.4182 83.3769 41.5548 83.3368 41.691 83.3519C42.5977 83.3519 43.5076 83.3519 44.421 83.3519C44.571 82.8655 44.091 82.4095 43.631 82.1968C43.171 81.984 42.631 81.832 42.381 81.376C41.901 80.4439 43.131 79.1469 42.611 78.3363C42.091 77.5257 40.971 78.2654 40.171 78.6606Z" fill="#19B9DE"/>
<path opacity="0.5" d="M147.231 85.7228C147.141 85.7805 147.037 85.8121 146.931 85.814C146.731 85.814 146.601 85.6215 146.511 85.4391C146.081 84.4766 146.331 83.2201 145.651 82.3994C144.964 83.2362 144.411 84.1763 144.011 85.1858L141.441 84.3752C141.319 84.8806 141.298 85.4056 141.381 85.9191C141.463 86.4326 141.647 86.9241 141.921 87.3643C141.467 87.5618 141.056 87.8475 140.711 88.2053C140.536 88.3823 140.414 88.6049 140.358 88.8482C140.301 89.0916 140.313 89.3461 140.391 89.5833C140.986 89.7296 141.598 89.791 142.211 89.7656C142.116 90.9144 142.184 92.0709 142.411 93.2005C142.417 93.2843 142.439 93.3661 142.477 93.4409C142.515 93.5158 142.567 93.5822 142.631 93.6362C142.821 93.7578 143.071 93.6362 143.261 93.5247C144.148 92.9654 144.878 92.1837 145.381 91.2551L146.381 93.5653C146.444 93.807 146.594 94.0163 146.801 94.1529C146.948 94.2033 147.107 94.2027 147.253 94.1514C147.4 94.1 147.526 94.0008 147.611 93.8692C147.77 93.6012 147.866 93.2995 147.891 92.9877L148.251 90.7789C148.258 90.6643 148.3 90.5547 148.371 90.4648C148.48 90.3829 148.616 90.3466 148.751 90.3634C149.657 90.3634 150.567 90.3634 151.481 90.3634C151.631 89.8771 151.151 89.4211 150.691 89.2083C150.231 88.9956 149.691 88.8436 149.441 88.3876C148.961 87.4555 150.191 86.1585 149.671 85.3479C149.151 84.5373 148.031 85.3277 147.231 85.7228Z" fill="#19B9DE"/>
<path opacity="0.2" d="M95.281 79.8258C95.1918 79.885 95.0876 79.9167 94.981 79.917C94.781 79.917 94.651 79.7143 94.571 79.5421C94.131 78.5288 94.381 77.3231 93.701 76.5024C93.019 77.3422 92.4661 78.2816 92.061 79.2888L89.491 78.4782C89.3633 78.9913 89.34 79.5255 89.4226 80.048C89.5051 80.5706 89.6917 81.0707 89.971 81.5179C89.5207 81.7172 89.1106 81.9988 88.761 82.3487C88.5869 82.5279 88.4649 82.7523 88.4084 82.9972C88.352 83.2421 88.3632 83.498 88.441 83.7369C89.0372 83.878 89.6491 83.9394 90.261 83.9193C90.1676 85.0647 90.2349 86.2177 90.461 87.344C90.4646 87.4284 90.4862 87.511 90.5241 87.5861C90.5621 87.6613 90.6156 87.7273 90.681 87.7797C90.871 87.9114 91.121 87.7797 91.311 87.6783C92.2021 87.1191 92.933 86.3331 93.431 85.3986L94.431 87.7189C94.4968 87.9569 94.6462 88.1622 94.851 88.2964C94.9966 88.3514 95.1563 88.3543 95.3037 88.3045C95.4511 88.2547 95.5771 88.1553 95.661 88.0228C95.8202 87.7548 95.9161 87.4531 95.941 87.1413L96.301 84.9325C96.3087 84.8179 96.3506 84.7084 96.421 84.6184C96.5326 84.5409 96.6658 84.5018 96.801 84.5069C97.7144 84.5069 98.6244 84.5069 99.531 84.5069C99.681 84.0206 99.201 83.5646 98.741 83.362C98.281 83.1593 97.741 82.9972 97.491 82.5413C97.011 81.6091 98.241 80.3121 97.721 79.5016C97.201 78.691 96.081 79.4306 95.281 79.8258Z" fill="#19B9DE"/>
<path opacity="0.3" d="M78.9812 87.0096C78.8913 87.0673 78.7875 87.0989 78.6812 87.1008C78.4812 87.1008 78.3512 86.9083 78.2612 86.7259C77.8212 85.7127 78.0812 84.5069 77.4012 83.6862C76.7192 84.5261 76.1663 85.4655 75.7612 86.4726L73.1812 85.6722C73.0631 86.1784 73.0456 86.7034 73.1297 87.2166C73.2139 87.7297 73.3979 88.2208 73.6712 88.6612C73.22 88.8588 72.8096 89.1407 72.4612 89.4921C72.2871 89.6713 72.1651 89.8957 72.1086 90.1405C72.0522 90.3854 72.0634 90.6414 72.1412 90.8802C72.7374 91.0214 73.3493 91.0827 73.9612 91.0626C73.8678 92.2113 73.9351 93.3677 74.1612 94.4974C74.1672 94.5813 74.1898 94.663 74.2276 94.7379C74.2654 94.8127 74.3176 94.8791 74.3812 94.9331C74.5712 95.0547 74.8212 94.9331 75.0112 94.8217C75.9022 94.2624 76.6332 93.4764 77.1312 92.5419L78.1312 94.8622C78.1948 95.1039 78.3444 95.3132 78.5512 95.4499C78.6981 95.5002 78.8574 95.4997 79.004 95.4483C79.1506 95.397 79.2763 95.2977 79.3612 95.1662C79.5204 94.8982 79.6162 94.5965 79.6412 94.2847L80.0012 92.0758C80.0089 91.9612 80.0507 91.8517 80.1212 91.7617C80.2314 91.6813 80.3656 91.642 80.5012 91.6502C81.4112 91.6502 82.3212 91.6502 83.2312 91.6502C83.3812 91.1538 82.9012 90.6978 82.4412 90.4952C81.9812 90.2925 81.4412 90.1304 81.1912 89.6744C80.7112 88.7423 81.9412 87.4453 81.4212 86.6347C80.9012 85.8241 79.7812 86.6145 78.9812 87.0096Z" fill="#19B9DE"/>
<path opacity="0.2" d="M63.7905 43.5722C63.6976 43.6312 63.5902 43.6628 63.4805 43.6634C63.2905 43.6634 63.1505 43.4709 63.0705 43.2885C62.6305 42.2753 62.8806 41.0695 62.2106 40.2488C61.5231 41.081 60.9697 42.018 60.5705 43.025L57.9905 42.2246C57.8607 42.7381 57.8373 43.2733 57.9216 43.7964C58.0059 44.3195 58.1962 44.8193 58.4805 45.2643C58.0277 45.4643 57.6143 45.7458 57.2605 46.0951C57.09 46.2766 56.9712 46.5015 56.9166 46.7459C56.862 46.9903 56.8737 47.2451 56.9505 47.4833C57.5458 47.63 58.1584 47.6914 58.7705 47.6657C58.6738 48.814 58.7378 49.9704 58.9605 51.1005C58.9666 51.1844 58.9892 51.2661 59.027 51.341C59.0647 51.4158 59.117 51.4822 59.1805 51.5362C59.3705 51.6578 59.6206 51.5362 59.8106 51.4248C60.7053 50.87 61.4372 50.0829 61.9306 49.145L62.9306 51.4653C63.0024 51.7058 63.1543 51.9135 63.3605 52.053C63.5175 52.0996 63.6858 52.0874 63.8345 52.0186C63.9833 51.9497 64.1026 51.8288 64.1705 51.6781C64.3333 51.411 64.4326 51.1092 64.4606 50.7966L64.8106 48.5877C64.8183 48.4731 64.8601 48.3636 64.9306 48.2736C65.0421 48.1961 65.1754 48.157 65.3106 48.1622C66.2206 48.1622 67.1305 48.1622 68.0406 48.1622C68.2006 47.6657 67.7205 47.2097 67.2505 47.0071C66.7805 46.8044 66.2505 46.6423 66.0005 46.1863C65.5305 45.2542 66.7506 43.9572 66.2305 43.1466C65.7105 42.336 64.5805 43.1264 63.7905 43.5722Z" fill="#19B9DE"/>
<path opacity="0.3" d="M93.7211 100.313C93.6263 100.368 93.5201 100.399 93.4111 100.405C93.2211 100.405 93.0811 100.202 93.0011 100.02C92.5611 99.057 92.8111 97.8107 92.1411 96.9799C91.4535 97.8157 90.9 98.756 90.5011 99.7662L87.9211 98.9557C87.7925 99.4693 87.7697 100.004 87.854 100.527C87.9383 101.05 88.1279 101.55 88.4111 101.995C87.9562 102.192 87.5423 102.474 87.1911 102.826C87.0214 103.006 86.903 103.229 86.8485 103.472C86.7939 103.714 86.8052 103.968 86.8811 104.204C87.4759 104.354 88.0885 104.419 88.7011 104.397C88.6044 105.542 88.6684 106.695 88.8911 107.821C88.9084 107.989 88.9869 108.145 89.1111 108.257C89.2153 108.3 89.329 108.313 89.44 108.295C89.5509 108.277 89.655 108.229 89.7411 108.156C90.6322 107.597 91.3631 106.811 91.8611 105.876L92.8611 108.196C92.9294 108.436 93.0825 108.642 93.2911 108.774C93.4355 108.824 93.5924 108.825 93.7372 108.776C93.882 108.726 94.0065 108.629 94.0911 108.5C94.2538 108.233 94.3531 107.931 94.3811 107.619L94.7411 105.41C94.738 105.346 94.7495 105.282 94.7748 105.223C94.8001 105.165 94.8385 105.113 94.8869 105.071C94.9353 105.03 94.9925 105.001 95.0539 104.986C95.1153 104.971 95.1794 104.97 95.2411 104.984C96.1511 104.984 97.0511 104.984 97.9611 104.984C98.1211 104.498 97.6411 104.042 97.1711 103.839C96.7011 103.637 96.1711 103.475 95.9211 103.019C95.4511 102.087 96.6711 100.79 96.1511 99.979C95.6311 99.1684 94.5111 99.8676 93.7211 100.313Z" fill="#19B9DE"/>
<g opacity="0.6">
<path opacity="0.5" d="M216.885 215.03C216.565 214.628 216.105 214.364 215.599 214.294C215.094 214.224 214.581 214.352 214.166 214.653C213.751 214.953 213.465 215.403 213.366 215.91C213.267 216.417 213.363 216.943 213.635 217.381C214.005 217.948 214.415 218.495 214.805 219.022C219.495 225.446 221.925 233.207 224.025 240.949C224.535 242.843 225.025 244.86 224.445 246.734C225.169 241.687 224.829 236.541 223.445 231.637C222.071 226.748 220.309 221.981 218.175 217.381C217.829 216.553 217.396 215.765 216.885 215.03Z" fill="#19B9DE"/>
<path opacity="0.6" d="M186.425 228.536C183.255 228.435 182.855 233.299 186.005 233.552C186.835 233.623 187.665 233.643 188.465 233.663C198.165 233.927 207.325 237.493 216.135 241.323C218.305 242.266 220.575 243.35 221.835 245.376C217.743 240.788 212.703 237.169 207.075 234.778C201.436 232.386 195.609 230.478 189.655 229.073C188.601 228.775 187.518 228.595 186.425 228.536Z" fill="#19B9DE"/>
<path opacity="0.2" d="M187.305 240.493C185.305 240.563 185.755 243.451 187.775 243.461C188.295 243.461 188.775 243.461 189.325 243.461C195.445 243.208 201.705 244.92 207.785 246.805C209.321 247.147 210.748 247.876 211.935 248.923C208.708 246.398 205.05 244.495 201.145 243.309C197.307 242.136 193.39 241.249 189.425 240.655C188.725 240.533 188.015 240.479 187.305 240.493Z" fill="#19B9DE"/>
<path opacity="0.5" d="M228.225 294.022C228.795 295.967 231.435 294.812 230.955 292.826C230.825 292.309 230.675 291.813 230.525 291.316C228.775 285.369 228.855 278.803 229.145 272.369C229.096 270.775 229.44 269.194 230.145 267.769C228.525 271.56 227.603 275.618 227.425 279.745C227.272 283.803 227.409 287.866 227.835 291.904C227.899 292.621 228.03 293.33 228.225 294.022Z" fill="#19B9DE"/>
<path opacity="0.2" d="M190.955 212.325C189.745 212.112 189.655 213.895 190.855 214.159L191.785 214.341C195.475 214.979 198.995 216.803 202.395 218.708C203.268 219.11 204.028 219.726 204.605 220.501C202.995 218.58 201.049 216.976 198.865 215.77C196.714 214.595 194.481 213.579 192.185 212.73C191.787 212.559 191.376 212.424 190.955 212.325Z" fill="#19B9DE"/>
<path opacity="0.6" d="M172.365 259.41C169.315 261 171.895 265.378 175.035 263.929C175.855 263.544 176.655 263.118 177.415 262.723C186.755 257.809 197.595 256.005 208.255 254.617C210.875 254.273 213.665 253.979 216.085 255.022C209.422 253.271 202.486 252.851 195.665 253.786C188.922 254.718 182.259 256.171 175.735 258.133C174.572 258.442 173.443 258.87 172.365 259.41Z" fill="#19B9DE"/>
<path opacity="0.5" d="M181.095 276.432C178.895 278.458 182.325 280.951 184.625 278.965C185.225 278.438 185.805 277.891 186.345 277.374C193.035 271.011 201.875 266.482 210.675 262.307C212.835 261.294 221.675 260.281 224.105 260.281C217.905 260.848 205.235 262.804 199.605 265.347C194.074 268.018 188.729 271.065 183.605 274.466C182.709 275.041 181.869 275.699 181.095 276.432Z" fill="#19B9DE"/>
<path opacity="0.6" d="M196.745 303.597C196.105 306.566 200.295 306.637 201.075 303.597C201.275 302.827 201.445 302.047 201.605 301.297C203.535 292.178 208.265 283.393 213.165 274.892C214.365 272.805 221.095 266.786 223.085 265.509C218.295 269.562 208.975 278.448 205.805 283.818C202.772 289.189 200.099 294.761 197.805 300.496C197.36 301.495 197.005 302.533 196.745 303.597Z" fill="#19B9DE"/>
<path opacity="0.6" d="M228.265 199.305C226.765 196.214 222.494 198.757 223.854 201.929C224.204 202.75 224.604 203.56 224.984 204.34C229.584 213.774 231.174 224.686 232.354 235.416C232.644 238.041 232.894 240.847 231.834 243.269C233.638 236.602 234.154 229.646 233.354 222.781C232.555 215.997 231.251 209.284 229.455 202.699C229.17 201.53 228.772 200.393 228.265 199.305Z" fill="#19B9DE"/>
<path opacity="0.6" d="M204.424 204.563C204.499 204.611 204.586 204.636 204.674 204.634C204.756 204.62 204.832 204.584 204.894 204.528C204.956 204.473 205.001 204.4 205.024 204.32C205.404 203.489 205.184 202.425 205.764 201.736C206.347 202.449 206.815 203.249 207.154 204.107L209.354 203.418C209.456 203.849 209.472 204.296 209.399 204.733C209.327 205.17 209.169 205.588 208.934 205.962C209.307 206.135 209.646 206.375 209.934 206.671C210.079 206.824 210.18 207.015 210.226 207.222C210.272 207.429 210.261 207.645 210.194 207.846C209.688 207.977 209.166 208.031 208.644 208.008C208.73 208.984 208.677 209.967 208.484 210.926C208.471 211.071 208.403 211.206 208.294 211.301C208.206 211.336 208.11 211.347 208.017 211.33C207.923 211.314 207.836 211.273 207.764 211.21C207.004 210.736 206.38 210.069 205.954 209.275L205.144 211.24C205.084 211.446 204.953 211.622 204.774 211.737C204.652 211.781 204.518 211.782 204.395 211.74C204.271 211.698 204.165 211.614 204.094 211.504C203.961 211.275 203.879 211.019 203.854 210.754L203.544 208.869C203.542 208.773 203.506 208.68 203.444 208.606C203.353 208.535 203.239 208.503 203.124 208.515C202.344 208.515 201.574 208.515 200.804 208.515C200.664 208.099 201.074 207.714 201.474 207.502C201.874 207.289 202.334 207.188 202.534 206.802C202.944 206.002 201.894 204.898 202.344 204.219C202.794 203.54 203.774 204.219 204.424 204.563Z" fill="#19B9DE"/>
<path opacity="0.5" d="M246.785 215.03C247.092 214.592 247.559 214.296 248.082 214.206C248.606 214.117 249.142 214.242 249.575 214.554C250.007 214.865 250.299 215.338 250.387 215.869C250.476 216.399 250.352 216.943 250.045 217.381C249.665 217.948 249.265 218.495 248.875 219.022C244.185 225.446 241.745 233.207 239.655 240.949C239.135 242.843 238.655 244.86 239.225 246.734C238.501 241.687 238.841 236.541 240.225 231.637C241.594 226.747 243.356 221.979 245.495 217.381C245.84 216.553 246.273 215.765 246.785 215.03Z" fill="#19B9DE"/>
<path opacity="0.6" d="M277.245 228.536C280.405 228.435 280.815 233.299 277.655 233.552C276.835 233.623 275.995 233.643 275.205 233.663C265.505 233.927 256.335 237.493 247.525 241.323C245.365 242.266 243.095 243.35 241.835 245.376C245.927 240.788 250.966 237.169 256.595 234.778C262.231 232.387 268.055 230.479 274.005 229.073C275.063 228.775 276.149 228.595 277.245 228.536Z" fill="#19B9DE"/>
<path opacity="0.5" d="M276.425 240.493C278.425 240.563 277.965 243.451 275.955 243.461C275.425 243.461 274.905 243.461 274.405 243.461C268.285 243.208 262.025 244.92 255.945 246.805C254.408 247.145 252.98 247.874 251.795 248.923C255.021 246.396 258.679 244.493 262.585 243.309C266.43 242.149 270.354 241.276 274.325 240.695C275.017 240.561 275.72 240.494 276.425 240.493Z" fill="#19B9DE"/>
<path opacity="0.2" d="M272.725 212.325C273.935 212.112 274.025 213.895 272.825 214.159L271.885 214.341C268.205 214.979 264.675 216.803 261.285 218.708C260.412 219.11 259.653 219.726 259.075 220.501C260.682 218.581 262.624 216.977 264.805 215.77C266.961 214.597 269.197 213.581 271.495 212.73C271.892 212.558 272.304 212.422 272.725 212.325Z" fill="#19B9DE"/>
<path opacity="0.2" d="M241.425 297.71C241.155 298.916 239.505 298.318 239.725 297.092C239.725 296.768 239.855 296.454 239.925 296.15C240.765 292.461 240.455 288.459 240.035 284.548C240.001 283.577 239.73 282.63 239.245 281.792C240.376 284.035 241.088 286.471 241.345 288.976C241.596 291.446 241.673 293.932 241.575 296.413C241.57 296.849 241.519 297.284 241.425 297.71Z" fill="#19B9DE"/>
<path opacity="0.5" d="M271.955 289.685C272.895 291.296 270.585 291.185 269.575 289.574C269.305 289.148 269.065 288.722 268.825 288.317C265.965 283.383 261.605 278.499 257.215 273.787C256.179 272.563 254.969 271.501 253.625 270.636C257.05 273.005 260.212 275.743 263.055 278.803C265.875 281.843 268.355 284.882 270.795 288.003C271.219 288.537 271.606 289.099 271.955 289.685Z" fill="#19B9DE"/>
<path opacity="0.2" d="M188.315 289.685C187.375 291.296 189.685 291.185 190.705 289.574C190.965 289.148 191.215 288.722 191.445 288.317C194.305 283.383 198.665 278.499 203.055 273.787C204.095 272.562 205.308 271.5 206.655 270.636C203.226 273.005 200.061 275.743 197.215 278.803C194.405 281.843 191.915 284.882 189.475 288.003C189.051 288.537 188.664 289.099 188.315 289.685Z" fill="#19B9DE"/>
<path opacity="0.2" d="M218.905 297.71C219.175 298.916 220.825 298.318 220.615 297.092C220.555 296.768 220.485 296.454 220.415 296.15C219.575 292.461 219.875 288.459 220.305 284.548C220.331 283.577 220.599 282.629 221.085 281.792C219.954 284.035 219.242 286.471 218.985 288.976C218.732 291.446 218.659 293.932 218.765 296.413C218.772 296.849 218.819 297.283 218.905 297.71Z" fill="#19B9DE"/>
<path opacity="0.2" d="M263.094 224.453C264.294 224.24 264.385 226.013 263.185 226.287C262.875 226.358 262.555 226.409 262.255 226.459C258.565 227.098 255.045 228.921 251.645 230.836C250.774 231.241 250.015 231.857 249.435 232.63C251.044 230.706 252.99 229.098 255.175 227.888C257.326 226.713 259.558 225.697 261.855 224.848C262.254 224.675 262.669 224.543 263.094 224.453Z" fill="#19B9DE"/>
<path opacity="0.2" d="M251.845 200.652C252.845 199.994 253.625 201.605 252.615 202.314L251.815 202.831C248.635 204.857 246.035 207.846 243.585 210.937C242.922 211.642 242.447 212.507 242.205 213.449C242.987 211.054 244.197 208.825 245.775 206.873C247.332 204.959 249.023 203.161 250.835 201.493C251.142 201.179 251.481 200.897 251.845 200.652Z" fill="#19B9DE"/>
<path opacity="0.6" d="M291.315 259.41C294.365 261 291.785 265.378 288.645 263.929C287.825 263.544 287.025 263.118 286.255 262.723C276.925 257.809 266.085 256.005 255.425 254.617C252.805 254.273 250.015 253.979 247.595 255.022C254.254 253.272 261.187 252.852 268.005 253.786C274.751 254.717 281.417 256.17 287.945 258.133C289.107 258.445 290.236 258.873 291.315 259.41Z" fill="#19B9DE"/>
<path opacity="0.5" d="M282.585 276.432C284.785 278.458 281.355 280.951 279.055 278.965C278.455 278.438 277.875 277.891 277.325 277.374C270.635 271.011 261.805 266.482 252.995 262.307C250.845 261.294 241.945 260.281 239.575 260.281C245.775 260.848 258.435 262.804 264.065 265.347C269.596 268.016 274.942 271.063 280.065 274.466C280.964 275.04 281.808 275.698 282.585 276.432Z" fill="#19B9DE"/>
<path opacity="0.6" d="M256.725 306.971C256.995 310.011 252.825 309.514 252.425 306.474C252.325 305.674 252.255 304.884 252.185 304.124C251.395 294.863 247.785 285.511 243.975 276.452C243.045 274.233 237.105 267.445 235.305 265.884C239.555 270.494 247.695 280.515 250.185 286.25C252.544 291.962 254.522 297.829 256.105 303.81C256.409 304.841 256.617 305.9 256.725 306.971Z" fill="#19B9DE"/>
<path opacity="0.6" d="M259.225 204.563C259.146 204.612 259.056 204.636 258.965 204.634C258.884 204.617 258.81 204.579 258.748 204.524C258.687 204.469 258.641 204.399 258.615 204.32C258.245 203.489 258.455 202.425 257.885 201.736C257.299 202.448 256.827 203.248 256.485 204.107L254.295 203.418C254.19 203.849 254.173 204.297 254.245 204.734C254.317 205.171 254.477 205.589 254.714 205.962C254.342 206.135 254.003 206.375 253.714 206.671C253.568 206.823 253.465 207.013 253.418 207.22C253.37 207.427 253.379 207.644 253.445 207.846C253.951 207.976 254.473 208.03 254.995 208.008C254.916 208.984 254.973 209.967 255.165 210.926C255.178 211.071 255.246 211.206 255.355 211.301C255.443 211.336 255.539 211.347 255.632 211.33C255.725 211.314 255.813 211.273 255.885 211.21C256.645 210.737 257.269 210.069 257.695 209.275L258.505 211.24C258.565 211.443 258.692 211.618 258.865 211.737C258.989 211.782 259.124 211.783 259.249 211.741C259.374 211.699 259.482 211.615 259.555 211.504C259.688 211.275 259.77 211.019 259.795 210.754L260.105 208.869C260.107 208.773 260.143 208.68 260.205 208.606C260.296 208.535 260.41 208.503 260.525 208.515C261.295 208.515 262.075 208.515 262.845 208.515C262.985 208.099 262.565 207.714 262.175 207.502C261.785 207.289 261.305 207.188 261.105 206.802C260.705 206.002 261.755 204.898 261.305 204.219C260.855 203.54 259.905 204.219 259.225 204.563Z" fill="#19B9DE"/>
<path opacity="0.2" d="M265.844 296.089C265.765 296.135 265.676 296.163 265.584 296.17C265.414 296.17 265.304 295.998 265.234 295.846C264.864 295.025 265.074 293.951 264.504 293.262C263.916 293.971 263.443 294.772 263.104 295.633L260.914 294.944C260.81 295.374 260.793 295.821 260.864 296.258C260.934 296.695 261.091 297.113 261.324 297.487C260.95 297.662 260.611 297.906 260.324 298.206C260.177 298.358 260.073 298.548 260.026 298.756C259.978 298.963 259.988 299.18 260.054 299.382C260.562 299.503 261.083 299.554 261.604 299.534C261.522 300.509 261.576 301.492 261.764 302.452C261.778 302.597 261.846 302.731 261.954 302.827C262.114 302.928 262.324 302.827 262.494 302.736C263.251 302.261 263.872 301.594 264.294 300.8L265.114 302.766C265.168 302.972 265.297 303.149 265.474 303.262C265.597 303.307 265.731 303.308 265.854 303.265C265.978 303.223 266.083 303.14 266.154 303.029C266.292 302.802 266.377 302.545 266.404 302.28L266.704 300.395C266.716 300.3 266.751 300.21 266.804 300.132C266.899 300.059 267.017 300.027 267.134 300.04C267.904 300.04 268.684 300.04 269.454 300.04C269.584 299.625 269.174 299.24 268.784 299.027C268.394 298.814 267.914 298.713 267.714 298.328C267.314 297.528 268.354 296.433 267.914 295.744C267.474 295.055 266.524 295.744 265.844 296.089Z" fill="#19B9DE"/>
<path opacity="0.6" d="M284.424 234.737C284.344 234.783 284.256 234.81 284.164 234.818C283.994 234.818 283.884 234.646 283.814 234.494C283.434 233.673 283.654 232.599 283.074 231.91C282.492 232.623 282.023 233.423 281.684 234.281L279.484 233.592C279.382 234.023 279.367 234.47 279.439 234.907C279.511 235.344 279.67 235.762 279.904 236.136C279.529 236.308 279.189 236.553 278.904 236.855C278.757 237.007 278.653 237.197 278.606 237.404C278.558 237.612 278.568 237.828 278.634 238.03C279.142 238.152 279.663 238.203 280.184 238.182C280.102 239.158 280.156 240.14 280.344 241.1C280.358 241.246 280.426 241.38 280.534 241.475C280.623 241.511 280.718 241.521 280.812 241.505C280.905 241.488 280.993 241.447 281.064 241.384C281.824 240.911 282.448 240.243 282.874 239.449L283.694 241.415C283.748 241.62 283.877 241.798 284.054 241.911C284.177 241.955 284.311 241.956 284.434 241.914C284.558 241.872 284.663 241.789 284.734 241.678C284.873 241.452 284.956 241.194 284.974 240.928L285.284 239.044C285.287 238.947 285.322 238.854 285.384 238.78C285.476 238.709 285.59 238.677 285.704 238.689C286.484 238.689 287.254 238.689 288.034 238.689C288.164 238.274 287.754 237.889 287.354 237.676C286.954 237.463 286.494 237.362 286.294 236.977C285.884 236.176 286.934 235.072 286.494 234.393C286.054 233.714 285.104 234.393 284.424 234.737Z" fill="#19B9DE"/>
<path opacity="0.6" d="M210.115 305.269C210.006 305.336 209.882 305.374 209.755 305.38C209.525 305.38 209.365 305.137 209.265 304.924C208.745 303.779 209.045 302.3 208.265 301.327C207.453 302.319 206.798 303.434 206.325 304.63L203.265 303.678C203.121 304.278 203.099 304.902 203.199 305.511C203.298 306.12 203.518 306.703 203.845 307.224C203.305 307.465 202.816 307.809 202.405 308.237C202.2 308.448 202.056 308.711 201.989 308.999C201.922 309.287 201.934 309.588 202.025 309.869C202.73 310.048 203.458 310.124 204.185 310.092C204.077 311.447 204.154 312.811 204.415 314.145C204.423 314.246 204.451 314.345 204.498 314.435C204.544 314.526 204.608 314.606 204.685 314.671C204.905 314.813 205.195 314.671 205.425 314.54C206.479 313.875 207.347 312.947 207.945 311.845L209.075 314.59C209.155 314.876 209.337 315.121 209.585 315.279C209.763 315.354 209.962 315.361 210.146 315.299C210.329 315.238 210.485 315.112 210.585 314.945C210.774 314.639 210.891 314.292 210.925 313.932L211.345 311.318C211.343 311.242 211.359 311.166 211.39 311.097C211.421 311.028 211.467 310.967 211.524 310.918C211.582 310.87 211.65 310.835 211.723 310.816C211.795 310.798 211.871 310.796 211.945 310.811C213.025 310.811 214.095 310.811 215.175 310.811C215.365 310.233 214.785 309.686 214.235 309.443C213.685 309.2 213.035 309.018 212.755 308.43C212.195 307.326 213.645 305.785 213.025 304.833C212.235 303.688 211.065 304.792 210.115 305.269Z" fill="#19B9DE"/>
<path opacity="0.6" d="M179.195 236.571C179.085 236.635 178.961 236.67 178.835 236.673C178.605 236.673 178.445 236.44 178.345 236.227C177.825 235.082 178.125 233.592 177.345 232.63C176.532 233.622 175.878 234.737 175.405 235.933L172.345 234.97C172.201 235.571 172.179 236.194 172.279 236.803C172.378 237.413 172.598 237.995 172.925 238.517C172.389 238.766 171.902 239.109 171.485 239.53C171.28 239.742 171.136 240.008 171.071 240.298C171.006 240.588 171.021 240.89 171.115 241.171C171.818 241.347 172.541 241.422 173.265 241.394C173.157 242.75 173.234 244.113 173.495 245.447C173.503 245.547 173.532 245.645 173.578 245.733C173.624 245.822 173.688 245.901 173.765 245.964C173.985 246.116 174.275 245.964 174.505 245.842C175.562 245.177 176.43 244.245 177.025 243.137L178.155 245.893C178.244 246.174 178.423 246.417 178.665 246.582C178.837 246.639 179.024 246.638 179.195 246.577C179.367 246.517 179.514 246.401 179.615 246.248C179.803 245.941 179.919 245.594 179.955 245.235L180.375 242.61C180.387 242.476 180.439 242.349 180.525 242.245C180.587 242.194 180.659 242.155 180.736 242.132C180.814 242.11 180.895 242.103 180.975 242.114C182.055 242.114 183.125 242.114 184.205 242.114C184.395 241.526 183.825 240.989 183.265 240.746C182.705 240.503 182.065 240.31 181.785 239.733C181.225 238.628 182.675 237.088 182.065 236.136C181.315 235.031 180.145 236.095 179.195 236.571Z" fill="#19B9DE"/>
<path opacity="0.2" d="M273.015 279.107C272.959 279.147 272.893 279.168 272.825 279.168C272.766 279.155 272.71 279.127 272.665 279.086C272.619 279.045 272.585 278.993 272.565 278.935C272.295 278.317 272.455 277.537 272.025 277.02C271.606 277.549 271.269 278.14 271.025 278.773L269.395 278.266C269.32 278.585 269.309 278.916 269.362 279.24C269.416 279.564 269.532 279.873 269.705 280.151C269.42 280.275 269.162 280.454 268.945 280.678C268.835 280.79 268.758 280.931 268.723 281.084C268.688 281.238 268.695 281.399 268.745 281.549C269.118 281.641 269.502 281.679 269.885 281.66C269.824 282.386 269.867 283.116 270.015 283.829C270.024 283.935 270.075 284.033 270.155 284.102C270.22 284.128 270.291 284.135 270.36 284.122C270.429 284.11 270.493 284.078 270.545 284.031C271.11 283.681 271.572 283.184 271.885 282.593L272.485 284.062C272.53 284.212 272.626 284.341 272.755 284.427C272.848 284.458 272.949 284.457 273.041 284.424C273.133 284.391 273.212 284.328 273.265 284.244C273.359 284.066 273.414 283.869 273.425 283.667L273.645 282.268C273.646 282.229 273.655 282.189 273.672 282.154C273.69 282.118 273.714 282.086 273.745 282.061C273.775 282.036 273.811 282.018 273.849 282.008C273.887 281.999 273.926 281.998 273.965 282.005C274.535 282.005 275.105 282.005 275.675 282.005C275.775 281.701 275.475 281.417 275.185 281.285C274.895 281.154 274.535 281.052 274.395 280.769C274.095 280.181 274.865 279.36 274.535 278.854C274.205 278.347 273.525 278.864 273.015 279.107Z" fill="#19B9DE"/>
<path opacity="0.2" d="M231.015 303.678C230.957 303.713 230.892 303.734 230.825 303.739C230.764 303.725 230.708 303.696 230.663 303.653C230.617 303.61 230.583 303.556 230.565 303.496C230.295 302.888 230.455 302.107 230.025 301.591C229.604 302.119 229.267 302.71 229.025 303.344L227.395 302.837C227.321 303.156 227.31 303.487 227.363 303.811C227.416 304.134 227.533 304.444 227.705 304.722C227.42 304.846 227.162 305.025 226.945 305.248C226.835 305.361 226.758 305.501 226.723 305.655C226.688 305.809 226.695 305.97 226.745 306.12C227.118 306.212 227.502 306.25 227.885 306.231C227.823 306.953 227.867 307.68 228.015 308.389C228.022 308.497 228.069 308.598 228.145 308.673C228.265 308.744 228.425 308.673 228.545 308.602C229.11 308.252 229.572 307.755 229.885 307.163L230.485 308.633C230.53 308.783 230.626 308.912 230.755 308.997C230.848 309.027 230.948 309.025 231.04 308.993C231.132 308.96 231.211 308.897 231.265 308.815C231.363 308.649 231.421 308.461 231.435 308.268L231.665 306.87C231.666 306.83 231.675 306.791 231.692 306.755C231.71 306.719 231.734 306.688 231.765 306.663C231.795 306.638 231.831 306.62 231.869 306.61C231.907 306.6 231.947 306.599 231.985 306.606C232.555 306.606 233.125 306.606 233.695 306.606C233.795 306.302 233.495 306.008 233.205 305.887C232.915 305.765 232.555 305.654 232.415 305.37C232.115 304.782 232.885 303.962 232.555 303.455C232.225 302.948 231.515 303.435 231.015 303.678Z" fill="#19B9DE"/>
<path opacity="0.5" d="M190.425 217.685C190.367 217.718 190.302 217.739 190.235 217.745C190.105 217.745 190.025 217.614 189.975 217.502C189.695 216.894 189.855 216.104 189.425 215.597C189.002 216.124 188.664 216.716 188.425 217.35L186.725 216.793C186.646 217.111 186.632 217.443 186.683 217.767C186.735 218.091 186.851 218.401 187.025 218.678C186.744 218.808 186.487 218.986 186.265 219.205C186.156 219.317 186.08 219.458 186.045 219.612C186.009 219.765 186.016 219.926 186.065 220.076C186.441 220.167 186.828 220.208 187.215 220.197C187.155 220.919 187.195 221.646 187.335 222.356C187.338 222.409 187.353 222.46 187.377 222.507C187.401 222.554 187.434 222.596 187.475 222.629C187.595 222.71 187.745 222.629 187.865 222.568C188.428 222.215 188.89 221.719 189.205 221.13L189.805 222.589C189.847 222.74 189.943 222.87 190.075 222.953C190.166 222.99 190.268 222.992 190.361 222.961C190.454 222.929 190.533 222.866 190.585 222.781C190.685 222.611 190.746 222.421 190.765 222.224L190.985 220.836C190.991 220.762 191.019 220.691 191.065 220.633C191.099 220.607 191.138 220.589 191.179 220.578C191.22 220.568 191.263 220.566 191.305 220.572C191.875 220.572 192.445 220.572 193.025 220.572C193.115 220.258 192.815 219.975 192.525 219.843C192.235 219.711 191.885 219.62 191.735 219.326C191.435 218.738 192.205 217.928 191.885 217.421C191.565 216.915 190.875 217.431 190.425 217.685Z" fill="#19B9DE"/>
<path opacity="0.5" d="M212.005 266.148C211.943 266.167 211.876 266.167 211.815 266.148C211.695 266.148 211.605 266.026 211.555 265.915C211.275 265.307 211.435 264.516 211.015 264C210.59 264.529 210.252 265.124 210.015 265.763L208.394 265.246C208.317 265.565 208.305 265.897 208.358 266.221C208.412 266.544 208.529 266.854 208.705 267.131C208.418 267.257 208.157 267.435 207.935 267.657C207.827 267.771 207.751 267.912 207.716 268.065C207.68 268.219 207.687 268.379 207.735 268.529C208.111 268.62 208.498 268.661 208.885 268.65C208.824 269.372 208.865 270.098 209.005 270.809C209.014 270.915 209.064 271.013 209.144 271.082C209.264 271.163 209.425 271.082 209.545 271.021C210.104 270.668 210.563 270.172 210.875 269.583L211.485 271.042C211.526 271.193 211.623 271.323 211.755 271.406C211.845 271.436 211.943 271.436 212.033 271.405C212.123 271.374 212.201 271.314 212.255 271.234C212.359 271.066 212.421 270.875 212.435 270.677L212.664 269.289C212.667 269.215 212.691 269.145 212.735 269.086C212.805 269.037 212.889 269.012 212.974 269.015C213.544 269.015 214.125 269.015 214.695 269.015C214.795 268.701 214.485 268.417 214.195 268.286C213.905 268.154 213.554 268.063 213.404 267.769C213.114 267.181 213.885 266.36 213.555 265.854C213.225 265.347 212.505 265.894 212.005 266.148Z" fill="#19B9DE"/>
<path opacity="0.5" d="M196.305 247.251C196.248 247.286 196.183 247.307 196.115 247.312C196.055 247.298 195.998 247.269 195.953 247.226C195.907 247.183 195.873 247.129 195.855 247.068C195.575 246.461 195.735 245.67 195.315 245.164C194.891 245.69 194.553 246.281 194.315 246.916L192.695 246.41C192.619 246.729 192.607 247.06 192.66 247.384C192.713 247.708 192.831 248.018 193.005 248.294C192.719 248.421 192.458 248.599 192.235 248.821C192.127 248.935 192.052 249.076 192.016 249.229C191.981 249.383 191.988 249.543 192.035 249.693C192.411 249.786 192.799 249.824 193.185 249.804C193.125 250.526 193.165 251.252 193.305 251.962C193.309 252.017 193.323 252.07 193.347 252.119C193.371 252.167 193.404 252.211 193.445 252.246C193.565 252.317 193.725 252.246 193.845 252.175C194.407 251.824 194.866 251.327 195.175 250.736L195.785 252.206C195.83 252.355 195.926 252.485 196.055 252.57C196.147 252.601 196.246 252.6 196.336 252.567C196.427 252.534 196.504 252.471 196.555 252.388C196.657 252.219 196.718 252.028 196.735 251.831L196.965 250.443C196.967 250.372 196.992 250.305 197.035 250.25C197.103 250.196 197.189 250.171 197.275 250.179C197.845 250.179 198.425 250.179 198.995 250.179C199.095 249.875 198.785 249.581 198.495 249.46C198.205 249.338 197.855 249.227 197.705 248.943C197.405 248.355 198.185 247.535 197.855 247.028C197.525 246.521 196.805 246.998 196.305 247.251Z" fill="#19B9DE"/>
<path opacity="0.5" d="M263.745 251.699C263.687 251.733 263.622 251.753 263.555 251.76C263.493 251.748 263.436 251.72 263.39 251.676C263.344 251.633 263.311 251.578 263.295 251.517C263.015 250.909 263.175 250.128 262.745 249.612C262.324 250.14 261.986 250.731 261.745 251.365L260.125 250.858C260.047 251.176 260.033 251.507 260.085 251.831C260.136 252.155 260.252 252.465 260.425 252.743C260.142 252.869 259.884 253.048 259.665 253.269C259.555 253.382 259.478 253.522 259.443 253.676C259.407 253.83 259.415 253.991 259.465 254.141C259.841 254.234 260.228 254.272 260.615 254.252C260.555 254.974 260.595 255.7 260.735 256.411C260.738 256.465 260.752 256.518 260.776 256.567C260.8 256.616 260.834 256.659 260.875 256.694C260.995 256.765 261.145 256.694 261.265 256.623C261.83 256.273 262.292 255.776 262.605 255.184L263.205 256.654C263.25 256.804 263.345 256.933 263.475 257.018C263.568 257.05 263.668 257.049 263.761 257.016C263.853 256.983 263.932 256.92 263.985 256.836C264.086 256.667 264.148 256.476 264.165 256.279L264.385 254.891C264.386 254.851 264.395 254.812 264.412 254.776C264.429 254.74 264.454 254.709 264.484 254.684C264.515 254.659 264.55 254.641 264.589 254.631C264.627 254.621 264.666 254.62 264.705 254.627C265.275 254.627 265.845 254.627 266.425 254.627C266.515 254.323 266.215 254.029 265.925 253.908C265.635 253.786 265.285 253.675 265.135 253.391C264.835 252.803 265.605 251.983 265.285 251.476C264.965 250.969 264.245 251.446 263.745 251.699Z" fill="#19B9DE"/>
<path opacity="0.2" d="M231.015 247.98C230.959 248.02 230.893 248.041 230.825 248.041C230.766 248.029 230.71 248 230.665 247.96C230.619 247.919 230.585 247.866 230.565 247.808C230.295 247.2 230.455 246.41 230.025 245.893C229.606 246.423 229.269 247.014 229.025 247.646L227.395 247.139C227.32 247.459 227.309 247.79 227.362 248.113C227.416 248.437 227.532 248.747 227.705 249.024C227.42 249.148 227.162 249.327 226.945 249.551C226.835 249.663 226.758 249.804 226.723 249.958C226.688 250.112 226.695 250.272 226.745 250.422C227.118 250.515 227.502 250.552 227.885 250.534C227.823 251.259 227.867 251.99 228.015 252.702C228.025 252.806 228.071 252.903 228.145 252.976C228.212 253.001 228.284 253.008 228.355 252.995C228.425 252.983 228.491 252.952 228.545 252.905C229.11 252.554 229.572 252.057 229.885 251.466L230.485 252.935C230.53 253.085 230.626 253.214 230.755 253.3C230.848 253.329 230.948 253.328 231.04 253.295C231.132 253.262 231.211 253.2 231.265 253.117C231.363 252.951 231.421 252.764 231.435 252.57L231.665 251.172C231.666 251.132 231.675 251.093 231.692 251.057C231.71 251.022 231.734 250.99 231.765 250.965C231.795 250.94 231.831 250.922 231.869 250.912C231.907 250.902 231.947 250.901 231.985 250.909C232.555 250.909 233.125 250.909 233.695 250.909C233.795 250.605 233.495 250.321 233.205 250.189C232.915 250.057 232.555 249.956 232.415 249.672C232.115 249.085 232.885 248.264 232.555 247.757C232.225 247.251 231.515 247.737 231.015 247.98Z" fill="#19B9DE"/>
<path opacity="0.3" d="M220.755 252.509C220.693 252.544 220.625 252.564 220.555 252.57C220.435 252.57 220.355 252.439 220.295 252.327C220.025 251.719 220.185 250.929 219.755 250.422C219.333 250.95 218.996 251.542 218.755 252.175L217.125 251.669C217.05 251.988 217.039 252.319 217.093 252.642C217.146 252.966 217.262 253.276 217.435 253.553C217.149 253.676 216.891 253.855 216.675 254.08C216.565 254.192 216.488 254.333 216.453 254.487C216.417 254.641 216.425 254.802 216.475 254.951C216.847 255.044 217.231 255.081 217.615 255.063C217.558 255.785 217.602 256.511 217.745 257.221C217.747 257.274 217.761 257.326 217.785 257.374C217.809 257.421 217.843 257.462 217.885 257.495C218.005 257.576 218.155 257.495 218.275 257.434C218.837 257.081 219.299 256.585 219.615 255.995L220.215 257.454C220.257 257.608 220.353 257.741 220.485 257.829C220.578 257.86 220.678 257.86 220.771 257.827C220.863 257.794 220.942 257.73 220.995 257.647C221.09 257.475 221.151 257.285 221.175 257.089L221.395 255.701C221.395 255.661 221.405 255.622 221.422 255.587C221.439 255.551 221.464 255.519 221.494 255.494C221.525 255.469 221.56 255.451 221.598 255.441C221.636 255.432 221.676 255.43 221.715 255.438C222.285 255.438 222.855 255.438 223.435 255.438C223.525 255.134 223.225 254.84 222.935 254.708C222.645 254.576 222.295 254.485 222.145 254.202C221.845 253.604 222.615 252.793 222.285 252.287C221.955 251.78 221.255 252.256 220.755 252.509Z" fill="#19B9DE"/>
<path opacity="0.2" d="M211.175 225.122C211.119 225.158 211.052 225.176 210.985 225.172C210.865 225.172 210.775 225.051 210.725 224.939C210.455 224.331 210.615 223.541 210.185 223.024C209.766 223.554 209.429 224.145 209.185 224.777L207.555 224.271C207.48 224.59 207.469 224.921 207.523 225.245C207.576 225.568 207.692 225.878 207.865 226.155C207.581 226.279 207.323 226.458 207.105 226.682C206.995 226.794 206.918 226.935 206.883 227.089C206.848 227.243 206.855 227.404 206.905 227.554C207.278 227.645 207.662 227.685 208.045 227.675C207.983 228.397 208.027 229.124 208.175 229.833C208.185 229.937 208.231 230.034 208.305 230.107C208.425 230.188 208.585 230.107 208.705 230.036C209.27 229.689 209.732 229.196 210.045 228.607L210.645 230.066C210.69 230.216 210.786 230.345 210.915 230.431C211.007 230.46 211.106 230.459 211.198 230.428C211.289 230.397 211.369 230.338 211.425 230.259C211.522 230.088 211.58 229.898 211.595 229.702L211.825 228.313C211.831 228.239 211.859 228.169 211.905 228.111C211.975 228.06 212.06 228.035 212.145 228.04C212.715 228.04 213.285 228.04 213.855 228.04C213.955 227.726 213.655 227.442 213.365 227.31C213.075 227.179 212.715 227.077 212.575 226.794C212.275 226.206 213.045 225.385 212.715 224.879C212.385 224.372 211.675 224.899 211.175 225.122Z" fill="#19B9DE"/>
<path opacity="0.3" d="M230.035 260.869C229.995 260.896 229.95 260.914 229.902 260.92C229.854 260.925 229.806 260.919 229.761 260.9C229.717 260.882 229.677 260.853 229.646 260.816C229.616 260.779 229.594 260.734 229.585 260.686C229.305 260.078 229.465 259.288 229.035 258.771C228.616 259.301 228.278 259.892 228.035 260.524L226.415 260.018C226.338 260.336 226.325 260.667 226.376 260.991C226.428 261.314 226.543 261.624 226.715 261.902C226.433 262.031 226.176 262.209 225.955 262.429C225.845 262.541 225.768 262.682 225.733 262.836C225.697 262.99 225.705 263.151 225.755 263.3C226.131 263.394 226.518 263.431 226.905 263.412C226.844 264.137 226.885 264.867 227.025 265.58C227.034 265.686 227.084 265.785 227.165 265.854C227.23 265.879 227.301 265.886 227.37 265.874C227.439 265.861 227.503 265.83 227.555 265.783C228.117 265.433 228.579 264.941 228.895 264.354L229.495 265.813C229.54 265.963 229.635 266.092 229.765 266.178C229.858 266.209 229.958 266.209 230.051 266.176C230.143 266.143 230.222 266.079 230.275 265.996C230.368 265.821 230.42 265.627 230.425 265.428L230.645 264.03C230.655 263.96 230.682 263.894 230.725 263.837C230.793 263.783 230.879 263.757 230.965 263.766C231.535 263.766 232.115 263.766 232.685 263.766C232.785 263.463 232.475 263.179 232.185 263.047C231.895 262.915 231.545 262.814 231.395 262.53C231.095 261.943 231.875 261.122 231.545 260.615C231.215 260.109 230.535 260.615 230.035 260.869Z" fill="#19B9DE"/>
</g>
<g opacity="0.8">
<path opacity="0.5" d="M345.045 51.9251C342.615 48.5815 337.595 52.2089 339.865 55.664C340.455 56.5759 341.105 57.4473 341.725 58.2883C349.195 68.5118 353.065 80.9239 356.395 93.1841C357.215 96.2238 358.005 99.4155 357.075 102.384C358.415 94.4202 357.545 86.1725 355.525 78.3605C353.505 70.5484 350.425 63.0707 347.135 55.6437C346.568 54.3338 345.868 53.0875 345.045 51.9251Z" fill="#19B9DE"/>
<path opacity="0.8" d="M296.565 73.3956C291.565 73.2335 290.885 80.9848 295.905 81.3901C297.225 81.4914 298.545 81.5218 299.815 81.5623C315.245 81.9879 329.815 87.6417 343.865 93.7211C347.305 95.2207 350.865 96.9027 352.935 100.105C346.615 92.6775 338.285 87.2364 329.435 83.2341C320.585 79.2319 311.145 76.6076 301.715 74.115C300.03 73.6834 298.303 73.4421 296.565 73.3956Z" fill="#19B9DE"/>
<path opacity="0.2" d="M297.956 92.4545C294.776 92.566 295.496 97.1559 298.696 97.1762C299.536 97.1762 300.376 97.1762 301.176 97.1154C310.906 96.7101 320.876 99.4357 330.546 102.425C332.926 103.164 335.426 103.995 337.156 105.799C332.021 101.782 326.201 98.7561 319.986 96.8722C313.867 95.0275 307.624 93.6358 301.306 92.7078C300.201 92.507 299.078 92.4221 297.956 92.4545Z" fill="#19B9DE"/>
<path opacity="0.5" d="M363.095 177.627C363.995 180.728 368.195 178.884 367.425 175.732C367.225 174.912 366.985 174.101 366.755 173.321C363.955 163.867 364.085 153.401 364.545 143.167C364.665 140.654 364.835 137.989 366.125 135.851C363.562 141.886 362.115 148.346 361.855 154.91C361.605 161.379 361.823 167.857 362.505 174.294C362.592 175.422 362.79 176.539 363.095 177.627Z" fill="#19B9DE"/>
<path opacity="0.2" d="M303.756 47.5986C301.846 47.2643 301.696 50.0912 303.606 50.5168C304.106 50.6282 304.606 50.7194 305.096 50.8005C310.956 51.8137 316.566 54.7217 321.966 57.7513C323.358 58.3974 324.571 59.3824 325.496 60.6187C322.93 57.5576 319.832 54.999 316.356 53.0701C312.932 51.1844 309.38 49.5489 305.726 48.1762C305.088 47.9226 304.429 47.7293 303.756 47.5986Z" fill="#19B9DE"/>
<path opacity="0.8" d="M274.175 122.548C269.315 125.081 273.425 132.042 278.415 129.731C279.725 129.123 280.995 128.445 282.215 127.806C297.075 119.994 314.325 117.127 331.305 114.908C335.465 114.371 339.905 113.895 343.766 115.566C333.255 112.527 322.075 112.314 311.265 113.54C300.455 114.766 289.945 117.593 279.535 120.46C277.683 120.97 275.887 121.669 274.175 122.548Z" fill="#19B9DE"/>
<path opacity="0.5" d="M288.065 149.631C284.565 152.935 290.065 156.836 293.685 153.684C294.685 152.854 295.555 151.972 296.435 151.141C307.075 141.009 321.145 133.815 335.155 127.168C338.595 125.537 352.745 123.875 356.525 123.966C346.655 124.858 326.525 128.019 317.525 132.072C308.738 136.303 300.245 141.134 292.105 146.531C290.665 147.434 289.312 148.472 288.065 149.631Z" fill="#19B9DE"/>
<path opacity="0.8" d="M312.985 192.876C311.985 197.598 318.635 197.669 319.875 192.947C320.195 191.711 320.455 190.465 320.705 189.279C323.785 174.821 331.315 160.777 339.115 147.25C341.035 143.927 351.745 134.403 354.905 132.305C347.285 138.729 332.455 152.904 327.395 161.466C322.54 170.01 318.261 178.875 314.585 188.003C313.9 189.572 313.364 191.204 312.985 192.876Z" fill="#19B9DE"/>
<path opacity="0.8" d="M363.146 26.8678C360.766 21.9537 353.966 25.9965 356.146 31.0424C356.716 32.3596 357.346 33.6464 357.956 34.8825C365.276 49.8987 367.796 67.3061 369.686 84.3385C370.146 88.5333 370.536 92.9916 368.856 96.8419C371.926 86.3346 372.336 75.108 371.276 64.236C370.216 53.3639 367.686 42.806 365.046 32.2785C364.596 30.4142 363.959 28.6012 363.146 26.8678Z" fill="#19B9DE"/>
<path opacity="0.8" d="M325.246 35.2372C325.371 35.3112 325.511 35.353 325.656 35.3588C325.916 35.3588 326.106 35.0852 326.216 34.842C326.806 33.5349 326.466 31.8023 327.386 30.7891C328.316 31.9202 329.065 33.1921 329.606 34.5583L333.096 33.464C333.259 34.15 333.284 34.8621 333.171 35.5582C333.057 36.2543 332.808 36.9204 332.436 37.5169C333.046 37.7911 333.602 38.1756 334.076 38.6518C334.312 38.8932 334.477 39.1963 334.553 39.5273C334.629 39.8583 334.613 40.2041 334.506 40.5263C333.701 40.7234 332.873 40.8052 332.046 40.7694C332.176 42.3248 332.085 43.8911 331.776 45.4202C331.768 45.5336 331.737 45.6442 331.685 45.7452C331.634 45.8462 331.562 45.9356 331.476 46.0079C331.226 46.1801 330.886 46.0079 330.626 45.866C329.426 45.1215 328.437 44.0741 327.756 42.8263L326.426 45.8458C326.331 46.168 326.125 46.445 325.846 46.6259C325.649 46.6965 325.434 46.6979 325.237 46.6299C325.039 46.5619 324.87 46.4284 324.756 46.251C324.544 45.8859 324.414 45.4775 324.376 45.0554L323.886 42.0157C323.88 41.8599 323.824 41.7103 323.726 41.5902C323.58 41.4781 323.398 41.424 323.216 41.4382C321.976 41.4382 320.746 41.4382 319.516 41.4382C319.306 40.7694 319.956 40.1514 320.586 39.8778C321.216 39.6042 321.966 39.3813 322.286 38.7632C322.926 37.4967 321.286 35.7235 321.966 34.6495C322.826 33.4336 324.166 34.7002 325.246 35.2372Z" fill="#19B9DE"/>
<path opacity="0.5" d="M392.636 51.9251C395.066 48.5815 400.076 52.2089 397.816 55.664C397.216 56.5759 396.576 57.4473 395.956 58.2883C388.486 68.5118 384.616 80.9239 381.276 93.1841C380.456 96.2238 379.666 99.4155 380.606 102.384C379.266 94.4202 380.136 86.1725 382.156 78.3605C384.176 70.5484 387.296 63.0707 390.536 55.6741C391.108 54.3554 391.812 53.0993 392.636 51.9251Z" fill="#19B9DE"/>
<path opacity="0.8" d="M441.105 73.3956C446.105 73.2335 446.785 80.9848 441.765 81.3901C440.455 81.4914 439.125 81.5218 437.865 81.5623C422.425 81.9879 407.865 87.6417 393.815 93.7211C390.375 95.2207 386.755 96.9027 384.745 100.105C391.065 92.6775 399.385 87.2364 408.245 83.2341C417.105 79.2319 426.525 76.6076 435.965 74.115C437.647 73.6841 439.371 73.4429 441.105 73.3956Z" fill="#19B9DE"/>
<path opacity="0.5" d="M439.715 92.4545C442.905 92.566 442.185 97.1559 438.985 97.1762C438.145 97.1762 437.305 97.1762 436.505 97.1154C426.765 96.7101 416.805 99.4357 407.135 102.425C404.755 103.164 402.245 103.995 400.525 105.799C405.66 101.782 411.48 98.7561 417.695 96.8722C423.83 95.0183 430.09 93.6197 436.425 92.6876C437.511 92.4973 438.614 92.4192 439.715 92.4545Z" fill="#19B9DE"/>
<path opacity="0.2" d="M433.926 47.5986C435.836 47.2643 435.986 50.0912 434.076 50.5168C433.576 50.6282 433.076 50.7194 432.586 50.8005C426.726 51.8137 421.106 54.7217 415.706 57.7513C414.316 58.3977 413.107 59.3829 412.186 60.6187C414.748 57.5579 417.842 54.9993 421.316 53.0701C424.744 51.1862 428.299 49.5508 431.956 48.1762C432.593 47.9226 433.253 47.7293 433.926 47.5986Z" fill="#19B9DE"/>
<path opacity="0.2" d="M384.035 183.494C383.605 185.419 380.975 184.507 381.325 182.481C381.415 181.974 381.535 181.467 381.645 180.981C382.975 175.114 382.495 168.741 381.815 162.53C381.766 160.982 381.336 159.47 380.565 158.132C382.364 161.706 383.5 165.583 383.915 169.572C384.316 173.503 384.433 177.458 384.265 181.406C384.26 182.108 384.183 182.808 384.035 183.494Z" fill="#19B9DE"/>
<path opacity="0.5" d="M432.696 170.717C434.196 173.29 430.516 173.118 428.896 170.545C428.476 169.876 428.086 169.197 427.716 168.518C423.156 160.666 416.226 152.894 409.236 145.386C407.581 143.44 405.65 141.753 403.506 140.381C408.956 144.15 413.986 148.509 418.506 153.38C422.986 158.132 426.946 163.087 430.826 168.032C431.509 168.882 432.134 169.779 432.696 170.717Z" fill="#19B9DE"/>
<path opacity="0.2" d="M299.565 170.717C298.065 173.29 301.745 173.118 303.355 170.545C303.785 169.876 304.175 169.197 304.545 168.518C309.105 160.666 316.035 152.894 323.025 145.386C324.678 143.437 326.609 141.75 328.755 140.381C323.303 144.147 318.273 148.506 313.755 153.38C309.275 158.132 305.305 163.087 301.435 168.032C300.751 168.882 300.127 169.779 299.565 170.717Z" fill="#19B9DE"/>
<path opacity="0.2" d="M348.255 183.494C348.685 185.419 351.315 184.507 350.965 182.481C350.875 181.974 350.755 181.467 350.645 180.981C349.315 175.114 349.795 168.741 350.475 162.53C350.525 160.982 350.954 159.47 351.725 158.132C349.94 161.718 348.822 165.606 348.425 169.602C348.024 173.533 347.907 177.489 348.075 181.437C348.066 182.127 348.126 182.816 348.255 183.494Z" fill="#19B9DE"/>
<path opacity="0.2" d="M418.586 66.9007C420.496 66.5562 420.646 69.3832 418.736 69.8189C418.236 69.9303 417.736 70.0114 417.246 70.0924C411.386 71.1057 405.776 74.0238 400.366 77.0534C398.977 77.6951 397.767 78.6771 396.846 79.9107C399.409 76.8497 402.507 74.2941 405.986 72.3722C409.405 70.4782 412.958 68.8424 416.616 67.4783C417.25 67.2155 417.911 67.0219 418.586 66.9007Z" fill="#19B9DE"/>
<path opacity="0.2" d="M400.696 29.0058C402.346 27.9925 403.526 30.5357 401.906 31.6604C401.486 31.9543 401.046 32.2177 400.636 32.4812C395.566 35.6424 391.436 40.4654 387.546 45.329C386.488 46.4448 385.727 47.8152 385.336 49.311C386.584 45.5014 388.512 41.9569 391.026 38.8544C393.505 35.8066 396.198 32.9451 399.086 30.2926C399.58 29.8113 400.119 29.3803 400.696 29.0058Z" fill="#19B9DE"/>
<path opacity="0.8" d="M463.505 122.548C468.365 125.081 464.255 132.042 459.265 129.731C457.955 129.123 456.675 128.445 455.465 127.806C440.605 119.994 423.345 117.127 406.375 114.908C402.215 114.371 397.775 113.895 393.915 115.566C404.415 112.527 415.605 112.314 426.415 113.54C437.225 114.766 447.735 117.593 458.145 120.46C459.997 120.971 461.792 121.671 463.505 122.548Z" fill="#19B9DE"/>
<path opacity="0.5" d="M449.615 149.631C453.105 152.935 447.615 156.836 443.985 153.684C443.035 152.854 442.115 151.972 441.245 151.141C430.595 141.009 416.525 133.815 402.525 127.168C399.085 125.537 384.925 123.875 381.155 123.966C391.025 124.858 411.155 128.019 420.155 132.072C428.945 136.303 437.441 141.134 445.585 146.531C447.022 147.434 448.371 148.472 449.615 149.631Z" fill="#19B9DE"/>
<path opacity="0.8" d="M408.425 198.267C408.855 203.08 402.215 202.32 401.575 197.466C401.405 196.2 401.305 194.933 401.205 193.717C399.935 178.985 394.205 164.1 388.135 149.682C386.645 146.146 377.195 135.345 374.315 132.862C381.085 140.198 394.045 156.167 398.005 165.286C401.765 174.375 404.912 183.711 407.425 193.231C407.911 194.875 408.246 196.56 408.425 198.267Z" fill="#19B9DE"/>
<path opacity="0.8" d="M412.426 35.2372C412.301 35.3112 412.16 35.353 412.016 35.3588C411.746 35.3588 411.566 35.0852 411.456 34.842C410.856 33.5349 411.206 31.8023 410.286 30.7891C409.356 31.9202 408.607 33.1921 408.066 34.5583L404.576 33.464C404.41 34.1498 404.384 34.8623 404.497 35.5588C404.611 36.2552 404.862 36.9213 405.236 37.5169C404.622 37.791 404.063 38.1755 403.586 38.6518C403.352 38.8949 403.19 39.1985 403.115 39.5292C403.041 39.8599 403.059 40.2049 403.166 40.5263C403.97 40.7238 404.798 40.8056 405.626 40.7694C405.497 42.3244 405.585 43.8899 405.886 45.4202C405.907 45.6481 406.014 45.8589 406.186 46.0079C406.446 46.1801 406.786 46.0079 407.046 45.866C408.246 45.1215 409.235 44.0741 409.916 42.8263L411.216 45.9673C411.307 46.2913 411.513 46.5694 411.796 46.7475C411.991 46.8193 412.204 46.8212 412.401 46.753C412.597 46.6848 412.765 46.5506 412.876 46.3726C413.095 46.0101 413.229 45.6008 413.266 45.177L413.746 42.1373C413.759 41.9815 413.819 41.8334 413.916 41.7117C414.062 41.5997 414.243 41.5456 414.426 41.5598C415.656 41.5598 416.896 41.5598 418.126 41.5598C418.336 40.891 417.676 40.273 417.046 39.9994C416.416 39.7258 415.676 39.5029 415.356 38.8848C414.716 37.6183 416.356 35.8451 415.666 34.7711C414.856 33.4336 413.516 34.7002 412.426 35.2372Z" fill="#19B9DE"/>
<path opacity="0.2" d="M422.965 180.92C422.841 180.994 422.7 181.036 422.555 181.042C422.285 181.042 422.105 180.778 421.995 180.535C421.405 179.218 421.745 177.495 420.825 176.421C419.898 177.554 419.149 178.826 418.605 180.191L415.115 179.096C414.953 179.782 414.927 180.494 415.04 181.191C415.154 181.887 415.404 182.553 415.775 183.149C415.165 183.423 414.61 183.808 414.135 184.284C413.899 184.525 413.734 184.829 413.658 185.16C413.582 185.491 413.599 185.836 413.705 186.159C414.51 186.359 415.338 186.444 416.165 186.412C416.035 187.964 416.126 189.527 416.435 191.052C416.443 191.167 416.474 191.28 416.526 191.382C416.577 191.485 416.649 191.576 416.735 191.65C416.985 191.812 417.325 191.65 417.585 191.498C418.786 190.754 419.775 189.706 420.455 188.459L421.755 191.6C421.853 191.923 422.057 192.203 422.335 192.39C422.534 192.448 422.746 192.442 422.941 192.373C423.136 192.304 423.305 192.175 423.425 192.005C423.638 191.64 423.767 191.231 423.805 190.809L424.295 187.82C424.29 187.734 424.304 187.648 424.338 187.569C424.371 187.489 424.423 187.419 424.488 187.364C424.553 187.308 424.63 187.27 424.713 187.25C424.796 187.231 424.883 187.232 424.965 187.253C426.195 187.253 427.435 187.202 428.665 187.253C428.875 186.584 428.225 185.976 427.595 185.692C426.965 185.409 426.215 185.206 425.895 184.578C425.255 183.322 426.895 181.538 426.215 180.474C425.425 179.117 424.045 180.383 422.965 180.92Z" fill="#19B9DE"/>
<path opacity="0.8" d="M452.555 83.2645C452.43 83.3442 452.284 83.3864 452.135 83.3861C451.875 83.3861 451.695 83.1227 451.585 82.8795C450.985 81.5724 451.325 79.8398 450.415 78.7657C449.486 79.9009 448.737 81.176 448.196 82.5451L444.706 81.4407C444.54 82.1264 444.513 82.839 444.626 83.5356C444.74 84.2321 444.991 84.8982 445.365 85.4936C444.751 85.765 444.191 86.1499 443.715 86.6285C443.484 86.8729 443.322 87.176 443.247 87.5059C443.171 87.8357 443.184 88.1802 443.285 88.5029C444.093 88.7034 444.925 88.7886 445.756 88.7562C445.627 90.3078 445.714 91.87 446.016 93.3969C446.036 93.6278 446.143 93.8419 446.315 93.9947C446.575 94.1568 446.905 93.9947 447.165 93.8528C448.368 93.1079 449.36 92.0608 450.045 90.8131L451.335 93.9542C451.429 94.2793 451.635 94.5597 451.915 94.7445C452.114 94.8123 452.328 94.8112 452.526 94.7415C452.723 94.6717 452.892 94.5373 453.005 94.3594C453.227 93.9977 453.36 93.588 453.395 93.1638L453.875 90.1241C453.889 89.9731 453.944 89.829 454.035 89.7087C454.183 89.5924 454.369 89.538 454.555 89.5567C455.785 89.5567 457.015 89.5567 458.245 89.5567C458.465 88.8981 457.805 88.28 457.175 87.9963C456.545 87.7126 455.795 87.51 455.485 86.8919C454.845 85.6254 456.485 83.8522 455.795 82.7782C454.975 81.461 453.625 82.7275 452.555 83.2645Z" fill="#19B9DE"/>
<path opacity="0.8" d="M334.266 195.531C334.093 195.637 333.897 195.696 333.696 195.703C333.326 195.703 333.066 195.328 332.916 194.984C332.086 193.17 332.566 190.799 331.286 189.269C329.992 190.845 328.95 192.616 328.196 194.518L323.326 192.998C323.1 193.953 323.065 194.945 323.223 195.914C323.381 196.883 323.729 197.811 324.246 198.642C323.391 199.017 322.614 199.554 321.956 200.222C321.631 200.56 321.403 200.98 321.297 201.439C321.191 201.898 321.212 202.378 321.356 202.826C322.481 203.105 323.638 203.225 324.796 203.181C324.614 205.346 324.738 207.526 325.166 209.655C325.191 209.973 325.338 210.268 325.576 210.476C325.773 210.557 325.989 210.581 326.199 210.546C326.409 210.51 326.605 210.416 326.766 210.274C328.449 209.223 329.829 207.741 330.766 205.977L332.576 210.355C332.704 210.808 332.993 211.197 333.386 211.449C333.661 211.546 333.96 211.547 334.236 211.452C334.511 211.356 334.747 211.17 334.906 210.922C335.203 210.415 335.385 209.848 335.436 209.26L336.116 205.096C336.124 204.878 336.201 204.668 336.336 204.498C336.543 204.343 336.799 204.271 337.056 204.295C338.776 204.295 340.496 204.225 342.206 204.295C342.506 203.363 341.586 202.512 340.716 202.117C339.846 201.722 338.796 201.438 338.356 200.577C337.456 198.814 339.776 196.362 338.786 194.842C337.636 193.018 335.766 194.791 334.266 195.531Z" fill="#19B9DE"/>
<path opacity="0.8" d="M285.055 86.1826C284.879 86.2884 284.679 86.3477 284.475 86.3549C284.115 86.3549 283.855 85.98 283.695 85.6355C282.875 83.8117 283.345 81.4508 282.075 79.9107C280.779 81.49 279.733 83.2641 278.975 85.1694L274.115 83.6394C273.884 84.596 273.847 85.59 274.005 86.5615C274.163 87.5331 274.513 88.4623 275.035 89.2933C274.179 89.6665 273.401 90.2032 272.745 90.8739C272.417 91.2093 272.188 91.6303 272.082 92.09C271.976 92.5497 271.998 93.0301 272.145 93.4779C273.27 93.7547 274.428 93.8706 275.585 93.8224C275.404 95.987 275.525 98.1667 275.945 100.297C275.956 100.457 275.999 100.613 276.071 100.756C276.143 100.899 276.243 101.025 276.365 101.128C276.725 101.361 277.185 101.128 277.555 100.925C279.236 99.8719 280.615 98.3907 281.555 96.6291L283.365 101.006C283.499 101.454 283.782 101.84 284.165 102.101C284.44 102.198 284.739 102.199 285.015 102.103C285.29 102.008 285.527 101.821 285.685 101.574C285.986 101.068 286.17 100.5 286.225 99.912L286.895 95.7374C286.912 95.5227 286.992 95.3182 287.125 95.1498C287.33 94.9905 287.588 94.9179 287.845 94.9471C289.555 94.9471 291.275 94.8762 292.995 94.8863C293.285 93.9643 292.375 93.103 291.495 92.718C290.615 92.333 289.575 92.029 289.135 91.1678C288.245 89.4047 290.555 86.9628 289.575 85.443C288.425 83.6698 286.555 85.4227 285.055 86.1826Z" fill="#19B9DE"/>
<path opacity="0.2" d="M434.425 153.897C434.336 153.956 434.232 153.988 434.126 153.988C433.926 153.988 433.796 153.786 433.706 153.613C433.266 152.6 433.525 151.384 432.845 150.574C432.156 151.408 431.602 152.349 431.206 153.36L428.616 152.55C428.486 153.063 428.463 153.598 428.547 154.121C428.632 154.644 428.822 155.144 429.105 155.589C428.652 155.793 428.239 156.078 427.886 156.43C427.715 156.612 427.596 156.837 427.542 157.081C427.487 157.325 427.499 157.58 427.576 157.818C428.172 157.96 428.784 158.021 429.395 158.001C429.297 159.149 429.364 160.307 429.595 161.436C429.601 161.521 429.623 161.605 429.661 161.681C429.699 161.758 429.751 161.826 429.816 161.881C430.006 162.003 430.256 161.881 430.446 161.77C431.337 161.211 432.068 160.425 432.566 159.49L433.566 161.811C433.637 162.051 433.789 162.259 433.995 162.398C434.142 162.449 434.302 162.448 434.448 162.397C434.595 162.345 434.721 162.246 434.805 162.114C434.965 161.846 435.061 161.545 435.085 161.233L435.446 159.014C435.442 158.95 435.453 158.886 435.479 158.828C435.504 158.77 435.542 158.718 435.591 158.677C435.64 158.637 435.697 158.609 435.759 158.595C435.821 158.581 435.884 158.582 435.946 158.599C436.866 158.599 437.775 158.599 438.685 158.599C438.845 158.102 438.355 157.646 437.895 157.443C437.435 157.241 436.896 157.079 436.636 156.623C436.166 155.68 437.395 154.384 436.865 153.583C436.335 152.783 435.185 153.502 434.425 153.897Z" fill="#19B9DE"/>
<path opacity="0.2" d="M367.535 193.008C367.442 193.067 367.335 193.099 367.225 193.099C367.035 193.099 366.895 192.897 366.815 192.714C366.375 191.752 366.625 190.495 365.955 189.674C365.265 190.514 364.708 191.457 364.305 192.471L361.725 191.66C361.597 192.174 361.574 192.709 361.658 193.232C361.743 193.755 361.932 194.255 362.215 194.7C361.76 194.9 361.346 195.185 360.995 195.541C360.821 195.72 360.699 195.945 360.643 196.19C360.586 196.434 360.598 196.69 360.675 196.929C361.275 197.071 361.89 197.133 362.505 197.112C362.408 198.26 362.472 199.416 362.695 200.546C362.701 200.63 362.724 200.712 362.762 200.787C362.8 200.862 362.852 200.928 362.915 200.982C363.105 201.114 363.355 200.982 363.545 200.881C364.44 200.323 365.175 199.537 365.675 198.601L366.675 200.921C366.747 201.162 366.899 201.37 367.105 201.509C367.252 201.559 367.412 201.559 367.558 201.507C367.705 201.456 367.83 201.357 367.915 201.225C368.075 200.957 368.17 200.656 368.195 200.344L368.555 198.125C368.563 198.01 368.605 197.901 368.675 197.811C368.787 197.733 368.92 197.694 369.055 197.699C369.965 197.699 370.875 197.699 371.795 197.699C371.945 197.203 371.465 196.747 370.995 196.544C370.525 196.342 369.995 196.179 369.745 195.723C369.265 194.781 370.495 193.484 369.975 192.684C369.455 191.883 368.335 192.603 367.535 193.008Z" fill="#19B9DE"/>
<path opacity="0.5" d="M302.836 56.1199C302.746 56.1776 302.642 56.2092 302.536 56.2111C302.439 56.1935 302.348 56.1492 302.274 56.0831C302.2 56.017 302.145 55.9316 302.116 55.8362C301.676 54.823 301.926 53.6071 301.256 52.7965C300.565 53.6319 300.008 54.5722 299.606 55.5829L297.026 54.7723C296.899 55.2861 296.877 55.8207 296.961 56.3434C297.046 56.8661 297.234 57.3658 297.516 57.812C297.061 58.0083 296.647 58.2903 296.296 58.6429C296.123 58.8227 296.001 59.0471 295.945 59.2918C295.888 59.5364 295.899 59.7921 295.976 60.031C296.574 60.1823 297.19 60.2438 297.806 60.2134C297.709 61.3651 297.773 62.5248 297.996 63.6584C298.004 63.7429 298.028 63.8249 298.067 63.8997C298.107 63.9745 298.161 64.0406 298.226 64.0941C298.416 64.2157 298.656 64.0941 298.856 63.9928C299.748 63.4307 300.479 62.6411 300.976 61.7028L301.976 64.0333C302.044 64.2729 302.197 64.4785 302.406 64.6108C302.553 64.6612 302.712 64.6606 302.859 64.6093C303.005 64.5579 303.131 64.4587 303.216 64.3271C303.375 64.0591 303.471 63.7574 303.496 63.4456L303.856 61.2368C303.863 61.1222 303.905 61.0126 303.976 60.9227C304.083 60.8362 304.219 60.7962 304.356 60.8112C305.266 60.8112 306.186 60.8112 307.096 60.8112C307.246 60.3248 306.766 59.8689 306.296 59.6561C305.826 59.4433 305.296 59.2913 305.046 58.8354C304.566 57.9032 305.806 56.5961 305.276 55.7957C304.746 54.9952 303.636 55.7248 302.836 56.1199Z" fill="#19B9DE"/>
<path opacity="0.5" d="M337.266 133.257C337.177 133.318 337.072 133.35 336.966 133.349C336.766 133.349 336.636 133.156 336.556 132.974C336.116 131.961 336.366 130.745 335.686 129.934C335.001 130.772 334.448 131.712 334.046 132.72L331.456 131.91C331.332 132.424 331.311 132.958 331.395 133.48C331.48 134.002 331.667 134.502 331.946 134.95C331.495 135.152 331.084 135.437 330.736 135.791C330.561 135.97 330.44 136.194 330.383 136.439C330.327 136.684 330.338 136.94 330.416 137.179C331.011 137.325 331.624 137.386 332.236 137.361C332.142 138.513 332.209 139.673 332.436 140.806C332.442 140.89 332.464 140.972 332.502 141.047C332.54 141.121 332.592 141.188 332.656 141.242C332.846 141.363 333.096 141.242 333.286 141.13C334.18 140.572 334.915 139.786 335.416 138.851L336.416 141.171C336.482 141.414 336.635 141.624 336.846 141.759C336.991 141.81 337.149 141.81 337.295 141.758C337.44 141.707 337.564 141.607 337.646 141.475C337.808 141.208 337.908 140.906 337.936 140.593L338.296 138.384C338.295 138.26 338.342 138.141 338.426 138.05C338.478 138.006 338.539 137.973 338.604 137.954C338.669 137.935 338.738 137.929 338.806 137.939C339.712 137.939 340.622 137.939 341.536 137.939C341.696 137.452 341.216 136.986 340.746 136.784C340.276 136.581 339.746 136.419 339.496 135.963C339.016 135.031 340.246 133.724 339.726 132.923C339.206 132.123 338.066 132.862 337.266 133.257Z" fill="#19B9DE"/>
<path opacity="0.5" d="M312.275 103.195C312.183 103.246 312.08 103.277 311.975 103.286C311.88 103.264 311.791 103.217 311.719 103.149C311.647 103.082 311.594 102.996 311.565 102.901C311.125 101.938 311.375 100.682 310.695 99.8613C310.007 100.701 309.454 101.644 309.055 102.658L306.465 101.847C306.342 102.361 306.322 102.895 306.407 103.417C306.491 103.939 306.677 104.439 306.955 104.887C306.5 105.083 306.086 105.365 305.735 105.718C305.565 105.899 305.446 106.124 305.391 106.369C305.337 106.613 305.348 106.868 305.425 107.106C306.02 107.258 306.633 107.319 307.245 107.288C307.151 108.441 307.219 109.6 307.445 110.733C307.451 110.817 307.474 110.899 307.512 110.974C307.549 111.049 307.602 111.115 307.665 111.169C307.855 111.291 308.105 111.169 308.295 111.068C309.189 110.504 309.923 109.715 310.425 108.778L311.425 111.108C311.491 111.346 311.64 111.552 311.845 111.686C311.992 111.736 312.151 111.736 312.298 111.684C312.445 111.633 312.57 111.534 312.655 111.402C312.818 111.135 312.917 110.833 312.945 110.521L313.295 108.312C313.303 108.197 313.345 108.088 313.415 107.998C313.525 107.91 313.666 107.87 313.805 107.886C314.712 107.886 315.622 107.886 316.535 107.886C316.695 107.4 316.205 106.944 315.745 106.731C315.285 106.518 314.745 106.366 314.485 105.91C314.015 104.978 315.245 103.671 314.725 102.871C314.205 102.07 313.075 102.79 312.275 103.195Z" fill="#19B9DE"/>
<path opacity="0.5" d="M419.615 110.267C419.526 110.328 419.422 110.359 419.315 110.358C419.115 110.358 418.985 110.166 418.905 109.984C418.465 108.97 418.715 107.754 418.035 106.944C417.347 107.78 416.794 108.72 416.395 109.73L413.805 108.92C413.681 109.434 413.661 109.968 413.745 110.49C413.829 111.012 414.016 111.512 414.295 111.959C413.842 112.163 413.428 112.448 413.075 112.8C412.904 112.982 412.786 113.207 412.731 113.451C412.676 113.695 412.688 113.95 412.765 114.188C413.36 114.335 413.973 114.397 414.585 114.371C414.491 115.523 414.559 116.683 414.785 117.816C414.791 117.9 414.814 117.981 414.851 118.056C414.889 118.131 414.941 118.198 415.005 118.252C415.195 118.373 415.445 118.252 415.635 118.14C416.53 117.582 417.264 116.796 417.765 115.86L418.765 118.181C418.831 118.424 418.984 118.634 419.195 118.768C419.34 118.818 419.498 118.817 419.643 118.766C419.788 118.714 419.912 118.615 419.995 118.485C420.158 118.217 420.257 117.916 420.285 117.603L420.645 115.394C420.64 115.33 420.65 115.265 420.674 115.205C420.699 115.145 420.737 115.092 420.786 115.05C420.835 115.009 420.893 114.98 420.956 114.965C421.018 114.951 421.083 114.952 421.145 114.969C422.058 114.969 422.968 114.969 423.875 114.969C424.035 114.482 423.545 114.016 423.085 113.814C422.625 113.611 422.085 113.449 421.825 112.993C421.355 112.061 422.585 110.754 422.065 109.953C421.545 109.153 420.425 109.872 419.615 110.267Z" fill="#19B9DE"/>
<path opacity="0.2" d="M367.536 104.35C367.443 104.409 367.336 104.44 367.226 104.441C367.036 104.441 366.896 104.249 366.816 104.066C366.376 103.053 366.626 101.837 365.956 101.026C365.265 101.862 364.708 102.802 364.306 103.813L361.726 103.002C361.599 103.516 361.577 104.051 361.661 104.573C361.746 105.096 361.934 105.596 362.216 106.042C361.761 106.238 361.347 106.52 360.996 106.873C360.823 107.053 360.701 107.277 360.645 107.522C360.589 107.766 360.599 108.022 360.676 108.261C361.274 108.413 361.89 108.474 362.506 108.443C362.409 109.595 362.473 110.755 362.696 111.888C362.713 112.056 362.792 112.212 362.916 112.324C363.106 112.446 363.356 112.324 363.546 112.223C364.442 111.662 365.177 110.872 365.676 109.933L366.676 112.263C366.744 112.503 366.897 112.708 367.106 112.841C367.253 112.891 367.412 112.891 367.559 112.839C367.705 112.788 367.831 112.689 367.916 112.557C368.075 112.289 368.171 111.987 368.196 111.676L368.556 109.467C368.564 109.352 368.605 109.243 368.676 109.153C368.783 109.066 368.92 109.026 369.056 109.041C369.966 109.041 370.876 109.041 371.796 109.041C371.946 108.555 371.466 108.099 370.996 107.886C370.526 107.673 369.996 107.521 369.746 107.065C369.266 106.133 370.496 104.826 369.976 104.026C369.456 103.225 368.336 103.955 367.536 104.35Z" fill="#19B9DE"/>
<path opacity="0.3" d="M351.185 111.564C351.093 111.616 350.991 111.647 350.885 111.655C350.79 111.633 350.701 111.586 350.63 111.518C350.558 111.451 350.504 111.365 350.475 111.27C350.035 110.257 350.285 109.051 349.605 108.231C348.915 109.069 348.362 110.013 347.965 111.027L345.375 110.206C345.253 110.721 345.234 111.254 345.318 111.776C345.402 112.298 345.588 112.798 345.865 113.246C345.41 113.442 344.996 113.724 344.645 114.077C344.475 114.258 344.356 114.483 344.301 114.728C344.247 114.972 344.259 115.227 344.335 115.465C344.93 115.617 345.543 115.678 346.155 115.647C346.062 116.8 346.129 117.959 346.355 119.092C346.361 119.176 346.384 119.258 346.422 119.333C346.46 119.408 346.512 119.474 346.575 119.528C346.765 119.65 347.015 119.528 347.205 119.427C348.099 118.863 348.833 118.074 349.335 117.137L350.335 119.467C350.404 119.707 350.557 119.913 350.765 120.045C350.911 120.095 351.069 120.094 351.213 120.042C351.358 119.991 351.482 119.892 351.565 119.761C351.728 119.494 351.827 119.192 351.855 118.88L352.215 116.671C352.22 116.557 352.258 116.448 352.325 116.357C352.436 116.269 352.576 116.229 352.715 116.245C353.629 116.245 354.539 116.245 355.445 116.245C355.605 115.759 355.115 115.303 354.655 115.09C354.195 114.877 353.655 114.725 353.395 114.269C352.925 113.337 354.155 112.03 353.635 111.23C353.115 110.429 351.985 111.159 351.185 111.564Z" fill="#19B9DE"/>
<path opacity="0.2" d="M335.955 67.9545C335.862 68.0135 335.755 68.0451 335.645 68.0457C335.455 68.0457 335.315 67.8532 335.235 67.6708C334.795 66.6576 335.045 65.4417 334.375 64.6311C333.685 65.4665 333.128 66.4068 332.725 67.4175L330.145 66.6069C330.016 67.1205 329.993 67.6555 330.077 68.1786C330.162 68.7016 330.352 69.2014 330.635 69.6466C330.182 69.8503 329.769 70.1352 329.415 70.4876C329.241 70.6668 329.119 70.8912 329.063 71.1361C329.006 71.381 329.018 71.6369 329.095 71.8757C329.694 72.022 330.31 72.0833 330.925 72.0581C330.829 73.2098 330.893 74.3695 331.115 75.5031C331.133 75.671 331.211 75.8263 331.335 75.9388C331.525 76.0604 331.775 75.9388 331.965 75.8273C332.863 75.2732 333.598 74.4862 334.095 73.5476L335.095 75.8679C335.167 76.1083 335.319 76.316 335.525 76.4555C335.672 76.5059 335.832 76.5053 335.978 76.454C336.125 76.4026 336.25 76.3034 336.335 76.1718C336.495 75.9038 336.59 75.6021 336.615 75.2903L336.975 73.0815C336.982 72.9666 337.024 72.8567 337.095 72.7674C337.203 72.6809 337.339 72.6409 337.475 72.6559C338.385 72.6559 339.305 72.6559 340.215 72.6559C340.365 72.1594 339.885 71.7035 339.415 71.5008C338.945 71.2982 338.415 71.1361 338.165 70.6801C337.685 69.7378 338.915 68.4409 338.395 67.6404C337.875 66.84 336.755 67.5593 335.955 67.9545Z" fill="#19B9DE"/>
<path opacity="0.3" d="M365.966 124.878C365.869 124.928 365.764 124.959 365.656 124.969C365.466 124.969 365.326 124.767 365.246 124.584C364.806 123.622 365.056 122.365 364.386 121.545C363.695 122.384 363.138 123.327 362.736 124.341L360.156 123.53C360.028 124.044 360.005 124.579 360.089 125.102C360.174 125.625 360.363 126.124 360.646 126.57C360.191 126.767 359.777 127.048 359.426 127.401C359.252 127.581 359.131 127.805 359.075 128.05C359.018 128.295 359.029 128.55 359.106 128.789C359.703 128.94 360.32 129.002 360.936 128.972C360.839 130.123 360.903 131.283 361.126 132.417C361.143 132.584 361.221 132.74 361.346 132.852C361.536 132.974 361.786 132.852 361.986 132.751C362.877 132.187 363.607 131.398 364.106 130.461L365.106 132.791C365.174 133.031 365.327 133.237 365.536 133.369C365.683 133.419 365.842 133.419 365.989 133.367C366.135 133.316 366.261 133.217 366.346 133.085C366.505 132.817 366.601 132.516 366.626 132.204L366.986 129.995C366.993 129.88 367.035 129.771 367.106 129.681C367.213 129.594 367.349 129.554 367.486 129.569C368.396 129.569 369.316 129.569 370.226 129.569C370.376 129.083 369.896 128.627 369.426 128.414C368.956 128.202 368.426 128.05 368.176 127.594C367.696 126.661 368.926 125.354 368.406 124.554C367.886 123.753 366.766 124.453 365.966 124.878Z" fill="#19B9DE"/>
</g>
</svg>
