<svg width="16" height="16" viewBox="0 0 16 16" fill="none" xmlns="http://www.w3.org/2000/svg">
<path d="M7.70289 14C8.42439 14 9.00929 13.4239 9.00929 12.7134C9.00929 12.0028 8.42439 11.4268 7.70289 11.4268C6.98138 11.4268 6.39648 12.0028 6.39648 12.7134C6.39648 13.4239 6.98138 14 7.70289 14Z" fill="#939598"/>
<path fill-rule="evenodd" clip-rule="evenodd" d="M4 5.8592C4.10624 3.4758 5.38547 2 8.00136 2C9.84269 2 12.2668 3.0932 11.9761 5.6994C11.8793 6.5702 11.7193 6.76233 11.0423 7.32394C10.6877 7.61805 10.1159 7.91728 9.75008 8.19721C9.08166 8.70867 8.47835 9.04146 8.47835 9.85431C8.47835 10.0814 8.41798 10.3779 8.50153 10.5758C8.50125 10.6018 8.50153 10.5486 8.50153 10.5758H6.66364C6.66364 10.413 6.6616 10.2542 6.65962 10.0997C6.64852 9.23321 6.63918 8.50482 7.00102 8.00001C7.23195 7.67773 7.6289 7.4787 8.0278 7.27869C9.5 6.5 9.84259 5.6344 9.5811 5.0124C9.31961 4.3904 9.0017 4 8.00136 4C6.5 4 6.03009 5.0336 6.00068 5.8592H4Z" fill="#939598"/>
</svg>
