<svg width="0" height="0" style="position:absolute"><symbol fill="none" viewBox="0 0 11 19" id="arrow-left-usage" xmlns="http://www.w3.org/2000/svg"><path d="M10.214.785a1.111 1.111 0 00-1.572 0L0 9.429l8.642 8.642a1.112 1.112 0 101.572-1.573l-7.072-7.07 7.072-7.07a1.111 1.111 0 000-1.572z" fill="#19B9DE"/></symbol><symbol fill="none" viewBox="0 0 11 19" id="arrow-right-usage" xmlns="http://www.w3.org/2000/svg"><path d="M.786 18.215a1.111 1.111 0 001.572 0L11 9.572 2.358.931A1.112 1.112 0 10.786 2.503l7.072 7.07-7.072 7.07a1.111 1.111 0 000 1.572z" fill="#19B9DE"/></symbol><symbol fill="none" viewBox="0 0 12 9" id="check-usage" xmlns="http://www.w3.org/2000/svg"><path fill-rule="evenodd" clip-rule="evenodd" d="M11.707.293a1 1 0 010 1.414l-6.5 6.5a1 1 0 01-1.414 0l-3.5-3.5a1 1 0 011.414-1.414L4.5 6.086 10.293.293a1 1 0 011.414 0z" fill="#fff"/></symbol><symbol fill="none" viewBox="0 0 13 8" id="chevron-usage" xmlns="http://www.w3.org/2000/svg"><path d="M.5.657l5.657 5.657L11.814.657" stroke="#939598" stroke-linecap="round"/></symbol><symbol viewBox="0 0 24 24" id="cross-usage" xmlns="http://www.w3.org/2000/svg"><g clip-path="url(#eclip0)"><path fill-rule="evenodd" clip-rule="evenodd" d="M5.071 4.929a1 1 0 000 1.414L10.728 12 5.07 17.657a1 1 0 101.414 1.414l5.657-5.657 5.657 5.657a1 1 0 001.414-1.414L13.556 12l5.657-5.657A1 1 0 0017.8 4.93l-5.657 5.657-5.657-5.657a1 1 0 00-1.414 0z"/></g><defs><clipPath id="eclip0"><path fill="#fff" d="M0 0h24v24H0z"/></clipPath></defs></symbol><symbol fill="none" viewBox="0 0 14 20" id="play-usage" xmlns="http://www.w3.org/2000/svg"><path fill-rule="evenodd" clip-rule="evenodd" d="M.744 19.46l12.797-9.31a.462.462 0 000-.756L.744.09A.469.469 0 000 .47v18.61a.47.47 0 00.744.38z" fill="#19B9DE"/></symbol></svg>