<svg width="250" height="186" viewBox="0 0 250 186" fill="none" xmlns="http://www.w3.org/2000/svg">
<g clip-path="url(#clip0_145_409)">
<path fill-rule="evenodd" clip-rule="evenodd" d="M48 133.299H97.4V157.999H48V133.299ZM50 135.299V155.999H95.4V135.299H50Z" fill="#A2C7EE"/>
<path fill-rule="evenodd" clip-rule="evenodd" d="M100 133.299H149.4V157.999H100V133.299ZM102 135.299V155.999H147.4V135.299H102Z" fill="#A2C7EE"/>
<path fill-rule="evenodd" clip-rule="evenodd" d="M152 133.299H201.4V157.999H152V133.299ZM154 135.299V155.999H199.4V135.299H154Z" fill="#A2C7EE"/>
<path fill-rule="evenodd" clip-rule="evenodd" d="M182 160H231.4V184.7H182V160ZM184 162V182.7H229.4V162H184Z" fill="#A2C7EE"/>
<path fill-rule="evenodd" clip-rule="evenodd" d="M130 160H179.4V184.7H130V160ZM132 162V182.7H177.4V162H132Z" fill="#A2C7EE"/>
<path fill-rule="evenodd" clip-rule="evenodd" d="M78 160H127.4V184.7H78V160ZM80 162V182.7H125.4V162H80Z" fill="#A2C7EE"/>
<path fill-rule="evenodd" clip-rule="evenodd" d="M26 160H75.4V184.7H26V160ZM28 162V182.7H73.4V162H28Z" fill="#A2C7EE"/>
<path fill-rule="evenodd" clip-rule="evenodd" d="M124.703 106H174.103V130.7H124.703V106ZM126.703 108V128.7H172.103V108H126.703Z" fill="#A2C7EE"/>
<path fill-rule="evenodd" clip-rule="evenodd" d="M72.7032 106H122.103V130.7H72.7032V106ZM74.7032 108V128.7H120.103V108H74.7032Z" fill="#A2C7EE"/>
<path d="M50.9846 102C50.706 102 50.4274 101.997 50.1486 101.994L50.1608 101.228C51.4226 101.25 52.7028 101.222 53.9584 101.149L54.0044 101.914C53.006 101.969 51.9922 102 50.9846 102ZM46.3022 101.786C45.025 101.669 43.7388 101.504 42.48 101.293L42.6056 100.54C43.846 100.748 45.1138 100.91 46.3694 101.026L46.3022 101.786ZM57.8416 101.544L57.7406 100.785C58.99 100.616 60.2488 100.399 61.483 100.138L61.6422 100.889C60.3896 101.152 59.1096 101.372 57.8416 101.544ZM38.704 100.512C37.4606 100.206 36.2142 99.8446 34.9984 99.4466L35.2372 98.7178C36.4316 99.1128 37.6596 99.465 38.8846 99.768L38.704 100.512ZM65.3754 99.9426L65.161 99.2078C66.3708 98.8526 67.5834 98.4454 68.7594 98.0014L69.029 98.7178C67.8346 99.168 66.6066 99.5812 65.3754 99.9426ZM31.3846 98.0994C30.2024 97.6064 29.0234 97.0614 27.881 96.4828L28.2272 95.8C29.3512 96.3726 30.5118 96.9084 31.6786 97.3922L31.3846 98.0994ZM72.5784 97.2176L72.2538 96.5256C73.3962 95.993 74.5292 95.4082 75.6288 94.7896L76.0054 95.4572C74.8906 96.0818 73.7392 96.6756 72.5784 97.2176ZM24.5124 94.603C23.419 93.9386 22.338 93.222 21.2966 92.475L21.7438 91.8536C22.7698 92.5884 23.8356 93.2956 24.9136 93.9478L24.5124 94.603ZM79.2884 93.4364L78.8628 92.7996C79.9132 92.0984 80.9452 91.3484 81.9374 90.5738L82.4092 91.1768C81.4016 91.9668 80.3542 92.726 79.2884 93.4364ZM18.2464 90.1114C17.2634 89.2908 16.3017 88.4182 15.3861 87.5274L15.922 86.9792C16.8254 87.858 17.7718 88.7152 18.7395 89.5266L18.2464 90.1114ZM85.3522 88.6908L84.8376 88.1244C85.7686 87.2762 86.6782 86.3792 87.545 85.4636L88.1024 85.9872C87.2234 86.918 86.2986 87.8274 85.3522 88.6908ZM12.7278 84.738C11.8795 83.7798 11.0587 82.7756 10.287 81.756L10.8964 81.2936C11.6559 82.2978 12.4644 83.2868 13.3005 84.233L12.7278 84.738ZM90.6412 83.0848L90.047 82.604C90.8432 81.6212 91.6088 80.5986 92.3256 79.5668L92.9534 80.0016C92.2276 81.0518 91.4466 82.0898 90.6412 83.0848ZM8.0789 78.5964C7.38372 77.5186 6.7222 76.4042 6.11582 75.2804L6.78958 74.9162C7.38984 76.0214 8.03908 77.1206 8.7251 78.18L8.0789 78.5964ZM95.0298 76.75L94.3682 76.3644C95.0052 75.2744 95.6116 74.1508 96.1628 73.0178L96.852 73.3546C96.2884 74.5028 95.676 75.6448 95.0298 76.75ZM4.40694 71.83C3.88326 70.6634 3.39938 69.4602 2.96758 68.26L3.68726 67.9998C4.11294 69.1846 4.5907 70.3664 5.1052 71.5176L4.40694 71.83ZM98.4108 69.8244L97.7002 69.5428C98.1658 68.3702 98.5914 67.167 98.9682 65.9606L99.7 66.1872C99.3172 67.4088 98.8854 68.6334 98.4108 69.8244ZM1.8038 64.586C1.46387 63.352 1.16682 62.0906 0.921818 60.8354L1.67212 60.6884C1.91406 61.9252 2.205 63.1684 2.54188 64.3838L1.8038 64.586ZM100.705 62.4642L99.9572 62.2926C100.239 61.065 100.478 59.8096 100.665 58.5636L101.421 58.6768C101.234 59.9474 100.989 61.221 100.705 62.4642ZM0.324626 57.0266C0.174562 55.756 0.0734996 54.464 0.0183743 53.1872L0.784002 53.1534C0.836064 54.415 0.937122 55.6856 1.08412 56.9378L0.324626 57.0266ZM101.856 54.8496L101.094 54.7916C101.185 53.5392 101.234 52.2626 101.234 50.998H102C102 52.284 101.951 53.579 101.856 54.8496ZM101.231 50.4898C101.219 49.2284 101.158 47.9516 101.054 46.6964L101.816 46.632C101.923 47.9058 101.985 49.1978 101.997 50.4806L101.231 50.4898ZM0.765628 49.354L0 49.3294C0.0398126 48.0466 0.131686 46.7546 0.266436 45.487L1.029 45.5696C0.894248 46.8188 0.80544 48.0924 0.765628 49.354ZM100.588 42.9304C100.386 41.6844 100.135 40.432 99.841 39.2074L100.585 39.0298C100.885 40.2728 101.139 41.5434 101.345 42.808L100.588 42.9304ZM1.57718 41.813L0.823816 41.672C1.05657 40.4106 1.34138 39.1462 1.66907 37.9122L2.4102 38.1082C2.08556 39.3268 1.80687 40.573 1.57718 41.813ZM98.812 35.5548C98.426 34.3576 97.9882 33.1574 97.5104 31.991L98.2178 31.7C98.7016 32.885 99.1488 34.1036 99.5408 35.319L98.812 35.5548ZM3.51882 34.4802L2.79608 34.229C3.2187 33.0196 3.69032 31.8102 4.20176 30.6376L4.90308 30.9438C4.40084 32.098 3.93532 33.286 3.51882 34.4802ZM95.9424 28.5342C95.3788 27.4106 94.7632 26.29 94.1172 25.2092L94.7724 24.8142C95.431 25.9134 96.0556 27.0494 96.6284 28.1914L95.9424 28.5342ZM6.55376 27.5178L5.87696 27.1596C6.47722 26.0268 7.12646 24.9062 7.8094 23.8222L8.45558 24.2294C7.7849 25.298 7.14482 26.4034 6.55376 27.5178ZM92.0408 22.0312C91.3118 21.0024 90.537 19.986 89.7346 19.0185L90.3258 18.5316C91.1404 19.5175 91.9274 20.5462 92.6686 21.5934L92.0408 22.0312ZM10.6055 21.0974L9.98992 20.6412C10.7525 19.6124 11.564 18.6021 12.4032 17.6346L12.982 18.1367C12.1582 19.0889 11.3558 20.087 10.6055 21.0974ZM87.208 16.1833C86.3322 15.274 85.4134 14.3892 84.4732 13.5472L84.9846 12.9777C85.9372 13.8319 86.8712 14.7321 87.7594 15.6537L87.208 16.1833ZM15.5759 15.3597L15.0369 14.8178C15.9465 13.9146 16.8989 13.0359 17.8728 12.2062L18.3689 12.7879C17.4104 13.6054 16.4702 14.4718 15.5759 15.3597ZM81.5486 11.1223C80.5472 10.3569 79.5058 9.61594 78.4492 8.924L78.8688 8.2841C79.9408 8.98524 81.0004 9.73538 82.014 10.5161L81.5486 11.1223ZM21.3458 10.4334L20.8924 9.81496C21.9246 9.05872 22.9994 8.33308 24.0866 7.6595L24.4908 8.30858C23.419 8.97604 22.3624 9.68944 21.3458 10.4334ZM75.1938 6.97062C74.0882 6.36134 72.946 5.78882 71.7976 5.26526L72.116 4.56718C73.2798 5.09686 74.4404 5.68166 75.5644 6.30012L75.1938 6.97062ZM27.7862 6.42874L27.431 5.749C28.5672 5.1581 29.737 4.60086 30.913 4.09874L31.2132 4.80294C30.0586 5.29894 28.907 5.847 27.7862 6.42874ZM68.2818 3.82014C67.0966 3.38538 65.8838 2.99346 64.671 2.65056L64.8792 1.91271C66.1104 2.26174 67.3446 2.65976 68.5482 3.10066L68.2818 3.82014ZM34.7564 3.44356L34.5084 2.71794C35.718 2.3046 36.9614 1.93411 38.2018 1.61263L38.3916 2.35358C37.1728 2.672 35.9478 3.03636 34.7564 3.44356ZM60.9808 1.75962C59.7496 1.51162 58.4878 1.30649 57.2322 1.15035L57.3272 0.39101C58.6012 0.55022 59.8812 0.758422 61.1308 1.00948L60.9808 1.75962ZM42.1034 1.54835L41.9686 0.795178C43.2242 0.571672 44.5074 0.391034 45.7846 0.262442L45.8612 1.02481C44.6054 1.15034 43.3406 1.3279 42.1034 1.54835ZM53.45 0.825786C52.1882 0.764552 50.9082 0.752302 49.6524 0.782918L49.631 0.0174908C50.9082 -0.016188 52.2066 -0.000874974 53.4868 0.0603592L53.45 0.825786Z" fill="#A2C7EE"/>
<path opacity="0.4" d="M51 84C69.2254 84 84 69.2254 84 51C84 32.7746 69.2254 18 51 18C32.7746 18 18 32.7746 18 51C18 69.2254 32.7746 84 51 84Z" fill="#A2C7EE"/>
<path d="M88 58H70V146H88V58Z" fill="white"/>
<path fill-rule="evenodd" clip-rule="evenodd" d="M70.7033 109.293L88.7033 127.293L87.2891 128.707L69.2891 110.707L70.7033 109.293Z" fill="#005180"/>
<path fill-rule="evenodd" clip-rule="evenodd" d="M70.7033 127.293L88.7033 145.293L87.2891 146.707L69.2891 128.707L70.7033 127.293Z" fill="#005180"/>
<path fill-rule="evenodd" clip-rule="evenodd" d="M70.7033 91.293L88.7033 109.293L87.2891 110.707L69.2891 92.7072L70.7033 91.293Z" fill="#005180"/>
<path fill-rule="evenodd" clip-rule="evenodd" d="M70.7033 73.293L88.7033 91.293L87.2891 92.7072L69.2891 74.7072L70.7033 73.293Z" fill="#005180"/>
<path fill-rule="evenodd" clip-rule="evenodd" d="M70.7033 55.293L88.7033 73.293L87.2891 74.7072L69.2891 56.7072L70.7033 55.293Z" fill="#005180"/>
<path fill-rule="evenodd" clip-rule="evenodd" d="M88.7033 92.7072L70.7033 110.707L69.2891 109.293L87.2891 91.293L88.7033 92.7072Z" fill="#005180"/>
<path fill-rule="evenodd" clip-rule="evenodd" d="M88.7033 74.7072L70.7033 92.7072L69.2891 91.293L87.2891 73.293L88.7033 74.7072Z" fill="#005180"/>
<path fill-rule="evenodd" clip-rule="evenodd" d="M88.7033 110.707L70.7033 128.707L69.2891 127.293L87.2891 109.293L88.7033 110.707Z" fill="#005180"/>
<path fill-rule="evenodd" clip-rule="evenodd" d="M88.7033 128.707L70.7033 146.707L69.2891 145.293L87.2891 127.293L88.7033 128.707Z" fill="#005180"/>
<path fill-rule="evenodd" clip-rule="evenodd" d="M88.7033 56.7072L70.7033 74.7072L69.2891 73.293L87.2891 55.293L88.7033 56.7072Z" fill="#005180"/>
<path fill-rule="evenodd" clip-rule="evenodd" d="M71 56V146H69V56H71Z" fill="#005180"/>
<path fill-rule="evenodd" clip-rule="evenodd" d="M88 129H70V127H88V129Z" fill="#005180"/>
<path fill-rule="evenodd" clip-rule="evenodd" d="M88 111H70V109H88V111Z" fill="#005180"/>
<path fill-rule="evenodd" clip-rule="evenodd" d="M88 93H70V91H88V93Z" fill="#005180"/>
<path fill-rule="evenodd" clip-rule="evenodd" d="M88 75H70V73H88V75Z" fill="#005180"/>
<path fill-rule="evenodd" clip-rule="evenodd" d="M88 57H70V55H88V57Z" fill="#005180"/>
<path fill-rule="evenodd" clip-rule="evenodd" d="M89 56V146H87V56H89Z" fill="#005180"/>
<path d="M54.9727 148.448L42.3411 178.448C41.2309 181.084 43.1669 184 46.0277 184H113.979C116.84 184 118.776 181.084 117.666 178.448L105.034 148.448C104.41 146.965 102.957 146 101.348 146H58.6593C57.0499 146 55.5971 146.965 54.9727 148.448Z" fill="white"/>
<path fill-rule="evenodd" clip-rule="evenodd" d="M54.0444 148.06C54.8249 146.206 56.6409 145 58.6526 145H101.341C103.352 145 105.168 146.206 105.949 148.06C105.949 148.06 105.949 148.06 105.949 148.06L118.58 178.06C119.968 181.356 117.548 185 113.972 185H46.021C42.4451 185 40.025 181.356 41.4128 178.06L42.3344 178.448L41.4128 178.06L54.0443 148.06C54.0443 148.06 54.0443 148.06 54.0444 148.06ZM58.6526 147C57.4455 147 56.3559 147.723 55.8876 148.836L55.8876 148.836L43.256 178.836L42.335 178.448L43.256 178.836C42.4234 180.813 43.8753 183 46.021 183H113.972C116.118 183 117.57 180.813 116.737 178.836L117.659 178.448L116.737 178.836L104.106 148.836L104.106 148.836C103.637 147.723 102.548 147 101.341 147H58.6526Z" fill="#005180"/>
<path fill-rule="evenodd" clip-rule="evenodd" d="M157 118V56H159V118H157Z" fill="#005180"/>
<path d="M152.803 128.515L150.67 120.515C150.332 119.246 151.289 118 152.603 118H163.396C164.71 118 165.667 119.246 165.329 120.515L163.195 128.515C162.962 129.391 162.169 130 161.263 130H154.736C153.83 130 153.037 129.391 152.803 128.515Z" fill="#163560"/>
<path fill-rule="evenodd" clip-rule="evenodd" d="M157 138.5V130H159V138.5C159 142.09 161.91 145 165.5 145H166C169.314 145 172 142.314 172 139H174C174 143.418 170.418 147 166 147H165.5C160.806 147 157 143.194 157 138.5Z" fill="#005180"/>
<path fill-rule="evenodd" clip-rule="evenodd" d="M88.7033 38.7072L70.7033 56.7072L69.2891 55.293L87.2891 37.293L88.7033 38.7072Z" fill="#005180"/>
<path fill-rule="evenodd" clip-rule="evenodd" d="M88.7033 37.293L106.703 55.293L105.289 56.7072L87.2891 38.7072L88.7033 37.293Z" fill="#005180"/>
<path fill-rule="evenodd" clip-rule="evenodd" d="M52.7033 37.293L70.7033 55.293L69.2891 56.7072L51.2891 38.7072L52.7033 37.293Z" fill="#005180"/>
<path fill-rule="evenodd" clip-rule="evenodd" d="M124.703 38.7072L106.703 56.7072L105.289 55.293L123.289 37.293L124.703 38.7072Z" fill="#005180"/>
<path fill-rule="evenodd" clip-rule="evenodd" d="M160.703 38.7072L142.703 56.7072L141.289 55.293L159.289 37.293L160.703 38.7072Z" fill="#005180"/>
<path fill-rule="evenodd" clip-rule="evenodd" d="M124.703 37.293L142.703 55.293L141.289 56.7072L123.289 38.7072L124.703 37.293Z" fill="#005180"/>
<path fill-rule="evenodd" clip-rule="evenodd" d="M160.703 37.293L178.703 55.293L177.289 56.7072L159.289 38.7072L160.703 37.293Z" fill="#005180"/>
<path fill-rule="evenodd" clip-rule="evenodd" d="M160 39H52V37H160V39Z" fill="#005180"/>
<path fill-rule="evenodd" clip-rule="evenodd" d="M51 56V38H53V56H51Z" fill="#005180"/>
<path fill-rule="evenodd" clip-rule="evenodd" d="M178 57H52V55H178V57Z" fill="#005180"/>
<path fill-rule="evenodd" clip-rule="evenodd" d="M250 185H4V183H250V185Z" fill="#005180"/>
</g>
<defs>
<clipPath id="clip0_145_409">
<rect width="250" height="186" fill="white"/>
</clipPath>
</defs>
</svg>
