<svg width="17" height="18" viewBox="0 0 17 18" xmlns="http://www.w3.org/2000/svg">
<path fill-rule="evenodd" clip-rule="evenodd" d="M9.6552 17.5055C9.20025 17.8281 8.6562 18.0009 8.1 18.0009C7.54245 18.0009 6.9984 17.8281 6.5448 17.5055C6.08985 17.1828 5.74695 16.7265 5.56335 16.2H10.6353C10.4517 16.7265 10.1102 17.1828 9.6552 17.5055ZM14.3991 7.2009V11.3279L15.9354 12.8641C16.0191 12.9478 16.0853 13.0464 16.1312 13.1558C16.1771 13.2651 16.2 13.3826 16.2 13.5V14.4004C16.2 14.6394 16.1042 14.8675 15.9354 15.0363C15.7667 15.205 15.5385 15.3009 15.2996 15.3009H0.90045C0.6615 15.3009 0.432 15.205 0.26325 15.0363C0.0945 14.8675 0 14.6394 0 14.4004V13.5C0 13.3826 0.0229499 13.2651 0.0674999 13.1558C0.1134 13.0464 0.17955 12.9478 0.26325 12.8641L1.79955 11.3279V7.2009C1.79955 4.30515 3.7665 1.86705 6.43005 1.13265C6.69465 0.46845 7.3386 0 8.1 0C8.8614 0 9.50535 0.46845 9.7686 1.13265C12.4335 1.86705 14.3991 4.30515 14.3991 7.2009ZM14.5097 13.7011H1.69014L3.39924 11.9907V7.20086C3.39924 5.08676 4.82484 3.23457 6.85524 2.67566L7.62339 2.46371L7.91634 1.72391C7.94739 1.64696 8.01759 1.60107 8.09994 1.60107C8.18229 1.60107 8.25249 1.64696 8.28219 1.72391L8.57649 2.46371L9.34464 2.67566C11.3777 3.23457 12.7993 5.08946 12.7993 7.20086V11.9907L14.5097 13.7011Z"/>
</svg>
