<svg width="34" height="30" viewBox="0 0 34 30" xmlns="http://www.w3.org/2000/svg">
	<path d="M15.8993 3.75C13.4209 3.75 11.4119 6.10031 11.4119 9C11.4119 11.8992 13.4209 14.25 15.8993 14.25C18.3767 14.25 20.3866 11.9002 20.3866 9C20.3866 6.10031 18.3776 3.75 15.8993 3.75ZM17.769 11.625C17.769 11.8322 17.6017 12 17.3951 12H14.4035C14.1969 12 14.0295 11.8322 14.0295 11.625V10.875C14.0295 10.6678 14.1969 10.5 14.4035 10.5H15.1514V7.90125L15.1294 7.91578C15.0886 7.94311 15.0428 7.96211 14.9946 7.97167C14.9464 7.98123 14.8968 7.98118 14.8487 7.97152C14.8006 7.96185 14.7548 7.94276 14.714 7.91534C14.6732 7.88792 14.6382 7.85271 14.611 7.81172L14.1959 7.18781C14.1687 7.14686 14.1497 7.10091 14.1402 7.05261C14.1307 7.00431 14.1307 6.9546 14.1404 6.90632C14.15 6.85804 14.169 6.81213 14.1964 6.77124C14.2237 6.73034 14.2588 6.69525 14.2997 6.66797L15.0163 6.18891C15.2005 6.06572 15.417 5.99999 15.6384 6H16.2732C16.4798 6 16.6472 6.16781 16.6472 6.375V10.5H17.3951C17.6017 10.5 17.769 10.6678 17.769 10.875V11.625ZM29.3613 0H2.43719C1.61124 0 0.941406 0.671719 0.941406 1.5V16.5C0.941406 17.3283 1.61124 18 2.43719 18H29.3613C30.1873 18 30.8571 17.3283 30.8571 16.5V1.5C30.8571 0.671719 30.1873 0 29.3613 0ZM28.6135 12.75C26.9611 12.75 25.6219 14.093 25.6219 15.75H6.17666C6.17666 14.093 4.83746 12.75 3.18509 12.75V5.25C4.83746 5.25 6.17666 3.90703 6.17666 2.25H25.6219C25.6219 3.90703 26.9611 5.25 28.6135 5.25V12.75Z" />
	<g clip-path="url(#clip0)">
	<rect x="7.92188" y="9" width="23.9326" height="19" fill="white"/>
	<path d="M31.6006 7.5H9.17316C7.92979 7.5 6.9248 8.50781 6.9248 9.75V26.25C6.9248 27.4922 7.92979 28.5 9.17316 28.5H31.6006C32.844 28.5 33.849 27.4922 33.849 26.25V9.75C33.849 8.50781 32.844 7.5 31.6006 7.5ZM9.45362 9.75H31.3202C31.4744 9.75 31.6006 9.87656 31.6006 10.0312V12H9.17316V10.0312C9.17316 9.87656 9.29937 9.75 9.45362 9.75ZM31.3202 26.25H9.45362C9.29937 26.25 9.17316 26.1234 9.17316 25.9688V18H31.6006V25.9688C31.6006 26.1234 31.4744 26.25 31.3202 26.25ZM15.8995 21.5625V23.4375C15.8995 23.7469 15.6471 24 15.3386 24H11.9731C11.6646 24 11.4122 23.7469 11.4122 23.4375V21.5625C11.4122 21.2531 11.6646 21 11.9731 21H15.3386C15.6471 21 15.8995 21.2531 15.8995 21.5625ZM24.8742 21.5625V23.4375C24.8742 23.7469 24.6218 24 24.3133 24H17.9562C17.6477 24 17.3953 23.7469 17.3953 23.4375V21.5625C17.3953 21.2531 17.6477 21 17.9562 21H24.3133C24.6218 21 24.8742 21.2531 24.8742 21.5625Z" />
	</g>
	<defs>
	<clipPath id="clip0">
	<rect width="26.9242" height="24" fill="white" transform="translate(6.9248 6)"/>
	</clipPath>
	</defs>
</svg>
