<svg width="18" height="18" viewBox="0 0 18 18" xmlns="http://www.w3.org/2000/svg">
<path fill-rule="evenodd" clip-rule="evenodd" d="M9.87398 3.5H18V5.5H9.87398C9.42994 7.22523 7.86384 8.5 6 8.5C4.13616 8.5 2.57006 7.22523 2.12602 5.5H0V3.5H2.12602C2.57006 1.77477 4.13616 0.5 6 0.5C7.86384 0.5 9.42994 1.77477 9.87398 3.5ZM8 4.5C8 5.60457 7.10457 6.5 6 6.5C4.89543 6.5 4 5.60457 4 4.5C4 3.39543 4.89543 2.5 6 2.5C7.10457 2.5 8 3.39543 8 4.5ZM15.874 12.5H18V14.5H15.874C15.4299 16.2252 13.8638 17.5 12 17.5C10.1362 17.5 8.57006 16.2252 8.12602 14.5H0V12.5H8.12602C8.57006 10.7748 10.1362 9.5 12 9.5C13.8638 9.5 15.4299 10.7748 15.874 12.5ZM14 13.5C14 14.6046 13.1046 15.5 12 15.5C10.8954 15.5 10 14.6046 10 13.5C10 12.3954 10.8954 11.5 12 11.5C13.1046 11.5 14 12.3954 14 13.5Z"/>
</svg>
