<svg width="29" height="22" viewBox="0 0 29 22" fill="none" xmlns="http://www.w3.org/2000/svg">
<mask id="path-1-outside-1" maskUnits="userSpaceOnUse" x="0" y="0" width="29" height="22" fill="black">
<rect fill="white" width="29" height="22"/>
<path fill-rule="evenodd" clip-rule="evenodd" d="M18.402 2.9409C14.6248 1.58616 11.3922 1.77531 10.9421 2.99141C10.938 3.00234 10.9342 3.01335 10.9306 3.02444L9.18243 7.75923C5.91532 7.48548 3.57796 8.10882 3.09498 9.4172C2.31522 11.5285 6.4019 15.3352 12.9575 17.6862C19.513 20.0382 25.125 19.7104 25.9048 17.5991C26.3884 16.2913 25.0049 14.3331 22.3237 12.473L24.084 7.70555L24.0833 7.7053C24.5325 6.4882 22.1792 4.29565 18.402 2.9409Z"/>
</mask>
<path d="M10.9421 2.99141L9.06645 2.29711L9.06576 2.29898L10.9421 2.99141ZM18.402 2.9409L19.0772 1.05833V1.05833L18.402 2.9409ZM10.9306 3.02444L12.8068 3.71718C12.8163 3.69145 12.8253 3.66553 12.8337 3.63944L10.9306 3.02444ZM9.18243 7.75923L9.01544 9.75224C9.91134 9.82731 10.7472 9.29535 11.0586 8.45197L9.18243 7.75923ZM3.09498 9.4172L4.97111 10.1101L4.97122 10.1098L3.09498 9.4172ZM12.9575 17.6862L13.6328 15.8037L13.6326 15.8036L12.9575 17.6862ZM25.9048 17.5991L24.0289 16.9054L24.0286 16.9062L25.9048 17.5991ZM22.3237 12.473L20.4475 11.7803C20.1317 12.6357 20.4345 13.5965 21.1837 14.1163L22.3237 12.473ZM24.084 7.70555L25.9602 8.39829C26.3385 7.37361 25.8248 6.23491 24.8062 5.84049L24.084 7.70555ZM24.0833 7.7053L22.207 7.01286C21.8289 8.03748 22.3427 9.17599 23.3612 9.57036L24.0833 7.7053ZM12.8177 3.68571C12.6527 4.13149 12.3426 4.20259 12.4995 4.14077C12.6311 4.08894 12.9408 4.01343 13.4692 4.00159C14.5098 3.97826 16.0157 4.20978 17.7268 4.82348L19.0772 1.05833C17.0111 0.317285 15.0121 -0.0340014 13.3796 0.00259018C12.5714 0.020704 11.7525 0.135831 11.0334 0.419157C10.3395 0.692492 9.45655 1.24328 9.06645 2.29711L12.8177 3.68571ZM12.8337 3.63944C12.8289 3.65427 12.8238 3.66908 12.8184 3.68384L9.06576 2.29898C9.05224 2.3356 9.03951 2.37243 9.02755 2.40944L12.8337 3.63944ZM11.0586 8.45197L12.8068 3.71718L9.05445 2.3317L7.30624 7.06648L11.0586 8.45197ZM4.97122 10.1098C4.873 10.3759 4.77668 10.153 5.6174 9.92539C6.37077 9.72139 7.52068 9.627 9.01544 9.75224L9.34943 5.76621C7.57708 5.61771 5.92476 5.69811 4.57191 6.06444C3.30644 6.40711 1.79995 7.15012 1.21873 8.72459L4.97122 10.1098ZM13.6326 15.8036C10.5319 14.6916 8.10176 13.2632 6.5845 11.9497C5.81947 11.2875 5.3638 10.721 5.14174 10.3131C4.90848 9.8846 5.05571 9.88104 4.97111 10.1101L1.21884 8.72431C0.744363 10.009 1.11003 11.2731 1.62857 12.2256C2.15832 13.1987 2.98783 14.1267 3.96645 14.9739C5.93647 16.6794 8.82744 18.3298 12.2823 19.5688L13.6326 15.8036ZM24.0286 16.9062C24.1109 16.6833 24.2111 16.7883 23.7415 16.9734C23.2972 17.1484 22.5724 17.2941 21.5523 17.3169C19.5284 17.3621 16.7331 16.916 13.6328 15.8037L12.2821 19.5687C15.7374 20.8084 19.0258 21.3743 21.6417 21.3159C22.9416 21.2868 24.1757 21.1016 25.2079 20.6949C26.2147 20.2982 27.3087 19.5705 27.7809 18.292L24.0286 16.9062ZM21.1837 14.1163C22.4092 14.9665 23.2239 15.7641 23.6632 16.3909C24.1524 17.089 23.9269 17.1814 24.0289 16.9054L27.7806 18.2927C28.3663 16.7089 27.6908 15.1684 26.9389 14.0954C26.1371 12.9512 24.9195 11.8396 23.4637 10.8297L21.1837 14.1163ZM22.2078 7.01281L20.4475 11.7803L24.1999 13.1658L25.9602 8.39829L22.2078 7.01281ZM23.3612 9.57036L23.3618 9.57062L24.8062 5.84049L24.8055 5.84023L23.3612 9.57036ZM17.7268 4.82348C19.4383 5.43736 20.7405 6.21317 21.5184 6.8867C21.9137 7.22898 22.0968 7.47861 22.1595 7.59377C22.2332 7.72932 22.0402 7.46481 22.207 7.01286L25.9596 8.39774C26.351 7.33724 26.0323 6.34225 25.6731 5.68205C25.3028 5.00146 24.7457 4.39008 24.1367 3.86274C22.9059 2.79704 21.1428 1.79919 19.0772 1.05833L17.7268 4.82348Z" fill="#423B57" mask="url(#path-1-outside-1)"/>
<path d="M9 8L9.69763 7.28355L8.62668 6.24072L8.07152 7.62861L9 8ZM22 13L22.9285 13.3714L23.4864 11.9766L21.9843 12.0001L22 13ZM21 15.5L21.5547 16.3321C21.723 16.2198 21.8533 16.0592 21.9285 15.8714L21 15.5ZM8 10.5L7.07152 10.1286L6.97225 10.3768L7.01005 10.6414L8 10.5ZM8.30237 8.71645C10.4235 10.7818 12.296 12.1566 14.4603 12.9818C16.6189 13.8049 18.9796 14.0474 22.0157 13.9999L21.9843 12.0001C19.0561 12.046 16.9877 11.8051 15.1729 11.1131C13.3638 10.4233 11.7185 9.25133 9.69763 7.28355L8.30237 8.71645ZM21.0715 12.6286L20.0715 15.1286L21.9285 15.8714L22.9285 13.3714L21.0715 12.6286ZM20.4453 14.6679C19.9772 14.98 19.0989 15.1537 17.8501 15.0576C16.6424 14.9647 15.2518 14.6317 13.9159 14.127C12.5784 13.6217 11.3457 12.9633 10.4368 12.2517C9.49189 11.5119 9.0593 10.844 8.98995 10.3586L7.01005 10.6414C7.1907 11.906 8.13311 12.9881 9.20384 13.8264C10.3106 14.693 11.7341 15.4408 13.2091 15.998C14.6857 16.5558 16.2638 16.9415 17.6967 17.0517C19.0886 17.1588 20.5228 17.02 21.5547 16.3321L20.4453 14.6679ZM8.92848 10.8714L9.92848 8.37139L8.07152 7.62861L7.07152 10.1286L8.92848 10.8714Z" fill="#423B57"/>
</svg>
