<svg width="20" height="20" viewBox="0 0 20 20" xmlns="http://www.w3.org/2000/svg">
<path d="M14.8584 10.6166C14.625 10.1416 13.9667 9.74163 13.0917 10.4166C11.9 11.3666 10 11.3666 10 11.3666C10 11.3666 8.10004 11.3666 6.90838 10.4166C6.03338 9.74163 5.37504 10.1416 5.14171 10.6166C4.72504 11.45 5.19171 11.8583 6.25004 12.5333C7.15838 13.1166 8.40004 13.3333 9.20004 13.4166L8.53338 14.0833C7.58338 15.025 6.66671 15.9333 6.04171 16.5666C5.66671 16.95 5.66671 17.5583 6.04171 17.9166L6.15838 18.05C6.53338 18.425 7.15004 18.425 7.52504 18.05L10 15.5666C10.9584 16.5083 11.8667 17.4166 12.5 18.05C12.875 18.425 13.4834 18.425 13.8667 18.05L13.975 17.9166C14.3584 17.5583 14.3584 16.95 13.975 16.5666L11.4917 14.0833L10.8334 13.4083C11.625 13.3333 12.85 13.1083 13.75 12.5333C14.8084 11.8583 15.275 11.45 14.8584 10.6166ZM10 3.80829C11.15 3.80829 12.0834 4.74163 12.0834 5.88329C12.0834 7.03329 11.15 7.95829 10 7.95829C8.85004 7.95829 7.91671 7.03329 7.91671 5.88329C7.91671 4.74163 8.85004 3.80829 10 3.80829ZM10 10.1C12.3334 10.1 14.2167 8.21663 14.2167 5.88329C14.2167 4.76496 13.7725 3.69244 12.9817 2.90166C12.1909 2.11088 11.1184 1.66663 10 1.66663C8.88171 1.66663 7.80919 2.11088 7.01841 2.90166C6.22763 3.69244 5.78338 4.76496 5.78338 5.88329C5.78338 8.21663 7.66671 10.1 10 10.1Z"/>
</svg>
