<svg width="27" height="24" viewBox="0 0 27 24" xmlns="http://www.w3.org/2000/svg">
	<path d="M24.7453 1.5H2.25469C1.00781 1.5 0 2.50781 0 3.75V20.25C0 21.4922 1.00781 22.5 2.25469 22.5H24.7453C25.9922 22.5 27 21.4922 27 20.25V3.75C27 2.50781 25.9922 1.5 24.7453 1.5ZM2.53594 3.75H24.4641C24.6188 3.75 24.7453 3.87656 24.7453 4.03125V6H2.25469V4.03125C2.25469 3.87656 2.38125 3.75 2.53594 3.75ZM24.4641 20.25H2.53594C2.38125 20.25 2.25469 20.1234 2.25469 19.9688V12H24.7453V19.9688C24.7453 20.1234 24.6188 20.25 24.4641 20.25ZM9 15.5625V17.4375C9 17.7469 8.74687 18 8.4375 18H5.0625C4.75313 18 4.5 17.7469 4.5 17.4375V15.5625C4.5 15.2531 4.75313 15 5.0625 15H8.4375C8.74687 15 9 15.2531 9 15.5625ZM18 15.5625V17.4375C18 17.7469 17.7469 18 17.4375 18H11.0625C10.7531 18 10.5 17.7469 10.5 17.4375V15.5625C10.5 15.2531 10.7531 15 11.0625 15H17.4375C17.7469 15 18 15.2531 18 15.5625Z"/>
</svg>
