<svg width="39" height="30" viewBox="0 0 39 30" fill="none" xmlns="http://www.w3.org/2000/svg">
<path d="M16.3598 2.13904L14.9698 0C5.34635 6.47059 0 14.3316 0 20.8021C0 27.0588 4.59786 30 8.5007 30C13.4193 30 16.8945 25.8289 16.8945 21.4438C16.8945 17.754 14.5421 14.5989 11.3877 13.4225C10.4788 13.1016 9.62343 12.8342 9.62343 11.2834C9.62343 9.30481 11.0669 6.36364 16.3598 2.13904ZM37.5848 2.13904L36.1948 0C26.6783 6.47059 21.225 14.3316 21.225 20.8021C21.225 27.0588 25.9298 30 29.8326 30C34.8047 30 38.3333 25.8289 38.3333 21.4438C38.3333 17.754 35.9275 14.5989 32.6662 13.4225C31.7573 13.1016 30.9554 12.8342 30.9554 11.2834C30.9554 9.30481 32.4523 6.36364 37.5848 2.13904Z" fill="#00A6FF"/>
</svg>
