<svg width="20" height="20" viewBox="0 0 20 20" xmlns="http://www.w3.org/2000/svg">
<path d="M17.3333 6.95004C17.4417 6.60004 17.3333 6.33337 16.8167 6.33337H15.1333C14.7 6.33337 14.5083 6.55837 14.4 6.80837C14.4 6.80837 13.5417 8.90004 12.325 10.2667C11.925 10.6584 11.75 10.7834 11.5333 10.7834C11.425 10.7834 11.25 10.6584 11.25 10.3V6.95004C11.25 6.52504 11.15 6.33337 10.7917 6.33337H8.13333C7.86667 6.33337 7.70833 6.53337 7.70833 6.72504C7.70833 7.12504 8.33333 7.22504 8.375 8.36671V10.85C8.375 11.4 8.275 11.5 8.06667 11.5C7.5 11.5 6.1 9.39171 5.275 6.99171C5.10833 6.52504 4.95 6.33337 4.51667 6.33337H2.825C2.35 6.33337 2.25 6.55837 2.25 6.80837C2.25 7.25837 2.825 9.47504 4.91667 12.4084C6.30833 14.4167 8.275 15.5 10.0667 15.5C11.1417 15.5 11.275 15.2584 11.275 14.8417V13.325C11.275 12.85 11.375 12.75 11.7167 12.75C11.9667 12.75 12.3917 12.875 13.3917 13.8334C14.5417 14.9834 14.725 15.5 15.375 15.5H17.0583C17.5417 15.5 17.7833 15.2584 17.65 14.7834C17.5 14.3084 16.95 13.6167 16.225 12.8C15.8333 12.3417 15.2417 11.8417 15.0583 11.5834C14.8083 11.2667 14.8833 11.125 15.0583 10.8334C15.0583 10.8334 17.1167 7.94171 17.3333 6.95004Z"/>
</svg>
