<svg width="86" height="81" viewBox="0 0 86 81" fill="none" xmlns="http://www.w3.org/2000/svg">
<path fill-rule="evenodd" clip-rule="evenodd" d="M48.2805 4.63824C57.9719 4.72377 68.753 -3.75964 76.5216 2.01434C84.309 7.80222 80.4088 20.2613 82.1215 29.7902C83.5316 37.6357 87.1149 45.0113 85.6581 52.8483C84.0571 61.4608 80.6692 70.2669 73.6235 75.5044C66.5409 80.7694 57.0589 81.6412 48.2805 80.6336C40.175 79.7032 33.7402 74.4933 26.852 70.1358C19.411 65.4286 10.9916 61.8497 6.5739 54.2499C1.51689 45.5503 -1.58408 35.1463 0.840059 25.3872C3.34202 15.3147 10.1383 5.68307 19.6736 1.51263C28.6779 -2.42553 38.4475 4.55146 48.2805 4.63824Z" fill="#F0F5F7"/>
</svg>
