<svg width="88" height="86" viewBox="0 0 88 86" fill="none" xmlns="http://www.w3.org/2000/svg">
<path fill-rule="evenodd" clip-rule="evenodd" d="M46.1994 2.7598C55.0233 1.47266 64.695 -2.43517 72.2924 2.22252C79.9632 6.92515 81.3128 17.2255 83.8503 25.8421C86.3113 34.1989 89.9736 43.0947 86.7075 51.1723C83.5034 59.0968 73.7301 61.3522 67.2381 66.9272C59.8835 73.243 55.8741 85.1947 46.1994 85.9588C36.5713 86.7192 29.8743 76.7817 22.5924 70.4532C16.0142 64.7362 9.61172 58.9995 6.04205 51.0587C2.1365 42.3707 -2.42949 32.2334 1.5133 23.5621C5.42279 14.9641 16.5417 13.0965 25.1188 9.10369C31.9366 5.92983 38.7548 3.84574 46.1994 2.7598Z" fill="#F0F5F7"/>
</svg>
