<svg width="78" height="79" viewBox="0 0 78 79" fill="none" xmlns="http://www.w3.org/2000/svg">
<path fill-rule="evenodd" clip-rule="evenodd" d="M52.4999 13.8693C59.8868 17.838 70.19 17.2778 74.699 24.3313C79.2681 31.4789 77.7459 41.0861 75.0032 49.0721C72.5439 56.2332 66.1974 60.8488 60.4584 65.797C55.1765 70.3511 49.8464 74.7145 43.1061 76.5739C35.6968 78.6178 27.8392 79.3854 20.5786 76.7984C12.6671 73.9796 3.76762 69.6284 1.22516 61.6517C-1.29533 53.744 5.49228 46.2692 8.37584 38.5137C10.5742 32.6009 12.8597 27.1635 16.0675 21.7322C20.5205 14.1925 22.1178 2.55237 30.7101 0.697973C39.1929 -1.13277 44.8357 9.75165 52.4999 13.8693Z" fill="#F0F5F7"/>
</svg>
