<svg width="82" height="79" viewBox="0 0 82 79" fill="none" xmlns="http://www.w3.org/2000/svg">
<path fill-rule="evenodd" clip-rule="evenodd" d="M39.2169 0.404299C47.1903 1.96104 50.6761 11.205 57.1952 16.0923C63.6051 20.8976 72.7596 21.8318 76.9494 28.6915C81.6187 36.3362 83.4234 46.1171 80.7694 54.6886C78.1035 63.2987 70.824 69.7722 62.9232 73.9914C55.7116 77.8426 47.3624 76.4028 39.2169 76.8785C30.4202 77.3922 21.0296 81.3817 13.4296 76.882C5.66221 72.2833 1.80248 62.7872 0.285897 53.8291C-1.1052 45.6122 2.89559 37.919 5.49358 30.0061C8.07311 22.1495 9.16958 13.3557 15.3577 7.9238C21.8019 2.26719 30.8315 -1.23289 39.2169 0.404299Z" fill="#F0F5F7"/>
</svg>
