<svg width="30" height="30" viewBox="0 0 30 30" fill="none" xmlns="http://www.w3.org/2000/svg">
<path d="M17.8125 1.21875H12.1875C6.70312 2.34375 2.34375 6.65625 1.21875 12.1875V17.8125C2.34375 23.3438 6.70312 27.6563 12.1875 28.7813H17.8125C23.3438 27.6563 27.6563 23.2969 28.7813 17.8125V12.1875C27.6563 6.65625 23.2969 2.34375 17.8125 1.21875Z" fill="#F9F9F9"/>
<path d="M17.8125 12.1875V1.21875C16.9219 1.03125 15.9844 0.9375 15 0.9375C14.0156 0.9375 13.0781 1.03125 12.1875 1.21875V12.1875H1.21875C1.03125 13.0781 0.9375 14.0156 0.9375 15C0.9375 15.9844 1.03125 16.9219 1.21875 17.8125H12.1875V28.7812C13.0781 28.9688 14.0156 29.0625 15 29.0625C15.9844 29.0625 16.9219 28.9688 17.8125 28.7812V17.8125H28.7812C28.9688 16.9219 29.0625 15.9844 29.0625 15C29.0625 14.0156 28.9688 13.0781 28.7812 12.1875H17.8125Z" fill="#ED4C5C"/>
<path d="M8.4375 9.375H6.5625L7.03125 6.5625L6.5625 3.75H8.4375L7.96875 6.5625L8.4375 9.375Z" fill="#ED4C5C"/>
<path d="M4.6875 7.5V5.625L7.5 6.09375L10.3125 5.625V7.5L7.5 7.03125L4.6875 7.5Z" fill="#ED4C5C"/>
<path d="M23.4375 9.375H21.5625L22.0312 6.5625L21.5625 3.75H23.4375L22.9688 6.5625L23.4375 9.375Z" fill="#ED4C5C"/>
<path d="M19.6875 7.5V5.625L22.5 6.09375L25.3125 5.625V7.5L22.5 7.03125L19.6875 7.5Z" fill="#ED4C5C"/>
<path d="M8.4375 26.25H6.5625C6.5625 26.25 7.03125 24.1406 7.03125 23.4375C7.03125 22.7344 6.5625 20.625 6.5625 20.625H8.4375C8.4375 20.625 7.96875 22.7344 7.96875 23.4375C7.96875 24.1406 8.4375 26.25 8.4375 26.25Z" fill="#ED4C5C"/>
<path d="M4.6875 24.375V22.5L7.5 22.9688L10.3125 22.5V24.375L7.5 23.9062L4.6875 24.375Z" fill="#ED4C5C"/>
<path d="M23.4375 26.25H21.5625L22.0312 23.4375L21.5625 20.625H23.4375L22.9688 23.4375L23.4375 26.25Z" fill="#ED4C5C"/>
<path d="M19.6875 24.375V22.5L22.5 22.9688L25.3125 22.5V24.375L22.5 23.9062L19.6875 24.375Z" fill="#ED4C5C"/>
</svg>
