<svg width="30" height="30" viewBox="0 0 30 30" fill="none" xmlns="http://www.w3.org/2000/svg">
<path d="M29.0625 15C29.0625 8.85937 25.1719 3.65625 19.6875 1.73438V28.2656C25.1719 26.3438 29.0625 21.1406 29.0625 15Z" fill="#ED4C5C"/>
<path d="M0.9375 15C0.9375 21.1406 4.875 26.3438 10.3125 28.2656V1.73438C4.875 3.65625 0.9375 8.85937 0.9375 15Z" fill="#2A5F9E"/>
<path d="M19.6875 1.73438C18.2344 1.21875 16.6406 0.9375 15 0.9375C13.3594 0.9375 11.7656 1.21875 10.3125 1.73438V28.2656C11.7656 28.7812 13.3594 29.0625 15 29.0625C16.6406 29.0625 18.2344 28.7812 19.6875 28.2656V1.73438Z" fill="#FFE62E"/>
<path d="M19.3125 14.4844H19.3594V14.0156L18.9844 14.2969L19.0312 14.3438L18.9844 14.3906V14.4375H18.75C18.7031 14.4844 18.7031 14.5313 18.7031 14.625V14.8125C18.7031 14.9063 18.6562 14.9531 18.6562 14.9531L18.6094 15V11.7656C18.6094 11.4844 17.7188 10.6406 17.7188 10.6406L16.8281 11.3438L16.875 11.9063C16.6875 11.9063 15.9844 12.3281 15.8906 12.3281C15.1406 11.9062 15.6563 10.9688 15.6563 10.9219L15.75 11.0156C15.75 11.0156 15.8438 10.6406 15.6563 10.3594L16.0313 10.2656C16.0313 10.2656 15.1406 9.60938 14.2969 9.9375C14.2969 9.84375 14.2969 9.79687 14.25 9.75L14.1563 9.65625L14.1094 9.79688C14.1094 9.84375 14.0625 9.84375 14.0156 9.84375H13.9219V9.75C13.9219 9.70312 13.9219 9.70313 13.9687 9.65625L14.1094 9.60938L14.0625 9.5625C13.9688 9.46875 13.7344 9.46875 13.6406 9.5625L13.5469 9.65625L13.6875 9.70313C13.7344 9.70313 13.7344 9.75 13.7344 9.79688V9.84375H13.6406C13.5938 9.84375 13.5937 9.84375 13.5469 9.79688L13.5 9.70313L13.4063 9.79688C13.3594 9.84375 13.3594 9.9375 13.3594 9.98437C13.3594 10.0781 13.3594 10.125 13.4063 10.1719L13.5 10.2656L13.5469 10.1719C13.5469 10.125 13.5938 10.125 13.6406 10.125H13.7344V10.7813C13.7344 10.8281 13.7344 10.8281 13.6875 10.8281L13.4531 10.9219L13.7344 10.9688C13.7812 10.9688 13.8281 11.0625 13.8281 11.1094L13.875 11.2969L13.9219 11.1094C13.9219 11.0625 13.9687 10.9688 14.0156 10.9688L14.2969 10.9219C14.2969 11.0156 14.4375 11.9063 13.9219 12.2813C13.8281 12.2344 13.125 11.8594 12.9375 11.8594L12.9844 11.2969L12.0937 10.5938C12.0937 10.5938 11.2031 11.4375 11.2031 11.7188V13.9688L11.1562 13.9219L11.1094 14.0156C11.1094 14.0156 11.0625 14.0625 11.0625 14.1094C10.9688 14.0156 10.875 13.9688 10.8281 13.9688L10.7812 13.9219V14.0156C10.7812 14.0156 10.7344 14.25 10.7812 14.3906H10.5938V14.4844C10.5938 14.4844 10.6406 14.7188 10.8281 14.8594C10.9219 14.9531 11.0625 14.9531 11.1094 14.9531L11.2031 15.1406V15.1875C11.1094 15.1406 11.0156 15.1406 10.9687 15.1406H10.7812L10.8281 15.2344C10.8281 15.2344 10.875 15.2813 10.875 15.3281H10.7812L10.8281 15.375C10.8281 15.375 10.9687 15.6094 11.1562 15.6563H11.25C11.25 16.7813 11.1094 18.8438 11.1094 18.8438L12.4219 17.6719C12.4219 17.6719 12.1875 18 12.1406 18.1406C12.0937 18.3281 12.2344 18.75 12.75 18.5625L12.7031 18.7969L13.125 19.0312C13.0781 19.0781 12.7969 19.1719 12.7969 19.1719L14.8594 20.5312L16.9219 19.1719C16.9219 19.1719 15.7969 18.75 15.4219 17.25L15.75 17.1094C15.8906 17.2031 16.8281 18.4219 16.8281 18.4219L16.7812 18.4688H16.7344C16.6875 18.4688 16.6875 18.5156 16.6875 18.8906V18.9844L16.7812 18.9375C17.1094 18.7031 17.1094 18.7031 17.1094 18.6562C17.1094 18.6562 17.1094 18.6094 17.0625 18.6094H17.1094C17.1563 18.6094 17.3906 18.5156 17.4375 18.4219C17.6719 18.0938 17.5313 17.8125 17.5313 17.8125C17.625 17.9531 18.6562 18.8438 18.6562 18.8438C18.6562 18.8438 18.5156 16.8281 18.5156 15.75L18.75 15.3281H18.7969L18.8438 15.2812V15.2344C18.8438 15.2344 18.8906 15.2344 18.8906 15.1875C18.9375 15.1406 18.9375 15.1406 18.9375 15.0938C18.9375 15.0469 18.9375 15.0469 19.0312 14.9531C19.0781 14.9062 19.125 14.8594 19.1719 14.8594C19.2656 14.8125 19.3125 14.7656 19.3125 14.7188C19.3125 14.7188 19.3125 14.6719 19.2188 14.5313L19.2656 14.4844C19.3125 14.5312 19.3125 14.4844 19.3125 14.4844ZM14.1094 10.125C14.0625 10.125 14.0156 10.125 14.0156 10.1719V10.125H14.1094C14.1094 10.0781 14.1563 10.125 14.1094 10.125ZM17.0625 17.6719C17.0156 17.5781 16.6875 16.9219 16.5938 16.7812C16.6406 16.7344 16.6875 16.7344 16.7812 16.6875C16.875 16.6406 16.9688 16.5469 17.0156 16.5C17.1094 16.8281 17.25 17.2969 17.3906 17.5781C17.3906 17.5781 17.0625 17.7188 17.0625 17.6719ZM12.7031 17.7188L12.6562 17.5781C12.7031 17.5313 12.8438 17.4375 12.8906 17.3438C12.9844 17.1563 12.9375 16.9687 12.9375 16.9219V16.8281L12.7969 16.875C12.7969 16.8281 12.8438 16.5469 12.8906 16.4063C12.9375 16.4531 13.0312 16.5469 13.125 16.5938C13.1719 16.6406 13.2187 16.6406 13.3125 16.6875C13.2187 17.25 12.7031 17.7188 12.7031 17.7188ZM14.0625 10.875C14.0156 10.875 14.0156 10.8281 14.0156 10.8281V10.6406C14.1562 10.6875 14.25 10.7813 14.2969 10.9688L14.0625 10.875ZM13.3125 18.5625L13.0312 18.375C13.0312 18.3281 13.9219 17.2969 14.0156 17.1562L14.3438 17.2969C14.2031 17.625 13.6875 18.6562 13.2188 19.0312L13.3125 18.5625Z" fill="#997361"/>
<path d="M12.8906 18.375L13.2188 18.5625L13.125 18.9844L12.7969 18.75L12.8906 18.375Z" fill="#FFD200"/>
<path d="M11.25 14.625L11.1094 14.6719L12.5156 17.8125H12.6562L11.25 14.625ZM12.9375 18.3281L12.8437 18.4219L12.8906 18.5625L13.0312 18.5156L12.9375 18.3281Z" fill="#FFD200"/>
<path d="M11.6719 17.1094L11.8594 17.3906L11.6719 17.4375L12.1875 17.6719L12.4688 17.5781L12.4219 17.3906L11.6719 17.1094Z" fill="#699635"/>
<path d="M12.6094 16.6406L12.375 16.9688L12.5625 17.5781L12.8437 17.3438L12.8906 16.9688L12.7031 17.0625L12.6094 16.6406Z" fill="#699635"/>
<path d="M12.0469 16.5938L11.6719 16.6406L11.3438 16.5L11.5781 16.4062L11.3906 16.1719H11.6719L12.0469 16.5938Z" fill="#699635"/>
<path d="M12.1406 15.6562L12.1875 15.9375L12.3281 15.8437V16.3594L12.0469 16.6406L11.8125 16.2187L11.8594 15.9375L12.1406 15.6562Z" fill="#699635"/>
<path d="M10.875 15.1406L11.25 15.1875L11.5312 15.5625H11.1562L10.875 15.2812L11.0625 15.2344L10.875 15.1406Z" fill="#699635"/>
<path d="M11.5313 14.7656L11.625 15L11.7656 14.8594L11.8594 15.3281L11.6719 15.6563L11.3906 15L11.5313 14.7656Z" fill="#699635"/>
<path d="M10.8281 14.0156L10.875 14.3438L10.9688 14.4844L10.6875 14.3906L10.875 14.7187L11.2031 14.8125L11.3438 14.4375L11.1563 14.0156L11.1094 14.25L10.8281 14.0156Z" fill="#699635"/>
<path d="M19.0781 14.2969L19.125 14.3437L19.0781 14.3906V14.4844H18.7969V14.8125L18.6562 15L18.7031 15.0938L18.6562 15.1406V15.2812L17.6719 17.1562L17.4375 17.3906L17.4844 17.625L17.3437 17.6719L17.3906 17.8594L17.5781 17.8125L17.5313 17.6719L17.7187 17.5781L17.7656 17.25L18.75 15.375L18.8438 15.2812V15.2344L18.9375 15.1875L19.0312 14.9531L19.2656 14.7656L19.1719 14.5312L19.2656 14.4844V14.3906H19.3125V14.1094L19.0781 14.2969ZM16.9688 18.5156V18.5625H16.875V18.9375L17.1562 18.7031L17.1094 18.6094L17.1562 18.5625L17.1094 18.4688H17.0625L16.9688 18.5156Z" fill="#FFD200"/>
<path d="M17.0156 12.7969C17.0156 12.6562 17.2031 12.5156 17.2031 12.5156H12.6094C12.6094 12.5156 12.7969 12.6562 12.7969 12.7969V16.2187C12.7969 16.3125 12.8438 16.3594 12.8906 16.4062C12.9375 16.4531 13.0313 16.5469 13.125 16.5938C13.4063 16.7813 13.9219 17.0156 14.2969 17.1562C14.625 17.2969 14.7656 17.3438 14.9062 17.5781C15.0937 17.3906 15.1875 17.2969 15.5156 17.1562C15.8906 16.9687 16.4062 16.7813 16.6875 16.5938C16.7812 16.5469 16.875 16.4531 16.9219 16.4062C16.9687 16.3594 17.0156 16.3125 17.0156 16.2187V12.7969Z" fill="#F5D402"/>
<path d="M12.9375 14.7187V12.7969C12.9375 12.7031 12.8906 12.6094 12.8906 12.6094H17.0156C17.0156 12.6094 16.9688 12.6562 16.9688 12.7969V14.7187L14.9531 15.3281L12.9375 14.7187Z" fill="#ED4C5C"/>
<path d="M16.9219 14.7188H12.9844V16.2187C12.9844 16.3125 13.0781 16.4531 13.5 16.6875C14.25 17.0625 14.8125 17.2031 14.9531 17.4375C15.1406 17.25 15.7031 17.0625 16.4062 16.6875C16.875 16.4531 16.9219 16.3125 16.9219 16.2187V14.7188Z" fill="#428BC1"/>
<path d="M13.5469 15.6094L13.1719 16.0781L13.5 16.5938L14.1094 16.4531L14.1562 15.8438L13.5469 15.6094Z" fill="#FFE62E"/>
<path d="M15.7031 16.1719C15.7031 16.3594 15.8906 16.5469 16.0781 16.5938C16.0312 16.5469 16.0313 16.4531 16.0313 16.4063C15.9844 16.1719 16.1719 15.9844 16.4531 15.9844H16.5938C16.5 15.8438 16.3125 15.75 16.125 15.75C15.8906 15.75 15.7031 15.9375 15.7031 16.1719Z" fill="#FFE62E"/>
<path d="M13.875 13.6875L14.5313 14.3906L14.7188 14.2969L14.9531 14.3906L15.1875 14.2969L15.375 14.3906L16.0313 13.6875L15.7969 12.9375L16.3125 13.7344L15.6094 14.625L15.75 15L15.375 15.1406L15.3281 16.5L15.5156 16.6875L14.9531 17.0156L14.3906 16.6875L14.5781 16.5L14.5313 15.1406L14.1563 15L14.2969 14.625L13.5938 13.7344L14.1094 12.9375L13.875 13.6875Z" fill="#FFE62E"/>
<path d="M14.9062 12.9844L15 13.2188L15.2344 13.125L15.1406 13.3594L15.375 13.4531L15.1406 13.5469L15.2344 13.7812L15 13.5937L14.9062 13.8281L14.8594 13.5937L14.625 13.6875L14.7187 13.4531L14.4844 13.3594L14.7187 13.2656L14.625 13.0312L14.8594 13.125L14.9062 12.9844Z" fill="#FFE62E"/>
<path d="M13.9219 14.7188L13.5469 15L13.125 14.7188L13.5469 14.4844L13.9219 14.7188Z" fill="#FFE62E"/>
<path d="M16.6875 14.7188L16.3125 15L15.9375 14.7188L16.3125 14.4844L16.6875 14.7188Z" fill="#FFE62E"/>
</svg>
