<svg width="16" height="17" viewBox="0 0 16 17" fill="none" xmlns="http://www.w3.org/2000/svg">
<path d="M9.33325 5.83325H2.66659C1.93125 5.83325 1.33325 6.43125 1.33325 7.16659V13.8333C1.33325 14.5686 1.93125 15.1666 2.66659 15.1666H9.33325C10.0686 15.1666 10.6666 14.5686 10.6666 13.8333V7.16659C10.6666 6.43125 10.0686 5.83325 9.33325 5.83325Z" fill="white"/>
<path d="M13.3333 1.83325H6.66659C6.31296 1.83325 5.97382 1.97373 5.72378 2.22378C5.47373 2.47382 5.33325 2.81296 5.33325 3.16659V4.49992H10.6666C11.0202 4.49992 11.3593 4.64039 11.6094 4.89044C11.8594 5.14049 11.9999 5.47963 11.9999 5.83325V11.1666H13.3333C13.6869 11.1666 14.026 11.0261 14.2761 10.7761C14.5261 10.526 14.6666 10.1869 14.6666 9.83325V3.16659C14.6666 2.81296 14.5261 2.47382 14.2761 2.22378C14.026 1.97373 13.6869 1.83325 13.3333 1.83325Z" fill="white"/>
</svg>
