<svg width="31" height="30" viewBox="0 0 31 30" fill="none" xmlns="http://www.w3.org/2000/svg">
<path d="M25.7448 13.125H17.5416C16.7957 13.125 16.0803 12.8287 15.5529 12.3012C15.0254 11.7738 14.7291 11.0584 14.7291 10.3125V2.10938C14.7291 2.04721 14.7044 1.9876 14.6605 1.94365C14.6165 1.89969 14.5569 1.875 14.4948 1.875H9.10413C8.10956 1.875 7.15574 2.27009 6.45248 2.97335C5.74921 3.67661 5.35413 4.63044 5.35413 5.625V24.375C5.35413 25.3696 5.74921 26.3234 6.45248 27.0266C7.15574 27.7299 8.10956 28.125 9.10413 28.125H22.2291C23.2237 28.125 24.1775 27.7299 24.8808 27.0266C25.584 26.3234 25.9791 25.3696 25.9791 24.375V13.3594C25.9791 13.2972 25.9544 13.2376 25.9105 13.1936C25.8665 13.1497 25.8069 13.125 25.7448 13.125Z" fill="currentColor"/>
<path d="M25.2303 11.0502L16.8039 2.62383C16.7875 2.60754 16.7667 2.59646 16.744 2.59198C16.7214 2.5875 16.6979 2.58982 16.6765 2.59864C16.6552 2.60747 16.6369 2.62242 16.624 2.6416C16.6111 2.66078 16.6042 2.68334 16.6041 2.70645V10.3125C16.6041 10.5611 16.7029 10.7996 16.8787 10.9754C17.0545 11.1512 17.293 11.25 17.5416 11.25H25.1477C25.1708 11.2499 25.1933 11.243 25.2125 11.2301C25.2317 11.2172 25.2467 11.1989 25.2555 11.1776C25.2643 11.1562 25.2666 11.1328 25.2622 11.1101C25.2577 11.0874 25.2466 11.0666 25.2303 11.0502Z" fill="currentColor"/>
</svg>
