<svg class="form__input-icon" width="20" height="20" xmlns="http://www.w3.org/2000/svg">
                        <path
                            d="M5.25 8.61 3.27 10.6a4.34 4.34 0 1 0 6.13 6.13l2.64-2.64a4.34 4.34 0 0 0-1.2-6.98l-.84.85c-.09.08-.16.18-.22.28a2.9 2.9 0 0 1 1.24 4.83L8.38 15.7a2.9 2.9 0 1 1-4.09-4.1l1.15-1.14a5.8 5.8 0 0 1-.19-1.86Z" />
                        <path
                            d="M7.96 5.91a4.34 4.34 0 0 0 1.2 6.98l1.11-1.12a2.89 2.89 0 0 1-1.3-4.84l2.65-2.64a2.9 2.9 0 0 1 4.09 4.1l-1.15 1.14c.17.6.23 1.23.19 1.86l1.98-1.99a4.34 4.34 0 0 0-6.13-6.13L7.96 5.91Z" />
                    </svg>