<svg width="10" height="10" viewBox="0 0 10 10" fill="none" xmlns="http://www.w3.org/2000/svg">
<path d="M2.35742 9.28572C2.35742 9.56186 2.58128 9.78572 2.85742 9.78572C3.13356 9.78572 3.35742 9.56186 3.35742 9.28572H2.35742ZM4.64314 7.35715C4.36699 7.35715 4.14314 7.58101 4.14314 7.85715C4.14314 8.13329 4.36699 8.35715 4.64314 8.35715V7.35715ZM6.42885 8.35715C6.70499 8.35715 6.92885 8.13329 6.92885 7.85715C6.92885 7.58101 6.70499 7.35715 6.42885 7.35715V8.35715ZM2.35742 0.714294V9.28572H3.35742V0.714294H2.35742ZM2.85742 1.57144H5.35742V0.571437H2.85742V1.57144ZM5.35742 4.85715H2.85742V5.85715H5.35742V4.85715ZM7.00028 3.21429C7.00028 4.12162 6.26475 4.85715 5.35742 4.85715V5.85715C6.81703 5.85715 8.00028 4.6739 8.00028 3.21429H7.00028ZM5.35742 1.57144C6.26475 1.57144 7.00028 2.30697 7.00028 3.21429H8.00028C8.00028 1.75468 6.81703 0.571437 5.35742 0.571437V1.57144ZM4.64314 8.35715H6.42885V7.35715H4.64314V8.35715Z" fill="white"/>
</svg>
