<svg width="30" height="30" viewBox="0 0 30 30" fill="none" xmlns="http://www.w3.org/2000/svg">
<g clip-path="url(#clip0_430_9980)">
<path d="M10.0004 20.586L6.70741 17.293C6.5188 17.1109 6.2662 17.0101 6.00401 17.0123C5.74181 17.0146 5.491 17.1198 5.30559 17.3052C5.12018 17.4906 5.01501 17.7414 5.01273 18.0036C5.01045 18.2658 5.11125 18.5184 5.29341 18.707L9.22341 22.637C9.42967 22.8431 9.70932 22.9589 10.0009 22.9589C10.2925 22.9589 10.5721 22.8431 10.7784 22.637L24.7084 8.70702C24.8013 8.61411 24.8749 8.50382 24.9251 8.38245C24.9753 8.26109 25.0012 8.13101 25.0011 7.99967C25.0011 7.86832 24.9751 7.73826 24.9248 7.61693C24.8745 7.4956 24.8008 7.38536 24.7079 7.29252C24.615 7.19968 24.5047 7.12604 24.3833 7.07582C24.262 7.0256 24.1319 6.99977 24.0006 6.99982C23.8692 6.99986 23.7392 7.02578 23.6178 7.07609C23.4965 7.1264 23.3863 7.20011 23.2934 7.29302L10.0004 20.586Z" fill="white"/>
</g>
<defs>
<clipPath id="clip0_430_9980">
<rect width="30" height="30" fill="white"/>
</clipPath>
</defs>
</svg>
