<svg width="19" height="18" viewBox="0 0 19 18" fill="none" xmlns="http://www.w3.org/2000/svg">
<path d="M7.20554 16.9999C7.6192 16.9999 7.95454 16.6588 7.95454 16.238C7.95454 15.8172 7.6192 15.4761 7.20554 15.4761C6.79188 15.4761 6.45654 15.8172 6.45654 16.238C6.45654 16.6588 6.79188 16.9999 7.20554 16.9999Z" stroke-width="1.5" stroke-linecap="round" stroke-linejoin="round"/>
<path d="M15.4409 16.9999C15.8546 16.9999 16.1899 16.6588 16.1899 16.238C16.1899 15.8172 15.8546 15.4761 15.4409 15.4761C15.0272 15.4761 14.6919 15.8172 14.6919 16.238C14.6919 16.6588 15.0272 16.9999 15.4409 16.9999Z" stroke-width="1.5" stroke-linecap="round" stroke-linejoin="round"/>
<path d="M1.21143 1H4.20741L6.21472 11.202C6.28321 11.5528 6.47081 11.8679 6.74467 12.0921C7.01853 12.3164 7.36121 12.4355 7.71271 12.4286H14.993C15.3445 12.4355 15.6871 12.3164 15.961 12.0921C16.2349 11.8679 16.4225 11.5528 16.491 11.202L17.6893 4.80955H4.95641" stroke-width="1.5" stroke-linecap="round" stroke-linejoin="round"/>
</svg>
