<svg width="30" height="24" viewBox="0 0 30 24"  xmlns="http://www.w3.org/2000/svg">
	<path d="M15 6.75C12.5147 6.75 10.5 9.10031 10.5 12C10.5 14.8992 12.5147 17.25 15 17.25C17.4844 17.25 19.5 14.9002 19.5 12C19.5 9.10031 17.4853 6.75 15 6.75ZM16.875 14.625C16.875 14.8322 16.7072 15 16.5 15H13.5C13.2928 15 13.125 14.8322 13.125 14.625V13.875C13.125 13.6678 13.2928 13.5 13.5 13.5H14.25V10.9012L14.228 10.9158C14.187 10.9431 14.1411 10.9621 14.0928 10.9717C14.0445 10.9812 13.9948 10.9812 13.9465 10.9715C13.8982 10.9619 13.8523 10.9428 13.8114 10.9153C13.7705 10.8879 13.7354 10.8527 13.7081 10.8117L13.2919 10.1878C13.2645 10.1469 13.2456 10.1009 13.236 10.0526C13.2264 10.0043 13.2265 9.9546 13.2361 9.90632C13.2458 9.85804 13.2649 9.81213 13.2923 9.77124C13.3197 9.73034 13.3549 9.69525 13.3959 9.66797L14.1145 9.18891C14.2993 9.06572 14.5164 8.99999 14.7384 9H15.375C15.5822 9 15.75 9.16781 15.75 9.375V13.5H16.5C16.7072 13.5 16.875 13.6678 16.875 13.875V14.625ZM28.5 3H1.5C0.671719 3 0 3.67172 0 4.5V19.5C0 20.3283 0.671719 21 1.5 21H28.5C29.3283 21 30 20.3283 30 19.5V4.5C30 3.67172 29.3283 3 28.5 3ZM27.75 15.75C26.093 15.75 24.75 17.093 24.75 18.75H5.25C5.25 17.093 3.90703 15.75 2.25 15.75V8.25C3.90703 8.25 5.25 6.90703 5.25 5.25H24.75C24.75 6.90703 26.093 8.25 27.75 8.25V15.75Z" />
</svg>
