<svg width="22" height="28" viewBox="0 0 22 28" xmlns="http://www.w3.org/2000/svg">
	<path d="M20.7904 0H1.20982C0.685645 0 0.260742 0.424997 0.260742 0.949077V21.234C0.260742 21.4859 0.360769 21.7272 0.538763 21.9053L6.35692 27.7221C6.53501 27.9 6.77635 27.9999 7.02797 27.9999H20.7903C21.3145 27.9999 21.7394 27.5749 21.7394 27.0508V0.949077C21.7395 0.424997 21.3145 0 20.7904 0ZM3.50167 22.1833H6.0789V24.7598L3.50167 22.1833ZM19.8412 26.1018H7.97715V21.234C7.97715 20.7099 7.55215 20.285 7.02807 20.285H2.15899V1.89825H19.8413V26.1018H19.8412Z" />
	<path d="M4.4734 6.79259H12.6318C13.1559 6.79259 13.5807 6.36769 13.5807 5.84361C13.5807 5.31943 13.1558 4.89453 12.6318 4.89453H4.4734C3.94922 4.89453 3.52441 5.31943 3.52441 5.84361C3.52432 6.36769 3.94922 6.79259 4.4734 6.79259Z" />
	<path d="M15.8954 6.79259H17.5272C18.0514 6.79259 18.4762 6.36769 18.4762 5.84361C18.4762 5.31943 18.0513 4.89453 17.5272 4.89453H15.8954C15.3712 4.89453 14.9463 5.31943 14.9463 5.84361C14.9462 6.36769 15.3712 6.79259 15.8954 6.79259Z" />
	<path d="M4.4734 11.6862H12.6318C13.1559 11.6862 13.5807 11.2612 13.5807 10.7372C13.5807 10.2129 13.1558 9.78809 12.6318 9.78809H4.4734C3.94922 9.78809 3.52441 10.213 3.52441 10.7372C3.52432 11.2612 3.94922 11.6862 4.4734 11.6862Z" />
	<path d="M15.8954 11.6862H17.5272C18.0514 11.6862 18.4762 11.2612 18.4762 10.7372C18.4762 10.2129 18.0513 9.78809 17.5272 9.78809H15.8954C15.3712 9.78809 14.9463 10.213 14.9463 10.7372C14.9462 11.2612 15.3712 11.6862 15.8954 11.6862Z" />
	<path d="M4.4734 16.5807H12.6318C13.1559 16.5807 13.5807 16.1558 13.5807 15.6317C13.5807 15.1076 13.1558 14.6826 12.6318 14.6826H4.4734C3.94922 14.6826 3.52441 15.1076 3.52441 15.6317C3.52441 16.1558 3.94922 16.5807 4.4734 16.5807Z" />
	<path d="M15.8954 16.5807H17.5272C18.0514 16.5807 18.4762 16.1558 18.4762 15.6317C18.4762 15.1076 18.0513 14.6826 17.5272 14.6826H15.8954C15.3712 14.6826 14.9463 15.1076 14.9463 15.6317C14.9463 16.1558 15.3712 16.5807 15.8954 16.5807Z" />
	<path d="M14.2634 21.4742H17.5269C18.0511 21.4742 18.4759 21.0493 18.4759 20.5253C18.4759 20.001 18.051 19.5762 17.5269 19.5762H14.2634C13.7393 19.5762 13.3145 20.0011 13.3145 20.5253C13.3145 21.0493 13.7394 21.4742 14.2634 21.4742Z" />
</svg>
