<svg width="22" height="17" viewBox="0 0 22 17" fill="none" xmlns="http://www.w3.org/2000/svg">
<path fill-rule="evenodd" clip-rule="evenodd" d="M0 1C0 0.447715 0.447716 0 1 0H17C17.5523 0 18 0.447715 18 1C18 1.55228 17.5523 2 17 2H1C0.447715 2 0 1.55228 0 1ZM0 7C0 6.44772 0.447716 6 1 6H17C17.5523 6 18 6.44772 18 7C18 7.55228 17.5523 8 17 8H1C0.447715 8 0 7.55228 0 7ZM18 13C18 12.4477 17.5523 12 17 12H1C0.447715 12 0 12.4477 0 13C0 13.5523 0.447716 14 1 14H17C17.5523 14 18 13.5523 18 13Z" fill="#00A6FF"/>
<mask id="path-2-outside-1" maskUnits="userSpaceOnUse" x="8" y="3" width="14" height="14" fill="black">
<rect fill="white" x="8" y="3" width="14" height="14"/>
<path fill-rule="evenodd" clip-rule="evenodd" d="M17.9611 13.7746C17.0159 14.5409 15.8116 15 14.5 15C11.4624 15 9 12.5376 9 9.5C9 6.46243 11.4624 4 14.5 4C17.5376 4 20 6.46243 20 9.5C20 10.6849 19.6253 11.7823 18.9879 12.6801L20.5132 14.2053C20.806 14.4982 20.806 14.9731 20.5132 15.266C20.2203 15.5589 19.7454 15.5589 19.4525 15.266L17.9611 13.7746ZM18 9.5C18 11.433 16.433 13 14.5 13C12.567 13 11 11.433 11 9.5C11 7.567 12.567 6 14.5 6C16.433 6 18 7.567 18 9.5Z"/>
</mask>
<path fill-rule="evenodd" clip-rule="evenodd" d="M17.9611 13.7746C17.0159 14.5409 15.8116 15 14.5 15C11.4624 15 9 12.5376 9 9.5C9 6.46243 11.4624 4 14.5 4C17.5376 4 20 6.46243 20 9.5C20 10.6849 19.6253 11.7823 18.9879 12.6801L20.5132 14.2053C20.806 14.4982 20.806 14.9731 20.5132 15.266C20.2203 15.5589 19.7454 15.5589 19.4525 15.266L17.9611 13.7746ZM18 9.5C18 11.433 16.433 13 14.5 13C12.567 13 11 11.433 11 9.5C11 7.567 12.567 6 14.5 6C16.433 6 18 7.567 18 9.5Z" fill="#00A6FF"/>
<path d="M17.9611 13.7746L18.6682 13.0675L18.0312 12.4305L17.3314 12.9978L17.9611 13.7746ZM18.9879 12.6801L18.1725 12.1013L17.6836 12.79L18.2808 13.3872L18.9879 12.6801ZM20.5132 15.266L19.806 14.5589L19.806 14.5589L20.5132 15.266ZM14.5 16C16.0491 16 17.4741 15.4568 18.5909 14.5514L17.3314 12.9978C16.5578 13.625 15.5741 14 14.5 14V16ZM8 9.5C8 13.0899 10.9101 16 14.5 16V14C12.0147 14 10 11.9853 10 9.5H8ZM14.5 3C10.9101 3 8 5.91015 8 9.5H10C10 7.01472 12.0147 5 14.5 5V3ZM21 9.5C21 5.91015 18.0899 3 14.5 3V5C16.9853 5 19 7.01472 19 9.5H21ZM19.8034 13.259C20.5569 12.1976 21 10.899 21 9.5H19C19 10.4707 18.6938 11.367 18.1725 12.1013L19.8034 13.259ZM18.2808 13.3872L19.806 14.9124L21.2203 13.4982L19.6951 11.973L18.2808 13.3872ZM19.806 14.9124C19.7084 14.8148 19.7084 14.6565 19.806 14.5589L21.2203 15.9731C21.9037 15.2897 21.9037 14.1816 21.2203 13.4982L19.806 14.9124ZM19.806 14.5589C19.9037 14.4613 20.062 14.4613 20.1596 14.5589L18.7454 15.9731C19.4288 16.6565 20.5368 16.6565 21.2203 15.9731L19.806 14.5589ZM20.1596 14.5589L18.6682 13.0675L17.254 14.4817L18.7454 15.9731L20.1596 14.5589ZM14.5 14C16.9853 14 19 11.9853 19 9.5H17C17 10.8807 15.8807 12 14.5 12V14ZM10 9.5C10 11.9853 12.0147 14 14.5 14V12C13.1193 12 12 10.8807 12 9.5H10ZM14.5 5C12.0147 5 10 7.01472 10 9.5H12C12 8.11929 13.1193 7 14.5 7V5ZM19 9.5C19 7.01472 16.9853 5 14.5 5V7C15.8807 7 17 8.11929 17 9.5H19Z" fill="white" mask="url(#path-2-outside-1)"/>
<circle cx="14.5" cy="9.5" r="3.5" fill="white"/>
</svg>
