<svg width="24" height="24" viewBox="0 0 24 24" xmlns="http://www.w3.org/2000/svg">
<g clip-path="url(#clip0)">
<path fill-rule="evenodd" clip-rule="evenodd" d="M5.07107 4.92893C4.68054 5.31946 4.68054 5.95262 5.07107 6.34315L10.7279 12L5.07107 17.6569C4.68054 18.0474 4.68054 18.6805 5.07107 19.0711C5.46159 19.4616 6.09476 19.4616 6.48528 19.0711L12.1421 13.4142L17.799 19.0711C18.1895 19.4616 18.8227 19.4616 19.2132 19.0711C19.6037 18.6805 19.6037 18.0474 19.2132 17.6569L13.5563 12L19.2132 6.34315C19.6037 5.95262 19.6037 5.31946 19.2132 4.92893C18.8227 4.53841 18.1895 4.53841 17.799 4.92893L12.1421 10.5858L6.48528 4.92893C6.09476 4.53841 5.46159 4.53841 5.07107 4.92893Z" />
</g>
<defs>
<clipPath id="clip0">
<rect width="24" height="24" fill="white"/>
</clipPath>
</defs>
</svg>
