<svg width="14" height="15" viewBox="0 0 14 15" xmlns="http://www.w3.org/2000/svg">
<path d="M4.40621 5.09937C4.22056 5.09937 4.04251 5.17311 3.91124 5.30439C3.77997 5.43566 3.70622 5.61371 3.70622 5.79936C3.70622 5.98501 3.77997 6.16305 3.91124 6.29433C4.04251 6.4256 4.22056 6.49935 4.40621 6.49935H5.1062C5.29185 6.49935 5.4699 6.4256 5.60117 6.29433C5.73244 6.16305 5.80619 5.98501 5.80619 5.79936C5.80619 5.61371 5.73244 5.43566 5.60117 5.30439C5.4699 5.17311 5.29185 5.09937 5.1062 5.09937H4.40621ZM7.90617 13.4993H3.00623C2.82058 13.4993 2.64253 13.4255 2.51126 13.2942C2.37998 13.163 2.30623 12.9849 2.30623 12.7993V2.99939C2.30623 2.81374 2.37998 2.63569 2.51126 2.50442C2.64253 2.37315 2.82058 2.2994 3.00623 2.2994H6.50619V4.39937C6.50619 4.95632 6.72743 5.49046 7.12125 5.88428C7.51508 6.2781 8.04921 6.49935 8.60616 6.49935H10.7061V7.89933C10.7061 8.08498 10.7799 8.26303 10.9112 8.3943C11.0424 8.52558 11.2205 8.59932 11.4061 8.59932C11.5918 8.59932 11.7698 8.52558 11.9011 8.3943C12.0324 8.26303 12.1061 8.08498 12.1061 7.89933V5.79936V5.75736C12.0988 5.69305 12.0848 5.6297 12.0641 5.56836V5.50536C12.0305 5.43339 11.9856 5.36723 11.9311 5.30936L7.73117 1.10941C7.67331 1.05496 7.60715 1.01007 7.53517 0.976413C7.51202 0.97236 7.48833 0.97236 7.46517 0.976413C7.39711 0.940016 7.32396 0.914059 7.24818 0.899414H3.00623C2.44928 0.899414 1.91514 1.12066 1.52132 1.51448C1.1275 1.9083 0.90625 2.44244 0.90625 2.99939V12.7993C0.90625 13.3562 1.1275 13.8904 1.52132 14.2842C1.91514 14.678 2.44928 14.8993 3.00623 14.8993H7.90617C8.09182 14.8993 8.26986 14.8255 8.40114 14.6942C8.53241 14.563 8.60616 14.3849 8.60616 14.1993C8.60616 14.0136 8.53241 13.8356 8.40114 13.7043C8.26986 13.573 8.09182 13.4993 7.90617 13.4993ZM7.90617 3.28639L9.71915 5.09937H8.60616C8.42051 5.09937 8.24247 5.02562 8.11119 4.89434C7.97992 4.76307 7.90617 4.58502 7.90617 4.39937V3.28639ZM8.60616 7.89933H4.40621C4.22056 7.89933 4.04251 7.97308 3.91124 8.10436C3.77997 8.23563 3.70622 8.41368 3.70622 8.59932C3.70622 8.78497 3.77997 8.96302 3.91124 9.09429C4.04251 9.22557 4.22056 9.29932 4.40621 9.29932H8.60616C8.79181 9.29932 8.96986 9.22557 9.10113 9.09429C9.2324 8.96302 9.30615 8.78497 9.30615 8.59932C9.30615 8.41368 9.2324 8.23563 9.10113 8.10436C8.96986 7.97308 8.79181 7.89933 8.60616 7.89933ZM13.3031 12.3023C13.238 12.2367 13.1606 12.1846 13.0753 12.1491C12.99 12.1135 12.8985 12.0952 12.8061 12.0952C12.7137 12.0952 12.6222 12.1135 12.5369 12.1491C12.4516 12.1846 12.3742 12.2367 12.3091 12.3023L12.1061 12.5123V10.6993C12.1061 10.5137 12.0324 10.3356 11.9011 10.2043C11.7698 10.0731 11.5918 9.99931 11.4061 9.99931C11.2205 9.99931 11.0424 10.0731 10.9112 10.2043C10.7799 10.3356 10.7061 10.5137 10.7061 10.6993V12.5123L10.5031 12.3023C10.3713 12.1705 10.1926 12.0964 10.0061 12.0964C9.81974 12.0964 9.64096 12.1705 9.50915 12.3023C9.37734 12.4341 9.30329 12.6129 9.30329 12.7993C9.30329 12.9857 9.37734 13.1645 9.50915 13.2963L10.9091 14.6963C10.9757 14.76 11.0542 14.8099 11.1401 14.8433C11.2239 14.8803 11.3145 14.8994 11.4061 14.8994C11.4977 14.8994 11.5883 14.8803 11.6721 14.8433C11.758 14.8099 11.8365 14.76 11.9031 14.6963L13.3031 13.2963C13.3687 13.2312 13.4208 13.1538 13.4563 13.0685C13.4919 12.9832 13.5102 12.8917 13.5102 12.7993C13.5102 12.7069 13.4919 12.6154 13.4563 12.5301C13.4208 12.4448 13.3687 12.3674 13.3031 12.3023ZM7.20618 12.0993C7.39183 12.0993 7.56987 12.0255 7.70115 11.8943C7.83242 11.763 7.90617 11.5849 7.90617 11.3993C7.90617 11.2136 7.83242 11.0356 7.70115 10.9043C7.56987 10.773 7.39183 10.6993 7.20618 10.6993H4.40621C4.22056 10.6993 4.04251 10.773 3.91124 10.9043C3.77997 11.0356 3.70622 11.2136 3.70622 11.3993C3.70622 11.5849 3.77997 11.763 3.91124 11.8943C4.04251 12.0255 4.22056 12.0993 4.40621 12.0993H7.20618Z" />
</svg>
