<svg width="16" height="16" viewBox="0 0 16 16" xmlns="http://www.w3.org/2000/svg">
<path d="M3.03323 12.6875C3.0723 12.6875 3.11136 12.6836 3.15042 12.6777L6.43558 12.1016C6.47464 12.0938 6.51175 12.0762 6.53909 12.0469L14.8184 3.76758C14.8365 3.74951 14.8509 3.72805 14.8607 3.70442C14.8705 3.68079 14.8755 3.65546 14.8755 3.62988C14.8755 3.6043 14.8705 3.57897 14.8607 3.55535C14.8509 3.53172 14.8365 3.51026 14.8184 3.49219L11.5723 0.244141C11.5352 0.207031 11.4864 0.1875 11.4336 0.1875C11.3809 0.1875 11.3321 0.207031 11.295 0.244141L3.01566 8.52344C2.98636 8.55273 2.96878 8.58789 2.96097 8.62695L2.3848 11.9121C2.3658 12.0167 2.37258 12.1244 2.40458 12.2258C2.43657 12.3273 2.49279 12.4193 2.56839 12.4941C2.6973 12.6191 2.85941 12.6875 3.03323 12.6875ZM4.34964 9.28125L11.4336 2.19922L12.8653 3.63086L5.78128 10.7129L4.04495 11.0195L4.34964 9.28125Z"/>
<rect y="14" width="16" height="1.5" rx="0.75"/>
</svg>
