<svg width="11" height="12" viewBox="0 0 11 12" xmlns="http://www.w3.org/2000/svg">
<path d="M9.61689 8.30327C8.91492 7.70288 8.20252 7.33919 7.50917 7.93868L7.09515 8.301C6.79223 8.56401 6.22902 9.79292 4.05146 7.28795C1.87436 4.78616 3.16992 4.39663 3.47329 4.13589L3.88957 3.77311C4.5793 3.17226 4.31901 2.41588 3.82155 1.63727L3.52136 1.16566C3.02163 0.388867 2.47747 -0.121286 1.78593 0.478654L1.41227 0.805152C1.10663 1.02781 0.252296 1.75154 0.0450601 3.12646C-0.204348 4.77618 0.582421 6.66534 2.38496 8.73815C4.18524 10.8119 5.94787 11.8535 7.61755 11.8353C9.00516 11.8204 9.84317 11.0758 10.1053 10.8051L10.4803 10.4781C11.17 9.87862 10.7415 9.26825 10.0391 8.6665L9.61689 8.30327Z"/>
</svg>
