<svg viewBox="0 0 24 22" xmlns="http://www.w3.org/2000/svg">
<path d="M22.9963 4.68735C22.6377 3.85706 22.1207 3.10467 21.4741 2.47228C20.8271 1.83801 20.0642 1.33396 19.2269 0.987543C18.3588 0.626907 17.4276 0.442313 16.4875 0.444477C15.1687 0.444477 13.8819 0.805629 12.7636 1.48781C12.4961 1.65099 12.242 1.83023 12.0012 2.02552C11.7604 1.83023 11.5063 1.65099 11.2388 1.48781C10.1205 0.805629 8.83377 0.444477 7.5149 0.444477C6.5652 0.444477 5.64493 0.626391 4.77549 0.987543C3.93548 1.33532 3.17839 1.83558 2.52832 2.47228C1.88091 3.10396 1.36374 3.85653 1.00613 4.68735C0.634275 5.55144 0.444336 6.46903 0.444336 7.41338C0.444336 8.30422 0.62625 9.23252 0.987402 10.1769C1.2897 10.9661 1.72308 11.7847 2.27685 12.6113C3.15432 13.9195 4.36083 15.2838 5.85895 16.6669C8.34154 18.9596 10.8 20.5433 10.9044 20.6075L11.5384 21.0141C11.8193 21.1934 12.1805 21.1934 12.4614 21.0141L13.0954 20.6075C13.1997 20.5406 15.6555 18.9596 18.1408 16.6669C19.6389 15.2838 20.8454 13.9195 21.7229 12.6113C22.2767 11.7847 22.7127 10.9661 23.0124 10.1769C23.3735 9.23252 23.5554 8.30422 23.5554 7.41338C23.5581 6.46903 23.3682 5.55144 22.9963 4.68735Z"/>
</svg>
