<svg width="19" height="18" viewBox="0 0 19 18" xmlns="http://www.w3.org/2000/svg">
<mask id="path-1-inside-1" fill="white">
<path d="M19 6.49991C19 1.49987 13 -0.700182 9.5 2.29987C6 -0.700182 0 1.49987 0 6.49991C0 10.8548 3.27784 13.8048 8.9272 17.7972C9.27044 18.0397 9.72956 18.0397 10.0728 17.7972C15.7222 13.8048 19 10.8548 19 6.49991Z"/>
</mask>
<path d="M9.5 2.29987L8.58888 3.36282L9.5 4.14379L10.4111 3.36282L9.5 2.29987ZM10.0728 17.7972L10.8808 18.9405L10.8808 18.9405L10.0728 17.7972ZM8.9272 17.7972L8.11923 18.9405L8.11923 18.9405L8.9272 17.7972ZM10.4111 3.36282C11.7143 2.24581 13.5178 2.07022 15.0282 2.69388C16.5087 3.30519 17.6 4.63576 17.6 6.49991H20.4C20.4 3.36402 18.4913 1.09454 16.0968 0.105827C13.7322 -0.870533 10.7857 -0.646129 8.58888 1.23691L10.4111 3.36282ZM17.6 6.49991C17.6 8.26823 16.9544 9.78297 15.5917 11.3737C14.1905 13.0093 12.0887 14.6583 9.26483 16.6538L10.8808 18.9405C13.7063 16.9437 16.068 15.1215 17.7181 13.1953C19.4067 11.2242 20.4 9.08647 20.4 6.49991H17.6ZM9.73517 16.6538C6.91133 14.6583 4.80948 13.0093 3.4083 11.3737C2.04561 9.78297 1.4 8.26823 1.4 6.49991H-1.4C-1.4 9.08647 -0.406687 11.2242 1.28187 13.1953C2.93195 15.1215 5.2937 16.9437 8.11923 18.9405L9.73517 16.6538ZM1.4 6.49991C1.4 4.63576 2.49132 3.30519 3.97182 2.69388C5.48223 2.07022 7.28573 2.24581 8.58888 3.36282L10.4111 1.23691C8.21427 -0.646129 5.26777 -0.870533 2.90318 0.105827C0.508681 1.09454 -1.4 3.36402 -1.4 6.49991H1.4ZM9.26484 16.6538C9.40588 16.5542 9.59412 16.5542 9.73516 16.6538L8.11923 18.9405C8.94675 19.5253 10.0532 19.5253 10.8808 18.9405L9.26484 16.6538Z" mask="url(#path-1-inside-1)"/>
</svg>
