<svg width="5" height="24" viewBox="0 0 5 24" fill="none" xmlns="http://www.w3.org/2000/svg">
<path d="M0.033029 0C-0.298587 6.23068 4.81778 7.1246 4.81778 7.1246C4.55207 0.294541 0.033029 0 0.033029 0Z" fill="#00C05A"/>
<path d="M4.31104 7.90926H0.533498C0.465656 7.91231 0.399128 7.92903 0.337899 7.9584C0.27667 7.98778 0.222001 8.02921 0.177165 8.08022C0.125325 8.12568 0.083396 8.18133 0.0539851 8.2437C0.0245743 8.30606 0.00831121 8.37381 0.00620771 8.44273V9.76919C0.00788523 9.83969 0.0239093 9.9091 0.053302 9.9732C0.0826947 10.0373 0.12484 10.0947 0.177165 10.142C0.223035 10.191 0.278132 10.2303 0.339287 10.2579C0.400441 10.2855 0.466444 10.3007 0.533498 10.3027H2.4511V19.8577C2.45254 20.2862 2.29737 20.7004 2.01476 21.0225C1.73216 21.3445 1.34162 21.5522 0.916607 21.6064H0.533498C0.463657 21.6062 0.394513 21.6203 0.330374 21.648C0.266235 21.6756 0.208473 21.7162 0.160687 21.7671C0.109353 21.8146 0.0685353 21.8723 0.040864 21.9365C0.0131927 22.0007 -0.000717967 22.07 2.85294e-05 22.1399V23.4664C0.000806774 23.6041 0.0521112 23.7368 0.144209 23.8392C0.193089 23.8915 0.252506 23.9329 0.318542 23.9606C0.384578 23.9883 0.455734 24.0017 0.527319 23.9998H0.714754C1.7599 23.9967 2.76478 23.5965 3.52584 22.8802C4.28691 22.1638 4.74725 21.185 4.81361 20.142C4.82914 20.0592 4.83604 19.9749 4.83421 19.8907V8.44273C4.83445 8.37289 4.82031 8.30375 4.79268 8.23961C4.76503 8.17547 4.72448 8.11771 4.67355 8.06992C4.6285 8.01832 4.5727 7.97721 4.51008 7.94945C4.44746 7.9217 4.37952 7.90798 4.31104 7.90926Z" fill="white"/>
</svg>
