<svg width="17" height="17" viewBox="0 0 17 17" xmlns="http://www.w3.org/2000/svg">
<path fill-rule="evenodd" clip-rule="evenodd" d="M13.7048 12.2773C16.1186 9.33131 15.9506 4.97717 13.2006 2.22722C10.2717 -0.701713 5.52296 -0.701712 2.59403 2.22722C-0.334898 5.15615 -0.334899 9.90489 2.59403 12.8338C5.34397 15.5838 9.69809 15.7518 12.6441 13.338L15.6755 16.3694C15.9684 16.6622 16.4433 16.6622 16.7362 16.3694C17.0291 16.0765 17.0291 15.6016 16.7362 15.3087L13.7048 12.2773ZM12.1399 3.28788C14.4831 5.63102 14.4831 9.43002 12.1399 11.7732C9.7968 14.1163 5.99781 14.1163 3.65466 11.7732C1.31151 9.43001 1.31151 5.63102 3.65466 3.28788C5.99781 0.944731 9.7968 0.944731 12.1399 3.28788Z"/>
</svg>
