<svg width="16" height="17" viewBox="0 0 16 17" xmlns="http://www.w3.org/2000/svg">
<path d="M10.8104 10.0938C9.85752 10.0938 9.39932 10.625 7.83545 10.625C6.27158 10.625 5.8167 10.0938 4.86045 10.0938C2.39678 10.0938 0.397949 12.0926 0.397949 14.5562V15.4062C0.397949 16.2861 1.11182 17 1.9917 17H13.6792C14.5591 17 15.2729 16.2861 15.2729 15.4062V14.5562C15.2729 12.0926 13.2741 10.0938 10.8104 10.0938ZM13.6792 15.4062H1.9917V14.5562C1.9917 12.9758 3.27998 11.6875 4.86045 11.6875C5.34521 11.6875 6.13213 12.2188 7.83545 12.2188C9.55205 12.2188 10.3224 11.6875 10.8104 11.6875C12.3909 11.6875 13.6792 12.9758 13.6792 14.5562V15.4062ZM7.83545 9.5625C10.4751 9.5625 12.6167 7.4209 12.6167 4.78125C12.6167 2.1416 10.4751 0 7.83545 0C5.1958 0 3.0542 2.1416 3.0542 4.78125C3.0542 7.4209 5.1958 9.5625 7.83545 9.5625ZM7.83545 1.59375C9.59189 1.59375 11.0229 3.0248 11.0229 4.78125C11.0229 6.5377 9.59189 7.96875 7.83545 7.96875C6.079 7.96875 4.64795 6.5377 4.64795 4.78125C4.64795 3.0248 6.079 1.59375 7.83545 1.59375Z"/>
</svg>
