<svg width="14" height="20" viewBox="0 0 14 20" fill="none" xmlns="http://www.w3.org/2000/svg">
<path fill-rule="evenodd" clip-rule="evenodd" d="M0.744145 19.4605L13.541 10.15C13.6015 10.1072 13.6508 10.0506 13.6848 9.98482C13.7189 9.91906 13.7366 9.84609 13.7366 9.77204C13.7366 9.698 13.7189 9.62503 13.6848 9.55927C13.6508 9.4935 13.6015 9.43687 13.541 9.39411L0.744145 0.0894287C0.674095 0.0385714 0.591329 0.00810442 0.505024 0.00140577C0.418719 -0.00529287 0.332244 0.0120379 0.255185 0.0514772C0.178127 0.0909166 0.113495 0.150925 0.0684536 0.224848C0.0234117 0.298772 -0.000280283 0.383724 2.50214e-06 0.470288V19.0797C0.000142615 19.166 0.0240944 19.2507 0.0692261 19.3244C0.114358 19.3981 0.178922 19.4579 0.255826 19.4972C0.332729 19.5366 0.418996 19.554 0.505144 19.5475C0.591292 19.541 0.673988 19.5109 0.744145 19.4605Z" fill="#19B9DE"/>
</svg>
