<svg width="19" height="23" viewBox="0 0 19 23" fill="none" xmlns="http://www.w3.org/2000/svg">
	<path d="M9.79333 20C10.3626 20.8221 10.3629 20.822 10.3632 20.8218L10.3639 20.8213L10.3657 20.82L10.3714 20.816L10.3905 20.8026C10.4066 20.7912 10.4294 20.7751 10.4584 20.7542C10.5164 20.7125 10.5994 20.6519 10.7038 20.5737C10.9124 20.4172 11.2071 20.1893 11.5592 19.8983C12.2617 19.3175 13.2006 18.4787 14.1417 17.4477C15.9861 15.4272 18.0072 12.4864 17.9933 9.19784C17.9922 4.67664 14.3148 1 9.79333 1C5.27231 1 1.59456 4.67619 1.59334 9.19325C1.57946 12.4759 3.52247 15.3664 5.34001 17.3716C7.12684 19.343 8.94651 20.6264 9.19492 20.8016C9.203 20.8073 9.20943 20.8118 9.21413 20.8152L9.78595 21.2215L10.3626 20.8221L9.79333 20ZM9.79333 11.8C8.35662 11.8 7.19334 10.6367 7.19334 9.2C7.19334 7.76328 8.35662 6.6 9.79333 6.6C11.2301 6.6 12.3933 7.76328 12.3933 9.2C12.3933 10.6367 11.2301 11.8 9.79333 11.8Z" stroke="#423B57" class="blue-stroke" stroke-width="2"/>
</svg>