<svg width="15" height="14" viewBox="0 0 15 14" xmlns="http://www.w3.org/2000/svg">
<path d="M12.4098 4.09961H2.60977C1.44777 4.09961 0.509766 5.03761 0.509766 6.19961V10.3996H3.30977V13.1996H11.7098V10.3996H14.5098V6.19961C14.5098 5.03761 13.5718 4.09961 12.4098 4.09961ZM10.3098 11.7996H4.70977V8.29961H10.3098V11.7996ZM12.4098 6.89961C12.0248 6.89961 11.7098 6.58461 11.7098 6.19961C11.7098 5.81461 12.0248 5.49961 12.4098 5.49961C12.7948 5.49961 13.1098 5.81461 13.1098 6.19961C13.1098 6.58461 12.7948 6.89961 12.4098 6.89961ZM11.7098 0.599609H3.30977V3.39961H11.7098V0.599609Z" />
</svg>
