<svg width="20" height="20" viewBox="0 0 20 20" fill="none" xmlns="http://www.w3.org/2000/svg">
<path d="M19.2921 11.6414C19.2858 11.6766 19.2813 11.7121 19.2747 11.7473L19.2405 11.5458C19.2592 11.5772 19.2747 11.6098 19.2921 11.6415C19.3963 11.0768 19.449 10.5038 19.4495 9.92953C19.4495 8.65469 19.1999 7.41781 18.7068 6.25351C18.231 5.12883 17.5504 4.11875 16.6826 3.25156C15.816 2.38437 14.8052 1.70367 13.6812 1.22797C12.5172 0.735469 11.2804 0.485859 10.0055 0.485859C9.40477 0.485859 8.80289 0.542266 8.21727 0.654687C8.21602 0.655 8.21445 0.655 8.21281 0.655312C8.24578 0.672734 8.27906 0.688281 8.31133 0.706328L8.11273 0.675234C8.14602 0.668984 8.17961 0.661953 8.21281 0.655312C7.40938 0.228125 6.50563 0 5.59094 0C4.09766 0 2.69352 0.581484 1.6375 1.63781C0.581797 2.69383 0 4.09789 0 5.59125C0.00050694 6.53986 0.242594 7.47272 0.703437 8.30187C0.709453 8.26766 0.713594 8.23312 0.720234 8.1989L0.754453 8.39687C0.736719 8.36586 0.721172 8.33352 0.703437 8.30187C0.609443 8.83934 0.561872 9.3839 0.56125 9.92953C0.56125 11.2047 0.810859 12.4412 1.30398 13.6059C1.77906 14.7309 2.46008 15.7402 3.32695 16.6074C4.19477 17.4747 5.20422 18.1563 6.32953 18.6308C7.49359 19.1242 8.7307 19.3741 10.0055 19.3741C10.5605 19.3741 11.1166 19.3234 11.6595 19.2272C11.6278 19.2095 11.5955 19.1933 11.5632 19.1746L11.765 19.2101C11.7302 19.2167 11.695 19.2209 11.6595 19.2272C12.4985 19.702 13.446 19.9517 14.41 19.9519C15.903 19.9519 17.3065 19.3712 18.3625 18.3147C19.4187 17.2593 20 15.8549 20 14.3616C19.9995 13.4094 19.7558 12.4731 19.2921 11.6415V11.6414ZM10.0432 15.7134C6.68812 15.7134 5.18711 14.0638 5.18711 12.8277C5.18711 12.1935 5.65523 11.7491 6.30039 11.7491C7.73617 11.7491 7.3643 13.8108 10.0432 13.8108C11.4147 13.8108 12.172 13.0661 12.172 12.3041C12.172 11.8458 11.9459 11.3377 11.0428 11.115L8.05859 10.3701C5.65523 9.76734 5.21906 8.46812 5.21906 7.2468C5.21906 4.71109 7.60656 3.75898 9.84875 3.75898C11.9141 3.75898 14.3489 4.90047 14.3489 6.42172C14.3489 7.07359 13.7845 7.45266 13.1395 7.45266C11.9141 7.45266 12.1397 5.75656 9.67141 5.75656C8.44656 5.75656 7.76813 6.31125 7.76813 7.10492C7.76813 7.89711 8.73547 8.15016 9.57539 8.3414L11.7843 8.83172C14.2038 9.37078 14.8173 10.7834 14.8173 12.114C14.8173 14.1747 13.2355 15.7134 10.0432 15.7134ZM11.5632 19.1746C11.5955 19.1934 11.6278 19.2095 11.6595 19.2272C11.695 19.2209 11.7302 19.2167 11.765 19.21L11.5632 19.1746ZM19.2747 11.7473C19.2813 11.7121 19.2858 11.6766 19.2921 11.6415C19.2747 11.6098 19.2591 11.5772 19.2405 11.5458L19.2747 11.7473ZM0.720234 8.1989C0.713594 8.23312 0.709453 8.26766 0.703437 8.30187C0.721172 8.33352 0.736719 8.36586 0.754453 8.39687L0.720234 8.1989ZM8.31133 0.706328C8.27906 0.688281 8.24578 0.672734 8.21289 0.655312C8.17961 0.661953 8.14602 0.668906 8.11273 0.675234L8.31133 0.706328Z" fill="white"/>
</svg>
