<svg width="29" height="18" viewBox="0 0 29 18" fill="none" xmlns="http://www.w3.org/2000/svg">
<path d="M9.5 9.00405C9.5 9.37224 9.20152 9.67072 8.83333 9.67072H5.70103V12.7867C5.70103 13.1806 5.38166 13.5 4.98769 13.5C4.59373 13.5 4.27436 13.1806 4.27436 12.7867V9.67072H1.16667C0.798477 9.67072 0.5 9.37224 0.5 9.00405C0.5 8.63586 0.798477 8.33739 1.16667 8.33739H4.27436V5.21333C4.27436 4.81937 4.59373 4.5 4.98769 4.5C5.38166 4.5 5.70103 4.81937 5.70103 5.21333V8.33739H8.83333C9.20152 8.33739 9.5 8.63586 9.5 9.00405Z" fill="white"/>
<path d="M17.4951 16.9999C17.9087 16.9999 18.2441 16.6588 18.2441 16.238C18.2441 15.8172 17.9087 15.4761 17.4951 15.4761C17.0814 15.4761 16.7461 15.8172 16.7461 16.238C16.7461 16.6588 17.0814 16.9999 17.4951 16.9999Z" stroke="white" stroke-width="1.5" stroke-linecap="round" stroke-linejoin="round"/>
<path d="M25.7295 16.9999C26.1431 16.9999 26.4785 16.6588 26.4785 16.238C26.4785 15.8172 26.1431 15.4761 25.7295 15.4761C25.3158 15.4761 24.9805 15.8172 24.9805 16.238C24.9805 16.6588 25.3158 16.9999 25.7295 16.9999Z" stroke="white" stroke-width="1.5" stroke-linecap="round" stroke-linejoin="round"/>
<path d="M11.5 1H14.496L16.5033 11.202C16.5718 11.5528 16.7594 11.8679 17.0332 12.0921C17.3071 12.3164 17.6498 12.4355 18.0013 12.4286H25.2815C25.633 12.4355 25.9757 12.3164 26.2496 12.0921C26.5234 11.8679 26.711 11.5528 26.7795 11.202L27.9779 4.80955H15.245" stroke="white" stroke-width="1.5" stroke-linecap="round" stroke-linejoin="round"/>
</svg>
