<svg width="13" height="15" viewBox="0 0 13 15" xmlns="http://www.w3.org/2000/svg">
<path d="M3.49996 4.59937C3.31431 4.59937 3.13626 4.67311 3.00499 4.80439C2.87372 4.93566 2.79997 5.11371 2.79997 5.29936C2.79997 5.48501 2.87372 5.66305 3.00499 5.79433C3.13626 5.9256 3.31431 5.99935 3.49996 5.99935H4.19995C4.3856 5.99935 4.56365 5.9256 4.69492 5.79433C4.82619 5.66305 4.89994 5.48501 4.89994 5.29936C4.89994 5.11371 4.82619 4.93566 4.69492 4.80439C4.56365 4.67311 4.3856 4.59937 4.19995 4.59937H3.49996ZM6.99992 12.9993H2.09998C1.91433 12.9993 1.73628 12.9255 1.60501 12.7942C1.47373 12.663 1.39998 12.4849 1.39998 12.2993V2.49939C1.39998 2.31374 1.47373 2.13569 1.60501 2.00442C1.73628 1.87315 1.91433 1.7994 2.09998 1.7994H5.59993V3.89937C5.59993 4.45632 5.82118 4.99046 6.215 5.38428C6.60882 5.7781 7.14296 5.99935 7.69991 5.99935H9.79988V7.39933C9.79988 7.58498 9.87363 7.76303 10.0049 7.8943C10.1362 8.02558 10.3142 8.09933 10.4999 8.09933C10.6855 8.09933 10.8636 8.02558 10.9948 7.8943C11.1261 7.76303 11.1999 7.58498 11.1999 7.39933V5.29936V5.25736C11.1926 5.19305 11.1785 5.1297 11.1579 5.06836V5.00536C11.1242 4.93339 11.0793 4.86723 11.0249 4.80936L6.82492 0.609412C6.76706 0.554964 6.7009 0.510069 6.62892 0.476413C6.60576 0.47236 6.58208 0.47236 6.55892 0.476413C6.49086 0.440016 6.41771 0.414059 6.34193 0.399414H2.09998C1.54303 0.399414 1.00889 0.620661 0.615069 1.01448C0.221247 1.4083 0 1.94244 0 2.49939V12.2993C0 12.8562 0.221247 13.3904 0.615069 13.7842C1.00889 14.178 1.54303 14.3993 2.09998 14.3993H6.99992C7.18557 14.3993 7.36361 14.3255 7.49489 14.1942C7.62616 14.063 7.69991 13.8849 7.69991 13.6993C7.69991 13.5136 7.62616 13.3356 7.49489 13.2043C7.36361 13.073 7.18557 12.9993 6.99992 12.9993ZM6.99992 2.78639L8.8129 4.59937H7.69991C7.51426 4.59937 7.33621 4.52562 7.20494 4.39434C7.07367 4.26307 6.99992 4.08502 6.99992 3.89937V2.78639ZM7.69991 7.39933H3.49996C3.31431 7.39933 3.13626 7.47308 3.00499 7.60436C2.87372 7.73563 2.79997 7.91368 2.79997 8.09933C2.79997 8.28497 2.87372 8.46302 3.00499 8.59429C3.13626 8.72557 3.31431 8.79932 3.49996 8.79932H7.69991C7.88556 8.79932 8.0636 8.72557 8.19488 8.59429C8.32615 8.46302 8.3999 8.28497 8.3999 8.09933C8.3999 7.91368 8.32615 7.73563 8.19488 7.60436C8.0636 7.47308 7.88556 7.39933 7.69991 7.39933ZM11.2156 13.7471L11.1999 12.0123V10.1993C11.1999 10.0137 11.1261 9.83561 10.9948 9.70433C10.8636 9.57306 10.6855 9.49931 10.4999 9.49931C10.3142 9.49931 10.1362 9.57306 10.0049 9.70433C9.87363 9.83561 9.79988 10.0137 9.79988 10.1993V12.0123V13.7471C9.82284 13.975 9.88999 14.0606 10.0029 14.1963C10.0695 14.26 10.148 14.3099 10.2339 14.3433C10.3177 14.3803 10.4083 14.3994 10.4999 14.3994C10.5915 14.3994 10.6821 14.3803 10.7659 14.3433C10.8518 14.3099 10.9303 14.26 10.9969 14.1963C11.1505 14.0781 11.208 13.8806 11.2156 13.7471ZM6.29993 11.5993C6.48558 11.5993 6.66362 11.5255 6.79489 11.3943C6.92617 11.263 6.99992 11.0849 6.99992 10.8993C6.99992 10.7136 6.92617 10.5356 6.79489 10.4043C6.66362 10.273 6.48558 10.1993 6.29993 10.1993H3.49996C3.31431 10.1993 3.13626 10.273 3.00499 10.4043C2.87372 10.5356 2.79997 10.7136 2.79997 10.8993C2.79997 11.0849 2.87372 11.263 3.00499 11.3943C3.13626 11.5255 3.31431 11.5993 3.49996 11.5993H6.29993Z"/>
<path d="M8.75 12.6494C8.38756 12.6494 8.09375 12.3556 8.09375 11.9932C8.09375 11.6307 8.38756 11.3369 8.75 11.3369H12.25C12.6124 11.3369 12.9062 11.6307 12.9062 11.9932C12.9062 12.3556 12.6124 12.6494 12.25 12.6494H8.75Z"/>
</svg>
