<svg width="25" height="24" viewBox="0 0 25 24" fill="none" xmlns="http://www.w3.org/2000/svg">
<path d="M12.2502 0.00348984C10.2225 0.0267236 5.8633 0.343003 3.42509 2.46627C1.61144 4.17208 0.978196 6.69408 0.903976 9.81265C0.842389 12.92 0.768169 18.7554 6.69393 20.3443V22.7644C6.69393 22.7644 6.65682 23.7327 7.33112 23.9313C8.16176 24.1809 8.63471 23.4359 9.42429 22.6355L10.8968 21.0548C14.9513 21.3748 18.0567 20.6374 18.4144 20.5279C19.2371 20.2784 23.8712 19.7162 24.6284 13.8801C25.4053 7.85277 24.2501 4.05517 22.1649 2.33736H22.1522C21.523 1.78725 18.9939 0.0379658 13.3437 0.0184794C13.3437 0.0184794 12.9245 -0.0085018 12.2502 0.00274036V0.00348984ZM12.3197 1.69806C12.8953 1.69431 13.245 1.71755 13.245 1.71755C18.0275 1.72954 20.3102 3.09583 20.8487 3.55601C22.6047 4.98452 23.5095 8.40813 22.8471 13.4401C22.2178 18.3192 18.4594 18.628 17.7638 18.8386C17.4677 18.9285 14.7326 19.5686 11.2869 19.358C11.2869 19.358 8.72077 22.2974 7.91857 23.0544C7.79144 23.1871 7.643 23.2261 7.54825 23.2066C7.41245 23.1751 7.37139 23.0154 7.37929 22.7966L7.40376 18.7802C2.37811 17.4611 2.6742 12.4838 2.7279 9.88385C2.78948 7.28392 3.3035 5.1569 4.83369 3.7164C6.8937 1.94838 10.5952 1.71005 12.3181 1.69806H12.3197ZM12.6987 4.29725C12.6573 4.29685 12.6163 4.30423 12.5779 4.31896C12.5396 4.33369 12.5047 4.35547 12.4752 4.38306C12.4458 4.41065 12.4224 4.4435 12.4064 4.47971C12.3904 4.51592 12.3821 4.55478 12.382 4.59404C12.382 4.76192 12.5257 4.89458 12.6987 4.89458C13.4815 4.88045 14.2596 5.01357 14.988 5.28628C15.7164 5.55898 16.3807 5.96587 16.9426 6.48347C18.0899 7.54099 18.6489 8.962 18.6702 10.82C18.6702 10.9841 18.81 11.1205 18.9868 11.1205V11.1085C19.0702 11.1087 19.1503 11.0776 19.2096 11.022C19.2689 10.9664 19.3026 10.8908 19.3035 10.8117C19.3418 9.93718 19.1924 9.06438 18.8643 8.24637C18.5362 7.42835 18.0364 6.6822 17.3951 6.05327C16.1452 4.89383 14.5613 4.2965 12.6987 4.2965V4.29725ZM8.5368 4.98452C8.31331 4.95352 8.08538 4.9961 7.89093 5.10518H7.87435C7.42292 5.35636 7.01625 5.67383 6.66946 6.04578C6.38126 6.36206 6.22493 6.68208 6.18387 6.99012C6.15939 7.17374 6.17597 7.35736 6.23361 7.53274L6.25414 7.54473C6.57866 8.4501 7.00266 9.321 7.52062 10.1409C8.18783 11.2928 9.00893 12.3582 9.96357 13.3105L9.99199 13.3494L10.037 13.3809L10.0654 13.4124L10.0986 13.4394C11.1055 14.3482 12.2305 15.1312 13.4464 15.7695C14.836 16.4875 15.6793 16.827 16.1854 16.9679V16.9754C16.3339 17.0181 16.4689 17.0376 16.6047 17.0376C17.036 17.0076 17.4444 16.8414 17.7646 16.5654C18.1546 16.2362 18.4854 15.8486 18.7436 15.418V15.4105C18.986 14.9773 18.9039 14.5673 18.5541 14.29C17.8536 13.7088 17.0961 13.1926 16.292 12.7484C15.7535 12.471 15.2063 12.6389 14.9845 12.92L14.5115 13.4858C14.2691 13.7669 13.8285 13.7279 13.8285 13.7279L13.8159 13.7354C10.5305 12.9387 9.65405 9.78117 9.65405 9.78117C9.65405 9.78117 9.613 9.35172 9.91698 9.13288L10.5092 8.68019C10.7926 8.46134 10.99 7.94271 10.686 7.43081C10.2213 6.66646 9.67861 5.94726 9.06582 5.28356C8.93185 5.12709 8.74391 5.02063 8.53522 4.98302L8.5368 4.98452ZM13.245 5.8749C12.8258 5.8749 12.8258 6.47598 13.249 6.47598C13.7703 6.48401 14.2849 6.58948 14.7633 6.78636C15.2417 6.98325 15.6745 7.26769 16.037 7.62343C16.3677 7.96969 16.6218 8.37544 16.7843 8.81663C16.9468 9.25782 17.0143 9.72547 16.9829 10.1919C16.9843 10.2708 17.0183 10.3461 17.0775 10.4016C17.1366 10.457 17.2163 10.4883 17.2995 10.4887L17.3121 10.5044C17.3959 10.5038 17.4761 10.472 17.5353 10.4157C17.5946 10.3595 17.6281 10.2834 17.6288 10.2039C17.6572 9.01296 17.2671 8.01391 16.502 7.21346C15.733 6.41302 14.66 5.96409 13.29 5.8749H13.245ZM13.7638 7.49077C13.3319 7.47878 13.3153 8.09185 13.7433 8.10384C14.7839 8.15481 15.2893 8.65396 15.3556 9.68074C15.357 9.75869 15.3906 9.83299 15.449 9.88776C15.5074 9.94253 15.5861 9.97341 15.6683 9.97379H15.6809C15.7231 9.97207 15.7645 9.96239 15.8028 9.9453C15.841 9.92822 15.8753 9.90408 15.9036 9.87428C15.9319 9.84449 15.9536 9.80965 15.9676 9.77179C15.9816 9.73392 15.9874 9.6938 15.9849 9.65376C15.9106 8.3152 15.1416 7.56122 13.7764 7.49152H13.7638V7.49077Z" fill="white"/>
</svg>
