<svg width="22" height="19" viewBox="0 0 22 19" fill="none" xmlns="http://www.w3.org/2000/svg">
<path fill-rule="evenodd" clip-rule="evenodd" d="M10.9999 2L2.33969 17H2.35004H4.08157H17.9184H19.65H19.6602L11.024 2.04174L11 2L10.9999 2ZM11.866 0.500001C11.4811 -0.166666 10.5188 -0.166667 10.1339 0.499999L0.607635 17C0.222734 17.6667 0.703858 18.5 1.47366 18.5H20.5262C21.296 18.5 21.7771 17.6667 21.3922 17L11.866 0.500001ZM11.8981 6.59961H10.1221L10.4101 12.2156H11.5981L11.8981 6.59961ZM10.3141 14.8196C10.4981 14.9956 10.7301 15.0836 11.0101 15.0836C11.2821 15.0836 11.5061 14.9956 11.6821 14.8196C11.8661 14.6356 11.9581 14.4116 11.9581 14.1476C11.9581 13.8836 11.8661 13.6636 11.6821 13.4876C11.5061 13.3116 11.2821 13.2236 11.0101 13.2236C10.7301 13.2236 10.4981 13.3116 10.3141 13.4876C10.1301 13.6636 10.0381 13.8836 10.0381 14.1476C10.0381 14.4116 10.1301 14.6356 10.3141 14.8196Z" fill="white"/>
</svg>
