<svg width="24" height="24" viewBox="0 0 24 24" fill="none" xmlns="http://www.w3.org/2000/svg">
<path d="M0 23.9999L1.69582 17.8388C0.653123 16.0361 0.0972928 13.9881 0.103098 11.8945C0.103098 5.33398 5.46571 0 12.0545 0C15.2513 0 18.2534 1.23786 20.5051 3.48555C22.7624 5.73324 24.0057 8.72255 24 11.9001C24 18.4606 18.6374 23.7946 12.0486 23.7946H12.043C10.0473 23.7938 8.08359 23.2956 6.33084 22.3455L0 24V23.9999ZM6.62872 20.1891L6.98966 20.4059C8.51372 21.3073 10.2611 21.7808 12.043 21.7865H12.0487C17.5201 21.7865 21.9776 17.3539 21.9776 11.9001C21.9776 9.25886 20.9463 6.77725 19.0728 4.90611C17.1993 3.03496 14.7013 2.00809 12.0487 2.00809C6.57147 2.00809 2.11412 6.44068 2.11412 11.8945C2.11412 13.7599 2.63541 15.5797 3.63236 17.1542L3.86729 17.5307L2.86463 21.176L6.62872 20.1891V20.1891Z" fill="white"/>
<path d="M9.06315 6.91443C8.83964 6.41809 8.60471 6.40663 8.39281 6.40094C8.22095 6.39526 8.02046 6.39526 7.81987 6.39526C7.61938 6.39526 7.29847 6.46942 7.02351 6.76603C6.74844 7.06273 5.98071 7.78153 5.98071 9.24773C5.98071 10.7081 7.05213 12.1228 7.20108 12.3225C7.35002 12.5222 9.26935 15.6198 12.3001 16.8122C14.821 17.8048 15.3367 17.6051 15.881 17.5538C16.431 17.5025 17.6456 16.835 17.8977 16.139C18.144 15.443 18.144 14.8497 18.0695 14.7242C17.9951 14.5987 17.7946 14.5246 17.4966 14.3762C17.1987 14.2279 15.732 13.5091 15.457 13.4064C15.182 13.3038 14.9815 13.2581 14.7867 13.5547C14.5861 13.8514 14.0133 14.5188 13.8413 14.7186C13.6694 14.9182 13.4919 14.941 13.1939 14.7927C12.896 14.6444 11.9335 14.3306 10.7934 13.3151C9.90535 12.5279 9.30378 11.5523 9.13182 11.2557C8.95995 10.9591 9.1147 10.7992 9.26364 10.651C9.39537 10.5198 9.56153 10.303 9.71057 10.1319C9.85951 9.96075 9.91106 9.83527 10.0085 9.63554C10.1058 9.4359 10.06 9.26478 9.98553 9.11647C9.91106 8.96807 9.3267 7.50197 9.06315 6.91443V6.91443Z" fill="white"/>
</svg>
