<svg width="20" height="20" viewBox="0 0 20 20" xmlns="http://www.w3.org/2000/svg">
<path d="M8.33317 12.5L12.6582 9.99996L8.33317 7.49996V12.5ZM17.9665 5.97496C18.0748 6.36663 18.1498 6.89163 18.1998 7.55829C18.2582 8.22496 18.2832 8.79996 18.2832 9.29996L18.3332 9.99996C18.3332 11.825 18.1998 13.1666 17.9665 14.025C17.7582 14.775 17.2748 15.2583 16.5248 15.4666C16.1332 15.575 15.4165 15.65 14.3165 15.7C13.2332 15.7583 12.2415 15.7833 11.3248 15.7833L9.99984 15.8333C6.50817 15.8333 4.33317 15.7 3.47484 15.4666C2.72484 15.2583 2.2415 14.775 2.03317 14.025C1.92484 13.6333 1.84984 13.1083 1.79984 12.4416C1.7415 11.775 1.7165 11.2 1.7165 10.7L1.6665 9.99996C1.6665 8.17496 1.79984 6.83329 2.03317 5.97496C2.2415 5.22496 2.72484 4.74163 3.47484 4.53329C3.8665 4.42496 4.58317 4.34996 5.68317 4.29996C6.7665 4.24163 7.75817 4.21663 8.67484 4.21663L9.99984 4.16663C13.4915 4.16663 15.6665 4.29996 16.5248 4.53329C17.2748 4.74163 17.7582 5.22496 17.9665 5.97496Z"/>
</svg>
