<svg width="182" height="69" viewBox="0 0 182 69" fill="none" xmlns="http://www.w3.org/2000/svg">
<g clip-path="url(#clip0_2021_8163)">
<path fill-rule="evenodd" clip-rule="evenodd" d="M55.8505 24.9529C53.8015 24.7451 51.736 25.1533 49.9378 26.1215C48.1397 27.0896 46.6972 28.5701 45.8085 30.3594C44.9199 32.1488 44.6288 34.1592 44.9753 36.1143C45.3217 38.0693 46.2887 39.8732 47.7432 41.2777C49.1978 42.6823 51.0686 43.6187 53.0985 43.9583C55.1284 44.2978 57.2176 44.0238 59.0792 43.1739C60.9407 42.324 62.4831 40.94 63.4943 39.212C64.5056 37.484 64.936 35.4969 64.7265 33.5239C64.496 31.3307 63.4875 29.281 61.8708 27.7199C60.2541 26.1587 58.128 25.1816 55.8505 24.9529ZM55.5273 39.5804C54.4253 39.7227 53.3047 39.529 52.3229 39.0266C51.3412 38.5241 50.5477 37.7382 50.0539 36.7792C49.5602 35.8202 49.391 34.7364 49.5701 33.68C49.7493 32.6237 50.2678 31.6479 51.0527 30.8899C51.8377 30.1319 52.8497 29.6297 53.9464 29.454C55.0432 29.2782 56.1696 29.4377 57.1674 29.91C58.1651 30.3823 58.984 31.1437 59.509 32.0872C60.034 33.0307 60.2387 34.1089 60.0943 35.1701C59.9428 36.2864 59.4133 37.3234 58.5876 38.1207C57.762 38.918 56.6864 39.431 55.5273 39.5804ZM70.0604 25.3326C69.7145 25.3334 69.3732 25.4085 69.0612 25.5522C68.7492 25.696 68.4745 25.9049 68.257 26.1638C68.0394 26.4227 67.8846 26.725 67.8037 27.0487C67.7228 27.3724 67.7179 27.7094 67.7893 28.0352C68.0081 29.0906 69.0322 29.8118 70.1478 29.8118H76.6217L66.5468 42.6466C66.4723 42.7413 66.4267 42.8542 66.415 42.9725C66.4034 43.0908 66.4263 43.2099 66.481 43.3164C66.5358 43.4229 66.6202 43.5127 66.725 43.5755C66.8298 43.6384 66.9506 43.672 67.0741 43.6724H82.8776C83.9924 43.6724 85.0172 42.9515 85.236 41.8959C85.3074 41.5701 85.3026 41.2332 85.2218 40.9095C85.141 40.5858 84.9862 40.2835 84.7688 40.0246C84.5513 39.7658 84.2767 39.5568 83.9648 39.4129C83.653 39.269 83.3116 39.1939 82.9659 39.193H75.0779L85.1451 26.3681C85.2202 26.2725 85.2664 26.1585 85.2781 26.039C85.2898 25.9196 85.2667 25.7993 85.2114 25.6918C85.156 25.5843 85.0707 25.4937 84.9649 25.4302C84.8591 25.3668 84.7369 25.333 84.6123 25.3326H70.0604ZM133.21 25.3843C132.687 25.5041 132.222 25.7921 131.892 26.2009C131.562 26.6096 131.386 27.1146 131.395 27.6322V35.0898L118.842 25.4735C118.743 25.3983 118.625 25.3513 118.5 25.3381C118.375 25.3248 118.249 25.3458 118.136 25.3985C118.023 25.4513 117.927 25.5337 117.861 25.6363C117.794 25.7389 117.759 25.8576 117.759 25.9786V41.3769C117.751 41.8945 117.926 42.3995 118.256 42.8082C118.586 43.217 119.051 43.505 119.574 43.6248C119.914 43.6967 120.266 43.6943 120.605 43.6178C120.944 43.5413 121.26 43.3925 121.531 43.1825C121.802 42.9725 122.021 42.7066 122.171 42.4044C122.321 42.1023 122.398 41.7716 122.398 41.4367V33.9146L134.951 43.531C135.049 43.6062 135.168 43.6531 135.293 43.6664C135.418 43.6796 135.544 43.6587 135.657 43.6059C135.77 43.5532 135.865 43.4708 135.932 43.3682C135.998 43.2657 136.034 43.1471 136.033 43.0262V27.5717C136.034 27.2369 135.956 26.9062 135.806 26.6042C135.656 26.3021 135.437 26.0364 135.166 25.8264C134.895 25.6165 134.579 25.4678 134.24 25.3913C133.902 25.3148 133.55 25.3124 133.21 25.3843ZM100.526 29.383C105.835 29.383 109.802 32.0841 109.802 34.5003C109.802 36.9164 105.835 39.6175 100.526 39.6175C95.216 39.6175 91.2488 36.9164 91.2488 34.5003C91.2488 32.0841 95.216 29.383 100.526 29.383ZM100.526 24.9041C92.8401 24.9041 86.6102 29.2005 86.6102 34.5003C86.6102 39.8001 92.8401 44.0965 100.526 44.0965C108.211 44.0965 114.441 39.8001 114.441 34.5003C114.441 29.2005 108.211 24.9041 100.526 24.9041Z" fill="#0069FF"/>
</g>
<defs>
<clipPath id="clip0_2021_8163">
<rect width="92" height="32" fill="white" transform="translate(44.8333 18.5)"/>
</clipPath>
</defs>
</svg>
