<svg width="182" height="69" viewBox="0 0 182 69" fill="none" xmlns="http://www.w3.org/2000/svg">
<g clip-path="url(#clip0_2021_8193)">
<path d="M36.8015 22.5259C37.2617 23.1188 37.6513 23.7632 37.9627 24.446L29.136 30.9364L25.4485 28.6302V25.8555L29.136 28.1617L36.8015 22.5259Z" fill="#21A038"/>
<path d="M21.6857 28.4351C21.6857 28.3104 21.6887 28.1868 21.6947 28.0631L19.4599 27.9525C19.3907 29.3019 19.6064 30.6508 20.0932 31.9113C20.5799 33.1717 21.3267 34.3155 22.2849 35.2682L23.8692 33.6878C23.1769 32.9995 22.6276 32.181 22.2529 31.2795C21.8781 30.378 21.6854 29.4113 21.6857 28.4351Z" fill="url(#paint0_linear_2021_8193)"/>
<path d="M29.1351 21.0037C29.2598 21.0037 29.3834 21.0077 29.5071 21.0137L29.6187 18.7839C28.2671 18.7143 26.916 18.9291 25.6527 19.4145C24.3894 19.8999 23.2421 20.6451 22.2849 21.6019L23.8693 23.1832C24.5606 22.4915 25.3815 21.9429 26.2851 21.5689C27.1887 21.1949 28.1572 21.0028 29.1351 21.0037Z" fill="url(#paint1_linear_2021_8193)"/>
<path d="M29.1359 35.8664C29.0112 35.8664 28.8876 35.8634 28.7639 35.8563L28.6523 38.0861C30.0039 38.1558 31.3551 37.941 32.6184 37.4556C33.8817 36.9702 35.029 36.225 35.9862 35.2682L34.4018 33.6879C33.7103 34.3792 32.8893 34.9274 31.9857 35.3013C31.0821 35.6751 30.1138 35.8671 29.1359 35.8664Z" fill="url(#paint2_linear_2021_8193)"/>
<path d="M33.3352 22.3008L35.2192 20.9155C33.4967 19.5248 31.3488 18.7682 29.135 18.7721V21.0039C30.634 21.002 32.0983 21.4541 33.3352 22.3008Z" fill="url(#paint3_linear_2021_8193)"/>
<path d="M38.8224 28.4339C38.8224 27.8428 38.7691 27.2647 38.6666 26.7028L36.5825 28.2349L36.5856 28.4329C36.5856 30.6144 35.6375 32.5798 34.1326 33.941L35.6355 35.5998C36.6399 34.6959 37.4427 33.5907 37.9917 32.3561C38.5408 31.1215 38.8238 29.7851 38.8224 28.4339Z" fill="#21A038"/>
<path d="M29.1363 35.8654C28.0961 35.866 27.0672 35.6485 26.1162 35.2269C25.1652 34.8052 24.3132 34.1888 23.6151 33.4175L21.9534 34.9174C22.8616 35.9205 23.9701 36.7219 25.2074 37.2698C26.4447 37.8177 27.7832 38.0999 29.1363 38.0982V35.8664V35.8654Z" fill="url(#paint4_linear_2021_8193)"/>
<path d="M24.1396 22.9279L22.6356 21.2692C21.6311 22.173 20.8282 23.2782 20.2789 24.5128C19.7297 25.7474 19.4465 27.0838 19.4478 28.4351H21.6856C21.6856 26.2535 22.6336 24.2881 24.1396 22.9279Z" fill="url(#paint5_linear_2021_8193)"/>
<path d="M75.1081 24.4437L77.6968 22.5407H69.038V33.9631H77.6968V32.063H71.5081V29.1375H76.787V27.2345H71.5081V24.4437H75.1081ZM62.4994 26.9952H59.4925V24.4427H64.2939L66.8826 22.5397H57.0194V33.9621H62.1797C65.074 33.9621 66.7328 32.6552 66.7328 30.3731C66.7328 28.1946 65.2289 26.9932 62.4994 26.9932V26.9952ZM62.0692 32.063H59.4935V28.8973H62.0702C63.6385 28.8973 64.3683 29.4271 64.3683 30.4817C64.3683 31.5563 63.5942 32.063 62.0702 32.063H62.0692ZM84.7119 22.5407H79.998V33.9631H82.468V30.727H84.7119C87.7218 30.727 89.5897 29.1486 89.5897 26.6283C89.5897 24.1079 87.7198 22.5407 84.7119 22.5407ZM84.6586 28.8269H82.468V24.4437H84.6586C86.241 24.4437 87.1146 25.2218 87.1146 26.6363C87.1146 28.0488 86.241 28.8279 84.6586 28.8279V28.8269ZM52.778 31.49C52.1447 31.8398 51.4078 32.0228 50.6447 32.0228C48.418 32.0228 46.7984 30.4354 46.7984 28.2509C46.7984 26.0663 48.4149 24.4789 50.6447 24.4789C51.4872 24.4789 52.2442 24.7162 52.8916 25.1816L54.664 23.8787L54.5474 23.7782C53.5129 22.8694 52.1316 22.3909 50.5492 22.3909C48.8332 22.3909 47.2759 22.9679 46.166 24.0145C45.0501 25.068 44.4329 26.5509 44.4329 28.1895C44.4329 29.8352 45.0461 31.3382 46.16 32.4259C47.2759 33.5147 48.8301 34.1149 50.5321 34.1149C52.3115 34.1149 53.8698 33.4946 54.9234 32.3666C54.1091 31.7695 53.3249 31.1914 53.3249 31.1914L52.779 31.49H52.778Z" fill="#21A038"/>
<path d="M55.5406 42.1926L51.8612 48.2587H50.8317L47.0739 42.277V50.771H45.03V39.3586H47.6137L51.4058 45.5695L55.1646 39.3586H57.5834V50.771H55.5406V42.1926ZM67.6979 45.8278H62.4361V48.892H68.4841V50.7669H60.3923V39.3556H68.3031V41.2295H62.4361V43.9529H67.6979V45.8278ZM78.5151 41.2305H72.7949V50.7669H70.7531V39.3556H78.5161V41.2295L78.5151 41.2305ZM89.0237 50.7669H86.8502L85.7564 48.0606H80.5107L79.432 50.7669H77.357L81.9976 39.3556H84.3178L89.0227 50.7659L89.0237 50.7669ZM85.0024 46.1857L83.1225 41.506L81.2426 46.1857H85.0024ZM104.522 42.1916L100.842 48.2577H99.8138L96.0549 42.276V50.769H94.0121V39.3586H96.5958L100.388 45.5684L104.146 39.3586H106.566V50.769H104.522V42.1916ZM119.671 50.7669H117.5L116.403 48.0606H111.158L110.078 50.7669H108.004L112.645 39.3556H114.965L119.672 50.7659L119.671 50.7669ZM115.654 46.1857L113.775 41.506L111.895 46.1857H115.655H115.654ZM123.171 47.2142V50.771H121.127V39.3586H124.934C126.743 39.3586 128.054 39.6823 128.865 40.3277C129.676 40.9731 130.083 41.9403 130.083 43.22C130.083 44.5571 129.648 45.5574 128.775 46.2199C127.904 46.8824 126.624 47.2152 124.934 47.2152H123.171V47.2142ZM123.171 41.2295V45.3372H125.084C126.042 45.3372 126.763 45.1713 127.24 44.8416C127.721 44.5088 127.958 43.9529 127.958 43.1698C127.958 42.465 127.735 41.9634 127.289 41.6698C126.841 41.3763 126.118 41.2295 125.115 41.2295H123.171ZM134.215 50.7669H132.173V39.3556H134.215V44.1479H135.93L139.608 39.3556H142.092L137.728 44.7843L142.796 50.7659H140.181L136.03 45.8278H134.215V50.7669ZM151.557 45.8278H146.295V48.892H152.343V50.7669H144.251V39.3556H152.162V41.2295H146.295V43.9529H151.557V45.8278ZM163.109 41.2305H159.252V50.7669H157.208V41.2295H153.416V39.3556H163.106V41.2295H163.109V41.2305Z" fill="#632895"/>
</g>
<defs>
<linearGradient id="paint0_linear_2021_8193" x1="22.0456" y1="34.9887" x2="19.7806" y2="28.423" gradientUnits="userSpaceOnUse">
<stop offset="0.144" stop-color="#F2E913"/>
<stop offset="0.304" stop-color="#E7E518"/>
<stop offset="0.582" stop-color="#CADB26"/>
<stop offset="0.891" stop-color="#A3CD39"/>
</linearGradient>
<linearGradient id="paint1_linear_2021_8193" x1="22.9243" y1="21.3525" x2="28.7199" y2="19.1388" gradientUnits="userSpaceOnUse">
<stop offset="0.059" stop-color="#0FA8E0"/>
<stop offset="0.538" stop-color="#0099F9"/>
<stop offset="0.923" stop-color="#0291EB"/>
</linearGradient>
<linearGradient id="paint2_linear_2021_8193" x1="28.5046" y1="36.2092" x2="35.4091" y2="34.6449" gradientUnits="userSpaceOnUse">
<stop offset="0.123" stop-color="#A3CD39"/>
<stop offset="0.285" stop-color="#86C339"/>
<stop offset="0.869" stop-color="#21A038"/>
</linearGradient>
<linearGradient id="paint3_linear_2021_8193" x1="28.6675" y1="20.1876" x2="34.4099" y2="21.964" gradientUnits="userSpaceOnUse">
<stop offset="0.057" stop-color="#0291EB"/>
<stop offset="0.79" stop-color="#0C8ACB"/>
</linearGradient>
<linearGradient id="paint4_linear_2021_8193" x1="22.5143" y1="35.2773" x2="28.6829" y2="37.5875" gradientUnits="userSpaceOnUse">
<stop offset="0.132" stop-color="#F2E913"/>
<stop offset="0.298" stop-color="#EBE716"/>
<stop offset="0.531" stop-color="#D9E01F"/>
<stop offset="0.802" stop-color="#BBD62D"/>
<stop offset="0.983" stop-color="#A3CD39"/>
</linearGradient>
<linearGradient id="paint5_linear_2021_8193" x1="21.1568" y1="28.7055" x2="23.6068" y2="22.3187" gradientUnits="userSpaceOnUse">
<stop offset="0.07" stop-color="#A3CD39"/>
<stop offset="0.26" stop-color="#81C55F"/>
<stop offset="0.922" stop-color="#0FA8E0"/>
</linearGradient>
<clipPath id="clip0_2021_8193">
<rect width="144" height="32" fill="white" transform="translate(19.1665 18.5)"/>
</clipPath>
</defs>
</svg>
