<svg width="182" height="69" viewBox="0 0 182 69" fill="none" xmlns="http://www.w3.org/2000/svg">
<path d="M77.4253 33.4557C77.4253 27.1841 82.53 22.1 88.827 22.1C95.1239 22.1 100.229 27.1841 100.229 33.4557C100.229 39.7272 95.1239 44.8113 88.827 44.8113C82.53 44.8113 77.4253 39.7272 77.4253 33.4557Z" fill="url(#paint0_linear_2021_8227)"/>
<path fill-rule="evenodd" clip-rule="evenodd" d="M79.2435 39.6086C78.4814 38.4336 77.9311 37.1094 77.6467 35.6898L83.7174 28.4799L87.0179 30.3755L86.4143 34.2819L92.4725 25.6743L96.6843 27.2058L95.6733 32.9276L99.4039 29.2051C99.9359 30.5178 100.23 31.9523 100.23 33.4551C100.23 33.5209 100.229 33.5866 100.228 33.6522L93.8049 40.0544L90.4589 38.1262L91.8036 33.1433L85.6664 41.8562L81.5359 40.3663L82.8691 35.2986L79.2435 39.6086Z" fill="black"/>
<path d="M112.359 41.7827H114.83L118.338 28.8653V41.7827H121.154V24.6833H117.276L113.793 37.2805L110.358 24.6833H106.406V41.7827H108.852V28.8653L112.359 41.7827ZM132.919 33.3431C132.919 30.3415 131.388 29.2097 128.275 29.2097C126.324 29.2097 124.793 29.8252 123.903 30.3415V32.7777C124.694 32.1871 126.423 31.5475 127.93 31.5475C129.338 31.5475 129.98 32.0396 129.98 33.3681V34.0571H129.51C125.015 34.0571 123.014 35.5333 123.014 38.0429C123.014 40.5525 124.546 41.9553 126.818 41.9553C128.547 41.9553 129.288 41.3891 129.857 40.7985H129.98C130.004 41.118 130.104 41.5366 130.202 41.7827H133.067C132.969 40.777 132.919 39.7672 132.919 38.7568V33.3439V33.3431ZM129.98 38.8302C129.609 39.3716 128.918 39.8144 127.88 39.8144C126.645 39.8144 126.027 39.0763 126.027 37.9687C126.027 36.5174 127.04 36.0004 129.56 36.0004H129.98V38.8302ZM138.001 29.4065H135.283V45.3499H138.223V40.3307C138.964 41.4383 140.051 42.0288 141.311 42.0288C144.176 42.0288 146.153 39.7402 146.153 35.5825C146.153 31.449 144.226 29.1612 141.46 29.1612C140.075 29.1612 138.939 29.801 138.149 31.0062L138.001 29.4065ZM140.57 39.716C139.013 39.716 138.223 38.4615 138.223 35.6075C138.223 32.7285 139.063 31.474 140.718 31.474C142.323 31.474 143.114 32.7285 143.114 35.5825C143.114 38.4615 142.274 39.716 140.57 39.716ZM155.405 41.7827H158.74L154.022 35.1147L158.172 29.4065H155.207L151.057 35.1147V29.4065H148.118V41.7827H151.057V35.7059L155.405 41.7827ZM168.629 40.9462V38.56C167.715 39.1747 166.183 39.716 164.75 39.716C162.602 39.716 161.787 38.7076 161.663 36.6401H168.753V35.0905C168.753 30.7844 166.851 29.1612 163.911 29.1612C160.33 29.1612 158.624 31.892 158.624 35.6317C158.624 39.9378 160.749 42.0288 164.503 42.0288C166.382 42.0288 167.765 41.5367 168.629 40.9462ZM163.861 31.474C165.319 31.474 165.764 32.6793 165.764 34.2296V34.4757H161.663C161.737 32.5074 162.454 31.474 163.861 31.474ZM179.211 31.7201V29.4065H169.354V31.7201H172.813V41.7827H175.752V31.7193H179.211V31.7201Z" fill="black"/>
<path d="M68.0817 42.0236C69.4415 42.0236 70.4046 41.7794 71.1223 41.2534V38.8676C70.3858 39.3748 69.4981 39.6942 68.2516 39.6942C66.1553 39.6942 65.2866 38.0787 65.2866 35.5238C65.2866 32.8374 66.3442 31.4661 68.2705 31.4661C69.4037 31.4661 70.518 31.8605 71.1034 32.2362V29.7565C70.4802 29.4184 69.4037 29.1742 67.9306 29.1742C64.1723 29.1742 62.2271 31.8605 62.2271 35.6176C62.2459 39.7317 64.1534 42.0236 68.0817 42.0236ZM49.7057 40.934V38.5483C48.7991 39.1682 47.2505 39.7129 45.8341 39.7129C43.6811 39.7129 42.869 38.6986 42.7368 36.6321H49.8379V35.0917C49.8379 30.7898 47.9304 29.1742 45.0031 29.1742C41.4148 29.1742 39.7151 31.8981 39.7151 35.6364C39.7151 39.9384 41.8492 42.0236 45.5886 42.0236C47.4583 42.0236 48.837 41.5165 49.7057 40.934ZM22.7555 29.3996V34.2839H18.8272V29.3996H15.8811V41.7794H18.8272V36.6133H22.7555V41.7794H25.7017V29.3996H22.7555ZM38.9785 39.45H37.6754V29.3996H29.1012V30.4516C29.1012 33.4761 28.9124 37.3836 27.8736 39.45H26.9294V44.5973H29.6489V41.7794H36.24V44.5973H38.9596V39.45H38.9785ZM59.092 41.7794H62.4348L57.7133 35.1105L61.8682 29.3996H58.9031L54.7482 35.1105V29.3996H51.8021V41.7794H54.7482V35.6928L59.092 41.7794ZM44.9276 31.4661C46.3817 31.4661 46.835 32.6683 46.835 34.2276V34.4718H42.7368C42.8123 32.4992 43.53 31.4661 44.9276 31.4661ZM34.7292 39.45H30.5743C31.3864 37.5902 31.613 34.2088 31.613 32.0672V31.6915H34.7292V39.45Z" fill="black"/>
<path d="M13.4259 41.7792H10.4231V26.9949H9.08221C6.62705 26.9949 5.3428 28.2159 5.3428 30.0382C5.3428 32.1046 6.23044 33.0626 8.06238 34.2837L9.57325 35.2982L5.22949 41.7792H2L5.90939 35.9932C3.66196 34.3964 2.3966 32.8372 2.3966 30.2072C2.3966 26.9197 4.70069 24.6842 9.06333 24.6842H13.4071V41.7792H13.4259Z" fill="#FC3F1D"/>
<defs>
<linearGradient id="paint0_linear_2021_8227" x1="88.827" y1="16.6954" x2="88.827" y2="46.9674" gradientUnits="userSpaceOnUse">
<stop stop-color="#FFE55B"/>
<stop offset="1" stop-color="#FFCC00"/>
</linearGradient>
</defs>
</svg>
