<svg width="90" height="20" viewBox="0 0 90 20" fill="none" xmlns="http://www.w3.org/2000/svg">
<g clip-path="url(#clip0)">
<path d="M11.0219 2.51611C11.3095 2.88668 11.553 3.28942 11.7476 3.71621L6.23096 7.77266L3.92627 6.33129V4.59712L6.23096 6.03849L11.0219 2.51611V2.51611Z" fill="#21A038"/>
<path d="M1.57455 6.20931C1.57455 6.1314 1.57643 6.05411 1.5802 5.97683L0.183439 5.90771C0.14016 6.75109 0.275014 7.59413 0.579219 8.38193C0.883425 9.16972 1.35016 9.88461 1.94903 10.48L2.93926 9.4923C2.50658 9.06207 2.16325 8.55052 1.92904 7.98709C1.69483 7.42367 1.57435 6.81948 1.57455 6.20931V6.20931Z" fill="url(#paint0_linear)"/>
<path d="M6.23037 1.56479C6.30828 1.56479 6.38556 1.5673 6.46285 1.57107L6.53259 0.177454C5.68787 0.133892 4.84341 0.268144 4.05384 0.571523C3.26428 0.874903 2.54719 1.34065 1.94897 1.93864L2.93921 2.92699C3.37126 2.49466 3.88435 2.1518 4.4491 1.91805C5.01384 1.6843 5.61916 1.56426 6.23037 1.56479V1.56479Z" fill="url(#paint1_linear)"/>
<path d="M6.23093 10.8538C6.15302 10.8538 6.07574 10.8519 5.99845 10.8475L5.92871 12.2411C6.77343 12.2847 7.61789 12.1504 8.40746 11.847C9.19703 11.5437 9.91411 11.0779 10.5123 10.4799L9.52209 9.49219C9.08989 9.92427 8.57676 10.2669 8.01204 10.5006C7.44731 10.7342 6.84208 10.8542 6.23093 10.8538V10.8538Z" fill="url(#paint2_linear)"/>
<path d="M8.8556 2.37535L10.0331 1.50952C8.95653 0.640378 7.61407 0.167457 6.23047 0.169932V1.56481C7.1673 1.5636 8.08253 1.84619 8.8556 2.37535V2.37535Z" fill="url(#paint3_linear)"/>
<path d="M12.2849 6.20844C12.2849 5.83898 12.2516 5.4777 12.1875 5.12646L10.885 6.08403L10.8869 6.20781C10.8869 7.57127 10.2944 8.79964 9.35376 9.65039L10.2931 10.6871C10.9208 10.1222 11.4226 9.43143 11.7657 8.6598C12.1089 7.88817 12.2858 7.05294 12.2849 6.20844V6.20844Z" fill="#21A038"/>
<path d="M6.23107 10.8532C5.58089 10.8536 4.93785 10.7176 4.34347 10.4541C3.74909 10.1906 3.21658 9.80533 2.78032 9.32324L1.7417 10.2607C2.30933 10.8876 3.00218 11.3885 3.77549 11.731C4.54879 12.0734 5.38533 12.2498 6.23107 12.2487V10.8538V10.8532Z" fill="url(#paint4_linear)"/>
<path d="M3.10817 2.76769L2.1682 1.73096C1.5404 2.29586 1.03855 2.9866 0.695275 3.75823C0.352003 4.52986 0.175002 5.3651 0.175784 6.20964H1.57443C1.57443 4.84618 2.16694 3.61781 3.10817 2.76769Z" fill="url(#paint5_linear)"/>
<path d="M34.9635 3.71468L36.5815 2.52526H31.1697V9.66427H36.5815V8.47674H32.7135V6.64832H36.0128V5.4589H32.7135V3.71468H34.9635V3.71468ZM27.0831 5.30936H25.2038V3.71405H28.2047L29.8226 2.52463H23.6581V9.66364H26.8833C28.6922 9.66364 29.729 8.84682 29.729 7.42052C29.729 6.05895 28.789 5.3081 27.0831 5.3081V5.30936ZM26.8142 8.47674H25.2044V6.49815H26.8148C27.795 6.49815 28.2511 6.82927 28.2511 7.48838C28.2511 8.16006 27.7673 8.47674 26.8148 8.47674H26.8142ZM40.9659 2.52526H38.0197V9.66427H39.5635V7.64169H40.9659C42.8471 7.64169 44.0145 6.65523 44.0145 5.08002C44.0145 3.50482 42.8458 2.52526 40.9659 2.52526V2.52526ZM40.9326 6.45416H39.5635V3.71468H40.9326C41.9216 3.71468 42.4676 4.201 42.4676 5.08505C42.4676 5.96784 41.9216 6.45479 40.9326 6.45479V6.45416ZM21.0072 8.11859C20.6114 8.33725 20.1508 8.4516 19.6739 8.4516C18.2822 8.4516 17.2699 7.45948 17.2699 6.09414C17.2699 4.72879 18.2803 3.73667 19.6739 3.73667C20.2004 3.73667 20.6736 3.88495 21.0782 4.17587L22.1859 3.36156L22.1131 3.29873C21.4665 2.73072 20.6032 2.43164 19.6142 2.43164C18.5417 2.43164 17.5684 2.7923 16.8747 3.44638C16.1773 4.10486 15.7915 5.03164 15.7915 6.05581C15.7915 7.08437 16.1748 8.02372 16.871 8.70356C17.5684 9.38403 18.5398 9.75914 19.6035 9.75914C20.7157 9.75914 21.6896 9.37147 22.3481 8.66649C21.8391 8.29327 21.349 7.93198 21.349 7.93198L21.0078 8.11859H21.0072Z" fill="#21A038"/>
<path d="M22.7339 14.8078L20.4342 18.5991H19.7908L17.4422 14.8606V20.1693H16.1648V13.0366H17.7796L20.1496 16.9183L22.4989 13.0366H24.0107V20.1693H22.7339V14.8078ZM30.3322 17.0798H27.0436V18.9949H30.8236V20.1668H25.7662V13.0347H30.7105V14.2059H27.0436V15.908H30.3322V17.0798ZM37.093 14.2065H33.5178V20.1668H32.2417V13.0347H37.0936V14.2059L37.093 14.2065ZM43.6608 20.1668H42.3024L41.6188 18.4753H38.3402L37.666 20.1668H36.3691L39.2695 13.0347H40.7197L43.6602 20.1661L43.6608 20.1668ZM41.1475 17.3035L39.9726 14.3787L38.7976 17.3035H41.1475ZM53.3471 14.8072L51.0474 18.5985H50.4046L48.0553 14.8599V20.168H46.7786V13.0366H48.3934L50.7634 16.9177L53.1121 13.0366H54.6244V20.168H53.3471V14.8072V14.8072ZM62.8159 20.1668H61.4587L60.7726 18.4753H57.4946L56.8198 20.1668H55.5236L58.4239 13.0347H59.8741L62.8165 20.1661L62.8159 20.1668ZM60.3045 17.3035L59.1301 14.3787L57.9552 17.3035H60.3051H60.3045ZM65.0031 17.9463V20.1693H63.7257V13.0366H66.1052C67.2355 13.0366 68.0548 13.2389 68.5619 13.6423C69.069 14.0456 69.3234 14.6501 69.3234 15.4499C69.3234 16.2856 69.0514 16.9108 68.5054 17.3249C67.9612 17.7389 67.1614 17.9469 66.1052 17.9469H65.0031V17.9463ZM65.0031 14.2059V16.7732H66.1988C66.7976 16.7732 67.2481 16.6695 67.5465 16.4634C67.8469 16.2555 67.9952 15.908 67.9952 15.4185C67.9952 14.9781 67.8557 14.6645 67.5767 14.4811C67.2971 14.2976 66.8453 14.2059 66.2183 14.2059H65.0031ZM71.9058 20.1668H70.6291V13.0347H71.9058V16.0299H72.9778L75.2762 13.0347H76.8287L74.1012 16.4276L77.2686 20.1661H75.6343L73.04 17.0798H71.9058V20.1668ZM82.7444 17.0798H79.4558V18.9949H83.2358V20.1668H78.1784V13.0347H83.1227V14.2059H79.4558V15.908H82.7444V17.0798V17.0798ZM89.9645 14.2065H87.5536V20.1668H86.2762V14.2059H83.9062V13.0347H89.9626V14.2059H89.9645V14.2065Z" fill="#632895"/>
</g>
<defs>
<linearGradient id="paint0_linear" x1="1.79949" y1="10.3053" x2="0.383874" y2="6.20177" gradientUnits="userSpaceOnUse">
<stop offset="0.144" stop-color="#F2E913"/>
<stop offset="0.304" stop-color="#E7E518"/>
<stop offset="0.582" stop-color="#CADB26"/>
<stop offset="0.891" stop-color="#A3CD39"/>
</linearGradient>
<linearGradient id="paint1_linear" x1="2.34859" y1="1.78282" x2="5.97087" y2="0.399252" gradientUnits="userSpaceOnUse">
<stop offset="0.059" stop-color="#0FA8E0"/>
<stop offset="0.538" stop-color="#0099F9"/>
<stop offset="0.923" stop-color="#0291EB"/>
</linearGradient>
<linearGradient id="paint2_linear" x1="5.83635" y1="11.068" x2="10.1517" y2="10.0904" gradientUnits="userSpaceOnUse">
<stop offset="0.123" stop-color="#A3CD39"/>
<stop offset="0.285" stop-color="#86C339"/>
<stop offset="0.869" stop-color="#21A038"/>
</linearGradient>
<linearGradient id="paint3_linear" x1="5.9383" y1="1.05461" x2="9.52728" y2="2.16486" gradientUnits="userSpaceOnUse">
<stop offset="0.057" stop-color="#0291EB"/>
<stop offset="0.79" stop-color="#0C8ACB"/>
</linearGradient>
<linearGradient id="paint4_linear" x1="2.0923" y1="10.4856" x2="5.94769" y2="11.9295" gradientUnits="userSpaceOnUse">
<stop offset="0.132" stop-color="#F2E913"/>
<stop offset="0.298" stop-color="#EBE716"/>
<stop offset="0.531" stop-color="#D9E01F"/>
<stop offset="0.802" stop-color="#BBD62D"/>
<stop offset="0.983" stop-color="#A3CD39"/>
</linearGradient>
<linearGradient id="paint5_linear" x1="1.24393" y1="6.37866" x2="2.77516" y2="2.38693" gradientUnits="userSpaceOnUse">
<stop offset="0.07" stop-color="#A3CD39"/>
<stop offset="0.26" stop-color="#81C55F"/>
<stop offset="0.922" stop-color="#0FA8E0"/>
</linearGradient>
<clipPath id="clip0">
<rect width="90" height="20" fill="white"/>
</clipPath>
</defs>
</svg>
