<svg width="141" height="32" viewBox="0 0 141 32" fill="none" xmlns="http://www.w3.org/2000/svg">
<g clip-path="url(#clip0)">
<path fill-rule="evenodd" clip-rule="evenodd" d="M131.186 19.2067L128.91 20.5208C129.742 22.9483 132 24.4085 135.109 24.4267C136.812 24.4267 138.181 24.0252 139.218 23.1856C140.273 22.346 140.791 21.1961 140.791 19.7725C140.902 18.2575 139.995 17.1807 139.144 16.5236C138.903 16.3229 138.496 16.0856 137.978 15.8848C137.88 15.8456 137.787 15.8078 137.698 15.7717C137.33 15.6227 137.032 15.502 136.793 15.4285C136.516 15.3191 136.072 15.1731 135.461 14.9724L135.461 14.9722C132.999 14.2239 132.222 13.6764 132.222 12.5082C132.222 11.3036 133.203 10.537 134.739 10.537C136.312 10.537 137.441 11.2853 138.107 12.7455L140.328 11.4861C139.292 9.31414 137.312 8 134.739 8C133.314 8 132.093 8.40152 131.093 9.24116C130.075 10.0625 129.575 11.1576 129.575 12.563C129.575 13.9866 130.094 15.027 131.13 15.757C132.204 16.4506 132.962 16.7426 134.499 17.199C135.868 17.6005 136.83 17.9838 137.349 18.3306C137.867 18.6591 138.144 19.1337 138.144 19.7907C138.144 21.0318 137.163 21.8714 135.165 21.8714C133.148 21.8714 131.834 20.9953 131.186 19.2067ZM4.29758 24.1266L0 8.2837H2.81908L6.12106 20.4518L9.65991 8.28264L12.2878 8.2837L15.839 20.5165L19.1558 8.28669L21.9748 8.28264L17.6754 24.1237L14.4078 24.1204L10.9749 12.2892L7.53881 24.1234L4.29758 24.1266ZM23.9189 8.292H26.6024V24.1164H23.9189V8.292ZM38.8725 21.6341H32.3395V8.292H29.7115V24.1164H38.8725V21.6341ZM47.1267 8.31024C49.329 8.31024 51.1612 9.07684 52.6048 10.5917C54.0668 12.1066 54.8071 13.9866 54.8071 16.2133C54.8071 18.4218 54.0668 20.3017 52.6048 21.8349C51.1612 23.3498 49.329 24.1164 47.1267 24.1164H40.8158V8.292H47.1267V8.31024ZM47.1267 21.6524C48.6442 21.6524 49.8842 21.1413 50.8096 20.1192C51.772 19.0971 52.2531 17.783 52.2531 16.2316C52.2531 14.6437 51.772 13.366 50.8096 12.3439C49.8657 11.3218 48.6258 10.8107 47.1267 10.8107H43.4623V21.6524H47.1267ZM67.5589 22.8281C68.5029 21.9698 68.9651 20.8923 68.9651 19.5958C68.9651 17.9523 68.1139 16.6375 66.7076 15.907C67.7807 15.1218 68.3362 14.0626 68.3362 12.6747C68.3362 11.433 67.8921 10.392 66.9664 9.55204C66.0594 8.7303 64.9494 8.292 63.6353 8.292H57.2689V24.1246H64.1351C65.5044 24.1246 66.6149 23.6863 67.5589 22.8281ZM59.9152 14.9026V10.739H63.6535C64.8197 10.739 65.708 11.6521 65.708 12.8208C65.708 13.9895 64.8197 14.9026 63.6535 14.9026H59.9152ZM66.3375 19.468C66.3375 20.7097 65.3747 21.6776 64.1533 21.6776V21.6958H59.9152V17.2583H64.1533C65.3747 17.2583 66.3375 18.2262 66.3375 19.468ZM74.0915 21.641H81.1984V24.1246H71.4639V8.292H81.0876V10.7755H74.0915V14.8843H80.5138V17.3496H74.0915V21.641ZM89.3043 18.354L92.71 24.1246H95.6151L91.9696 17.9705C93.8757 17.24 95.1528 15.3957 95.1528 13.3869C95.1528 11.9625 94.6342 10.7573 93.6351 9.78941C92.6542 8.78503 91.4328 8.292 89.989 8.292H83.5673V24.1246H86.195V18.354H89.3043ZM86.195 16.0348V10.739H89.9708C91.3588 10.739 92.4876 11.926 92.4876 13.3869C92.4876 14.8661 91.377 16.0348 89.9708 16.0348H86.195ZM106.757 24.1246L103.37 18.351H100.26V24.1246H97.6328V8.28379H104.054C105.498 8.28379 106.72 8.77711 107.701 9.78202C108.7 10.7504 109.218 11.9562 109.218 13.3813C109.218 15.3912 107.941 17.2365 106.035 17.9673L109.681 24.1246H106.757ZM100.26 10.7321V16.0306H104.036C105.443 16.0306 106.553 14.8613 106.553 13.3813C106.553 11.9197 105.424 10.7321 104.036 10.7321H100.26ZM114.234 8.28569H111.606V24.1247H114.234V8.28569ZM119.971 21.641H127.078V24.1245H117.343V8.292H126.966V10.7755H119.971V14.8843H126.393V17.3496H119.971V21.641Z" fill="#BE11A5"/>
</g>
<defs>
<clipPath id="clip0">
<rect width="140.8" height="32" fill="white"/>
</clipPath>
</defs>
</svg>
