<svg width="88" height="20" viewBox="0 0 88 20" fill="none" xmlns="http://www.w3.org/2000/svg">
<path fill-rule="evenodd" clip-rule="evenodd" d="M81.9911 12.0042L80.5685 12.8255C81.0888 14.3427 82.5001 15.2553 84.4434 15.2667C85.5075 15.2667 86.3633 15.0157 87.0112 14.491C87.6705 13.9662 87.9942 13.2476 87.9942 12.3578C88.0635 11.411 87.497 10.7379 86.965 10.3273C86.8147 10.2018 86.5602 10.0535 86.236 9.92801C86.1751 9.90352 86.1168 9.8799 86.061 9.85732C85.8311 9.7642 85.6448 9.68874 85.4957 9.64282C85.3224 9.57442 85.0449 9.4832 84.6634 9.35775L84.663 9.35763C83.1245 8.88994 82.6387 8.54773 82.6387 7.81762C82.6387 7.06474 83.2517 6.58562 84.2121 6.58562C85.1951 6.58562 85.9006 7.05334 86.3171 7.96594L87.7053 7.17881C87.0574 5.82134 85.8199 5 84.2121 5C83.3214 5 82.558 5.25095 81.9332 5.77572C81.297 6.28906 80.9846 6.97348 80.9846 7.85187C80.9846 8.74162 81.3088 9.39187 81.9563 9.84815C82.6273 10.2816 83.1014 10.4642 84.0617 10.7493C84.9175 11.0003 85.5189 11.2399 85.843 11.4566C86.1668 11.6619 86.3402 11.9585 86.3402 12.3692C86.3402 13.1449 85.7271 13.6696 84.4779 13.6696C83.2173 13.6696 82.3959 13.1221 81.9911 12.0042ZM2.68599 15.0791L0 5.17731H1.76193L3.82566 12.7824L6.03744 5.17665L7.67986 5.17731L9.89937 12.8228L11.9724 5.17918L13.7343 5.17665L11.0471 15.0773L9.00488 15.0752L6.85933 7.68073L4.71175 15.0772L2.68599 15.0791ZM14.9493 5.1825H16.6265V15.0727H14.9493V5.1825ZM24.2953 13.5213H20.2122V5.1825H18.5697V15.0727H24.2953V13.5213ZM29.4542 5.1939C30.8306 5.1939 31.9758 5.67303 32.878 6.61984C33.7918 7.56664 34.2545 8.74163 34.2545 10.1333C34.2545 11.5136 33.7918 12.6886 32.878 13.6468C31.9758 14.5936 30.8306 15.0727 29.4542 15.0727H25.5099V5.1825H29.4542V5.1939ZM29.4542 13.5327C30.4027 13.5327 31.1776 13.2133 31.756 12.5745C32.3575 11.9357 32.6582 11.1144 32.6582 10.1447C32.6582 9.1523 32.3575 8.35377 31.756 7.71496C31.1661 7.07612 30.3911 6.75671 29.4542 6.75671H27.164V13.5327H29.4542ZM42.2243 14.2675C42.8143 13.7311 43.1032 13.0577 43.1032 12.2474C43.1032 11.2202 42.5712 10.3984 41.6923 9.94188C42.3629 9.4511 42.7101 8.78911 42.7101 7.92169C42.7101 7.1456 42.4326 6.49502 41.854 5.97003C41.2871 5.45644 40.5934 5.1825 39.772 5.1825H35.793V15.0779H40.0844C40.9402 15.0779 41.6343 14.804 42.2243 14.2675ZM37.447 9.31415V6.71191H39.7834C40.5123 6.71191 41.0675 7.28255 41.0675 8.01303C41.0675 8.74346 40.5123 9.31415 39.7834 9.31415H37.447ZM41.4609 12.1675C41.4609 12.9436 40.8592 13.5485 40.0958 13.5485V13.5599H37.447V10.7865H40.0958C40.8592 10.7865 41.4609 11.3914 41.4609 12.1675ZM46.3072 13.5257H50.749V15.0779H44.6649V5.1825H50.6797V6.73471H46.3072V9.30271H50.3211V10.8435H46.3072V13.5257ZM55.8152 11.4713L57.9437 15.0779H59.7595L57.481 11.2316C58.6723 10.775 59.4705 9.62229 59.4705 8.36682C59.4705 7.47659 59.1464 6.72331 58.522 6.11838C57.9089 5.49065 57.1455 5.1825 56.2431 5.1825H52.2296V15.0779H53.8719V11.4713H55.8152ZM53.8719 10.0217V6.71187H56.2317C57.0993 6.71187 57.8048 7.45375 57.8048 8.36682C57.8048 9.2913 57.1106 10.0217 56.2317 10.0217H53.8719ZM66.7229 15.0779L64.6062 11.4694H62.6628V15.0779H61.0205V5.17737H65.0341C65.9364 5.17737 66.6998 5.4857 67.3129 6.11376C67.9373 6.71898 68.2615 7.47263 68.2615 8.36334C68.2615 9.61947 67.4632 10.7728 66.2719 11.2296L68.5504 15.0779H66.7229ZM62.6628 6.70754V10.0191H65.0227C65.9016 10.0191 66.5957 9.2883 66.5957 8.36334C66.5957 7.44983 65.8902 6.70754 65.0227 6.70754H62.6628ZM71.3961 5.17856H69.7535V15.078H71.3961V5.17856ZM74.9819 13.5257H79.4237V15.0778H73.3392V5.1825H79.354V6.73471H74.9819V9.30271H78.9954V10.8435H74.9819V13.5257Z" fill="#BE11A5"/>
</svg>
