<svg width="57" height="20" viewBox="0 0 57 20" fill="none" xmlns="http://www.w3.org/2000/svg">
<path fill-rule="evenodd" clip-rule="evenodd" d="M6.88572 4.03302C5.60514 3.90316 4.3142 4.15831 3.19036 4.76339C2.06652 5.36847 1.16495 6.29378 0.609556 7.41213C0.0541671 8.53048 -0.127771 9.78697 0.0887509 11.0089C0.305272 12.2308 0.909624 13.3582 1.81874 14.2361C2.72785 15.1139 3.89709 15.6992 5.16575 15.9114C6.43442 16.1236 7.74021 15.9524 8.90367 15.4212C10.0671 14.89 11.0311 14.025 11.6631 12.945C12.2952 11.865 12.5642 10.6231 12.4333 9.38991C12.2892 8.01918 11.6589 6.73811 10.6484 5.7624C9.638 4.7867 8.30918 4.17596 6.88572 4.03302V4.03302ZM6.68375 13.1752C5.99502 13.2642 5.29464 13.1431 4.68106 12.8291C4.06747 12.5151 3.57153 12.0238 3.26292 11.4245C2.95432 10.8251 2.84858 10.1477 2.96055 9.4875C3.07252 8.82729 3.39658 8.21745 3.88718 7.74369C4.37779 7.26993 5.01027 6.95607 5.69574 6.84621C6.38122 6.73636 7.08522 6.83604 7.7088 7.13124C8.33239 7.42644 8.84421 7.90232 9.17234 8.492C9.50046 9.08168 9.62839 9.75552 9.53815 10.4188C9.44345 11.1165 9.11248 11.7646 8.59646 12.2629C8.08045 12.7612 7.40819 13.0819 6.68375 13.1752V13.1752ZM15.7669 4.27039C15.5508 4.27088 15.3374 4.31777 15.1424 4.40763C14.9475 4.49749 14.7757 4.62807 14.6398 4.78986C14.5038 4.95165 14.407 5.14058 14.3565 5.34291C14.3059 5.54524 14.3029 5.75587 14.3475 5.95948C14.4843 6.61913 15.1243 7.06984 15.8215 7.06984H19.8677L13.5709 15.0916C13.5244 15.1508 13.4959 15.2213 13.4886 15.2953C13.4813 15.3692 13.4956 15.4437 13.5298 15.5102C13.564 15.5768 13.6168 15.6329 13.6823 15.6722C13.7478 15.7115 13.8233 15.7325 13.9005 15.7328H23.7777C24.4744 15.7328 25.1149 15.2822 25.2517 14.6224C25.2964 14.4188 25.2933 14.2082 25.2428 14.0059C25.1923 13.8036 25.0956 13.6147 24.9597 13.4529C24.8238 13.2911 24.6521 13.1605 24.4572 13.0706C24.2623 12.9806 24.049 12.9337 23.8329 12.9331H18.9029L25.1949 4.91756C25.2419 4.85777 25.2707 4.78654 25.278 4.71187C25.2853 4.63721 25.2709 4.56205 25.2363 4.49485C25.2017 4.42764 25.1484 4.37104 25.0822 4.33139C25.0161 4.29174 24.9398 4.27062 24.8619 4.27039H15.7669V4.27039ZM55.2355 4.30268C54.9085 4.37753 54.6178 4.55757 54.4115 4.81304C54.2052 5.0685 54.0957 5.38409 54.101 5.70761V10.3686L46.2554 4.35842C46.1939 4.31141 46.1198 4.28207 46.0417 4.27378C45.9637 4.26549 45.8847 4.27858 45.814 4.31156C45.7433 4.34454 45.6838 4.39606 45.6421 4.46019C45.6005 4.52432 45.5785 4.59846 45.5788 4.67408V14.298C45.5734 14.6216 45.683 14.9372 45.8892 15.1926C46.0955 15.4481 46.3862 15.6281 46.7132 15.703C46.9256 15.7479 47.1457 15.7465 47.3574 15.6986C47.5691 15.6508 47.7669 15.5578 47.9362 15.4265C48.1056 15.2953 48.2422 15.1291 48.3359 14.9403C48.4297 14.7514 48.4782 14.5447 48.4779 14.3354V9.63408L56.3236 15.6444C56.3851 15.6914 56.4591 15.7207 56.5372 15.729C56.6152 15.7373 56.6941 15.7242 56.7648 15.6912C56.8354 15.6582 56.895 15.6067 56.9366 15.5426C56.9782 15.4785 57.0002 15.4044 57 15.3288V5.66977C57.0002 5.46052 56.9517 5.25388 56.8579 5.0651C56.7641 4.87632 56.6275 4.71021 56.4582 4.57901C56.2889 4.44781 56.0911 4.35487 55.8795 4.30704C55.6678 4.25922 55.4478 4.25773 55.2355 4.30268V4.30268ZM34.8077 6.80188C38.1262 6.80188 40.6057 8.49007 40.6057 10.0002C40.6057 11.5102 38.1262 13.1984 34.8077 13.1984C31.4892 13.1984 29.0097 11.5102 29.0097 10.0002C29.0097 8.49007 31.4892 6.80188 34.8077 6.80188V6.80188ZM34.8077 4.00254C30.0043 4.00254 26.1105 6.68779 26.1105 10.0002C26.1105 13.3125 30.0043 15.9978 34.8077 15.9978C39.611 15.9978 43.5047 13.3125 43.5047 10.0002C43.5047 6.68779 39.6109 4.00254 34.8077 4.00254V4.00254Z" fill="#0069FF"/>
</svg>
