<svg width="30" height="30" viewBox="0 0 30 30" fill="none" xmlns="http://www.w3.org/2000/svg">
<path d="M15 0.9375C8.85937 0.9375 3.65625 4.875 1.73438 10.3125H28.2656C26.3438 4.875 21.1406 0.9375 15 0.9375Z" fill="#ED4C5C"/>
<path d="M15 29.0625C21.1406 29.0625 26.3438 25.1719 28.2656 19.6875H1.73438C3.65625 25.1719 8.85937 29.0625 15 29.0625Z" fill="#F2B200"/>
<path d="M1.73438 10.3125C1.21875 11.7656 0.9375 13.3594 0.9375 15C0.9375 16.6406 1.21875 18.2344 1.73438 19.6875H28.2656C28.7812 18.2344 29.0625 16.6406 29.0625 15C29.0625 13.3594 28.7812 11.7656 28.2656 10.3125H1.73438Z" fill="#2A5F9E"/>
</svg>
