<svg width="30" height="30" viewBox="0 0 30 30" fill="none" xmlns="http://www.w3.org/2000/svg">
<path d="M1.5 12.4688V12.9375H1.78125V13.4062H2.0625V12.9375H2.34375V12.4688H2.625V12H2.90625V11.5312H3.1875V11.0625H3.46875V10.5938H3.09375V10.125H2.85937V9.65625H2.01563V10.125H2.57812V10.5938H2.29688V11.0625H2.01563V11.5312H1.73438V11.0625H1.5C1.40625 11.4375 1.3125 11.8594 1.21875 12.2344V12.4219H1.5V12.4688Z" fill="white"/>
<path d="M4.73438 5.39062L4.59375 5.53125H4.73438V5.39062Z" fill="white"/>
<path d="M6.9375 3.70313H6.65625V4.17187H6.375V4.64062H6.09375V5.10938H5.8125V5.57812H5.53125V5.10938H5.25V4.875L4.96875 5.15625V5.57812H5.25V6.04688H5.53125V6.51562H5.25V6.98438H4.96875V7.45312H4.6875V6.98438H4.45313V6.51562H4.21875V6.04688C4.125 6.14062 4.03125 6.28125 3.9375 6.375V6.51562H3.84375C3.75 6.5625 3.70313 6.60938 3.65625 6.70313V6.9375H3.46875C3.42188 6.98438 3.42188 7.03125 3.375 7.07813V7.35938H3.1875C3.09375 7.5 3 7.6875 2.90625 7.82813H3.14062V8.29688H3.42188V8.76563H3.70313V9.23438H3.98438V9.70313H4.21875V9.23438H4.5V8.76563H4.78125V8.29688H5.0625V7.82813H5.34375V7.35938H5.625V6.89063H5.90625V7.35938H6.09375V7.82813H6.375V8.29688H6.65625V8.76563H6.9375V9.23438H7.21875V8.29688H6.9375V7.82813H7.21875V6.46875H6.9375V6.9375H6.65625V7.40625H6.375V6.9375H6.09375V6.46875H5.8125V6H6.09375V5.53125H6.375V5.0625H6.65625V5.53125H6.9375V6H7.21875V4.59375H6.9375V4.125H7.21875V3.32812C7.125 3.375 7.03125 3.46875 6.9375 3.51563V3.70313ZM4.21875 8.29688H3.9375V7.35938H4.21875V8.29688Z" fill="white"/>
<path d="M1.21875 16.5939V16.1251H1.5V15.6564H1.78125V15.1876H2.0625V14.7189H1.73438V14.2501H1.5V13.7814H1.21875V13.3126H1.03125C0.984375 13.922 0.9375 14.4376 0.9375 15.0001C0.9375 15.5626 0.984375 16.0782 1.03125 16.5939H1.21875Z" fill="white"/>
<path d="M6.9375 13.8281H6.65625V14.2969H6.375V14.7656H6.09375V15.2344H6.375V15.7031H6.65625V16.1719H6.9375V16.5938H7.17188V13.4062H6.9375V13.8281Z" fill="white"/>
<path d="M4.45312 5.67188C4.35938 5.76563 4.26562 5.90625 4.17188 6H4.45312V5.67188Z" fill="white"/>
<path d="M4.59375 24.4688L4.73438 24.6094V24.4688H4.59375Z" fill="white"/>
<path d="M4.21875 24C4.3125 24.0937 4.40625 24.2344 4.5 24.3281V24H4.21875Z" fill="white"/>
<path d="M6.9375 25.8281V25.3594H7.21875V23.9531H6.9375V24.4219H6.65625V24.8906H6.375V24.4219H6.09375V23.9531H5.8125V23.4844H6.09375V23.0156H6.375V22.5469H6.65625V23.0156H6.9375V23.4844H7.21875V22.0781H6.9375V21.6094H7.21875V20.6719H6.9375V21.1406H6.65625V21.6094H6.375V22.0781H6.09375V22.5469H5.8125V23.0156H5.53125V22.5469H5.25V22.0781H4.96875V21.6094H4.6875V21.1406H4.45313V20.6719H4.21875V20.2031H3.9375V20.6719H3.65625V21.1406H3.375V21.6094H3.09375V22.0781H2.90625C3 22.2187 3.09375 22.4062 3.1875 22.5469H3.375V22.8281C3.42188 22.875 3.42188 22.9219 3.46875 22.9688H3.65625V23.2031C3.70313 23.3906 3.75 23.4375 3.84375 23.5313H3.9375V23.6719C4.03125 23.7656 4.125 23.9063 4.21875 24V23.5313H4.5V23.0625H4.78125V22.5938H5.0625V23.0625H5.34375V23.5313H5.625V24H5.34375V24.4688H5.0625V24.8906L5.34375 25.1719V24.9375H5.625V24.4688H5.90625V24.9375H6.09375V25.4063H6.375V25.875H6.65625V26.3438H6.9375V26.5312C7.03125 26.5781 7.125 26.6719 7.21875 26.7188V25.875L6.9375 25.8281ZM4.21875 22.5938H3.9375V21.6563H4.21875V22.5938Z" fill="white"/>
<path d="M6.9375 17.5314H6.65625V17.0626H6.375V16.5939H6.09375V17.0626H5.8125V17.5314H5.57812V18.0001H5.29687V18.4689H5.01562V18.9376H4.73438V19.3595H5.01562V19.8282H5.29687V20.297H6.09375V19.8282H5.57812V19.3595H5.8125V18.9376H6.09375V18.4689H6.375V18.9376H6.65625V19.3595H6.9375V19.8282H7.17188V18.9376H6.9375V18.4689H7.17188V18.0001H6.9375V17.5314Z" fill="white"/>
<path d="M6.9375 10.6406H6.65625V11.0625H6.375V11.5312H6.09375V11.0625H5.8125V10.6406H5.57812V10.1719H6.09375V9.70312H5.29687V10.1719H5.01562V10.6406H4.73438V11.0625H5.01562V11.5312H5.29687V12H5.57812V12.4688H5.8125V12.9375H6.09375V13.4062H6.375V12.9375H6.65625V12.4688H6.9375V12H7.17188V11.5312H6.9375V11.0625H7.17188V10.1719H6.9375V10.6406Z" fill="white"/>
<path d="M1.73438 18.4689H2.01563V18.9376H2.29688V19.4064H2.57812V19.8751H2.01563V20.3439H2.8125V19.8751H3.09375V19.4064H3.375V18.9376H3.09375V18.4689H2.85938V18.0001H2.57812V17.5314H2.29688V17.0626H2.01563V16.5939H1.73438V17.0626H1.5V17.5314H1.21875V17.7189C1.3125 18.1407 1.40625 18.5157 1.5 18.8907H1.73438V18.4689Z" fill="white"/>
<path d="M4.73438 12.4687H4.45312V12H4.21875V11.5312H3.9375V12H3.65625V12.4687H3.375V12.9375H3.09375V13.4062H2.85937V13.875H2.57812V16.2187H2.85937V16.6875H3.14062V17.1562H3.42188V17.625H3.70312V18.0937H3.98438V18.5625H4.21875V18.0937H4.5V17.625H4.78125V17.1562H5.0625V16.6875H5.34375V16.2187H5.625V13.875H5.34375V13.4062H5.0625V12.9375H4.78125L4.73438 12.4687ZM3.09375 14.9531V15.2344H2.85937V14.7656H3.14062V14.9531H3.09375ZM5.01562 15.0469V14.7656H5.29688V15.2344H5.01562V15.0469ZM3.9375 12.4687H4.21875V12.9375H3.9375V12.4687ZM4.21875 17.5312H3.9375V17.0625H4.21875V17.5312ZM4.73438 14.2969H4.45312V14.7656H4.21875V15.2344H4.5V15.7031H4.78125V16.6406H4.45312V16.1719H4.21875V15.7031H3.9375V16.1719H3.65625V16.6406H3.375V15.7031H3.65625V15.2344H3.9375V14.7656H3.65625V14.2969H3.375V13.3594H3.65625V13.8281H3.9375V14.2969H4.21875V13.8281H4.5V13.3594H4.78125L4.73438 14.2969Z" fill="white"/>
<path d="M3.375 7.07812C3.32812 7.17187 3.23437 7.26562 3.1875 7.35937H3.375V7.07812Z" fill="#C8313E"/>
<path d="M3.65625 6.93762V6.70325C3.60938 6.797 3.5625 6.84387 3.46875 6.93762H3.65625Z" fill="#C8313E"/>
<path d="M3.9375 6.46875V6.32812C3.89062 6.375 3.89063 6.42188 3.84375 6.46875H3.9375Z" fill="#C8313E"/>
<path d="M2.85938 14.9531V15.2344H3.09375V14.7656H2.85938V14.9531Z" fill="#C8313E"/>
<path d="M6.9375 7.87512H7.21875V8.34387H6.9375V7.87512Z" fill="#C8313E"/>
<path d="M4.45313 6.46875V6.9375H4.73438V7.40625H5.01562V6.9375H5.29688V6.46875H5.57812V6H5.29688V5.53125H5.01562V5.10938L4.73438 5.39063V5.53125H4.59375L4.45313 5.67188V6H4.21875V6.46875H4.45313Z" fill="#C8313E"/>
<path d="M6.9375 4.17188H7.21875V4.64062H6.9375V4.17188Z" fill="#C8313E"/>
<path d="M6.9375 5.53125H6.65625V5.10938H6.375V5.53125H6.09375V6H5.8125V6.46875H6.09375V6.9375H6.375V7.40625H6.65625V6.9375H6.9375V6.46875H7.17188V6H6.9375V5.53125Z" fill="#C8313E"/>
<path d="M5.57812 5.10937V5.57812H5.85937V5.10937H6.09375V4.64062H6.375V4.17187H6.65625V3.70313H6.9375V3.51562C6.42188 3.89063 5.90625 4.26563 5.48437 4.6875C5.4375 4.73438 5.39062 4.78125 5.29688 4.82813V5.0625H5.57812V5.10937Z" fill="#C8313E"/>
<path d="M4.03125 7.40637H3.9375V8.297H4.21875V7.40637H4.07812H4.03125Z" fill="#C8313E"/>
<path d="M4.45313 13.8281H4.21875V14.2969H3.9375V13.8281H3.65625V13.4062H3.375V14.2969H3.65625V14.7656H3.9375V15.2344H3.65625V15.7031H3.375V16.5938H3.65625V16.1719H3.9375V15.7031H4.21875V16.1719H4.45313V16.5938H4.73438V15.7031H4.45313V15.2344H4.21875V14.7656H4.45313V14.2969H4.73438V13.4062H4.45313V13.8281Z" fill="#C8313E"/>
<path d="M6.9375 11.0625H7.21875V11.5312H6.9375V11.0625Z" fill="#C8313E"/>
<path d="M6.9375 8.7655H6.65625V8.29675H6.375V7.828H6.09375V7.35925H5.8125V6.8905H5.53125V7.35925H5.25V7.828H4.96875V8.29675H4.6875V8.7655H4.45312V9.23425H4.21875V9.703H3.9375V9.23425H3.65625V8.7655H3.375V8.29675H3.09375V7.828H2.90625C2.625 8.29675 2.34375 8.81238 2.10938 9.328C1.875 9.8905 1.6875 10.453 1.5 11.0155H1.73438V11.4843H2.01563V11.0155H2.29688V10.5468H2.57812V10.078H2.01563V9.60925H2.8125V10.078H3.09375V10.5468H3.375V11.0155H3.09375V11.4843H2.85937V11.953H2.57812V12.4218H2.29688V12.8905H2.01563V13.3593H1.73438V12.8905H1.5V12.4218H1.21875V12.2343C1.125 12.6093 1.07812 12.9843 1.03125 13.3593H1.21875V13.828H1.5V14.2968H1.78125V14.7655H2.0625V15.2343H1.73438V15.703H1.5V16.1718H1.21875V16.6405H1.03125C1.07812 17.0155 1.125 17.3905 1.21875 17.7655V17.578H1.5V17.1093H1.78125V16.6405H2.0625V17.1093H2.34375V17.578H2.625V18.0468H2.90625V18.5155H3.1875V18.9843H3.46875V19.453H3.09375V19.9218H2.85937V20.3905H2.01563V19.9218H2.57812V19.453H2.29688V18.9843H2.01563V18.5155H1.73438V18.9843H1.5C1.6875 19.4999 1.875 20.0624 2.10938 20.6249C2.34375 21.1405 2.625 21.6561 2.90625 22.1249H3.14062V21.6561H3.42188V21.1874H3.70312V20.7186H3.98438V20.2499H4.21875V20.7186H4.5V21.1874H4.78125V21.6561H5.0625V22.1249H5.34375V22.5936H5.625V23.0624H5.90625V22.5936H6.09375V22.1249H6.375V21.6561H6.65625V21.1874H6.9375V20.7186H7.21875V19.7811H6.9375V19.3124H6.65625V18.8436H6.375V18.3749H6.09375V18.8436H5.8125V19.3124H5.53125V19.7811H6.09375V20.2499H5.29688V19.7811H5.01562V19.3124H4.73438V18.8436H5.01562V18.3749H5.29688V17.9061H5.57812V17.4374H5.85938V16.9686H6.09375V16.4999H6.375V16.9686H6.65625V17.4374H6.9375V17.9061H7.21875V16.4999H6.9375V16.0311H6.65625V15.5624H6.375V15.0936H6.09375V14.6249H6.375V14.1561H6.65625V13.6874H6.9375V13.2186H7.21875V11.8124H6.9375V12.2811H6.65625V12.7499H6.375V13.2186H6.09375V12.7499H5.8125V12.2811H5.53125V11.8124H5.25V11.3436H4.96875V10.8749H4.6875V10.4061H4.96875V9.93738H5.25V9.46863H6.09375V9.93738H5.53125V10.4061H5.8125V10.8749H6.09375V11.3436H6.375V10.8749H6.65625V10.4061H6.9375V9.93738H7.21875V8.99988H6.9375V8.7655ZM5.01562 12.9374V13.4061H5.29688V13.8749H5.57812V16.2186H5.29688V16.6874H5.01562V17.1561H4.73438V17.6249H4.45312V18.0936H4.21875V18.5624H3.9375V18.0936H3.65625V17.6249H3.375V17.1561H3.09375V16.6874H2.85937V16.2186H2.57812V13.8749H2.85937V13.4061H3.14062V12.9374H3.42188V12.4686H3.70312V11.9999H3.98438V11.5311H4.21875V11.9999H4.5V12.4686H4.78125V12.9374H5.01562Z" fill="#C8313E"/>
<path d="M4.07812 12.9375H4.21875V12.4688H3.9375V12.9375H4.03125H4.07812Z" fill="#C8313E"/>
<path d="M3.375 22.5936H3.1875C3.23437 22.6874 3.32812 22.7811 3.375 22.8749V22.5936Z" fill="#C8313E"/>
<path d="M3.65625 23.0624H3.46875C3.51562 23.1561 3.5625 23.203 3.65625 23.2968V23.0624Z" fill="#C8313E"/>
<path d="M3.9375 23.5311H3.84375C3.89063 23.578 3.89062 23.6249 3.9375 23.6718V23.5311Z" fill="#C8313E"/>
<path d="M6.9375 21.7032H7.21875V22.172H6.9375V21.7032Z" fill="#C8313E"/>
<path d="M6.9375 23.0624H6.65625V22.5936H6.375V23.0624H6.09375V23.5311H5.8125V23.9999H6.09375V24.4686H6.375V24.8905H6.65625V24.4686H6.9375V23.9999H7.17188V23.5311H6.9375V23.0624Z" fill="#C8313E"/>
<path d="M4.45313 23.9999V24.328L4.59375 24.4686H4.73438V24.6093L5.01562 24.8905V24.4686H5.29688V23.9999H5.57812V23.5311H5.29688V23.0624H5.01562V22.5936H4.73438V23.0624H4.45313V23.5311H4.21875V23.9999H4.45313Z" fill="#C8313E"/>
<path d="M6.9375 25.3594H7.21875V25.8281H6.9375V25.3594Z" fill="#C8313E"/>
<path d="M5.4375 25.3125C5.90625 25.7344 6.375 26.1563 6.89062 26.4844V26.2969H6.60938V25.8281H6.32813V25.3594H6.09375V24.8906H5.8125V24.4219H5.53125V24.8906H5.25V25.125L5.4375 25.3125Z" fill="#C8313E"/>
<path d="M4.03125 21.7032H3.9375V22.5939H4.21875V21.7032H4.07812H4.03125Z" fill="#C8313E"/>
<path d="M6.9375 18.4688H7.21875V18.9375H6.9375V18.4688Z" fill="#C8313E"/>
<path d="M5.29688 15.0469V14.7656H5.01562V15.2344H5.29688V15.0469Z" fill="#C8313E"/>
<path d="M4.03125 17.0625H3.9375V17.5312H4.21875V17.0625H4.07812H4.03125Z" fill="#C8313E"/>
<path d="M7.17188 20.625V26.6719C9.42188 28.1719 12.0938 29.0625 15 29.0625C18.7031 29.0625 22.0313 27.6562 24.5625 25.3125C25.9688 24 27.1406 22.4062 27.8906 20.625H7.17188Z" fill="#83BF4F"/>
<path d="M27.8906 20.625C28.6406 18.8906 29.0625 17.0156 29.0625 15C29.0625 12.9844 28.6406 11.1094 27.8906 9.375C27.0938 7.59375 25.9688 6 24.5625 4.6875C22.0313 2.34375 18.7031 0.9375 15 0.9375C12.0938 0.9375 9.42188 1.82812 7.17188 3.32812V20.625H27.8906Z" fill="#C94747"/>
</svg>
