<svg width="131" height="92" viewBox="0 0 131 92" fill="none" xmlns="http://www.w3.org/2000/svg">
<circle cx="110.5" cy="15.2858" r="7" fill="white" stroke="white"/>
<circle cx="126.036" cy="5.10726" r="4.32143" fill="white" stroke="white"/>
<circle cx="126.036" cy="25.4644" r="4.32143" fill="white" stroke="white"/>
<circle cx="112.821" cy="68.1073" r="4.32143" fill="white" stroke="white"/>
<circle cx="4.82143" cy="39.1072" r="4.32143" fill="white" stroke="white"/>
<path d="M114.786 12.0716L124.429 5.64301" stroke="white" stroke-width="2"/>
<path d="M115.895 19.5192L123.319 24.9811" stroke="white" stroke-width="2"/>
<path d="M17 27.2858H104V86.2858H32C23.7157 86.2858 17 79.5701 17 71.2858V27.2858Z" fill="#FADB1E"/>
<rect x="45" y="14.2858" width="11" height="49" fill="#F0F5F7"/>
<rect x="63" y="21.2858" width="11" height="49" fill="#F0F5F7"/>
<rect x="81" y="7.28583" width="11" height="36" fill="#F0F5F7"/>
<path d="M33.5 3.28583H29.5C22.3203 3.28583 16.5 9.10613 16.5 16.2858V61.7858V71.2858C20.0957 63.1558 23.1904 60.0276 33.5 60.7858V27.2858V3.28583Z" fill="#F0F5F7"/>
<path fill-rule="evenodd" clip-rule="evenodd" d="M104 51.4261V77.1456C102.262 80.6533 99.8345 83.759 96.8952 86.2858H59.1048C52.9181 80.9674 49 73.0842 49 64.2858C49 48.2696 61.9837 35.2858 78 35.2858C89.398 35.2858 99.2602 41.8614 104 51.4261Z" fill="#FADB1E"/>
<path d="M58 85.2858H29.5C22.3203 85.2858 16.5 79.4655 16.5 72.2858V61.7858V16.2858C16.5 9.10613 22.3203 3.28583 29.5 3.28583H33.5V27.2858M33.5 60.7858V27.2858M33.5 27.2858H41M103 49.7858V27.2858H95.5" stroke="#4D4D4D" stroke-width="2" stroke-linecap="round"/>
<path d="M33.5 60.7858H29C22.0964 60.7858 16.5 66.3823 16.5 73.2858V73.2858" stroke="#4D4D4D" stroke-width="2" stroke-linecap="round"/>
<path d="M91.5 37.2858V7.28583H81V35.2858M73.5 35.2858V21.2858H63V39.7858M55.5 46.2858V13.2858H45V63.2858H49" stroke="#4D4D4D" stroke-width="2" stroke-linecap="round"/>
<circle cx="78" cy="64.2858" r="25" fill="#F0F5F7" stroke="#4D4D4D" stroke-width="2" stroke-linecap="round"/>
<path d="M60.3285 65.0853C59.8721 64.5569 59.511 64.111 59.2558 63.7858C59.511 63.4607 59.8721 63.0148 60.3285 62.4863C61.3175 61.3412 62.7476 59.8157 64.5114 58.2927C68.0701 55.2201 72.8393 52.2858 78 52.2858C83.1607 52.2858 87.9299 55.2201 91.4886 58.2927C93.2524 59.8157 94.6825 61.3412 95.6715 62.4863C96.1279 63.0148 96.489 63.4607 96.7442 63.7858C96.489 64.111 96.1279 64.5569 95.6715 65.0853C94.6825 66.2305 93.2524 67.756 91.4886 69.2789C87.9299 72.3516 83.1607 75.2858 78 75.2858C72.8393 75.2858 68.0701 72.3516 64.5114 69.2789C62.7476 67.756 61.3175 66.2305 60.3285 65.0853Z" fill="white" stroke="#4D4D4D" stroke-width="2" stroke-linecap="round"/>
<circle cx="78" cy="64.2858" r="8" fill="#19B9DE" stroke="#4D4D4D" stroke-width="2" stroke-linecap="round"/>
<circle cx="78" cy="64.2858" r="4" fill="#4D4D4D"/>
</svg>
