<svg width="143" height="91" viewBox="0 0 143 91" fill="none" xmlns="http://www.w3.org/2000/svg">
<path d="M131.607 38.5296H106.5V48.2421H131.607V54.4858L142.013 43.3858L131.607 32.2858V38.5296Z" fill="white"/>
<path d="M115.977 59.5296H107V69.2421H115.977V75.4858L126.383 64.3858L115.977 53.2858V59.5296Z" fill="white"/>
<path d="M11.1632 55.2464H28.5L28.5 45.5339H11.1632V39.2902L0.756916 50.3902L11.1632 61.4902V55.2464Z" fill="white"/>
<path d="M44 10.2858C44 6.41984 47.134 3.28583 51 3.28583H91V81.2858H44V10.2858Z" fill="#FADB1E"/>
<path d="M56.7597 79.2858H25C25 83.7858 29 87.7858 33 88.2858H101C105.5 88.2858 111 83.2858 111 79.2858H78.2831C78.1075 79.2858 77.9447 79.378 77.8543 79.5286L76.6457 81.5431C76.5553 81.6937 76.3925 81.7858 76.2169 81.7858H59.2403C59.0884 81.7858 58.9448 81.7168 58.8499 81.5982L57.1501 79.4735C57.0552 79.3549 56.9116 79.2858 56.7597 79.2858Z" fill="#F0F5F7"/>
<path d="M28.5 76.7858V30.2858C28.5 28.0767 30.2909 26.2858 32.5 26.2858H41.5M93.5 26.2858H102.5C104.709 26.2858 106.5 28.0767 106.5 30.2858V76.7858M25 79.2858H56.7597C56.9116 79.2858 57.0552 79.3549 57.1501 79.4735L58.8499 81.5982C58.9448 81.7168 59.0884 81.7858 59.2403 81.7858H76.2169C76.3925 81.7858 76.5553 81.6937 76.6457 81.5431L77.8543 79.5286C77.9447 79.378 78.1075 79.2858 78.2831 79.2858H111C111 83.2858 105.5 88.2858 101 88.2858H33C29 87.7858 25 83.7858 25 79.2858Z" stroke="#4D4D4D" stroke-width="2"/>
<path d="M100 10.2858H110V15.2858C110 18.0473 107.761 20.2858 105 20.2858C102.239 20.2858 100 18.0473 100 15.2858V10.2858Z" fill="#FADB1E"/>
<path d="M44.5 76.7858V8.28583V8.28583C44.5 5.24826 46.9624 2.78583 50 2.78583H95C97.7614 2.78583 100 5.0244 100 7.78583V10.2858M100 10.2858V15.7858C100 18.5473 102.239 20.7858 105 20.7858V20.7858C107.761 20.7858 110 18.5473 110 15.7858V10.2858H100Z" stroke="#4D4D4D" stroke-width="2"/>
<path d="M90.5 76.7858V20.7858M96.5 2.78583H95.5C92.7386 2.78583 90.5 5.0244 90.5 7.78583V20.7858M90.5 20.7858H105" stroke="#4D4D4D" stroke-width="2"/>
<path d="M52 13.2858H82.5" stroke="#4D4D4D" stroke-width="2"/>
<path d="M52 19.2858H82.5" stroke="#4D4D4D" stroke-width="2"/>
<path d="M52 63.2858H68.5" stroke="#4D4D4D" stroke-width="2"/>
<path d="M52 68.2858H68.5" stroke="#4D4D4D" stroke-width="2"/>
<path d="M52 26.2858H68.5" stroke="#4D4D4D" stroke-width="2"/>
<path d="M52 26.2858H68.5" stroke="#4D4D4D" stroke-width="2"/>
<path d="M52 31.2858H68.5" stroke="#4D4D4D" stroke-width="2"/>
<path d="M52 36.2858H68.5" stroke="#4D4D4D" stroke-width="2"/>
<path d="M52 41.2858H68.5" stroke="#4D4D4D" stroke-width="2"/>
<path d="M52 46.2858H68.5" stroke="#4D4D4D" stroke-width="2"/>
<path d="M75 26.2858H82.5" stroke="#4D4D4D" stroke-width="2"/>
<path d="M75 26.2858H82.5" stroke="#4D4D4D" stroke-width="2"/>
<path d="M75 31.2858H82.5" stroke="#4D4D4D" stroke-width="2"/>
<path d="M75 36.2858H82.5" stroke="#4D4D4D" stroke-width="2"/>
<path d="M75 41.2858H82.5" stroke="#4D4D4D" stroke-width="2"/>
<path d="M75 46.2858H82.5" stroke="#4D4D4D" stroke-width="2"/>
<path d="M77.852 54.6658V52.3998H79.634V54.6658C81.1447 54.8125 82.4427 55.2232 83.528 55.8978V57.7238C82.0173 56.7705 80.426 56.2938 78.754 56.2938C77.5513 56.2938 76.6493 56.5212 76.048 56.9758C75.4467 57.4305 75.146 58.0025 75.146 58.6918C75.146 58.8825 75.168 59.0658 75.212 59.2418C75.256 59.4032 75.3293 59.5572 75.432 59.7038C75.5493 59.8358 75.652 59.9532 75.74 60.0558C75.828 60.1585 75.982 60.2685 76.202 60.3858C76.422 60.4885 76.5907 60.5765 76.708 60.6498C76.8253 60.7085 77.0307 60.7892 77.324 60.8918C77.632 60.9798 77.8447 61.0458 77.962 61.0898C78.094 61.1192 78.336 61.1852 78.688 61.2878C79.0547 61.3905 79.2967 61.4565 79.414 61.4858C80.0447 61.6765 80.5433 61.8452 80.91 61.9918C81.2913 62.1238 81.7387 62.3218 82.252 62.5858C82.7653 62.8498 83.1613 63.1285 83.44 63.4218C83.7333 63.7152 83.9827 64.0965 84.188 64.5658C84.408 65.0205 84.518 65.5265 84.518 66.0838C84.518 67.3452 84.056 68.3645 83.132 69.1418C82.2227 69.9192 81.0567 70.3738 79.634 70.5058V72.7498H77.852V70.5058C75.872 70.3592 74.266 69.8312 73.034 68.9218V66.9418C73.6207 67.4552 74.4273 67.9098 75.454 68.3058C76.4953 68.6872 77.5587 68.8778 78.644 68.8778C79.8173 68.8778 80.7853 68.6285 81.548 68.1298C82.3107 67.6312 82.692 66.9565 82.692 66.1058C82.692 65.7392 82.6113 65.4165 82.45 65.1378C82.3033 64.8445 82.1273 64.6025 81.922 64.4118C81.7313 64.2212 81.416 64.0378 80.976 63.8618C80.5507 63.6712 80.1767 63.5245 79.854 63.4218C79.546 63.3192 79.0767 63.1798 78.446 63.0038C77.5953 62.7692 76.9207 62.5638 76.422 62.3878C75.9233 62.1972 75.4027 61.9405 74.86 61.6178C74.332 61.2805 73.9433 60.8698 73.694 60.3858C73.4447 59.9018 73.32 59.3225 73.32 58.6478C73.32 57.5625 73.716 56.6678 74.508 55.9638C75.3 55.2452 76.4147 54.8125 77.852 54.6658Z" fill="#4D4D4D"/>
</svg>
