<svg width="48" height="48" viewBox="0 0 48 48" fill="none" xmlns="http://www.w3.org/2000/svg">
<path d="M16.1739 25.0896C17.6646 25.6248 18.8199 26.5042 19.6398 27.7276C20.4596 28.951 20.8696 30.4421 20.8696 32.2007C20.8696 34.4946 20.1615 36.368 18.7453 37.8208C17.3292 39.2736 15.5776 40 13.4907 40C11.3292 40 9.54037 39.2736 8.12422 37.8208C6.70807 36.2915 6 34.4182 6 32.2007C6 31.1302 6.1118 30.0597 6.3354 28.9892C6.63354 27.8423 7.19255 26.1983 8.01242 24.0573L13.2671 8H20.3106L16.1739 25.0896ZM37.3043 25.0896C38.795 25.6248 39.9503 26.5042 40.7702 27.7276C41.5901 28.951 42 30.4421 42 32.2007C42 34.4946 41.2919 36.368 39.8758 37.8208C38.4596 39.2736 36.7081 40 34.6211 40C32.4596 40 30.6708 39.2736 29.2547 37.8208C27.8385 36.2915 27.1304 34.4182 27.1304 32.2007C27.1304 31.1302 27.2422 30.0597 27.4658 28.9892C27.764 27.8423 28.323 26.1983 29.1429 24.0573L34.3975 8H41.441L37.3043 25.0896Z" fill="#D1D6E3"/>
</svg>
