<svg width="10" height="11" viewBox="0 0 10 11" fill="none" xmlns="http://www.w3.org/2000/svg">
<path fill-rule="evenodd" clip-rule="evenodd" d="M-nan -nanL9.2271 3.1818C8.96214 1.97312 7.8535 1.13931 6.61829 1.2197C5.38308 1.3001 4.39197 2.27058 4.28604 3.5034C4.27757 3.64132 4.33026 3.77598 4.43009 3.87156L6.62884 6.06947C6.72427 6.16925 6.85883 6.22193 6.99666 6.21347C7.71466 6.15092 8.37096 5.7824 8.79795 5.20201C9.22495 4.62162 9.38131 3.88556 9.2271 3.1818L-nan -nanL-nan -nanZ" stroke="#F5F7FD" stroke-linecap="round" stroke-linejoin="round"/>
<path d="M6.42773 6.09886L2.6359 8.96589C2.42744 9.1228 2.13532 9.10253 1.95052 8.91834L1.58076 8.54901C1.39627 8.36412 1.37618 8.07156 1.53366 7.86318L4.4002 4.07129" stroke="#F5F7FD" stroke-linecap="round" stroke-linejoin="round"/>
<path d="M1.6077 8.89307L0.714844 9.78592" stroke="#F5F7FD" stroke-linecap="round" stroke-linejoin="round"/>
</svg>
