<svg width="10" height="11" viewBox="0 0 10 11" fill="none" xmlns="http://www.w3.org/2000/svg">
<path d="M2.35742 9.78578C2.35742 10.0619 2.58128 10.2858 2.85742 10.2858C3.13356 10.2858 3.35742 10.0619 3.35742 9.78578H2.35742ZM4.64314 7.85721C4.36699 7.85721 4.14314 8.08107 4.14314 8.35721C4.14314 8.63335 4.36699 8.85721 4.64314 8.85721V7.85721ZM6.42885 8.85721C6.70499 8.85721 6.92885 8.63335 6.92885 8.35721C6.92885 8.08107 6.70499 7.85721 6.42885 7.85721V8.85721ZM2.35742 1.21436V9.78578H3.35742V1.21436H2.35742ZM2.85742 2.0715H5.35742V1.0715H2.85742V2.0715ZM5.35742 5.35721H2.85742V6.35721H5.35742V5.35721ZM7.00028 3.71436C7.00028 4.62168 6.26475 5.35721 5.35742 5.35721V6.35721C6.81703 6.35721 8.00028 5.17396 8.00028 3.71436H7.00028ZM5.35742 2.0715C6.26475 2.0715 7.00028 2.80703 7.00028 3.71436H8.00028C8.00028 2.25475 6.81703 1.0715 5.35742 1.0715V2.0715ZM4.64314 8.85721H6.42885V7.85721H4.64314V8.85721Z" fill="currentColor"/>
</svg>
