<svg width="10" height="11" viewBox="0 0 10 11" fill="none" xmlns="http://www.w3.org/2000/svg">
<path fill-rule="evenodd" clip-rule="evenodd" d="M-nan -nanL9.22808 3.1818C8.96312 1.97312 7.85448 1.13931 6.61927 1.2197C5.38406 1.3001 4.39294 2.27058 4.28702 3.5034C4.27855 3.64132 4.33124 3.77598 4.43107 3.87156L6.62982 6.06947C6.72525 6.16925 6.85981 6.22193 6.99764 6.21347C7.71563 6.15092 8.37193 5.7824 8.79893 5.20201C9.22593 4.62162 9.38229 3.88556 9.22808 3.1818L-nan -nanL-nan -nanZ" stroke="#F5F7FD" stroke-linecap="round" stroke-linejoin="round"/>
<path d="M6.42871 6.09886L2.63688 8.96589C2.42842 9.1228 2.1363 9.10253 1.9515 8.91834L1.58173 8.54901C1.39725 8.36412 1.37716 8.07156 1.53463 7.86318L4.40118 4.07129" stroke="#F5F7FD" stroke-linecap="round" stroke-linejoin="round"/>
<path d="M1.60672 8.89307L0.713867 9.78592" stroke="#F5F7FD" stroke-linecap="round" stroke-linejoin="round"/>
</svg>
