<svg width="56" height="56" viewBox="0 0 56 56" fill="none" xmlns="http://www.w3.org/2000/svg">
<rect width="56" height="56" fill="#F2F2F2"/>
<path d="M38.8884 28.2501C38.8884 27.5099 38.8272 26.7657 38.6966 26.0375H28.2178V30.2307H34.2185C33.9695 31.583 33.1694 32.7794 31.9978 33.5396V36.2603H35.5778C37.6801 34.3638 38.8884 31.563 38.8884 28.2501Z" fill="#4285F4"/>
<path d="M28.2178 38.889C31.214 38.889 33.7409 37.9248 35.5819 36.2603L32.0019 33.5395C31.0058 34.2037 29.72 34.5798 28.2218 34.5798C25.3235 34.5798 22.8661 32.6633 21.9844 30.0865H18.29V32.8913C20.176 36.5684 24.0173 38.889 28.2178 38.889V38.889Z" fill="#34A853"/>
<path d="M21.9804 30.0866C21.515 28.7342 21.515 27.2698 21.9804 25.9174V23.1126H18.2902C16.7145 26.1895 16.7145 29.8145 18.2902 32.8914L21.9804 30.0866V30.0866Z" fill="#FBBC04"/>
<path d="M28.2178 21.4201C29.8016 21.3961 31.3324 21.9803 32.4795 23.0526L35.6513 19.9437C33.6429 18.0952 30.9773 17.0789 28.2178 17.1109C24.0173 17.1109 20.176 19.4316 18.29 23.1126L21.9803 25.9174C22.8579 23.3367 25.3194 21.4201 28.2178 21.4201V21.4201Z" fill="#EA4335"/>
</svg>
