<svg width="56" height="56" viewBox="0 0 56 56" fill="none" xmlns="http://www.w3.org/2000/svg">
<rect width="56" height="56" fill="url(#paint0_linear_430_12192)"/>
<path fill-rule="evenodd" clip-rule="evenodd" d="M17.1533 27.3884C23.4155 24.5435 27.5843 22.6532 29.6777 21.7361C35.6357 19.1346 36.8882 18.6854 37.6933 18.6667C37.8722 18.6667 38.2658 18.7041 38.5342 18.9287C38.7489 19.1159 38.8026 19.3592 38.8384 19.5463C38.8742 19.7335 38.91 20.1265 38.8742 20.426C38.5521 23.982 37.1565 32.6101 36.4409 36.5779C36.1367 38.2624 35.5463 38.8239 34.9737 38.88C33.7213 38.9923 32.773 38.0191 31.5742 37.1956C29.6777 35.9042 28.622 35.0994 26.7792 33.8267C24.65 32.3668 26.0277 31.562 27.2444 30.2519C27.5664 29.915 33.0593 24.6745 33.1666 24.2066C33.1845 24.1505 33.1845 23.9259 33.0593 23.8136C32.934 23.7013 32.7551 23.7387 32.612 23.7762C32.4152 23.8136 29.4093 25.9098 23.5586 30.046C22.6998 30.6637 21.9304 30.9631 21.2326 30.9444C20.4633 30.9257 18.9961 30.4952 17.8868 30.1209C16.5449 29.6717 15.4714 29.4284 15.5609 28.6423C15.6146 28.2306 16.1513 27.8188 17.1533 27.3884Z" fill="white"/>
<defs>
<linearGradient id="paint0_linear_430_12192" x1="27.9767" y1="0" x2="27.9767" y2="55.557" gradientUnits="userSpaceOnUse">
<stop stop-color="#2AABEE"/>
<stop offset="1" stop-color="#229ED9"/>
</linearGradient>
</defs>
</svg>
