<svg width="56" height="56" viewBox="0 0 56 56" fill="none" xmlns="http://www.w3.org/2000/svg">
<rect width="56" height="56" fill="#1D9BF0"/>
<path fill-rule="evenodd" clip-rule="evenodd" d="M27.6627 23.6758L27.7133 24.5409L26.8703 24.435C23.8018 24.0289 21.1211 22.6519 18.8451 20.3392L17.7324 19.1917L17.4457 20.0391C16.8388 21.9281 17.2266 23.923 18.491 25.2647C19.1654 26.0062 19.0137 26.1121 17.8504 25.6708C17.4457 25.5295 17.0917 25.4236 17.058 25.4766C16.94 25.6002 17.3446 27.2067 17.6649 27.8422C18.1033 28.7249 18.9968 29.59 19.9747 30.102L20.8008 30.508L19.8229 30.5257C18.8788 30.5257 18.8451 30.5433 18.9462 30.9141C19.2834 32.0616 20.6154 33.2797 22.099 33.8094L23.1443 34.1801L22.2339 34.745C20.8851 35.5571 19.3003 36.0161 17.7155 36.0514C16.9568 36.0691 16.333 36.1397 16.333 36.1927C16.333 36.3692 18.3899 37.3579 19.5869 37.7463C23.178 38.8938 27.4435 38.3995 30.6468 36.4398C32.9229 35.0452 35.1989 32.2734 36.2611 29.59C36.8343 28.16 37.4075 25.5472 37.4075 24.2937C37.4075 23.4816 37.4581 23.3757 38.4023 22.4047C38.9586 21.8398 39.4813 21.2219 39.5824 21.0454C39.751 20.7099 39.7342 20.7099 38.8743 21.0101C37.4413 21.5397 37.2389 21.4691 37.947 20.6746C38.4697 20.1097 39.0935 19.0857 39.0935 18.7856C39.0935 18.7327 38.8406 18.8209 38.554 18.9798C38.2505 19.1564 37.5761 19.4212 37.0703 19.5801L36.1599 19.8802L35.3338 19.2976C34.8786 18.9798 34.2379 18.6267 33.9007 18.5208C33.0409 18.2737 31.7258 18.309 30.9503 18.5914C28.8428 19.3859 27.5109 21.4338 27.6627 23.6758Z" fill="white"/>
</svg>
