<svg width="40" height="40" viewBox="0 0 40 40" fill="none" xmlns="http://www.w3.org/2000/svg">
<g clip-path="url(#clip0_65_1173)">
<path fill-rule="evenodd" clip-rule="evenodd" d="M27.6333 15.966C27.744 15.602 27.6333 15.334 27.1033 15.334H25.3533C24.908 15.334 24.7027 15.5653 24.5913 15.8207C24.5913 15.8207 23.7013 17.9513 22.4407 19.3353C22.0327 19.7367 21.8473 19.864 21.6247 19.864C21.5133 19.864 21.346 19.7367 21.346 19.372V15.966C21.346 15.5287 21.2233 15.334 20.8527 15.334H18.1007C17.8227 15.334 17.6553 15.5367 17.6553 15.7293C17.6553 16.1433 18.286 16.2393 18.3507 17.4047V19.9367C18.3507 20.492 18.2487 20.5927 18.026 20.5927C17.4327 20.5927 15.9893 18.452 15.1327 16.0027C14.9667 15.526 14.7987 15.334 14.3513 15.334H12.6C12.1 15.334 12 15.5653 12 15.8207C12 16.2753 12.5933 18.534 14.7633 21.5213C16.21 23.5613 18.2467 24.6673 20.102 24.6673C21.2147 24.6673 21.352 24.422 21.352 23.9987V22.4567C21.352 21.9653 21.4573 21.8673 21.81 21.8673C22.07 21.8673 22.5147 21.9953 23.5533 22.9787C24.74 24.1447 24.9353 24.6673 25.6033 24.6673H27.3533C27.8533 24.6673 28.104 24.422 27.96 23.9367C27.8013 23.454 27.2347 22.7533 26.4833 21.922C26.0753 21.4487 25.4633 20.9387 25.2773 20.6833C25.018 20.356 25.092 20.21 25.2773 19.9187C25.2773 19.9187 27.4107 16.968 27.6327 15.966H27.6333Z" fill="white"/>
</g>
<defs>
<clipPath id="clip0_65_1173">
<rect width="16" height="16" fill="white" transform="translate(12 12)"/>
</clipPath>
</defs>
</svg>
