<svg width="40" height="40" viewBox="0 0 40 40" fill="none" xmlns="http://www.w3.org/2000/svg">
<path d="M27.3755 15.3343C26.7974 14.6479 25.729 14.3691 23.6955 14.3691H16.3045C14.2194 14.3691 13.1355 14.6685 12.5626 15.4014C12 16.1137 12 17.1614 12 18.6169V21.3885C12 24.2066 12.6658 25.6311 16.3045 25.6311H23.6955C25.4606 25.6311 26.4413 25.3833 27.071 24.7795C27.7213 24.1601 27.9948 23.1433 27.9948 21.3885V18.6169C28 17.084 27.9587 16.0259 27.3755 15.3343ZM22.271 20.382L18.9161 22.1369C18.8387 22.1782 18.7613 22.1937 18.6787 22.1937C18.5858 22.1937 18.4929 22.1679 18.4103 22.1214C18.2555 22.0285 18.1626 21.8582 18.1626 21.6775V18.1782C18.1626 17.9975 18.2555 17.8324 18.4103 17.7395C18.5652 17.6466 18.7561 17.6414 18.9161 17.724L22.271 19.4685C22.4413 19.5562 22.5497 19.7317 22.5497 19.9279C22.5497 20.1188 22.4413 20.2943 22.271 20.382Z" fill="white"/>
</svg>
