<svg width="40" height="40" viewBox="0 0 40 40" fill="none" xmlns="http://www.w3.org/2000/svg">
<g clip-path="url(#clip0_65_1167)">
<path d="M20.0038 15.8906C17.7351 15.8906 15.8984 17.7293 15.8984 19.996C15.8984 22.2646 17.7371 24.1013 20.0038 24.1013C22.2724 24.1013 24.1091 22.2626 24.1091 19.996C24.1091 17.7273 22.2704 15.8906 20.0038 15.8906V15.8906ZM20.0038 22.6606C18.5311 22.6606 17.3391 21.468 17.3391 19.996C17.3391 18.524 18.5318 17.3313 20.0038 17.3313C21.4758 17.3313 22.6684 18.524 22.6684 19.996C22.6691 21.468 21.4764 22.6606 20.0038 22.6606V22.6606Z" fill="white"/>
<path d="M23.2988 12.0503C21.8268 11.9816 18.1808 11.9849 16.7075 12.0503C15.4128 12.1109 14.2708 12.4236 13.3502 13.3443C11.8115 14.8829 12.0082 16.9563 12.0082 19.9969C12.0082 23.1089 11.8348 25.1343 13.3502 26.6496C14.8948 28.1936 16.9982 27.9916 20.0028 27.9916C23.0855 27.9916 24.1495 27.9936 25.2395 27.5716C26.7215 26.9963 27.8402 25.6716 27.9495 23.2923C28.0188 21.8196 28.0148 18.1743 27.9495 16.7009C27.8175 13.8923 26.3102 12.1889 23.2988 12.0503V12.0503ZM25.6288 25.6316C24.6202 26.6403 23.2208 26.5503 19.9835 26.5503C16.6502 26.5503 15.3135 26.5996 14.3382 25.6216C13.2148 24.5036 13.4182 22.7083 13.4182 19.9863C13.4182 16.3029 13.0402 13.6503 16.7368 13.4609C17.5862 13.4309 17.8362 13.4209 19.9742 13.4209L20.0042 13.4409C23.5568 13.4409 26.3442 13.0689 26.5115 16.7649C26.5495 17.6083 26.5582 17.8616 26.5582 19.9963C26.5575 23.2909 26.6202 24.6356 25.6288 25.6316V25.6316Z" fill="white"/>
<path d="M24.2699 16.6882C24.7997 16.6882 25.2292 16.2587 25.2292 15.7289C25.2292 15.199 24.7997 14.7695 24.2699 14.7695C23.7401 14.7695 23.3105 15.199 23.3105 15.7289C23.3105 16.2587 23.7401 16.6882 24.2699 16.6882Z" fill="white"/>
</g>
<defs>
<clipPath id="clip0_65_1167">
<rect width="16" height="16" fill="white" transform="translate(12 12)"/>
</clipPath>
</defs>
</svg>
