<svg width="26" height="26" viewBox="0 0 26 26" fill="none" xmlns="http://www.w3.org/2000/svg">
<g opacity="0.5">
<path d="M19.373 9.56999C19.4663 9.25999 19.373 9.03265 18.9316 9.03265H17.4696C17.0976 9.03265 16.9276 9.22932 16.8343 9.44532C16.8343 9.44532 16.091 11.258 15.0376 12.4333C14.6976 12.7753 14.5423 12.8833 14.357 12.8833C14.2643 12.8833 14.1296 12.7753 14.1296 12.4653V9.56999C14.1296 9.19799 14.0223 9.03265 13.7123 9.03265H11.415C11.183 9.03265 11.043 9.20465 11.043 9.36865C11.043 9.72065 11.5696 9.80199 11.6236 10.794V12.946C11.6236 13.4173 11.539 13.5033 11.3523 13.5033C10.857 13.5033 9.65165 11.684 8.93631 9.60132C8.79698 9.19665 8.65631 9.03332 8.28298 9.03332H6.82165C6.40365 9.03332 6.32031 9.22999 6.32031 9.44599C6.32031 9.83399 6.81565 11.754 8.62765 14.2933C9.83565 16.0273 11.5363 16.9673 13.0856 16.9673C14.0143 16.9673 14.129 16.7587 14.129 16.3987V15.088C14.129 14.6707 14.2176 14.5867 14.5116 14.5867C14.7276 14.5867 15.0996 14.696 15.967 15.5313C16.9576 16.522 17.1216 16.9667 17.6783 16.9667H19.1396C19.557 16.9667 19.7656 16.758 19.6456 16.346C19.5143 15.936 19.041 15.3393 18.413 14.6333C18.0716 14.2307 17.5616 13.7973 17.4063 13.5807C17.1896 13.3013 17.2523 13.178 17.4063 12.93C17.407 12.9307 19.1876 10.4227 19.373 9.56999Z" fill="#174F77"/>
</g>
</svg>
