<svg width="40" height="40" viewBox="0 0 40 40" fill="none" xmlns="http://www.w3.org/2000/svg">
<path d="M12.2827 19.7111L15.968 21.0871L17.3973 25.6738C17.488 25.9671 17.8507 26.0738 18.0853 25.8818L20.1387 24.2071C20.352 24.0311 20.6613 24.0205 20.8853 24.1858L24.592 26.8791C24.848 27.0658 25.2107 26.9271 25.2747 26.6178L27.9893 13.5565C28.0587 13.2205 27.728 12.9378 27.408 13.0605L12.2773 18.9005C11.904 19.0445 11.9093 19.5725 12.2827 19.7111ZM17.168 20.3565L24.3733 15.9191C24.5013 15.8391 24.6347 16.0151 24.5227 16.1165L18.576 21.6471C18.368 21.8391 18.2347 22.1005 18.192 22.3831L17.9893 23.8818C17.9627 24.0845 17.68 24.1005 17.6267 23.9085L16.848 21.1725C16.7627 20.8631 16.8907 20.5271 17.168 20.3565Z" fill="white"/>
</svg>
