<svg width="490" height="346" viewBox="0 0 490 346" fill="none" xmlns="http://www.w3.org/2000/svg">
<path fill-rule="evenodd" clip-rule="evenodd" d="M35.7288 10.2083V250.104H387.916V10.2083H35.7288ZM34.708 0C29.6339 0 25.5205 4.11338 25.5205 9.18749V251.125C25.5205 256.199 29.6339 260.312 34.708 260.312H388.937C394.011 260.312 398.124 256.199 398.124 251.125V9.18749C398.124 4.11338 394.011 0 388.937 0H34.708Z" fill="#DBEBF1"/>
<path d="M467.619 308.094L468.084 307.253C461.848 303.954 454.089 299.849 450.035 293.112C446.04 286.47 445.95 277.452 449.802 269.575C453.079 262.872 459.099 256.867 467.212 252.208C468.812 251.289 470.492 250.418 472.116 249.576C476.043 247.54 480.103 245.435 483.451 242.448C488.062 238.334 491.551 231.431 488.95 225.282C488.095 223.32 486.695 221.631 484.908 220.408C483.121 219.185 481.019 218.476 478.841 218.363L478.786 219.318C480.781 219.422 482.707 220.07 484.344 221.19C485.981 222.31 487.265 223.857 488.05 225.654C490.466 231.368 487.151 237.853 482.792 241.741C479.535 244.646 475.531 246.723 471.658 248.731C470.024 249.578 468.335 250.454 466.717 251.383C458.435 256.139 452.281 262.287 448.919 269.162C444.93 277.322 445.035 286.685 449.193 293.597C453.384 300.563 461.277 304.739 467.619 308.094Z" fill="#DBEBF1"/>
<path fill-rule="evenodd" clip-rule="evenodd" d="M482.173 321.463C484.757 316.084 426.09 313.126 380.725 309.997C335.373 306.868 289.714 302.667 225.991 303.793C163.2 304.903 125.536 310.701 84.1158 315.24C46.449 319.367 5.00492 323.536 1.75775 328.364C-1.66154 333.448 21.3797 338.281 66.8197 340.956C110.119 343.506 171.21 342.861 228.407 341.71C280.912 340.654 327.374 338.184 368.768 334.882C418.126 330.944 479.63 326.755 482.173 321.463Z" fill="#F0F5F7"/>
<path d="M405.27 326.666C427.822 326.666 446.104 323.238 446.104 319.01C446.104 314.782 427.822 311.354 405.27 311.354C382.719 311.354 364.437 314.782 364.437 319.01C364.437 323.238 382.719 326.666 405.27 326.666Z" fill="#DBEBF1"/>
<path d="M141.896 338.916C164.448 338.916 182.73 336.859 182.73 334.322C182.73 331.785 164.448 329.729 141.896 329.729C119.345 329.729 101.063 331.785 101.063 334.322C101.063 336.859 119.345 338.916 141.896 338.916Z" fill="#DBEBF1"/>
<path d="M92.8963 329.729C115.448 329.729 133.73 327.672 133.73 325.135C133.73 322.598 115.448 320.541 92.8963 320.541C70.3447 320.541 52.063 322.598 52.063 325.135C52.063 327.672 70.3447 329.729 92.8963 329.729Z" fill="#DBEBF1"/>
<path d="M85.2417 287.497C97.9269 287.497 108.21 277.884 108.21 266.026C108.21 254.168 97.9269 244.555 85.2417 244.555C72.5564 244.555 62.2729 254.168 62.2729 266.026C62.2729 277.884 72.5564 287.497 85.2417 287.497Z" fill="#FADB1E"/>
<path d="M85.2384 284.501C95.6685 284.501 104.124 276.23 104.124 266.026C104.124 255.823 95.6685 247.551 85.2384 247.551C74.8083 247.551 66.353 255.823 66.353 266.026C66.353 276.23 74.8083 284.501 85.2384 284.501Z" fill="#E1C51B"/>
<path d="M85.2401 283.502C95.1064 283.502 103.105 275.678 103.105 266.026C103.105 256.374 95.1064 248.55 85.2401 248.55C75.3737 248.55 67.3755 256.374 67.3755 266.026C67.3755 275.678 75.3737 283.502 85.2401 283.502Z" fill="#FADB1E"/>
<path d="M108.209 310.347C92.6421 312.644 76.8172 312.644 61.2505 310.347V305.11C76.8337 307.175 92.6256 307.175 108.209 305.11V310.347Z" fill="#FADB1E"/>
<path d="M108.209 302.167C92.6421 304.234 76.8172 304.234 61.2505 302.167V297.453C76.8337 299.312 92.6256 299.312 108.209 297.453V302.167Z" fill="#FADB1E"/>
<path d="M108.209 294.338C92.6421 296.636 76.8172 296.636 61.2505 294.338V289.101C76.8337 291.167 92.6256 291.167 108.209 289.101V294.338Z" fill="#FADB1E"/>
<path d="M161.291 289.738C145.725 292.036 129.9 292.036 114.333 289.738V284.501C129.916 286.567 145.708 286.567 161.291 284.501V289.738Z" fill="#FADB1E"/>
<path d="M161.29 297.697C145.723 299.995 129.898 299.995 114.332 297.697V292.46C129.915 294.526 145.707 294.526 161.29 292.46V297.697Z" fill="#FADB1E"/>
<path d="M161.29 305.656C145.723 307.954 129.898 307.954 114.332 305.656V300.419C129.915 302.485 145.707 302.485 161.29 300.419V305.656Z" fill="#FADB1E"/>
<path d="M161.29 313.091C145.723 315.159 129.898 315.159 114.332 313.091V308.378C129.915 310.237 145.707 310.237 161.29 308.378V313.091Z" fill="#FADB1E"/>
<path d="M161.29 320.878C145.723 323.176 129.898 323.176 114.332 320.878V315.641C129.915 317.706 145.707 317.706 161.29 315.641V320.878Z" fill="#FADB1E"/>
<path d="M472.643 223.405C477.368 223.405 481.199 221.584 481.199 219.339C481.199 217.094 477.368 215.274 472.643 215.274C467.918 215.274 464.087 217.094 464.087 219.339C464.087 221.584 467.918 223.405 472.643 223.405Z" fill="#DBEBF1"/>
<path d="M465.799 250.188C470.524 250.188 474.354 248.368 474.354 246.123C474.354 243.877 470.524 242.057 465.799 242.057C461.074 242.057 457.243 243.877 457.243 246.123C457.243 248.368 461.074 250.188 465.799 250.188Z" fill="#DBEBF1"/>
<path d="M481.444 254.492C486.17 254.492 490 252.672 490 250.427C490 248.182 486.17 246.362 481.444 246.362C476.719 246.362 472.889 248.182 472.889 250.427C472.889 252.672 476.719 254.492 481.444 254.492Z" fill="#DBEBF1"/>
<path d="M456.998 276.971C461.723 276.971 465.553 275.151 465.553 272.906C465.553 270.661 461.723 268.84 456.998 268.84C452.272 268.84 448.442 270.661 448.442 272.906C448.442 275.151 452.272 276.971 456.998 276.971Z" fill="#DBEBF1"/>
<path d="M439.888 276.971C444.613 276.971 448.443 275.151 448.443 272.906C448.443 270.661 444.613 268.84 439.888 268.84C435.163 268.84 431.332 270.661 431.332 272.906C431.332 275.151 435.163 276.971 439.888 276.971Z" fill="#DBEBF1"/>
<path d="M384.75 218.424C385.152 218.033 385.462 217.561 385.657 217.04C385.852 216.52 385.929 215.964 385.88 215.411C385.832 214.859 385.661 214.323 385.378 213.843C385.095 213.362 384.709 212.948 384.245 212.629L386.167 204.169L381.196 201.772L378.653 213.757C378.158 214.555 377.979 215.503 378.15 216.421C378.322 217.34 378.831 218.165 379.583 218.74C380.335 219.315 381.276 219.601 382.228 219.542C383.18 219.484 384.078 219.086 384.75 218.424Z" fill="#FFCBCB"/>
<path d="M439.109 218.609C439.479 218.189 439.75 217.695 439.903 217.161C440.057 216.627 440.089 216.067 439.997 215.52C439.905 214.973 439.692 214.452 439.372 213.994C439.053 213.537 438.634 213.153 438.146 212.87L439.394 204.29L434.248 202.277L432.661 214.418C432.23 215.251 432.127 216.21 432.37 217.112C432.614 218.015 433.187 218.799 433.982 219.316C434.777 219.832 435.738 220.046 436.683 219.915C437.628 219.785 438.491 219.321 439.109 218.609L439.109 218.609Z" fill="#FFCBCB"/>
<path d="M400.359 302.823L395.29 302.823L392.878 283.697L400.359 283.697L400.359 302.823Z" fill="#FFCBCB"/>
<path d="M401.652 307.63L385.308 307.629V307.427C385.308 305.777 385.978 304.194 387.171 303.027C388.364 301.86 389.982 301.204 391.669 301.204H391.67L401.652 301.204L401.652 307.63Z" fill="#2F2E41"/>
<path d="M417.31 302.823L412.241 302.823L409.83 283.697L417.311 283.697L417.31 302.823Z" fill="#FFCBCB"/>
<path d="M418.604 307.63L402.26 307.629V307.427C402.26 305.777 402.93 304.194 404.123 303.027C405.316 301.86 406.934 301.204 408.621 301.204H408.622L418.604 301.204L418.604 307.63Z" fill="#2F2E41"/>
<path d="M427.516 141.91L432.982 139.98C432.982 139.98 435.302 140.462 435.302 146.617C435.302 152.771 441.463 210.171 441.463 210.171L430.681 212.948L424.586 158.49L427.516 141.91Z" fill="#4D4D4D"/>
<path d="M390.992 141.91L385.526 139.98C385.526 139.98 383.206 140.462 383.206 146.617C383.206 152.771 377.045 210.171 377.045 210.171L387.828 212.948L393.922 158.49L390.992 141.91Z" fill="#4D4D4D"/>
<path d="M391.062 207.374L389.568 250.491L392.876 298.186L401.399 298.379L402.639 253.888L409.668 231.642L408.958 297.209L418.609 297.097L424.586 251.987C424.586 251.987 432.479 214.654 428.102 207.374L407.944 200.816L391.062 207.374Z" fill="#4D4D4D"/>
<path d="M391.228 202.179L390.741 212.551C390.741 212.551 397.542 215.862 409.497 213.845C421.452 211.828 429.398 213.158 429.398 213.158L428.48 199.935L391.228 202.179Z" fill="#FADB1E"/>
<path d="M385.31 140.133L401.029 133.395L401.967 129.865L417.259 130.299L417.92 133.904L432.982 139.98L426.346 162.553L427.027 178.433L435.302 207.374C435.302 207.374 428.322 213.173 411.553 210.678L408.659 204.974L406.889 211.006C406.889 211.006 392.185 216.298 388.109 209.409L391.063 159.647L385.31 140.133Z" fill="#4D4D4D"/>
<path d="M409.476 126.549C415.084 126.549 419.63 122.102 419.63 116.615C419.63 111.129 415.084 106.681 409.476 106.681C403.867 106.681 399.321 111.129 399.321 116.615C399.321 122.102 403.867 126.549 409.476 126.549Z" fill="#FFCBCB"/>
<path d="M421.541 112.766C421.359 111.958 421.01 111.194 420.515 110.523C420.317 108.667 419.685 106.881 418.666 105.304C418.266 104.564 417.7 103.924 417.009 103.433C416.217 102.987 415.314 102.767 414.402 102.797C414.236 102.794 413.939 102.843 413.671 102.855C413.499 102.803 413.326 102.757 413.153 102.713C413.051 102.493 412.851 101.851 412.795 101.894L412.038 102.482C411.719 102.428 411.397 102.386 411.074 102.352C410.957 102.024 410.839 101.696 410.722 101.369C410.531 101.662 410.364 101.969 410.222 102.287C409.901 102.272 409.58 102.267 409.258 102.271L408.615 101.667C408.577 101.836 408.49 101.99 408.364 102.11C408.238 102.231 408.079 102.313 407.906 102.347C407.61 102.376 407.315 102.415 407.022 102.461C406.998 102.461 406.974 102.461 406.95 102.461C405.367 102.422 403.663 102.353 402.339 103.203C401.72 103.619 401.215 104.179 400.871 104.833C400.709 104.941 400.547 105.048 400.389 105.162C399.858 105.516 399.398 105.963 399.031 106.479C398.765 106.924 398.562 107.404 398.43 107.903C397.925 109.407 397.691 110.986 397.738 112.568C397.793 114.162 398.407 115.688 399.478 116.889C400.157 117.603 401.02 118.13 401.7 118.843C403.1 120.311 403.363 122.358 404.56 123.911C405.827 125.554 408.139 126.635 410.169 126.945C411.39 127.125 412.635 127.067 413.832 126.775C415.03 126.482 416.157 125.961 417.148 125.242C417.624 124.918 418.028 124.503 418.337 124.023C419.041 122.831 418.743 121.332 419.004 119.979C419.495 117.442 421.969 115.313 421.541 112.766Z" fill="#4D4D4D"/>
<path d="M116.118 225.059H85.7604C84.9384 225.058 84.1503 224.738 83.569 224.169C82.9877 223.601 82.6607 222.83 82.6597 222.026V124.172C82.6607 123.368 82.9877 122.597 83.569 122.028C84.1503 121.46 84.9384 121.14 85.7604 121.139H116.118C116.94 121.14 117.729 121.46 118.31 122.028C118.891 122.597 119.218 123.368 119.219 124.172V222.026C119.218 222.83 118.891 223.601 118.31 224.169C117.729 224.738 116.94 225.058 116.118 225.059Z" fill="#DBEBF1"/>
<path d="M171.48 225.059H141.122C140.3 225.058 139.512 224.738 138.931 224.17C138.349 223.601 138.022 222.83 138.021 222.026V85.3418C138.022 84.5376 138.349 83.7666 138.931 83.198C139.512 82.6294 140.3 82.3095 141.122 82.3086H171.48C172.302 82.3095 173.09 82.6294 173.672 83.198C174.253 83.7666 174.58 84.5376 174.581 85.3418V222.026C174.58 222.83 174.253 223.601 173.672 224.17C173.09 224.738 172.302 225.058 171.48 225.059Z" fill="#DBEBF1"/>
<path d="M226.841 225.059H196.484C195.662 225.058 194.873 224.738 194.292 224.169C193.711 223.601 193.384 222.83 193.383 222.026V124.172C193.384 123.368 193.711 122.597 194.292 122.028C194.873 121.46 195.662 121.14 196.484 121.139H226.841C227.664 121.14 228.452 121.46 229.033 122.028C229.614 122.597 229.941 123.368 229.942 124.172V222.026C229.941 222.83 229.614 223.601 229.033 224.169C228.452 224.738 227.664 225.058 226.841 225.059Z" fill="#DBEBF1"/>
<path d="M282.204 225.059H251.846C251.043 225.076 250.265 224.781 249.684 224.238C249.103 223.695 248.765 222.949 248.745 222.163V69.8765C248.765 69.0907 249.103 68.3447 249.684 67.8019C250.265 67.2591 251.043 66.9638 251.846 66.9808H282.204C283.007 66.9638 283.785 67.2591 284.366 67.8019C284.947 68.3447 285.285 69.0907 285.305 69.8765V222.163C285.285 222.949 284.947 223.695 284.366 224.238C283.785 224.781 283.007 225.076 282.204 225.059Z" fill="#DBEBF1"/>
<path d="M337.564 225.059H307.206C306.384 225.058 305.596 224.738 305.014 224.17C304.433 223.601 304.106 222.83 304.105 222.026V42.4238C304.106 41.6196 304.433 40.8486 305.014 40.28C305.596 39.7114 306.384 39.3916 307.206 39.3907H337.564C338.386 39.3916 339.174 39.7114 339.755 40.28C340.336 40.8486 340.663 41.6196 340.664 42.4238V222.026C340.663 222.83 340.336 223.601 339.755 224.17C339.174 224.738 338.386 225.058 337.564 225.059Z" fill="#DBEBF1"/>
<path d="M100.94 108.877C104.401 108.877 107.207 106.132 107.207 102.746C107.207 99.3596 104.401 96.6146 100.94 96.6146C97.4783 96.6146 94.6724 99.3596 94.6724 102.746C94.6724 106.132 97.4783 108.877 100.94 108.877Z" fill="#19B9DE"/>
<path d="M156.3 69.0245C159.761 69.0245 162.567 66.2795 162.567 62.8933C162.567 59.5072 159.761 56.7622 156.3 56.7622C152.839 56.7622 150.033 59.5072 150.033 62.8933C150.033 66.2795 152.839 69.0245 156.3 69.0245Z" fill="#19B9DE"/>
<path d="M211.663 108.877C215.124 108.877 217.93 106.132 217.93 102.746C217.93 99.3596 215.124 96.6146 211.663 96.6146C208.201 96.6146 205.396 99.3596 205.396 102.746C205.396 106.132 208.201 108.877 211.663 108.877Z" fill="#19B9DE"/>
<path d="M267.024 49.6093C270.486 49.6093 273.292 46.8643 273.292 43.4781C273.292 40.092 270.486 37.347 267.024 37.347C263.563 37.347 260.757 40.092 260.757 43.4781C260.757 46.8643 263.563 49.6093 267.024 49.6093Z" fill="#19B9DE"/>
<path d="M322.384 27.1285C325.846 27.1285 328.652 24.3835 328.652 20.9973C328.652 17.6112 325.846 14.8662 322.384 14.8662C318.923 14.8662 316.117 17.6112 316.117 20.9973C316.117 24.3835 318.923 27.1285 322.384 27.1285Z" fill="#19B9DE"/>
<path d="M373.139 226.198H49.4894C49.3597 226.198 49.2354 226.147 49.1437 226.058C49.052 225.968 49.0005 225.846 49.0005 225.719C49.0005 225.593 49.052 225.471 49.1437 225.381C49.2354 225.291 49.3597 225.241 49.4894 225.241H373.139C373.269 225.241 373.393 225.291 373.485 225.381C373.576 225.471 373.628 225.593 373.628 225.719C373.628 225.846 373.576 225.968 373.485 226.058C373.393 226.147 373.269 226.198 373.139 226.198Z" fill="#E8E9EB"/>
<path d="M100.607 103.129L100.023 102.362L156.303 61.3729L211.486 101.639L267.423 42.2257L267.523 42.1856L321.81 20.2668L322.183 21.1512L267.996 43.0292L211.607 102.921L156.303 62.5657L100.607 103.129Z" fill="#19B9DE"/>
</svg>
