<svg width="16" height="16" viewBox="0 0 16 16" fill="none" xmlns="http://www.w3.org/2000/svg">
<path d="M10.1949 13.989C9.63584 14.2097 9.19082 14.377 8.85705 14.4929C8.5242 14.6087 8.1371 14.6667 7.69667 14.6667C7.01993 14.6667 6.49307 14.5012 6.11793 14.1711C5.74278 13.841 5.55613 13.4226 5.55613 12.9142C5.55613 12.7165 5.56992 12.5142 5.5975 12.3082C5.62601 12.1023 5.67106 11.8705 5.73267 11.6103L6.43239 9.13878C6.49399 8.90156 6.54732 8.67629 6.58962 8.46664C6.63191 8.25517 6.65214 8.06116 6.65214 7.88462C6.65214 7.57016 6.58686 7.34948 6.45721 7.22535C6.32573 7.10122 6.07839 7.04054 5.70968 7.04054C5.52946 7.04054 5.34373 7.0672 5.1534 7.12329C4.9649 7.18122 4.80124 7.23363 4.66699 7.28512L4.85181 6.52379C5.30971 6.33714 5.7483 6.17715 6.16666 6.04474C6.58502 5.9105 6.9804 5.8443 7.35278 5.8443C8.02492 5.8443 8.5435 6.00796 8.90854 6.33162C9.27173 6.65619 9.45471 7.07823 9.45471 7.59682C9.45471 7.7044 9.44183 7.89381 9.41701 8.16414C9.39218 8.43538 9.34529 8.68272 9.27725 8.90983L8.5812 11.374C8.5242 11.5717 8.47363 11.7979 8.42765 12.0508C8.3826 12.3036 8.36053 12.4967 8.36053 12.6264C8.36053 12.9537 8.43317 13.1771 8.58028 13.2957C8.72556 13.4143 8.98026 13.4741 9.34069 13.4741C9.5108 13.4741 9.70113 13.4438 9.91628 13.3849C10.1296 13.3261 10.2841 13.2737 10.3815 13.2286L10.1949 13.989ZM10.0717 3.98695C9.7471 4.28854 9.35632 4.43934 8.89934 4.43934C8.44328 4.43934 8.04975 4.28854 7.72241 3.98695C7.39692 3.68537 7.23233 3.31849 7.23233 2.89002C7.23233 2.46246 7.39784 2.09467 7.72241 1.79032C8.04975 1.48506 8.44328 1.33334 8.89934 1.33334C9.35632 1.33334 9.74802 1.48506 10.0717 1.79032C10.3963 2.09467 10.559 2.46246 10.559 2.89002C10.559 3.31941 10.3963 3.68537 10.0717 3.98695Z" fill="#939598"/>
</svg>
