<svg width="365" height="308" viewBox="0 0 365 308" fill="none" xmlns="http://www.w3.org/2000/svg">
<g clip-path="url(#clip0)">
<path d="M267.037 0.40635C249.915 -0.424441 232.498 -0.285365 215.963 3.81003C199.429 7.90542 183.704 16.3341 174.295 29.2608C168.907 36.661 165.692 45.3276 159.417 52.135C148.533 63.938 130.743 67.9932 114.325 72.063C75.7702 81.5786 36.9999 95.3288 9.03356 121.087C5.01856 124.78 1.10576 128.992 0.196913 134.098C-1.19739 141.948 4.94191 149.294 11.7528 154.319C18.5637 159.344 26.6229 163.329 31.6636 169.847C38.0912 178.159 38.4526 189.142 36.6276 199.126C34.8026 209.11 31.0467 218.824 30.0576 228.918C29.813 231.406 29.7546 234.001 30.8314 236.303C32.2585 239.356 35.4304 241.427 38.5402 243.169C49.5656 249.375 61.4625 253.874 73.8284 256.517C95.1334 261.095 117.351 260.235 139.163 262.116C160.976 263.997 183.693 269.26 199.023 283.366C208.426 292.014 216.908 304.629 230.315 304.201C237.827 303.963 244.462 299.359 251.956 298.847C260.391 298.269 268.016 302.873 275.969 305.497C287.266 309.23 300.347 308.868 310.94 303.722C321.532 298.576 329.223 288.497 329.843 277.663C330.449 267.05 324.711 257.121 321.397 246.921C310.527 213.502 325.817 178.188 341.019 146.172C356.222 114.155 371.909 79.1045 361.795 45.4923C350.053 6.50736 304.57 2.22897 267.037 0.40635Z" fill="white"/>
<path d="M86.4395 197.227C86.4395 197.227 73.7886 190.273 70.0401 179.597C68.4961 175.112 65.5426 171.25 61.6232 168.592C59.7528 167.344 57.7723 166.271 55.7065 165.386" stroke="#4D4D4D" stroke-width="2" stroke-miterlimit="10"/>
<path d="M53.2899 158.677C54.4871 159.885 55.7755 165.554 55.7755 165.554C55.7755 165.554 50.129 164.226 48.9317 163.022C48.3771 162.438 48.0725 161.66 48.0833 160.854C48.0941 160.048 48.4194 159.278 48.9896 158.71C49.5597 158.142 50.3292 157.82 51.1331 157.814C51.937 157.808 52.7112 158.118 53.2899 158.677Z" fill="#94CBDF"/>
<path d="M63.5319 161.77C63.8969 163.435 61.8894 168.896 61.8894 168.896C61.8894 168.896 57.8744 164.705 57.5094 163.04C57.4118 162.639 57.3956 162.222 57.4618 161.814C57.5279 161.407 57.6751 161.017 57.8945 160.667C58.1139 160.318 58.401 160.016 58.739 159.78C59.0769 159.545 59.4587 159.379 59.8616 159.294C60.2645 159.209 60.6804 159.206 61.0845 159.285C61.4887 159.364 61.8728 159.524 62.2141 159.755C62.5555 159.986 62.8471 160.283 63.0716 160.629C63.2961 160.975 63.4489 161.363 63.521 161.77H63.5319Z" fill="#94CBDF"/>
<path d="M74.6935 173.346C74.157 174.96 69.6894 178.667 69.6894 178.667C69.6894 178.667 68.3279 173.013 68.8645 171.399C69.122 170.622 69.6766 169.98 70.4062 169.614C71.1359 169.247 71.9809 169.186 72.7554 169.445C73.5298 169.703 74.1702 170.259 74.5358 170.991C74.9013 171.722 74.962 172.569 74.7045 173.346H74.6935Z" fill="#94CBDF"/>
<path d="M81.176 184.011C80.9205 185.691 77.1391 190.105 77.1391 190.105C77.1391 190.105 74.8469 184.765 75.1024 183.081C75.2462 182.293 75.6908 181.591 76.3418 181.126C76.9928 180.661 77.799 180.468 78.5893 180.589C79.3796 180.71 80.0918 181.135 80.5748 181.774C81.0577 182.413 81.2734 183.215 81.176 184.011Z" fill="#94CBDF"/>
<path d="M57.5457 173.69C59.243 173.672 64.1157 170.535 64.1157 170.535C64.1157 170.535 59.1627 167.512 57.4654 167.531C56.6684 167.566 55.9163 167.91 55.3679 168.491C54.8196 169.072 54.518 169.844 54.5271 170.644C54.5361 171.444 54.8549 172.209 55.4162 172.777C55.9775 173.346 56.7372 173.673 57.5348 173.69H57.5457Z" fill="#94CBDF"/>
<path d="M65.2841 186.068C66.8974 185.541 70.6204 181.083 70.6204 181.083C70.6204 181.083 64.9921 179.685 63.3788 180.212C62.6303 180.486 62.0171 181.04 61.6686 181.759C61.32 182.477 61.2633 183.303 61.5105 184.063C61.7576 184.822 62.2892 185.456 62.9932 185.83C63.6972 186.204 64.5186 186.289 65.2841 186.068Z" fill="#94CBDF"/>
<path d="M74.4601 197.066C76.1391 196.821 80.5593 193.04 80.5593 193.04C80.5593 193.04 75.2449 190.709 73.5659 190.954C73.1656 191.013 72.7809 191.15 72.4336 191.358C72.0863 191.566 71.7832 191.84 71.5417 192.166C71.3003 192.491 71.1251 192.861 71.0261 193.254C70.9272 193.648 70.9065 194.057 70.9652 194.458C71.024 194.859 71.1609 195.245 71.3683 195.593C71.5758 195.942 71.8495 196.246 72.1741 196.488C72.4986 196.73 72.8675 196.906 73.2598 197.005C73.652 197.104 74.0599 197.125 74.4601 197.066Z" fill="#94CBDF"/>
<path d="M96.3855 167.315C96.3855 167.315 87.6255 155.812 88.5124 144.536C88.9127 139.808 87.7728 135.079 85.2639 131.056C84.058 129.157 82.6811 127.372 81.1504 125.724" stroke="#4D4D4D" stroke-width="2" stroke-miterlimit="10"/>
<path d="M81.6615 118.609C82.2674 120.197 81.1578 125.907 81.1578 125.907C81.1578 125.907 76.5296 122.401 75.9237 120.812C75.7604 120.431 75.6758 120.02 75.6748 119.605C75.6738 119.19 75.7565 118.778 75.918 118.396C76.0794 118.014 76.3163 117.668 76.6143 117.38C76.9123 117.091 77.2653 116.867 77.6522 116.718C78.0391 116.57 78.4518 116.502 78.8656 116.518C79.2794 116.534 79.6857 116.634 80.0601 116.811C80.4346 116.988 80.7695 117.239 81.0447 117.55C81.3198 117.86 81.5296 118.223 81.6615 118.616V118.609Z" fill="#94CBDF"/>
<path d="M89.7645 125.592C89.3995 127.257 85.3845 131.448 85.3845 131.448C85.3845 131.448 83.4026 125.984 83.753 124.318C83.8312 123.917 83.9884 123.536 84.2152 123.196C84.4421 122.856 84.7341 122.565 85.0743 122.339C85.4145 122.114 85.796 121.959 86.1966 121.882C86.5973 121.806 87.0091 121.811 87.4079 121.896C87.8068 121.981 88.1848 122.144 88.52 122.377C88.8551 122.61 89.1407 122.908 89.36 123.253C89.5793 123.597 89.7281 123.982 89.7975 124.385C89.867 124.788 89.8557 125.201 89.7645 125.599V125.592Z" fill="#94CBDF"/>
<path d="M95.2943 140.711C94.1519 141.97 88.5674 143.544 88.5674 143.544C88.5674 143.544 89.6076 137.823 90.7574 136.564C91.0254 136.252 91.353 135.997 91.7209 135.814C92.0889 135.631 92.4897 135.524 92.8996 135.499C93.3095 135.474 93.7203 135.532 94.1077 135.669C94.4951 135.805 94.8511 136.019 95.1549 136.296C95.4586 136.573 95.7039 136.908 95.8762 137.282C96.0485 137.656 96.1443 138.061 96.158 138.472C96.1717 138.884 96.1029 139.294 95.9558 139.679C95.8088 140.063 95.5863 140.414 95.3017 140.711H95.2943Z" fill="#94CBDF"/>
<path d="M96.911 153.096C95.9985 154.531 90.7607 157.027 90.7607 157.027C90.7607 157.027 90.8228 151.211 91.7353 149.776C92.1887 149.122 92.8771 148.67 93.6561 148.514C94.435 148.357 95.244 148.51 95.9134 148.939C96.5828 149.367 97.0606 150.04 97.2466 150.814C97.4326 151.588 97.3123 152.405 96.911 153.092V153.096Z" fill="#94CBDF"/>
<path d="M79.4789 134.061C81.0374 134.731 86.7789 133.849 86.7789 133.849C86.7789 133.849 83.4683 129.073 81.9098 128.403C81.1653 128.104 80.3338 128.109 79.5929 128.417C78.852 128.724 78.2602 129.31 77.944 130.049C77.6277 130.787 77.612 131.621 77.9001 132.371C78.1882 133.122 78.7574 133.729 79.4861 134.065L79.4789 134.061Z" fill="#94CBDF"/>
<path d="M81.5518 148.51C83.2381 148.682 88.4466 146.12 88.4466 146.12C88.4466 146.12 83.8622 142.556 82.1759 142.384C81.3832 142.334 80.602 142.594 79.9962 143.109C79.3903 143.624 79.0068 144.354 78.9261 145.146C78.8454 145.938 79.0737 146.731 79.5632 147.358C80.0527 147.986 80.7654 148.398 81.5518 148.51Z" fill="#94CBDF"/>
<path d="M85.4903 162.297C87.1255 162.754 92.6881 161.107 92.6881 161.107C92.6881 161.107 88.7717 156.818 87.1365 156.35C86.7445 156.23 86.3326 156.191 85.9251 156.233C85.5177 156.276 85.1228 156.4 84.7637 156.598C84.4047 156.795 84.0887 157.063 83.8344 157.385C83.58 157.707 83.3925 158.077 83.2827 158.473C83.173 158.869 83.1433 159.282 83.1953 159.69C83.2474 160.097 83.3801 160.49 83.5858 160.845C83.7915 161.201 84.0659 161.511 84.393 161.759C84.7201 162.006 85.0932 162.185 85.4903 162.286V162.297Z" fill="#94CBDF"/>
<path d="M257.975 182.368C257.975 182.368 256.205 168.006 262.64 158.718C265.363 154.838 266.758 150.178 266.614 145.436C266.529 143.185 266.238 140.947 265.746 138.749" stroke="#4D4D4D" stroke-width="2" stroke-miterlimit="10"/>
<path d="M269.764 132.868C269.487 134.548 265.658 138.914 265.658 138.914C265.658 138.914 263.428 133.545 263.705 131.869C263.856 131.08 264.308 130.38 264.965 129.921C265.623 129.461 266.433 129.277 267.224 129.408C268.015 129.538 268.723 129.974 269.198 130.621C269.673 131.268 269.878 132.076 269.768 132.872L269.764 132.868Z" fill="#94CBDF"/>
<path d="M273.246 142.991C272.104 144.25 266.523 145.828 266.523 145.828C266.523 145.828 267.56 140.107 268.713 138.848C269.27 138.281 270.024 137.951 270.818 137.929C271.612 137.907 272.383 138.194 272.971 138.73C273.559 139.265 273.917 140.008 273.97 140.803C274.023 141.597 273.768 142.381 273.257 142.991H273.246Z" fill="#94CBDF"/>
<path d="M270.414 158.846C268.793 159.354 263.183 157.891 263.183 157.891C263.183 157.891 266.961 153.477 268.578 152.968C269.342 152.769 270.153 152.873 270.843 153.258C271.533 153.643 272.048 154.279 272.283 155.035C272.518 155.791 272.453 156.608 272.103 157.318C271.753 158.027 271.144 158.574 270.403 158.846H270.414Z" fill="#94CBDF"/>
<path d="M265.578 170.356C264.067 171.132 258.278 170.638 258.278 170.638C258.278 170.638 261.256 165.646 262.767 164.87C263.127 164.686 263.519 164.574 263.921 164.542C264.324 164.509 264.729 164.557 265.113 164.681C265.497 164.806 265.853 165.005 266.16 165.268C266.468 165.53 266.721 165.851 266.905 166.211C267.088 166.572 267.2 166.965 267.232 167.368C267.264 167.772 267.217 168.178 267.093 168.563C266.968 168.948 266.77 169.305 266.508 169.614C266.246 169.922 265.926 170.175 265.567 170.36L265.578 170.356Z" fill="#94CBDF"/>
<path d="M260.106 145.103C261.114 146.472 266.508 148.609 266.508 148.609C266.508 148.609 266.056 142.812 265.048 141.443C264.555 140.813 263.835 140.401 263.043 140.293C262.251 140.186 261.449 140.392 260.806 140.868C260.163 141.344 259.731 142.053 259.6 142.843C259.469 143.634 259.651 144.444 260.106 145.103Z" fill="#94CBDF"/>
<path d="M254.62 158.633C255.989 159.636 261.774 160.057 261.774 160.057C261.774 160.057 259.61 154.662 258.241 153.66C257.582 153.205 256.771 153.026 255.982 153.161C255.193 153.296 254.488 153.735 254.017 154.383C253.545 155.031 253.344 155.838 253.457 156.633C253.57 157.427 253.987 158.146 254.62 158.637V158.633Z" fill="#94CBDF"/>
<path d="M251.087 172.523C252.27 173.745 257.898 175.136 257.898 175.136C257.898 175.136 256.675 169.452 255.493 168.23C255.216 167.924 254.88 167.677 254.506 167.504C254.132 167.331 253.727 167.235 253.315 167.222C252.903 167.209 252.493 167.279 252.109 167.428C251.724 167.578 251.374 167.803 251.078 168.09C250.783 168.378 250.548 168.722 250.387 169.103C250.227 169.484 250.145 169.893 250.145 170.306C250.146 170.719 250.229 171.128 250.39 171.508C250.551 171.888 250.787 172.232 251.083 172.519L251.087 172.523Z" fill="#94CBDF"/>
<path d="M172.221 65.5117L72.1421 159.01V296.687H272.297V159.01L172.221 65.5117Z" fill="url(#paint0_linear)"/>
<path d="M270.155 294.213H74.2847V159.483L172.221 67.9858L270.155 159.483V294.213Z" fill="#F0F5F7"/>
<path opacity="0.1" d="M269.403 159.567H74.4199V294.019H269.403V159.567Z" fill="black"/>
<path d="M172.504 227.474C172.098 227.475 171.695 227.396 171.319 227.242L104.599 199.521V112.748C104.6 111.98 104.905 111.245 105.447 110.702C105.988 110.159 106.723 109.854 107.489 109.853H235.487C236.253 109.854 236.988 110.159 237.53 110.702C238.071 111.245 238.376 111.98 238.377 112.748V199.581L238.252 199.635L173.724 227.229C173.338 227.391 172.923 227.475 172.504 227.474Z" fill="#FEF6C7"/>
<path d="M162.117 142.289H116.698C115.823 142.288 114.985 141.939 114.366 141.318C113.748 140.698 113.401 139.858 113.401 138.982C113.401 138.105 113.748 137.265 114.366 136.645C114.985 136.025 115.823 135.676 116.698 135.674H162.117C162.992 135.676 163.83 136.025 164.449 136.645C165.067 137.265 165.414 138.105 165.414 138.982C165.414 139.858 165.067 140.698 164.449 141.318C163.83 141.939 162.992 142.288 162.117 142.289Z" fill="#FADB1E"/>
<path d="M138.582 128.232H116.698C115.822 128.232 114.982 127.883 114.362 127.263C113.743 126.643 113.395 125.801 113.395 124.924C113.395 124.047 113.743 123.206 114.362 122.585C114.982 121.965 115.822 121.617 116.698 121.617H138.582C139.458 121.617 140.298 121.965 140.917 122.585C141.537 123.206 141.885 124.047 141.885 124.924C141.885 125.801 141.537 126.643 140.917 127.263C140.298 127.883 139.458 128.232 138.582 128.232Z" fill="#FADB1E"/>
<path d="M205.458 175.365H136.091C135.215 175.365 134.375 175.017 133.756 174.397C133.136 173.776 132.788 172.935 132.788 172.058C132.788 171.181 133.136 170.339 133.756 169.719C134.375 169.099 135.215 168.75 136.091 168.75H205.458C206.334 168.75 207.174 169.099 207.793 169.719C208.413 170.339 208.761 171.181 208.761 172.058C208.761 172.935 208.413 173.776 207.793 174.397C207.174 175.017 206.334 175.365 205.458 175.365Z" fill="#FADB1E"/>
<path d="M205.458 190.663H136.091C135.657 190.664 135.227 190.579 134.825 190.413C134.424 190.247 134.059 190.004 133.752 189.697C133.444 189.389 133.201 189.025 133.034 188.623C132.868 188.221 132.782 187.791 132.782 187.356C132.782 186.921 132.868 186.49 133.034 186.089C133.201 185.687 133.444 185.322 133.752 185.015C134.059 184.708 134.424 184.464 134.825 184.298C135.227 184.132 135.657 184.047 136.091 184.048H205.458C205.892 184.047 206.322 184.132 206.723 184.298C207.125 184.464 207.49 184.708 207.797 185.015C208.104 185.322 208.348 185.687 208.514 186.089C208.681 186.49 208.766 186.921 208.766 187.356C208.766 187.791 208.681 188.221 208.514 188.623C208.348 189.025 208.104 189.389 207.797 189.697C207.49 190.004 207.125 190.247 206.723 190.413C206.322 190.579 205.892 190.664 205.458 190.663Z" fill="#FADB1E"/>
<path d="M164.173 276.972C164.173 276.972 169.006 286.059 173.236 288.079C177.466 290.1 174.043 292.925 170.013 292.321C165.983 291.717 152.694 282.022 152.694 282.022C152.694 282.022 152.785 275.676 154.048 275.215C155.311 274.754 164.173 276.972 164.173 276.972Z" fill="#575988"/>
<path d="M151.475 262.23C151.475 262.23 158.323 269.096 161.33 269.703C164.338 270.311 158.713 274.348 153.275 272.126C147.836 269.904 140.386 265.868 140.386 265.868C140.386 265.868 140.186 259.404 143.609 258.8C147.033 258.197 151.475 262.23 151.475 262.23Z" fill="#575988"/>
<path opacity="0.05" d="M167.093 250.214C167.093 250.214 166.893 250.822 169.51 251.627C172.127 252.432 172.933 253.241 172.933 253.241" fill="black"/>
<path d="M74.2847 159.482L172.221 226.85L74.2847 294.213V159.482Z" fill="#F0F5F7"/>
<path d="M270.155 159.482L172.222 226.85L270.155 294.213V159.482Z" fill="#F0F5F7"/>
<path d="M74.2847 294.213L168.378 220.807C169.473 219.942 170.826 219.471 172.22 219.471C173.613 219.471 174.967 219.942 176.061 220.807L270.155 294.213H74.2847Z" fill="url(#paint1_linear)"/>
<path d="M74.2847 294.213L168.378 224.017C169.488 223.189 170.836 222.741 172.22 222.741C173.604 222.741 174.951 223.189 176.061 224.017L270.155 294.213H74.2847Z" fill="#F0F5F7"/>
</g>
<defs>
<linearGradient id="paint0_linear" x1="172.221" y1="296.687" x2="172.221" y2="65.5117" gradientUnits="userSpaceOnUse">
<stop stop-color="#808080" stop-opacity="0.25"/>
<stop offset="0.54" stop-color="#808080" stop-opacity="0.12"/>
<stop offset="1" stop-color="#808080" stop-opacity="0.1"/>
</linearGradient>
<linearGradient id="paint1_linear" x1="112081" y1="62487.6" x2="112081" y2="47224.6" gradientUnits="userSpaceOnUse">
<stop stop-color="#808080" stop-opacity="0.25"/>
<stop offset="0.54" stop-color="#808080" stop-opacity="0.12"/>
<stop offset="1" stop-color="#808080" stop-opacity="0.1"/>
</linearGradient>
<clipPath id="clip0">
<rect width="365" height="308" fill="white"/>
</clipPath>
</defs>
</svg>
