<svg width="233" height="250" viewBox="0 0 233 250" fill="none" xmlns="http://www.w3.org/2000/svg">
<path d="M116.465 232.143C115.828 232.143 115.192 232.136 114.555 232.129L114.583 230.387C117.465 230.436 120.39 230.373 123.258 230.206L123.363 231.948C121.082 232.073 118.767 232.143 116.465 232.143ZM105.768 231.655C102.851 231.39 99.913 231.014 97.0378 230.533L97.3246 228.819C100.158 229.293 103.054 229.662 105.922 229.927L105.768 231.655ZM132.128 231.105L131.898 229.377C134.752 228.993 137.627 228.498 140.447 227.906L140.81 229.614C137.949 230.213 135.025 230.714 132.128 231.105ZM88.4122 228.756C85.5719 228.059 82.7245 227.237 79.9472 226.331L80.493 224.673C83.2212 225.572 86.0267 226.373 88.825 227.063L88.4122 228.756ZM149.338 227.46L148.848 225.788C151.612 224.98 154.382 224.053 157.068 223.042L157.684 224.673C154.956 225.697 152.15 226.638 149.338 227.46ZM71.6923 223.265C68.9921 222.144 66.2985 220.903 63.6891 219.586L64.4798 218.032C67.0472 219.335 69.6985 220.555 72.3639 221.656L71.6923 223.265ZM165.792 221.259L165.05 219.684C167.66 218.471 170.248 217.14 172.76 215.733L173.62 217.252C171.074 218.673 168.443 220.025 165.792 221.259ZM55.9937 215.308C53.4963 213.796 51.027 212.165 48.6484 210.465L49.6697 209.051C52.0133 210.723 54.4478 212.332 56.9104 213.817L55.9937 215.308ZM181.12 212.653L180.147 211.204C182.547 209.608 184.904 207.901 187.171 206.138L188.248 207.51C185.947 209.308 183.554 211.036 181.12 212.653ZM41.6806 205.085C39.4349 203.218 37.2383 201.232 35.1466 199.204L36.3708 197.957C38.4345 199.957 40.5963 201.908 42.807 203.755L41.6806 205.085ZM194.971 201.852L193.796 200.563C195.923 198.633 198 196.591 199.98 194.508L201.253 195.699C199.245 197.818 197.133 199.887 194.971 201.852ZM29.0743 192.856C27.1366 190.675 25.2616 188.39 23.4987 186.069L24.8908 185.017C26.6258 187.303 28.4726 189.553 30.3824 191.707L29.0743 192.856ZM207.053 189.094L205.696 188C207.514 185.763 209.263 183.435 210.9 181.087L212.335 182.077C210.677 184.467 208.893 186.829 207.053 189.094ZM18.4548 178.878C16.8667 176.425 15.3556 173.889 13.9705 171.332L15.5095 170.502C16.8807 173.018 18.3638 175.519 19.9308 177.93L18.4548 178.878ZM217.078 174.676L215.566 173.798C217.022 171.318 218.407 168.76 219.666 166.182L221.24 166.949C219.953 169.562 218.554 172.161 217.078 174.676ZM10.0668 163.479C8.87057 160.824 7.76528 158.085 6.77887 155.354L8.42285 154.761C9.39525 157.458 10.4866 160.148 11.6619 162.768L10.0668 163.479ZM224.801 158.914L223.178 158.273C224.241 155.604 225.214 152.866 226.074 150.12L227.746 150.636C226.872 153.416 225.885 156.204 224.801 158.914ZM4.12046 146.992C3.34393 144.184 2.66539 141.313 2.10572 138.456L3.81964 138.121C4.37231 140.936 5.03692 143.766 5.80646 146.532L4.12046 146.992ZM230.041 142.163L228.334 141.773C228.978 138.978 229.523 136.121 229.95 133.285L231.678 133.543C231.251 136.435 230.692 139.334 230.041 142.163ZM0.741547 129.787C0.398755 126.896 0.167896 123.955 0.0419728 121.049L1.79091 120.973C1.90983 123.843 2.14068 126.735 2.47648 129.585L0.741547 129.787ZM232.671 124.833L230.929 124.701C231.139 121.851 231.251 118.945 231.251 116.067H233C233 118.994 232.888 121.941 232.671 124.833ZM231.244 114.91C231.216 112.039 231.076 109.134 230.838 106.277L232.58 106.13C232.825 109.029 232.965 111.97 232.993 114.889L231.244 114.91ZM1.74893 112.325L0 112.269C0.0909445 109.35 0.300813 106.409 0.608627 103.524L2.35056 103.713C2.04274 106.555 1.83988 109.454 1.74893 112.325ZM229.775 97.7059C229.313 94.8699 228.74 92.0199 228.068 89.2324L229.768 88.8283C230.454 91.6574 231.034 94.5492 231.503 97.427L229.775 97.7059ZM3.60277 95.1625L1.88185 94.8419C2.41353 91.9709 3.06413 89.0931 3.81267 86.285L5.50564 86.7309C4.76408 89.5043 4.12745 92.3403 3.60277 95.1625ZM225.717 80.9194C224.836 78.1949 223.836 75.4635 222.744 72.8084L224.36 72.1464C225.466 74.8431 226.487 77.6166 227.382 80.3829L225.717 80.9194ZM8.03809 78.4737L6.38712 77.9023C7.35253 75.1497 8.42984 72.3975 9.59814 69.7286L11.2002 70.4255C10.0529 73.0523 8.98952 75.7561 8.03809 78.4737ZM219.162 64.9413C217.875 62.3842 216.469 59.8337 214.993 57.374L216.49 56.475C217.994 58.9768 219.421 61.562 220.729 64.161L219.162 64.9413ZM14.9708 62.6281L13.4248 61.8128C14.796 59.2344 16.2791 56.6842 17.8391 54.2174L19.3152 55.1441C17.7831 57.576 16.321 60.0916 14.9708 62.6281ZM210.25 50.1411C208.585 47.7997 206.815 45.4862 204.982 43.2844L206.332 42.1763C208.193 44.4202 209.991 46.7615 211.684 49.1446L210.25 50.1411ZM24.2262 48.0158L22.8201 46.9776C24.562 44.6362 26.4158 42.3367 28.3328 40.1347L29.655 41.2776C27.7731 43.4446 25.9401 45.7163 24.2262 48.0158ZM199.211 36.8319C197.21 34.7622 195.111 32.7485 192.963 30.8321L194.132 29.536C196.307 31.4801 198.441 33.5288 200.47 35.6263L199.211 36.8319ZM35.5804 34.9574L34.3491 33.724C36.4269 31.6684 38.6025 29.6686 40.8272 27.7801L41.9605 29.1041C39.7708 30.9645 37.6231 32.9365 35.5804 34.9574ZM186.282 25.3134C183.995 23.5714 181.616 21.885 179.203 20.3102L180.161 18.8539C182.61 20.4496 185.03 22.1568 187.346 23.9337L186.282 25.3134ZM48.7602 23.7456L47.7248 22.338C50.0825 20.6168 52.5379 18.9654 55.0215 17.4323L55.9448 18.9096C53.4963 20.4287 51.0828 22.0523 48.7602 23.7456ZM171.766 15.8645C169.241 14.4779 166.631 13.1748 164.008 11.9833L164.736 10.3945C167.394 11.6 170.045 12.9309 172.613 14.3385L171.766 15.8645ZM63.4723 14.6312L62.6609 13.0842C65.2561 11.7394 67.9287 10.4711 70.6149 9.32837L71.3006 10.9311C68.6631 12.0599 66.0327 13.3073 63.4723 14.6312ZM155.977 8.69431C153.269 7.70485 150.499 6.81286 147.729 6.03242L148.205 4.35316C151.017 5.14753 153.836 6.05339 156.585 7.05681L155.977 8.69431ZM79.3946 7.83725L78.828 6.18579C81.5912 5.24508 84.4315 4.40186 87.2649 3.6702L87.6986 5.35653C84.9142 6.08122 82.1159 6.91049 79.3946 7.83725ZM139.299 4.00475C136.487 3.44033 133.605 2.97347 130.736 2.61809L130.953 0.889906C133.863 1.25225 136.788 1.7261 139.642 2.29749L139.299 4.00475ZM96.1773 3.5239L95.8695 1.80975C98.7377 1.30107 101.669 0.889959 104.586 0.597296L104.761 2.33237C101.893 2.61806 99.0038 3.02219 96.1773 3.5239ZM122.097 1.87942C119.214 1.74005 116.29 1.71217 113.422 1.78185L113.373 0.0398074C116.29 -0.0368424 119.256 -0.0019914 122.181 0.137372L122.097 1.87942Z" fill="#A2C7EE"/>
<path opacity="0.4" d="M117.272 208.999C168.353 208.999 209.762 167.742 209.762 116.848C209.762 65.9553 168.353 24.6982 117.272 24.6982C66.1908 24.6982 24.7812 65.9553 24.7812 116.848C24.7812 167.742 66.1908 208.999 117.272 208.999Z" fill="#A2C7EE"/>
<path d="M100.989 192.616L99.6717 197.718C97.1719 207.403 104.513 216.836 114.55 216.836H121.013C131.05 216.836 138.391 207.403 135.891 197.718L134.574 192.616C132.828 185.851 126.707 181.122 119.696 181.122H115.867C108.856 181.122 102.734 185.851 100.989 192.616Z" fill="white"/>
<path fill-rule="evenodd" clip-rule="evenodd" d="M99.7482 192.299C101.64 184.97 108.271 179.847 115.867 179.847H119.695C127.291 179.847 133.922 184.97 135.814 192.299C135.814 192.299 135.814 192.299 135.814 192.299L137.131 197.401C139.839 207.893 131.886 218.112 121.012 218.112H114.55C103.676 218.112 95.7233 207.893 98.4314 197.401M98.4314 197.401L99.7482 192.299C99.7482 192.299 99.7482 192.299 99.7482 192.299M115.867 182.398C109.44 182.398 103.828 186.733 102.228 192.934L102.228 192.934L100.911 198.036L100.911 198.036C98.6197 206.914 105.349 215.561 114.55 215.561H121.012C130.213 215.561 136.942 206.914 134.651 198.036L135.891 197.719L134.651 198.036L133.334 192.934L133.334 192.934C131.734 186.733 126.122 182.398 119.695 182.398H115.867Z" fill="#005180"/>
<path d="M100.989 184.964L99.6717 190.066C97.1719 199.751 104.513 209.184 114.55 209.184H121.013C131.05 209.184 138.391 199.751 135.891 190.066L134.574 184.964C132.828 178.199 126.707 173.47 119.696 173.47H115.867C108.856 173.47 102.734 178.199 100.989 184.964Z" fill="white"/>
<path fill-rule="evenodd" clip-rule="evenodd" d="M99.7482 184.647C101.64 177.318 108.271 172.194 115.867 172.194H119.695C127.291 172.194 133.922 177.318 135.814 184.647C135.814 184.647 135.814 184.647 135.814 184.647L137.131 189.749C139.839 200.241 131.886 210.46 121.012 210.46H114.55C103.676 210.46 95.7233 200.241 98.4314 189.749M98.4314 189.749L99.7482 184.647C99.7482 184.647 99.7482 184.647 99.7482 184.647M115.867 174.745C109.44 174.745 103.828 179.08 102.228 185.282L102.228 185.282L100.911 190.384L100.911 190.384C98.6197 199.262 105.349 207.909 114.55 207.909H121.012C130.213 207.909 136.942 199.262 134.651 190.384L135.891 190.066L134.651 190.384L133.334 185.282L133.334 185.282C131.734 179.08 126.122 174.745 119.695 174.745H115.867Z" fill="#005180"/>
<path d="M82.9037 212.871L76.8792 225.626C72.0843 235.778 79.5185 247.449 90.7796 247.449H144.781C156.042 247.449 163.476 235.778 158.681 225.626L152.657 212.871C150.123 207.506 144.707 204.082 138.756 204.082H96.804C90.8533 204.082 85.4375 207.506 82.9037 212.871Z" fill="white"/>
<path fill-rule="evenodd" clip-rule="evenodd" d="M81.7458 212.327C84.4908 206.515 90.3579 202.806 96.8045 202.806H138.757C145.203 202.806 151.071 206.515 153.816 212.327L152.657 212.87L153.816 212.327L159.84 225.082C165.035 236.08 156.981 248.724 144.781 248.724H90.7801C78.5806 248.724 70.5268 236.08 75.7213 225.082L81.7458 212.327L81.7458 212.327ZM84.0625 213.413C84.0625 213.413 84.0625 213.413 84.0625 213.413L78.0381 226.168L76.8797 225.625L78.0381 226.168C73.6427 235.474 80.4574 246.173 90.7801 246.173H144.781C155.104 246.173 161.919 235.474 157.523 226.168L158.682 225.625L157.523 226.168L151.499 213.413C149.176 208.496 144.212 205.357 138.757 205.357H96.8045C91.3497 205.357 86.3852 208.496 84.0625 213.413Z" fill="#005180"/>
<path d="M100.989 174.76L99.6717 179.862C97.1719 189.547 104.513 198.98 114.55 198.98H121.013C131.05 198.98 138.391 189.547 135.891 179.862L134.574 174.76C132.828 167.995 126.707 163.266 119.696 163.266H115.867C108.856 163.266 102.734 167.995 100.989 174.76Z" fill="white"/>
<path fill-rule="evenodd" clip-rule="evenodd" d="M99.7482 174.442C101.64 167.113 108.271 161.99 115.867 161.99H119.695C127.291 161.99 133.922 167.113 135.814 174.442C135.814 174.442 135.814 174.442 135.814 174.442L137.131 179.545C139.839 190.037 131.886 200.256 121.012 200.256H114.55C103.676 200.256 95.7233 190.037 98.4314 179.545M98.4314 179.544L99.7482 174.442C99.7482 174.442 99.7482 174.442 99.7482 174.442M115.867 164.541C109.44 164.541 103.828 168.876 102.228 175.078L102.228 175.078L100.911 180.18L100.911 180.18C98.6197 189.058 105.349 197.705 114.55 197.705H121.012C130.213 197.705 136.942 189.058 134.651 180.18L135.891 179.862L134.651 180.18L133.334 175.078L133.334 175.078C131.734 168.876 126.122 164.541 119.695 164.541H115.867Z" fill="#005180"/>
<path d="M100.989 167.107L99.6717 172.209C97.1719 181.894 104.513 191.327 114.55 191.327H121.013C131.05 191.327 138.391 181.894 135.891 172.209L134.574 167.107C132.828 160.341 126.707 155.612 119.696 155.612H115.867C108.856 155.612 102.734 160.341 100.989 167.107Z" fill="white"/>
<path fill-rule="evenodd" clip-rule="evenodd" d="M99.7482 166.789C101.64 159.46 108.271 154.337 115.867 154.337H119.695C127.291 154.337 133.922 159.46 135.814 166.789C135.814 166.789 135.814 166.789 135.814 166.789L137.131 171.891C139.839 182.383 131.886 192.602 121.012 192.602H114.55C103.676 192.602 95.7233 182.383 98.4314 171.891M98.4314 171.891L99.7482 166.789C99.7482 166.789 99.7482 166.789 99.7482 166.789M115.867 156.888C109.44 156.888 103.828 161.223 102.228 167.424L102.228 167.424L100.911 172.527L100.911 172.527C98.6197 181.404 105.349 190.051 114.55 190.051H121.012C130.213 190.051 136.942 181.404 134.651 172.527L135.891 172.209L134.651 172.527L133.334 167.424L133.334 167.424C131.734 161.223 126.122 156.888 119.695 156.888H115.867Z" fill="#005180"/>
<path d="M181.791 140.307C186.033 140.307 189.472 131.17 189.472 119.898C189.472 108.627 186.033 99.4902 181.791 99.4902C177.548 99.4902 174.109 108.627 174.109 119.898C174.109 131.17 177.548 140.307 181.791 140.307Z" fill="white"/>
<path fill-rule="evenodd" clip-rule="evenodd" d="M177.557 105.915C176.233 109.431 175.389 114.374 175.389 119.898C175.389 125.421 176.233 130.364 177.557 133.88C178.22 135.643 178.98 136.981 179.758 137.856C180.537 138.732 181.227 139.03 181.79 139.03C182.353 139.03 183.042 138.732 183.822 137.856C184.6 136.981 185.359 135.643 186.022 133.88C187.346 130.364 188.191 125.421 188.191 119.898C188.191 114.374 187.346 109.431 186.022 105.915C185.359 104.152 184.6 102.814 183.822 101.939C183.042 101.063 182.353 100.765 181.79 100.765C181.227 100.765 180.537 101.063 179.758 101.939C178.98 102.814 178.22 104.152 177.557 105.915ZM177.842 100.247C178.9 99.0574 180.232 98.2139 181.79 98.2139C183.348 98.2139 184.679 99.0574 185.738 100.247C186.797 101.438 187.693 103.089 188.42 105.019C189.876 108.889 190.751 114.15 190.751 119.898C190.751 125.646 189.876 130.906 188.42 134.776C187.693 136.706 186.797 138.357 185.738 139.548C184.679 140.738 183.348 141.581 181.79 141.581C180.232 141.581 178.9 140.738 177.842 139.548C176.782 138.357 175.886 136.706 175.159 134.776C173.703 130.906 172.828 125.646 172.828 119.898C172.828 114.15 173.703 108.889 175.159 105.019C175.886 103.089 176.782 101.438 177.842 100.247Z" fill="#005180"/>
<path d="M53.7673 140.307C58.0095 140.307 61.4486 131.17 61.4486 119.898C61.4486 108.627 58.0095 99.4902 53.7673 99.4902C49.525 99.4902 46.0859 108.627 46.0859 119.898C46.0859 131.17 49.525 140.307 53.7673 140.307Z" fill="white"/>
<path fill-rule="evenodd" clip-rule="evenodd" d="M49.5334 105.915C48.2099 109.431 47.3651 114.374 47.3651 119.898C47.3651 125.421 48.2099 130.364 49.5334 133.88C50.1969 135.643 50.9562 136.981 51.7342 137.856C52.5137 138.732 53.2033 139.03 53.7662 139.03C54.3292 139.03 55.0188 138.732 55.7982 137.856C56.5763 136.981 57.3355 135.643 57.999 133.88C59.3225 130.364 60.1673 125.421 60.1673 119.898C60.1673 114.374 59.3225 109.431 57.999 105.915C57.3355 104.152 56.5763 102.814 55.7982 101.939C55.0188 101.063 54.3292 100.765 53.7662 100.765C53.2033 100.765 52.5137 101.063 51.7342 101.939C50.9562 102.814 50.1969 104.152 49.5334 105.915ZM49.8184 100.247C50.8769 99.0574 52.2081 98.2139 53.7662 98.2139C55.3244 98.2139 56.6555 99.0574 57.7141 100.247C58.7739 101.438 59.6699 103.089 60.3964 105.019C61.853 108.889 62.7278 114.15 62.7278 119.898C62.7278 125.646 61.853 130.906 60.3964 134.776C59.6699 136.706 58.7739 138.357 57.7141 139.548C56.6555 140.738 55.3244 141.581 53.7662 141.581C52.2081 141.581 50.8769 140.738 49.8184 139.548C48.7585 138.357 47.8625 136.706 47.136 134.776C45.6794 130.906 44.8047 125.646 44.8047 119.898C44.8047 114.15 45.6794 108.889 47.136 105.019C47.8625 103.089 48.7585 101.438 49.8184 100.247Z" fill="#005180"/>
<path d="M153.623 76.5303H81.9305C66.3755 76.5303 53.7656 89.0937 53.7656 104.591V155.612C53.7656 171.11 66.3755 183.673 81.9305 183.673H153.623C169.178 183.673 181.788 171.11 181.788 155.612V104.591C181.788 89.0937 169.178 76.5303 153.623 76.5303Z" fill="white"/>
<path fill-rule="evenodd" clip-rule="evenodd" d="M81.9372 77.8059C67.0893 77.8059 55.0526 89.7983 55.0526 104.592V155.612C55.0526 170.405 67.0893 182.398 81.9372 182.398H153.63C168.478 182.398 180.514 170.405 180.514 155.612V104.592C180.514 89.7983 168.478 77.8059 153.63 77.8059H81.9372ZM52.4922 104.592C52.4922 88.3894 65.6752 75.2549 81.9372 75.2549H153.63C169.892 75.2549 183.075 88.3894 183.075 104.592V155.612C183.075 171.814 169.892 184.949 153.63 184.949H81.9372C65.6752 184.949 52.4922 171.814 52.4922 155.612V104.592Z" fill="#005180"/>
<path d="M151.065 99.4902H84.4934C74.5947 99.4902 66.5703 107.485 66.5703 117.347V153.062C66.5703 162.924 74.5947 170.919 84.4934 170.919H151.065C160.963 170.919 168.988 162.924 168.988 153.062V117.347C168.988 107.485 160.963 99.4902 151.065 99.4902Z" fill="white"/>
<path fill-rule="evenodd" clip-rule="evenodd" d="M84.4924 100.765C75.3008 100.765 67.8495 108.189 67.8495 117.347V153.061C67.8495 162.219 75.3008 169.642 84.4924 169.642H151.064C160.255 169.642 167.707 162.219 167.707 153.061V117.347C167.707 108.189 160.255 100.765 151.064 100.765H84.4924ZM65.2891 117.347C65.2891 106.78 73.8867 98.2139 84.4924 98.2139H151.064C161.669 98.2139 170.267 106.78 170.267 117.347V153.061C170.267 163.627 161.669 172.193 151.064 172.193H84.4924C73.8867 172.193 65.2891 163.627 65.2891 153.061V117.347Z" fill="#005180"/>
<path d="M139.547 137.756C144.497 137.756 148.509 133.758 148.509 128.827C148.509 123.896 144.497 119.898 139.547 119.898C134.598 119.898 130.586 123.896 130.586 128.827C130.586 133.758 134.598 137.756 139.547 137.756Z" fill="#005180"/>
<path d="M96.0162 137.756C100.966 137.756 104.978 133.758 104.978 128.827C104.978 123.896 100.966 119.898 96.0162 119.898C91.0669 119.898 87.0547 123.896 87.0547 128.827C87.0547 133.758 91.0669 137.756 96.0162 137.756Z" fill="#005180"/>
<path d="M133.302 154.337C131.728 151.622 129.466 149.368 126.741 147.801C124.017 146.233 120.926 145.408 117.78 145.408C114.633 145.408 111.543 146.233 108.818 147.801C106.094 149.368 103.831 151.622 102.258 154.337L105.54 156.225C106.78 154.084 108.565 152.307 110.713 151.071C112.862 149.835 115.299 149.184 117.78 149.184C120.261 149.184 122.698 149.835 124.846 151.071C126.995 152.306 128.779 154.084 130.019 156.225L133.302 154.337Z" fill="#005180"/>
<path fill-rule="evenodd" clip-rule="evenodd" d="M119.06 61.2246V76.5307H116.5V61.2246H119.06Z" fill="#005180"/>
<path d="M117.783 63.7758C122.025 63.7758 125.464 60.3495 125.464 56.1228C125.464 51.8961 122.025 48.4697 117.783 48.4697C113.541 48.4697 110.102 51.8961 110.102 56.1228C110.102 60.3495 113.541 63.7758 117.783 63.7758Z" fill="white"/>
<path fill-rule="evenodd" clip-rule="evenodd" d="M117.782 49.7454C114.247 49.7454 111.381 52.6007 111.381 56.1229C111.381 59.6451 114.247 62.5005 117.782 62.5005C121.317 62.5005 124.183 59.6451 124.183 56.1229C124.183 52.6007 121.317 49.7454 117.782 49.7454ZM108.82 56.1229C108.82 51.1918 112.833 47.1943 117.782 47.1943C122.731 47.1943 126.743 51.1918 126.743 56.1229C126.743 61.054 122.731 65.0515 117.782 65.0515C112.833 65.0515 108.82 61.054 108.82 56.1229Z" fill="#005180"/>
<path fill-rule="evenodd" clip-rule="evenodd" d="M100.167 110.931L79.6835 116.033L79.0625 113.558L99.546 108.456L100.167 110.931Z" fill="#005180"/>
<path fill-rule="evenodd" clip-rule="evenodd" d="M136.012 108.456L156.495 113.558L155.874 116.033L135.391 110.931L136.012 108.456Z" fill="#005180"/>
<path fill-rule="evenodd" clip-rule="evenodd" d="M142.454 52.2468L133.492 54.7978L132.789 52.345L141.751 49.7939L142.454 52.2468Z" fill="#005180"/>
<path fill-rule="evenodd" clip-rule="evenodd" d="M134.144 39.0624L129.023 45.4399L127.023 43.8463L132.144 37.4688L134.144 39.0624Z" fill="#005180"/>
<path fill-rule="evenodd" clip-rule="evenodd" d="M92.5237 49.7939L101.485 52.345L100.782 54.7978L91.8203 52.2468L92.5237 49.7939Z" fill="#005180"/>
<path fill-rule="evenodd" clip-rule="evenodd" d="M102.14 37.4688L107.261 43.8463L105.262 45.4399L100.141 39.0624L102.14 37.4688Z" fill="#005180"/>
<path fill-rule="evenodd" clip-rule="evenodd" d="M119.06 33.1631V39.5406H116.5V33.1631H119.06Z" fill="#005180"/>
</svg>
