<svg width="105" height="117" viewBox="0 0 105 117" fill="none" xmlns="http://www.w3.org/2000/svg">
<path d="M76.3351 116.935C56.8199 118.471 54.5599 92.2235 74.2742 90.6722C93.6926 89.1452 95.7752 115.406 76.3351 116.935ZM61.92 84.1779C59.0594 78.1887 58.2737 69.2494 61.3909 62.16C66.646 50.1927 81.1049 45.3088 80.0407 31.7456C79.7723 28.3292 78.2535 25.5816 76.0174 23.8139C70.1327 19.1615 60.6637 21.6237 53.9053 24.8725C49.5886 26.9488 45.5792 29.8925 41.88 33.705L40 9.75032C48.1125 3.98689 57.9286 0.973512 67.7257 0.203012C87.8033 -1.37646 103.307 6.16228 104.885 26.2674C106.324 44.6039 93.9466 52.7272 85.6439 61.8934C81.035 66.9812 79.9934 70.9015 80.3506 75.4414C80.5344 77.7887 81.4139 80.6861 82.8266 82.5333L61.92 84.1779Z" fill="#19B9DE"/>
<path d="M34.6443 96.7755C25.6443 100.419 20.6563 88.3624 29.7482 84.6818C38.7037 81.0569 43.6098 93.1462 34.6443 96.7755ZM22.9357 83.4625C20.6886 81.0621 18.9822 76.9582 19.3979 73.1443C20.0963 66.7073 26.2051 62.2388 23.6766 55.9931C23.0396 54.42 21.911 53.3496 20.5896 52.8492C17.1118 51.5323 13.0013 54.111 10.2901 56.6558C8.55862 58.2818 7.10203 60.2714 5.92181 62.6249L1.45588 51.5942C4.43194 47.6594 8.62437 44.7685 13.1427 42.9396C22.4021 39.1913 30.86 40.4329 34.6082 49.691C38.0267 58.1346 33.386 63.8216 30.8281 69.3916C29.4081 72.4834 29.5009 74.4904 30.3476 76.5808C30.7851 77.6618 31.6336 78.8985 32.5776 79.5595L22.9357 83.4625Z" fill="#FADB1E"/>
</svg>
