<svg width="48" height="48" viewBox="0 0 48 48" fill="none" xmlns="http://www.w3.org/2000/svg">
<path d="M9 20H20C21.4001 19.9967 22.7549 19.5039 23.8299 18.607C24.9049 17.71 25.6324 16.4654 25.8864 15.0885C26.1404 13.7117 25.9049 12.2894 25.2207 11.0679C24.5365 9.8464 23.4467 8.90263 22.14 8.4C21.388 6.92407 20.1965 5.71795 18.7298 4.94813C17.2631 4.17831 15.5936 3.88274 13.9517 4.10224C12.3099 4.32174 10.7767 5.04547 9.56371 6.17354C8.35075 7.3016 7.51785 8.77837 7.18 10.4C6.12961 10.8463 5.26352 11.6385 4.72557 12.645C4.18763 13.6516 4.01021 14.8119 4.22279 15.9332C4.43537 17.0545 5.02515 18.0693 5.89417 18.8091C6.76319 19.5489 7.85915 19.9691 9 20ZM9 14C9.53043 14 10.0391 13.7893 10.4142 13.4142C10.7893 13.0391 11 12.5304 11 12C11.0066 11.0565 11.3465 10.1458 11.9596 9.42866C12.5727 8.71154 13.4196 8.23423 14.3505 8.08106C15.2815 7.92789 16.2366 8.10873 17.0472 8.59163C17.8577 9.07452 18.4715 9.82839 18.78 10.72C18.8973 11.06 19.1041 11.362 19.3787 11.5943C19.6532 11.8266 19.9853 11.9806 20.34 12.04C20.8028 12.1198 21.2227 12.36 21.5262 12.7183C21.8297 13.0767 21.9974 13.5304 22 14C22 14.5304 21.7893 15.0391 21.4142 15.4142C21.0391 15.7893 20.5304 16 20 16H9C8.73478 16 8.48043 15.8946 8.29289 15.7071C8.10536 15.5196 8 15.2652 8 15C8 14.7348 8.10536 14.4804 8.29289 14.2929C8.48043 14.1054 8.73478 14 9 14ZM38 4H28C27.4696 4 26.9609 4.21071 26.5858 4.58579C26.2107 4.96086 26 5.46957 26 6C26 6.53043 26.2107 7.03914 26.5858 7.41421C26.9609 7.78929 27.4696 8 28 8H38C38.5304 8 39.0391 8.21071 39.4142 8.58579C39.7893 8.96086 40 9.46957 40 10V24H6C5.46957 24 4.96086 24.2107 4.58579 24.5858C4.21071 24.9609 4 25.4696 4 26V30C4 31.5913 4.63214 33.1174 5.75736 34.2426C6.88258 35.3679 8.4087 36 10 36H16V40H10C9.46957 40 8.96086 40.2107 8.58579 40.5858C8.21071 40.9609 8 41.4696 8 42C8 42.5304 8.21071 43.0391 8.58579 43.4142C8.96086 43.7893 9.46957 44 10 44H38C38.5304 44 39.0391 43.7893 39.4142 43.4142C39.7893 43.0391 40 42.5304 40 42C40 41.4696 39.7893 40.9609 39.4142 40.5858C39.0391 40.2107 38.5304 40 38 40H32V36H38C39.5913 36 41.1174 35.3679 42.2426 34.2426C43.3679 33.1174 44 31.5913 44 30V10C44 8.4087 43.3679 6.88258 42.2426 5.75736C41.1174 4.63214 39.5913 4 38 4ZM28 40H20V36H28V40ZM40 30C40 30.5304 39.7893 31.0391 39.4142 31.4142C39.0391 31.7893 38.5304 32 38 32H10C9.46957 32 8.96086 31.7893 8.58579 31.4142C8.21071 31.0391 8 30.5304 8 30V28H40V30Z" fill="#174F77"/>
</svg>
