<svg width="182" height="69" viewBox="0 0 182 69" fill="none" xmlns="http://www.w3.org/2000/svg">
<path fill-rule="evenodd" clip-rule="evenodd" d="M58.9417 22.5696V42.2165H71.2356V39.746H61.3534V33.5695H69.6474V31.0989H61.3534V25.0402H70.5886V22.5696H58.9417ZM79.4709 37.0397L83.4709 42.2749H86.2943L81.1179 35.275L86.5885 28.0398H83.4709L79.4709 33.4515L75.5297 28.0398H72.3532L78.1179 35.275L72.6474 42.2749H75.4709L79.4709 37.0397ZM90.1768 40.1575V49.8633H87.765V35.334C87.765 31.6281 90.5885 27.6869 95.0002 27.6869C99.4708 27.6869 102.824 30.5104 102.824 35.1575C102.824 39.6869 99.4121 42.8045 95.5297 42.8045C93.6474 42.8045 91.118 41.981 90.1768 40.1575ZM100.294 35.1575C100.294 31.981 98.2355 30.0987 94.5885 30.2752C92.8239 30.334 90.1179 31.6281 90.3532 36.1575C90.412 37.6281 91.9415 40.3928 95.2944 40.3928C98.1768 40.3928 100.294 38.7457 100.294 35.1575ZM104.883 28.0397V42.2749V42.3337H107.295V33.6867C109.059 29.922 111.942 30.275 112.236 30.3338V27.7456C110.294 27.7456 108.471 28.2161 107.295 29.5691V28.0397H104.883ZM112.882 35.1575C112.882 31.0399 115.823 27.6869 119.882 27.6869C124.941 27.6869 126.823 31.0399 126.823 35.334V36.5104H115.529C115.706 39.2163 118.118 40.628 120.353 40.5692C122 40.5104 123.118 40.0398 124.294 38.8633L125.882 40.5104C124.412 41.9221 122.529 42.8633 120.235 42.8633C115.941 42.8045 112.882 39.628 112.882 35.1575ZM119.706 30.0987C117.412 30.0987 115.647 32.0987 115.529 34.2751H124.294C124.294 32.1575 122.765 30.0987 119.706 30.0987ZM129.821 38.6897L128.059 40.2756C128.059 40.2756 128.353 40.5697 128.471 40.5697C130.059 42.1579 132 42.8638 134.236 42.7461C136.118 42.6873 138.236 41.9226 138.941 39.9814C139.588 38.2167 139.177 35.9226 137.471 34.8638C136.476 34.2483 135.292 33.9758 134.131 33.7088C133.85 33.6441 133.57 33.5797 133.294 33.5109C132.236 33.2168 130.647 32.6874 131 31.2756C131.236 30.2756 132.53 29.8638 133.471 29.8638C135.353 29.8638 136.177 30.3933 137.059 31.4521L138.824 30.0403C138.866 30.0403 138.179 29.4024 137.746 28.9997L137.744 28.9978C137.575 28.8411 137.445 28.7204 137.412 28.6874C134.647 26.6874 128.53 27.3933 128.53 31.6874C128.53 33.3344 129.471 34.4521 130.941 35.0991C131.688 35.4384 132.473 35.6407 133.253 35.8414C133.825 35.9887 134.394 36.1352 134.941 36.3344C135.941 36.7462 136.824 37.3932 136.706 38.5697C136.471 40.6873 133.706 40.805 132.177 40.3932C131.647 40.2756 131.236 40.0403 130.824 39.6873C130.71 39.6302 129.819 38.7417 129.821 38.6897ZM140.47 40.2756L142.232 38.6897C142.231 38.7417 143.121 39.6302 143.235 39.6873C143.647 40.0403 144.059 40.2756 144.588 40.3932C146.117 40.805 148.882 40.6873 149.117 38.5697C149.235 37.3932 148.353 36.7462 147.353 36.3344C146.805 36.1352 146.236 35.9887 145.664 35.8414C144.885 35.6407 144.099 35.4384 143.353 35.0991C141.882 34.4521 140.941 33.3344 140.941 31.6874C140.941 27.3933 147.059 26.6874 149.823 28.6874C149.856 28.7204 149.987 28.8416 150.156 28.9988C150.59 29.4015 151.277 30.0403 151.235 30.0403L149.47 31.4521C148.588 30.3933 147.764 29.8638 145.882 29.8638C144.941 29.8638 143.647 30.2756 143.412 31.2756C143.059 32.6874 144.647 33.2168 145.706 33.5109C145.981 33.5797 146.261 33.6441 146.542 33.7088C147.703 33.9758 148.888 34.2483 149.882 34.8638C151.588 35.9226 152 38.2167 151.353 39.9814C150.647 41.9226 148.529 42.6873 146.647 42.7461C144.412 42.8638 142.47 42.1579 140.882 40.5697C140.764 40.5697 140.47 40.2756 140.47 40.2756Z" fill="#E43225"/>
<path fill-rule="evenodd" clip-rule="evenodd" d="M57.5881 23.6882V23.8058C55.7058 23.8646 54.1764 25.3941 54.1176 27.2764H53.9411H53.7646C53.7058 25.3941 52.1764 23.8646 50.2941 23.8058V23.6882V23.5705C52.1764 23.5117 53.7058 21.9823 53.7646 20.1H53.9411H54.1176C54.1764 21.9823 55.7058 23.5117 57.5881 23.5705V23.6882ZM40.8235 37.5706L42.5881 42.2765H44.9999L37.4117 22.5707H34.647L27 42.2765H29.5294L31.2941 37.5706H40.8235ZM32.3529 35.1589L35.9411 25.3942L39.8235 35.1589H32.3529ZM46.588 22.5707V42.2765H49.0585V22.5707H46.588ZM52.7648 42.2762V28.3351H55.2354V42.2762H52.7648Z" fill="#E43225"/>
</svg>
