<svg width="181" height="69" viewBox="0 0 181 69" fill="none" xmlns="http://www.w3.org/2000/svg">
<path fill-rule="evenodd" clip-rule="evenodd" d="M151.186 37.7067L148.91 39.0208C149.742 41.4483 152 42.9085 155.109 42.9267C156.812 42.9267 158.181 42.5252 159.218 41.6856C160.273 40.846 160.791 39.6961 160.791 38.2725C160.902 36.7575 159.995 35.6807 159.144 35.0236C158.903 34.8229 158.496 34.5856 157.978 34.3848C157.88 34.3456 157.787 34.3078 157.698 34.2717C157.33 34.1227 157.032 34.002 156.793 33.9285C156.516 33.8191 156.072 33.6731 155.461 33.4724V33.4722C152.999 32.7239 152.222 32.1764 152.222 31.0082C152.222 29.8036 153.203 29.037 154.739 29.037C156.312 29.037 157.441 29.7853 158.107 31.2455L160.328 29.9861C159.292 27.8141 157.312 26.5 154.739 26.5C153.314 26.5 152.093 26.9015 151.093 27.7412C150.075 28.5625 149.575 29.6576 149.575 31.063C149.575 32.4866 150.094 33.527 151.13 34.257C152.204 34.9506 152.962 35.2426 154.499 35.699C155.868 36.1005 156.83 36.4838 157.349 36.8306C157.867 37.1591 158.144 37.6337 158.144 38.2907C158.144 39.5318 157.163 40.3714 155.165 40.3714C153.148 40.3714 151.834 39.4953 151.186 37.7067ZM24.2976 42.6266L20 26.7837H22.8191L26.1211 38.9518L29.6599 26.7826L32.2878 26.7837L35.839 39.0165L39.1558 26.7867L41.9748 26.7826L37.6754 42.6237L34.4078 42.6204L30.9749 30.7892L27.5388 42.6234L24.2976 42.6266ZM43.9189 26.792H46.6024V42.6164H43.9189V26.792ZM58.8725 40.1341H52.3395V26.792H49.7115V42.6164H58.8725V40.1341ZM67.1267 26.8102C69.329 26.8102 71.1612 27.5768 72.6048 29.0917C74.0668 30.6066 74.8071 32.4866 74.8071 34.7133C74.8071 36.9218 74.0668 38.8017 72.6048 40.3349C71.1612 41.8498 69.329 42.6164 67.1267 42.6164H60.8158V26.792H67.1267V26.8102ZM67.1267 40.1524C68.6442 40.1524 69.8842 39.6413 70.8096 38.6192C71.772 37.5971 72.2531 36.283 72.2531 34.7316C72.2531 33.1437 71.772 31.866 70.8096 30.8439C69.8657 29.8218 68.6258 29.3107 67.1267 29.3107H63.4623V40.1524H67.1267ZM87.5589 41.3281C88.5029 40.4698 88.9651 39.3923 88.9651 38.0958C88.9651 36.4523 88.1139 35.1375 86.7076 34.407C87.7807 33.6218 88.3362 32.5626 88.3362 31.1747C88.3362 29.933 87.8921 28.892 86.9664 28.052C86.0594 27.2303 84.9494 26.792 83.6353 26.792H77.2689V42.6246H84.1351C85.5044 42.6246 86.6149 42.1863 87.5589 41.3281ZM79.9152 33.4026V29.239H83.6535C84.8197 29.239 85.708 30.1521 85.708 31.3208C85.708 32.4895 84.8197 33.4026 83.6535 33.4026H79.9152ZM86.3375 37.968C86.3375 39.2097 85.3747 40.1776 84.1533 40.1776V40.1958H79.9152V35.7583H84.1533C85.3747 35.7583 86.3375 36.7262 86.3375 37.968ZM94.0915 40.141H101.198V42.6246H91.4639V26.792H101.088V29.2755H94.0915V33.3843H100.514V35.8496H94.0915V40.141ZM109.304 36.854L112.71 42.6246H115.615L111.97 36.4705C113.876 35.74 115.153 33.8957 115.153 31.8869C115.153 30.4625 114.634 29.2573 113.635 28.2894C112.654 27.285 111.433 26.792 109.989 26.792H103.567V42.6246H106.195V36.854H109.304ZM106.195 34.5348V29.239H109.971C111.359 29.239 112.488 30.426 112.488 31.8869C112.488 33.3661 111.377 34.5348 109.971 34.5348H106.195ZM126.757 42.6246L123.37 36.851H120.26V42.6246H117.633V26.7838H124.054C125.498 26.7838 126.72 27.2771 127.701 28.282C128.7 29.2504 129.218 30.4562 129.218 31.8813C129.218 33.8912 127.941 35.7365 126.035 36.4673L129.681 42.6246H126.757ZM120.26 29.2321V34.5306H124.036C125.443 34.5306 126.553 33.3613 126.553 31.8813C126.553 30.4197 125.424 29.2321 124.036 29.2321H120.26ZM134.234 26.7857H131.606V42.6247H134.234V26.7857ZM139.971 40.141H147.078V42.6245H137.343V26.792H146.966V29.2755H139.971V33.3843H146.393V35.8496H139.971V40.141Z" fill="#BE11A5"/>
</svg>
