<svg width="207" height="32" viewBox="0 0 207 32" fill="none" xmlns="http://www.w3.org/2000/svg">
<g clip-path="url(#clip0_1406_17253)">
<path opacity="0.6" fill-rule="evenodd" clip-rule="evenodd" d="M0.392578 30.2728C0.48963 31.2652 0.839293 31.5323 1.02514 31.7057H13.1759L7.94818 26.0671L6.18748 27.0602C5.59003 27.3823 4.96917 27.7481 4.28843 28.1259C3.62558 28.4868 2.45132 29.1338 0.392578 30.2728Z" fill="#05AFE5"/>
<path fill-rule="evenodd" clip-rule="evenodd" d="M0.393853 30.2794C0.393853 30.2794 3.60345 28.4997 4.24014 28.1599C5.35314 27.5446 7.97011 26.0744 7.97011 26.0744L5.42817 23.4771C4.95392 23.8626 4.58292 24.3813 4.06394 24.9572L1.29898 28.0888C0.687762 28.7217 0.369762 29.4773 0.393853 30.2794Z" fill="#416D9C"/>
<path fill-rule="evenodd" clip-rule="evenodd" d="M33.7805 7.46837L29.7085 7.47471L29.7119 14.1917C31.081 14.2622 32.7694 14.2453 34.146 14.2051C35.5619 14.1636 36.4946 13.4136 36.9922 12.5629C38.0591 10.7374 37.324 7.47189 33.7805 7.46837ZM42.2716 17.6912C41.6431 18.4968 39.9912 19.9551 38.8376 20.3879L45.0379 29.9151C45.4551 30.5637 45.441 30.8025 45.396 31.5629C45.3899 31.6643 45.3834 31.7749 45.3772 31.8971H37.324C37.0375 31.3584 36.7147 30.8349 36.3983 30.3215C36.1719 29.9542 35.9487 29.5921 35.7443 29.2335L30.8814 21.2104H29.7112V31.8914L22.2554 31.9006L22.2162 0.0598926C23.7663 -0.0500609 32.3151 0.0183076 34.3257 0.0535491C44.0577 0.226233 47.7478 10.6429 42.2716 17.6912ZM56.4349 7.65436L56.4632 24.5118C57.7056 24.6471 60.3418 24.5886 61.6496 24.5259C71.4897 24.0515 71.4023 8.11673 61.5691 7.64449C60.2936 7.58388 57.6526 7.5134 56.4349 7.65436ZM57.9873 31.9088C55.0389 31.9289 49.4149 31.9672 48.9392 31.8512L48.9578 0.348796C49.9464 0.228861 51.4361 0.265835 52.7635 0.298777C53.3316 0.312878 53.8701 0.326241 54.3266 0.326241C55.128 0.326241 55.9228 0.314404 56.7095 0.302686C61.0165 0.238537 65.083 0.177969 68.6786 2.08268C78.9978 7.55428 79.1534 24.6753 68.6601 30.154C65.7457 31.6757 63.2713 31.8998 59.5798 31.8998C59.3015 31.8998 58.7297 31.9037 57.9887 31.9088L57.9873 31.9088ZM87.6224 31.9993H93.0546L103.788 4.58844C103.91 4.26563 104.044 3.94145 104.178 3.61926C104.664 2.44679 105.139 1.30001 104.966 0.342541L97.3586 0.32774L90.4803 19.4096L83.4705 0.335493L75.8302 0.327035C75.6357 1.62211 76.1491 2.81908 76.6178 3.91165C76.7179 4.14509 76.816 4.37376 76.9047 4.5976L87.6224 31.9993ZM1.40432 27.9769C0.885331 28.5682 0.364966 29.1927 0.390434 30.2732C0.439304 30.7222 0.572148 31.3255 1.04295 31.709C-0.00284989 31.4083 0.00343506 29.8435 0.00955439 28.3199C0.0100201 28.204 0.0104848 28.0882 0.0104848 27.9734V13.9782C0.0104848 11.5281 -0.0708834 10.6292 0.219728 9.88595C0.448783 9.30015 0.908922 8.8111 1.82212 7.73556L6.74563 2.22027L4.88718 0.211502L18.0395 0.194586L18.0739 13.3164L16.0654 11.5459L1.40432 27.9769Z" fill="#174F77"/>
</g>
<rect x="116" width="91" height="32" rx="4" fill="#19B9DE"/>
<path d="M131.536 21.5H129.232V10.3H131.52L134.768 14.94L138.016 10.3H140.288V21.5H138.016V13.836L135.44 17.436H134.16L131.536 13.836V21.5ZM143.883 21.5H141.467L146.267 10.236H148.475L153.275 21.5H150.827L149.723 18.908H144.987L143.883 21.5ZM147.355 13.116L145.707 17.004H148.987L147.355 13.116ZM156.74 21.5H154.436V10.3H159.332C160.532 10.3 161.492 10.62 162.18 11.244C162.884 11.868 163.236 12.668 163.236 13.676C163.236 14.684 162.884 15.5 162.18 16.124C161.492 16.748 160.532 17.068 159.332 17.068H156.74V21.5ZM156.74 12.316V15.1H159.172C160.276 15.1 160.932 14.604 160.932 13.708C160.932 12.812 160.276 12.316 159.172 12.316H156.74ZM166.967 21.5H164.663V10.3H166.967V14.716L171.095 10.3H173.911L169.159 15.436L174.727 21.5H171.783L166.967 16.332V21.5ZM184.04 21.5H175.64V10.3H183.864V12.364H177.944V14.524H182.712V16.556H177.944V19.436H184.04V21.5ZM184.802 12.364V10.3H194.194V12.364H190.642V21.5H188.338V12.364H184.802Z" fill="white"/>
<defs>
<clipPath id="clip0_1406_17253">
<rect width="105" height="32" fill="white"/>
</clipPath>
</defs>
</svg>
