<svg width="56" height="56" viewBox="0 0 56 56" fill="none" xmlns="http://www.w3.org/2000/svg">
<rect width="56" height="56" fill="#7B519D"/>
<path fill-rule="evenodd" clip-rule="evenodd" d="M35.4706 31.6193L35.4705 31.6193C35.347 31.5348 35.2235 31.4504 35.1003 31.3657C33.6792 30.3871 32.3794 30.3111 31.3189 31.8854C30.7235 32.7692 29.8898 32.8079 29.0182 32.4202C26.6152 31.352 24.7597 29.7061 23.6728 27.3117C23.1919 26.2523 23.1983 25.3025 24.3232 24.5532C24.9188 24.157 25.5189 23.6881 25.4709 22.8223C25.4082 21.6933 22.6123 17.9205 21.5082 17.5223C21.0513 17.3575 20.5963 17.3682 20.1315 17.5214C17.5425 18.3749 16.4701 20.4624 17.4971 22.9341C20.5609 30.3081 25.9527 35.4417 33.3748 38.575C33.6833 38.7051 34.0168 38.7782 34.2671 38.8331L34.2671 38.8331C34.3601 38.8535 34.4416 38.8714 34.5061 38.8887C36.1959 38.9054 38.1754 37.3093 38.747 35.7253C39.2308 34.3859 38.3907 33.7564 37.5555 33.1306C37.4405 33.0444 37.3255 32.9583 37.2141 32.8704C36.6538 32.4282 36.0618 32.0234 35.4706 31.6193ZM28.8921 18.2783C34.3182 19.0963 36.8206 21.6258 37.5115 26.9837C37.5255 27.0915 37.5275 27.2111 37.5295 27.3325C37.5368 27.7683 37.5444 28.2263 38.1078 28.237C38.7369 28.2488 38.7135 27.7382 38.6925 27.281C38.6884 27.1911 38.6844 27.1034 38.6854 27.022C38.7491 21.9759 34.2611 17.2979 29.049 17.1254C28.9566 17.1385 28.8409 17.1307 28.7173 17.1224C28.3154 17.0954 27.8301 17.0627 27.7913 17.7237C27.7642 18.1908 28.1993 18.2218 28.6045 18.2507C28.7047 18.2579 28.803 18.2649 28.8921 18.2783ZM29.6744 20.7848C29.607 20.7767 29.5364 20.765 29.4647 20.7532C29.0602 20.6863 28.6208 20.6137 28.532 21.1409C28.4436 21.6686 28.8586 21.7254 29.2442 21.7783L29.2442 21.7783C29.3347 21.7907 29.4236 21.8029 29.504 21.8209C32.3764 22.4629 33.3766 23.5084 33.8496 26.3577C33.8633 26.4402 33.8689 26.5319 33.8745 26.6249V26.6249C33.8974 27.0002 33.9216 27.3984 34.4874 27.3125C34.8828 27.2523 34.8714 26.921 34.8611 26.623C34.8578 26.5267 34.8546 26.434 34.8653 26.3549C34.8885 23.6193 32.5444 21.1295 29.6744 20.7848ZM29.2368 23.3806C29.3465 23.0614 29.6396 23.0291 29.9382 23.0217C31.2115 22.9901 32.7036 24.516 32.6826 25.8362C32.6956 26.197 32.657 26.577 32.2301 26.6279C31.9221 26.6643 31.7197 26.4059 31.6879 26.087C31.5701 24.9119 30.95 24.2171 29.7717 24.0279C29.4187 23.9712 29.0719 23.8575 29.2368 23.3806Z" fill="white"/>
</svg>
