<svg width="56" height="56" viewBox="0 0 56 56" fill="none" xmlns="http://www.w3.org/2000/svg">
<rect width="56" height="56" fill="#F7931E"/>
<path fill-rule="evenodd" clip-rule="evenodd" d="M34.2219 22.3549C34.2219 25.6744 31.4249 28.3746 27.9841 28.3746C24.5441 28.3746 21.7464 25.6744 21.7464 22.3549C21.7464 19.0343 24.5441 16.3333 27.9841 16.3333C31.4249 16.3333 34.2219 19.0343 34.2219 22.3549ZM30.5669 22.3549C30.5669 20.9801 29.4084 19.8622 27.9842 19.8622C26.5611 19.8622 25.4014 20.9801 25.4014 22.3549C25.4014 23.7286 26.5611 24.8472 27.9842 24.8472C29.4084 24.8472 30.5669 23.7286 30.5669 22.3549Z" fill="white"/>
<path d="M34.146 31.8412C33.0181 32.525 31.7936 33.0099 30.5239 33.2892L34.0109 36.6555C34.7252 37.3436 34.7252 38.4612 34.0109 39.15C33.2973 39.8389 32.1407 39.8389 31.4278 39.15L27.9994 35.842L24.5739 39.15C24.2167 39.4941 23.7487 39.6663 23.2807 39.6663C22.8134 39.6663 22.3461 39.4941 21.989 39.15C21.2753 38.4612 21.2753 37.3443 21.9882 36.6555L25.4756 33.2892C24.2059 33.0099 22.9814 32.5243 21.8535 31.8412C20.9999 31.3217 20.7435 30.2333 21.2813 29.4087C21.8176 28.5829 22.9455 28.3344 23.8006 28.8539C26.3542 30.4045 29.6438 30.4048 32.1989 28.8539C33.0539 28.3344 34.1815 28.5829 34.7189 29.4087C35.2567 30.2326 34.9996 31.3217 34.146 31.8412Z" fill="white"/>
</svg>
