<svg width="56" height="56" viewBox="0 0 56 56" fill="none" xmlns="http://www.w3.org/2000/svg">
<rect width="56" height="56" fill="url(#paint0_linear_430_12193)"/>
<path fill-rule="evenodd" clip-rule="evenodd" d="M36.2666 19.7243C34.0731 17.5388 31.1561 16.3346 28.0484 16.3333C21.6448 16.3333 16.4329 21.5199 16.4304 27.8949C16.4296 29.9326 16.9644 31.9217 17.9812 33.6752L16.333 39.6666L22.4918 38.0588C24.1887 38.9799 26.0993 39.4655 28.0437 39.4662H28.0485C34.4514 39.4662 39.6637 34.279 39.6663 27.9039C39.6675 24.8146 38.46 21.9097 36.2666 19.7243ZM28.0485 37.5135H28.0446C26.3119 37.5128 24.6124 37.0495 23.1298 36.1739L22.7772 35.9658L19.1225 36.9198L20.098 33.3735L19.8684 33.0098C18.9018 31.4798 18.3912 29.7114 18.392 27.8954C18.3941 22.5968 22.7259 18.2861 28.0524 18.2861C30.6315 18.287 33.0561 19.2879 34.8792 21.1045C36.7023 22.921 37.7056 25.3355 37.7046 27.9033C37.7025 33.2023 33.3707 37.5135 28.0485 37.5135ZM33.3451 30.3159C33.0548 30.1714 31.6277 29.4724 31.3616 29.376C31.0956 29.2797 30.902 29.2315 30.7085 29.5207C30.515 29.8099 29.9585 30.4606 29.7892 30.6535C29.6199 30.8462 29.4505 30.8704 29.1603 30.7257C28.8699 30.5812 27.9347 30.276 26.8258 29.2918C25.9629 28.5257 25.3803 27.5797 25.211 27.2904C25.0416 27.0011 25.1928 26.8448 25.3383 26.7008C25.4688 26.5713 25.6286 26.3632 25.7738 26.1946C25.919 26.0259 25.9673 25.9054 26.0641 25.7126C26.1609 25.5198 26.1125 25.351 26.0398 25.2065C25.9672 25.0618 25.3867 23.6397 25.1448 23.0613C24.9091 22.498 24.6698 22.5742 24.4917 22.5653C24.3225 22.557 24.1288 22.5551 23.9352 22.5551C23.7417 22.5551 23.4273 22.6274 23.1611 22.9167C22.8951 23.2059 22.1452 23.9048 22.1452 25.3269C22.1452 26.7489 23.1853 28.1226 23.3305 28.3155C23.4756 28.5083 25.3775 31.4263 28.2895 32.6778C28.9819 32.9755 29.5227 33.1532 29.9444 33.2864C30.6398 33.5064 31.2726 33.4752 31.7727 33.4009C32.3305 33.3179 33.4902 32.702 33.7321 32.0271C33.974 31.3522 33.974 30.7738 33.9014 30.6533C33.8289 30.5329 33.6354 30.4606 33.3451 30.3159Z" fill="white"/>
<defs>
<linearGradient id="paint0_linear_430_12193" x1="28" y1="0" x2="28" y2="56" gradientUnits="userSpaceOnUse">
<stop stop-color="#5EFB7A"/>
<stop offset="1" stop-color="#26D044"/>
</linearGradient>
</defs>
</svg>
