<svg width="56" height="56" viewBox="0 0 56 56" fill="none" xmlns="http://www.w3.org/2000/svg">
<rect width="56" height="56" fill="#2787F5"/>
<path d="M29.1201 35.7622C20.6112 35.7622 15.7579 29.9289 15.5557 20.2222H19.8179C19.9579 27.3467 23.1001 30.3645 25.589 30.9867V20.2222H29.6023V26.3667C32.0601 26.1022 34.6423 23.3022 35.5134 20.2222H39.5268C39.1985 21.8196 38.5442 23.3321 37.6047 24.665C36.6652 25.9979 35.4608 27.1227 34.0668 27.9689C35.6228 28.7421 36.9972 29.8365 38.0993 31.1799C39.2013 32.5232 40.006 34.0851 40.4601 35.7622H36.0423C35.6347 34.3055 34.8061 33.0014 33.6605 32.0136C32.5149 31.0257 31.1032 30.3979 29.6023 30.2089V35.7622H29.1201Z" fill="white"/>
</svg>
