<svg width="56" height="56" viewBox="0 0 56 56" fill="none" xmlns="http://www.w3.org/2000/svg">
<rect width="56" height="56" fill="url(#paint0_linear_430_12188)"/>
<path fill-rule="evenodd" clip-rule="evenodd" d="M28.0008 16.3333C24.8323 16.3333 24.4346 16.3472 23.1902 16.4038C21.9481 16.4607 21.1003 16.6573 20.3585 16.9458C19.5912 17.2438 18.9403 17.6424 18.2918 18.2911C17.6428 18.9396 17.2442 19.5905 16.9453 20.3576C16.656 21.0996 16.4592 21.9477 16.4033 23.1892C16.3476 24.4336 16.333 24.8315 16.333 28C16.333 31.1685 16.3471 31.5649 16.4035 32.8093C16.4606 34.0513 16.6572 34.8991 16.9455 35.6409C17.2437 36.4082 17.6424 37.0591 18.2911 37.7076C18.9393 38.3566 19.5902 38.7562 20.3571 39.0541C21.0994 39.3427 21.9474 39.5393 23.1892 39.5962C24.4336 39.6528 24.831 39.6666 27.9993 39.6666C31.1681 39.6666 31.5645 39.6528 32.8089 39.5962C34.051 39.5393 34.8997 39.3427 35.642 39.0541C36.4091 38.7562 37.0591 38.3566 37.7073 37.7076C38.3563 37.0591 38.7549 36.4082 39.0538 35.6412C39.3406 34.8991 39.5375 34.0511 39.5959 32.8096C39.6518 31.5651 39.6663 31.1685 39.6663 28C39.6663 24.8315 39.6518 24.4339 39.5959 23.1894C39.5375 21.9474 39.3406 21.0996 39.0538 20.3578C38.7549 19.5905 38.3563 18.9396 37.7073 18.2911C37.0583 17.6422 36.4094 17.2436 35.6413 16.9458C34.8975 16.6573 34.0493 16.4607 32.8072 16.4038C31.5628 16.3472 31.1666 16.3333 27.9971 16.3333H28.0008ZM26.9542 18.4357C27.2648 18.4352 27.6114 18.4357 28.0008 18.4357C31.1158 18.4357 31.485 18.4469 32.7151 18.5028C33.8526 18.5548 34.47 18.7449 34.8813 18.9046C35.4257 19.116 35.8139 19.3688 36.222 19.7771C36.6303 20.1855 36.8831 20.5744 37.095 21.1188C37.2547 21.5296 37.445 22.1469 37.4968 23.2844C37.5527 24.5143 37.5649 24.8837 37.5649 27.9973C37.5649 31.1108 37.5527 31.4803 37.4968 32.7101C37.4448 33.8476 37.2547 34.465 37.095 34.8758C36.8836 35.4202 36.6303 35.8079 36.222 36.216C35.8136 36.6243 35.426 36.8771 34.8813 37.0885C34.4705 37.2489 33.8526 37.4385 32.7151 37.4905C31.4853 37.5464 31.1158 37.5586 28.0008 37.5586C24.8855 37.5586 24.5163 37.5464 23.2864 37.4905C22.1489 37.438 21.5315 37.248 21.12 37.0883C20.5756 36.8768 20.1867 36.6241 19.7784 36.2157C19.37 35.8074 19.1172 35.4195 18.9053 34.8748C18.7456 34.464 18.5553 33.8467 18.5035 32.7092C18.4476 31.4793 18.4364 31.1098 18.4364 27.9944C18.4364 24.8789 18.4476 24.5114 18.5035 23.2815C18.5555 22.144 18.7456 21.5267 18.9053 21.1154C19.1168 20.571 19.37 20.1821 19.7784 19.7737C20.1867 19.3654 20.5756 19.1126 21.12 18.9007C21.5313 18.7403 22.1489 18.5507 23.2864 18.4984C24.3627 18.4498 24.7798 18.4352 26.9542 18.4328V18.4357ZM34.2284 20.3729C33.4555 20.3729 32.8284 20.9992 32.8284 21.7724C32.8284 22.5453 33.4555 23.1724 34.2284 23.1724C35.0014 23.1724 35.6284 22.5453 35.6284 21.7724C35.6284 20.9995 35.0014 20.3729 34.2284 20.3729ZM28.0008 22.0087C24.692 22.0087 22.0094 24.6913 22.0094 28C22.0094 31.3087 24.692 33.9901 28.0008 33.9901C31.3095 33.9901 33.9912 31.3087 33.9912 28C33.9912 24.6913 31.3095 22.0087 28.0008 22.0087ZM28.0008 24.1111C30.1484 24.1111 31.8897 25.8521 31.8897 28C31.8897 30.1476 30.1484 31.8889 28.0008 31.8889C25.8529 31.8889 24.1118 30.1476 24.1118 28C24.1118 25.8521 25.8529 24.1111 28.0008 24.1111Z" fill="white"/>
<defs>
<linearGradient id="paint0_linear_430_12188" x1="1.86667" y1="54.1333" x2="56" y2="1.91579e-06" gradientUnits="userSpaceOnUse">
<stop stop-color="#FF6E16"/>
<stop offset="1" stop-color="#B902EB"/>
</linearGradient>
</defs>
</svg>
