<svg width="70" height="70" viewBox="0 0 70 70" fill="none" xmlns="http://www.w3.org/2000/svg">
<rect width="70" height="70" rx="35" fill="#19B9DE"/>
<g clip-path="url(#clip0)">
<path d="M34.2196 28.4441L25.3195 37.3444C25.1135 37.5502 25 37.825 25 38.118C25 38.411 25.1135 38.6858 25.3195 38.8917L25.9748 39.5471C26.4018 39.9736 27.0958 39.9736 27.5221 39.5471L34.9959 32.0733L42.4779 39.5554C42.6839 39.7613 42.9586 39.8749 43.2514 39.8749C43.5446 39.8749 43.8192 39.7613 44.0254 39.5554L44.6805 38.9C44.8865 38.6939 45 38.4193 45 38.1263C45 37.8333 44.8865 37.5585 44.6805 37.3527L35.7723 28.4441C35.5656 28.2378 35.2897 28.1244 34.9963 28.1251C34.7019 28.1244 34.4261 28.2378 34.2196 28.4441Z" fill="white"/>
</g>
<defs>
<clipPath id="clip0">
<rect width="20" height="20" fill="white" transform="translate(25 44) rotate(-90)"/>
</clipPath>
</defs>
</svg>
