<svg width="30" height="30" viewBox="0 0 30 30" fill="none" xmlns="http://www.w3.org/2000/svg">
<mask id="mask0" style="mask-type:alpha" maskUnits="userSpaceOnUse" x="0" y="0" width="30" height="30">
<circle cx="15" cy="15" r="15" fill="#C4C4C4"/>
</mask>
<g mask="url(#mask0)">
<path d="M60 0H0V30H60V0Z" fill="#00993E"/>
<path d="M60 4.28564H0V8.57134H60V4.28564Z" fill="white"/>
<path d="M60 12.8571H0V17.1428H60V12.8571Z" fill="white"/>
<path d="M60 21.4286H0V25.7143H60V21.4286Z" fill="white"/>
<path d="M22.8 0H0V12.8571H22.8V0Z" fill="#C8312A"/>
<path d="M9.63442 7.18214C9.63442 7.18214 9.43792 7.26444 9.57252 8.83304C9.68242 10.1241 10.1424 10.5447 10.1424 10.5447L10.3433 11.3439L12.2489 11.3517C12.2489 11.3517 12.2834 10.8568 12.3572 10.7003C12.5385 10.3158 13.2571 9.87634 13.5651 9.21274C13.8963 8.80824 13.7304 7.98274 14.3952 7.18594C14.7253 6.79024 14.0085 6.95774 14.0085 6.95774C13.6154 7.21844 13.4233 7.52444 13.3242 7.73824C13.2575 8.15014 12.9492 8.49454 12.9201 8.19544C12.9201 8.19544 12.8081 7.67824 12.472 6.67284C12.4387 6.37484 12.2946 5.34424 12.2638 4.55764C12.2419 4.04584 11.7939 4.01504 11.7565 4.53454L11.7024 6.59404L11.5953 4.21544C11.5498 3.54224 11.0405 3.64204 11.0184 4.19994L10.9965 6.67664L10.9037 4.27584C10.7657 3.81724 10.4031 4.08904 10.3964 4.58584L10.3346 6.92184C10.3346 6.92184 10.2565 5.64254 10.2389 5.10234C10.2223 4.77744 9.84182 4.80144 9.80592 5.26594C9.75412 5.93774 9.67262 6.48604 9.63442 7.18214Z" fill="white"/>
<path d="M10.819 2.79699L11.3984 1.01379L11.9778 2.79699L10.4609 1.69499H12.3358L10.819 2.79699Z" fill="white"/>
<path d="M15.3235 3.5083L13.8066 2.4062H15.6815L14.1646 3.5083L14.744 1.7251L15.3235 3.5083Z" fill="white"/>
<path d="M18.1888 5.62732L16.6719 4.52522H18.5468L17.0299 5.62732L17.6093 3.84412L18.1888 5.62732Z" fill="white"/>
<path d="M19.847 8.61975L18.3301 7.51765H20.205L18.6882 8.61975L19.2676 6.83655L19.847 8.61975Z" fill="white"/>
<path d="M7.46943 3.5083L8.98633 2.4062H7.11133L8.62823 3.5083L8.04883 1.7251L7.46943 3.5083Z" fill="white"/>
<path d="M4.608 5.62732L6.1249 4.52522H4.25L5.7669 5.62732L5.1874 3.84412L4.608 5.62732Z" fill="white"/>
<path d="M2.9499 8.61975L4.4668 7.51765H2.5918L4.1087 8.61975L3.5293 6.83655L2.9499 8.61975Z" fill="white"/>
</g>
</svg>
