<svg width="30" height="30" viewBox="0 0 30 30" fill="none" xmlns="http://www.w3.org/2000/svg">
<path d="M0.9375 15C0.9375 17.7656 1.73437 20.3438 3.09375 22.5H26.8594C28.2188 20.3438 29.0156 17.7656 29.0156 15C29.0156 12.2344 28.2188 9.65625 26.8594 7.5H3.09375C1.73437 9.65625 0.9375 12.2344 0.9375 15Z" fill="#F9F9F9"/>
<path d="M26.9063 7.5C24.4219 3.5625 20.0156 0.9375 15 0.9375C9.98438 0.9375 5.57812 3.5625 3.09375 7.5H26.9063Z" fill="#C94747"/>
<path d="M3.09375 22.5C5.57812 26.4375 9.98438 29.0625 15 29.0625C20.0156 29.0625 24.4219 26.4375 26.9063 22.5H3.09375Z" fill="#699635"/>
<path d="M17.9531 17.0625C17.6719 17.2968 17.3438 17.4375 16.9688 17.4843C16.0781 17.5781 15.2813 16.9218 15.1875 16.0781V14.8593C15.1875 14.5781 15.4219 14.3437 15.75 14.3437C15.9375 14.3437 16.125 14.4375 16.2187 14.5781C16.4531 13.9218 16.0781 13.2656 15.4219 13.0312C14.7656 12.7968 14.0625 13.1718 13.8281 13.8281C13.7344 14.0625 13.7344 14.3437 13.8281 14.5781C13.9688 14.3437 14.2969 14.25 14.5781 14.3906C14.7188 14.4843 14.8594 14.625 14.8594 14.8125V16.0312C14.7656 16.875 13.9688 17.5312 13.0781 17.4375C12.7031 17.3906 12.375 17.25 12.0937 17.0156C11.7656 17.8593 10.7813 18.2812 9.89063 17.9062C9.75 17.8593 9.65625 17.8125 9.51562 17.7187C9.65625 19.2187 12 18.9375 12.1875 17.4375C12.9375 18.7031 14.5312 18.3281 15 16.7812C15.4688 18.3281 17.1094 18.6562 17.8125 17.4375C18 18.8906 20.3438 19.2187 20.4844 17.7187C20.3906 17.8125 20.25 17.8593 20.1094 17.9062C19.2656 18.3281 18.2812 17.9062 17.9531 17.0625ZM14.0625 14.0156C14.1094 13.6406 14.4375 13.3125 14.8594 13.2656C15.375 13.2187 15.8438 13.5468 15.8906 14.0156C15.5156 13.9218 15.1406 14.1093 14.9531 14.3906C14.8125 14.1093 14.4375 13.9687 14.0625 14.0156Z" fill="#FFCE31"/>
<path d="M13.2188 18.75C13.2188 18.75 13.0313 18.6562 12.7031 18.7031C12.6563 18.4687 12.4688 18.2812 12.3281 18.2344C12.1875 18.375 12.0938 18.6562 12.1406 18.8437C11.9063 18.8906 11.6719 19.0312 11.6719 19.0312C12.2344 19.5469 12.8906 19.4062 13.2188 18.75Z" fill="#FFCE31"/>
<path d="M15.7969 18.6563C15.7969 18.6563 15.6562 18.5156 15.2812 18.5156C15.2812 18.2813 15.0938 18.0938 15 17.9531C14.8594 18.0938 14.7188 18.3281 14.7188 18.5156C14.4844 18.5156 14.2031 18.6563 14.2031 18.6563C14.6719 19.3125 15.375 19.2656 15.7969 18.6563Z" fill="#FFCE31"/>
<path d="M17.6719 18.1875C17.4844 18.2813 17.3438 18.5156 17.2969 18.7031C17.0625 18.6563 16.7812 18.75 16.7812 18.75C17.1563 19.4531 17.8125 19.5469 18.3281 18.9844C18.3281 18.9844 18.1875 18.8437 17.8594 18.7969C17.9062 18.5625 17.7656 18.3281 17.6719 18.1875Z" fill="#FFCE31"/>
<path d="M10.7344 19.875L10.9687 20.625C13.6406 19.875 16.4063 19.875 19.0781 20.625L19.3125 19.875C16.5 19.0781 13.5 19.0781 10.7344 19.875Z" fill="#FFCE31"/>
<path d="M14.625 10.5469L14.3906 11.25L15 10.7812L15.6094 11.25L15.375 10.5469L16.0312 10.0781H15.2344L15 9.375L14.7656 10.0781H13.9688L14.625 10.5469Z" fill="#FFCE31"/>
<path d="M11.625 11.2969L11.3438 12L12 11.5781L12.6094 12L12.375 11.2969L13.0312 10.875H12.2344L12 10.1719L11.7656 10.875H10.9688L11.625 11.2969Z" fill="#FFCE31"/>
<path d="M9.42187 13.4062L9.14062 14.1562L9.79687 13.6875L10.4063 14.1562L10.1719 13.4062L10.8281 12.9844H10.0312L9.79687 12.2812L9.5625 12.9844H8.76562L9.42187 13.4062Z" fill="#FFCE31"/>
<path d="M9 16.5937L9.60938 17.0156L9.375 16.3125L10.0312 15.8906H9.23438L9 15.1875L8.76563 15.8906H7.96875L8.57812 16.3125L8.34375 17.0156L9 16.5937Z" fill="#FFCE31"/>
<path d="M17.625 11.2969L17.3906 12L18 11.5781L18.6562 12L18.375 11.2969L19.0312 10.875H18.2344L18 10.1719L17.7656 10.875H16.9688L17.625 11.2969Z" fill="#FFCE31"/>
<path d="M19.8281 13.4062L19.5937 14.1562L20.2031 13.6875L20.8594 14.1562L20.5781 13.4062L21.2344 12.9844H20.4375L20.2031 12.2812L19.9687 12.9844H19.1719L19.8281 13.4062Z" fill="#FFCE31"/>
<path d="M21.4219 16.3125L22.0312 15.8906H21.2344L21 15.1875L20.7656 15.8906H19.9688L20.625 16.3125L20.3906 17.0156L21 16.5937L21.6563 17.0156L21.4219 16.3125Z" fill="#FFCE31"/>
</svg>
