<svg width="30" height="30" viewBox="0 0 30 30" fill="none" xmlns="http://www.w3.org/2000/svg">
<path d="M15 0.9375C9.04688 0.9375 3.98438 4.64062 1.92188 9.84375H28.0781C26.0156 4.64062 20.9531 0.9375 15 0.9375Z" fill="#42ADE2"/>
<path d="M15 29.0625C20.9531 29.0625 26.0156 25.3594 28.0781 20.1562H1.92188C3.98438 25.3594 9.04688 29.0625 15 29.0625Z" fill="#83BF4F"/>
<path d="M29.0625 15C29.0625 13.5469 28.8281 12.0938 28.4062 10.7812H1.59375C1.17188 12.0938 0.9375 13.5469 0.9375 15C0.9375 16.4531 1.17188 17.9062 1.59375 19.2188H28.4062C28.8281 17.9062 29.0625 16.4531 29.0625 15Z" fill="white"/>
<path d="M28.0781 9.84375C28.125 9.98438 28.2187 10.1719 28.2656 10.3125C28.3125 10.4531 28.3594 10.6406 28.4062 10.7812" fill="#C94747"/>
<path d="M28.2656 10.3125C28.2187 10.1719 28.125 9.98438 28.0781 9.84375H1.92187C1.875 9.98438 1.78125 10.1719 1.73437 10.3125C1.6875 10.4531 1.64062 10.6406 1.59375 10.7812H28.4062C28.3594 10.6406 28.3125 10.4531 28.2656 10.3125Z" fill="#C94747"/>
<path d="M1.73437 19.6875C1.78125 19.8281 1.875 20.0156 1.92187 20.1562H28.0781C28.125 20.0156 28.2187 19.8281 28.2656 19.6875C28.3125 19.5469 28.3594 19.3594 28.4062 19.2188H1.59375C1.64062 19.3594 1.6875 19.5469 1.73437 19.6875Z" fill="#C94747"/>
<path d="M9.5625 8.10937C8.4375 8.10937 7.54688 7.21875 7.54688 6.09375C7.54688 4.96875 8.4375 4.07812 9.5625 4.07812C9.84375 4.07812 10.0781 4.125 10.3125 4.21875C9.9375 3.9375 9.42188 3.75 8.90625 3.75C7.59375 3.75 6.5625 4.78125 6.5625 6.09375C6.5625 7.40625 7.59375 8.4375 8.90625 8.4375C9.42188 8.4375 9.9375 8.25 10.3125 7.96875C10.0781 8.0625 9.84375 8.10937 9.5625 8.10937Z" fill="white"/>
<path d="M11.5781 7.12488L11.7656 7.6405H12.2813L11.8594 7.92175L12 8.43738L11.5781 8.10925L11.1563 8.43738L11.3438 7.92175L10.9219 7.6405H11.4375L11.5781 7.12488Z" fill="white"/>
<path d="M13.5938 7.12488L13.7344 7.6405H14.2969L13.875 7.92175L14.0156 8.43738L13.5938 8.10925L13.1719 8.43738L13.3125 7.92175L12.8906 7.6405H13.4063L13.5938 7.12488Z" fill="white"/>
<path d="M15.6094 7.12488L15.75 7.6405H16.2656L15.8437 7.92175L16.0313 8.43738L15.6094 8.10925L15.1406 8.43738L15.3281 7.92175L14.9062 7.6405H15.4219L15.6094 7.12488Z" fill="white"/>
<path d="M17.5781 7.12488L17.7656 7.6405H18.2812L17.8594 7.92175L18 8.43738L17.5781 8.10925L17.1562 8.43738L17.2969 7.92175L16.875 7.6405H17.4375L17.5781 7.12488Z" fill="white"/>
<path d="M19.5938 7.12488L19.7344 7.6405H20.2969L19.8281 7.92175L20.0156 8.43738L19.5938 8.10925L19.1719 8.43738L19.3125 7.92175L18.8906 7.6405H19.4063L19.5938 7.12488Z" fill="white"/>
<path d="M13.5938 5.4375L13.7344 5.95312H14.2969L13.875 6.23437L14.0156 6.75L13.5938 6.42187L13.1719 6.75L13.3125 6.23437L12.8906 5.95312H13.4063L13.5938 5.4375Z" fill="white"/>
<path d="M15.6094 5.4375L15.75 5.95312H16.2656L15.8437 6.23437L16.0313 6.75L15.6094 6.42187L15.1406 6.75L15.3281 6.23437L14.9062 5.95312H15.4219L15.6094 5.4375Z" fill="white"/>
<path d="M17.5781 5.4375L17.7656 5.95312H18.2812L17.8594 6.23437L18 6.75L17.5781 6.42187L17.1562 6.75L17.2969 6.23437L16.875 5.95312H17.4375L17.5781 5.4375Z" fill="white"/>
<path d="M19.5938 5.4375L19.7344 5.95312H20.2969L19.8281 6.23437L20.0156 6.75L19.5938 6.42187L19.1719 6.75L19.3125 6.23437L18.8906 5.95312H19.4063L19.5938 5.4375Z" fill="white"/>
<path d="M15.6094 3.75L15.75 4.26563H16.2656L15.8437 4.54687L16.0313 5.0625L15.6094 4.73438L15.1406 5.0625L15.3281 4.54687L14.9062 4.26563H15.4219L15.6094 3.75Z" fill="white"/>
<path d="M17.5781 3.75L17.7656 4.26563H18.2812L17.8594 4.54687L18 5.0625L17.5781 4.73438L17.1562 5.0625L17.2969 4.54687L16.875 4.26563H17.4375L17.5781 3.75Z" fill="white"/>
<path d="M19.5938 3.75L19.7344 4.26563H20.2969L19.8281 4.54687L20.0156 5.0625L19.5938 4.73438L19.1719 5.0625L19.3125 4.54687L18.8906 4.26563H19.4063L19.5938 3.75Z" fill="white"/>
</svg>
